<?xml version="1.0" encoding="utf-8"?>
<!-- Generator: Adobe Illustrator 26.4.1, SVG Export Plug-In . SVG Version: 6.00 Build 0)  -->
<svg version="1.1" id="Слой_1" xmlns="http://www.w3.org/2000/svg" xmlns:xlink="http://www.w3.org/1999/xlink" x="0px" y="0px"
	 viewBox="0 0 70 30.4" style="enable-background:new 0 0 70 30.4;" xml:space="preserve">
<g class="st0">
	<path class="st1" d="M70,26.7c-0.1,0-0.1,0-0.2,0c-4.2,0-8.3,0-12.5,0c-0.2,0-0.3-0.1-0.4-0.2c-1.6-1.4-3.1-2.7-4.7-4.1
		c-0.1-0.1-0.2-0.1-0.3,0c-0.9,0.8-1.9,1.6-2.8,2.4C49,25,48.9,25,48.7,25c-1.5,0-3,0-4.6,0c-0.1,0-0.2,0-0.4,0.1
		c-0.5,0.5-1.1,0.9-1.6,1.4c-0.1,0.1-0.2,0.1-0.4,0.1c-13.9,0-27.7,0-41.6,0c-0.2,0-0.3-0.1-0.2-0.2c0-0.2,0-0.3,0-0.5
		c0-0.1,0-0.1,0.1-0.1c0.1,0,0.1,0,0.2,0c13.7,0,27.4,0,41.1,0c0.2,0,0.3,0,0.4-0.2c0.2-0.2,0.5-0.4,0.7-0.6c-0.1,0-0.2,0-0.3,0
		c-14,0-28,0-42,0c-0.1,0-0.1,0-0.2,0C0,25,0,25,0,24.9c0-0.2,0-0.4,0-0.6c0-0.1,0-0.1,0.1-0.1c0.1,0,0.1,0,0.2,0
		c14.3,0,28.7,0,43,0c0.2,0,0.3-0.1,0.5-0.2c1.9-1.6,3.7-3.2,5.6-4.8c0.1-0.1,0.2-0.1,0.3,0c0.7,0.6,1.5,1.3,2.2,1.9
		c0.1,0.1,0.2,0.1,0.2,0c1.4-1.2,2.7-2.4,4.1-3.5c0.1-0.1,0.2-0.1,0.3,0c1.1,1,2.3,2,3.4,2.9c1.4,1.2,2.8,2.4,4.2,3.6
		c0.1,0.1,0.1,0.1,0.2,0.1c1.9,0,3.8,0,5.7,0c0,0.3,0,0.6,0,0.9c-2,0-3.9,0-5.9,0c-0.1,0-0.2,0-0.3-0.1c-0.7-0.6-1.4-1.2-2.1-1.8
		c-1.7-1.5-3.4-2.9-5.1-4.4c-0.1-0.1-0.2-0.1-0.3,0c-1.1,1-2.3,2-3.4,2.9c-0.1,0.1-0.1,0.2,0,0.3c1.5,1.2,2.9,2.5,4.3,3.7
		c0.1,0.1,0.2,0.1,0.4,0.1c4.1,0,8.3,0,12.4,0C70,26,70,26.4,70,26.7z M45,24.1c1.2,0,2.3,0,3.4,0c0.1,0,0.2,0,0.3-0.1
		c0.8-0.7,1.7-1.4,2.5-2.2c0.1-0.1,0.1-0.1,0-0.2c-0.5-0.4-1-0.9-1.5-1.3c-0.1-0.1-0.2-0.1-0.3,0c-1.1,0.9-2.1,1.8-3.2,2.8
		C45.8,23.4,45.4,23.8,45,24.1z"/>
	<path class="st1" d="M6.2,3.8C6.2,3.8,6.2,3.8,6.2,3.8c2.7,0,5.5,0,8.2,0c0,0,0,0,0,0c-2.1,0-4.3,0-6.4,0C7.4,3.8,6.8,3.8,6.2,3.8z
		"/>
	<path class="st1" d="M34.2,3.8C34.2,3.8,34.2,3.8,34.2,3.8c0.9,0,1.8,0,2.7,0c0,0,0,0,0,0C36,3.8,35.1,3.8,34.2,3.8z"/>
	<path class="st1" d="M30.2,3.8C30.2,3.8,30.2,3.8,30.2,3.8c-0.9,0-1.8,0-2.7,0c0,0,0,0,0,0C28.4,3.8,29.3,3.8,30.2,3.8z"/>
	<path class="st1" d="M16.6,17.5c0.3-0.4,0.5-0.7,0.8-1.1c0.7-1,1.5-1.8,2.3-2.7c0.8-0.8,1.5-1.6,2.3-2.4c0.2-0.2,0.2-0.3,0.3-0.6
		c0-0.2,0.1-0.4,0.1-0.6c0-0.1,0-0.1,0.2-0.1c0.8,0,1.6,0,2.5,0c0.2,0,0.1,0.1,0.1,0.2c-0.2,1.1-0.4,2.2-0.6,3.3
		c-0.4,2.2-0.8,4.4-1.2,6.6c-0.1,0.4-0.2,0.9-0.2,1.3c0,0.1-0.1,0.1-0.2,0.1c-0.8,0-1.6,0-2.5,0c-0.1,0-0.1,0-0.1-0.1
		c0.4-1.9,0.7-3.8,1.1-5.7c0.1-0.5,0.2-0.9,0.3-1.4c0,0,0-0.1,0-0.1c0,0,0,0-0.1,0c-0.6,1.1-1.5,2-2.3,2.9c-1.1,1.1-2.1,2.3-3.2,3.4
		c-0.1,0.1-0.1,0.2-0.2,0.3c0,0.2-0.1,0.4-0.1,0.6c0,0.1,0,0.1-0.1,0.1c-0.8,0-1.7,0-2.5,0c-0.1,0-0.1,0-0.1-0.1
		c0.2-0.9,0.3-1.9,0.5-2.8c0.4-2.1,0.8-4.3,1.2-6.4c0.1-0.7,0.3-1.4,0.4-2.1c0-0.1,0.1-0.1,0.2-0.1c0.8,0,1.6,0,2.4,0
		c0.1,0,0.2,0,0.1,0.1c-0.4,2-0.7,4.1-1.2,6.1C16.8,16.7,16.7,17.1,16.6,17.5C16.6,17.5,16.6,17.5,16.6,17.5z"/>
	<path class="st1" d="M6.2,3.8c0.6,0,1.2,0,1.8,0c2.1,0,4.3,0,6.4,0c-0.1,0.6-0.2,1.3-0.3,1.9c0,0.1,0,0.1-0.1,0.1
		c-0.1,0-0.1,0-0.2,0c-1.7,0-3.4,0-5,0c-0.1,0-0.2,0-0.2,0.2C8.4,6.7,8.2,7.5,8.1,8.2c0,0.1,0,0.2,0.1,0.2c0.9,0,1.7,0,2.6,0
		c0.6,0,1.2,0.1,1.8,0.3c1,0.4,1.7,1.2,1.7,2.3c0,0.9-0.2,1.6-0.6,2.4c-0.4,0.8-1.2,1.3-2,1.6c-0.7,0.2-1.4,0.3-2.1,0.3
		c-1.8,0-3.6,0-5.4,0c-0.2,0-0.2-0.1-0.1-0.2c0.5-2.9,1.1-5.8,1.6-8.7C5.8,5.6,6,4.7,6.2,3.8z M8.5,13.2c0.4,0,0.9,0,1.3,0
		c0.8-0.1,1.4-0.6,1.5-1.3c0.1-0.7-0.2-1.2-0.8-1.4c-0.2-0.1-0.4-0.1-0.5-0.1c-0.7-0.1-1.5,0-2.2,0c-0.1,0-0.1,0-0.2,0.1
		c-0.2,0.9-0.3,1.7-0.5,2.6c0,0.1,0,0.2,0.2,0.2C7.7,13.2,8.1,13.2,8.5,13.2z"/>
	<path class="st1" d="M27.5,3.8c0.9,0,1.8,0,2.7,0C30,5,29.7,6.2,29.5,7.4c0,0.3-0.1,0.5-0.1,0.8c0,0.1,0,0.1,0.1,0.1
		c1.3,0,2.5,0,3.8,0c0.1,0,0.1-0.1,0.1-0.1c0.3-1.4,0.5-2.8,0.8-4.2c0,0,0-0.1,0-0.1c0.9,0,1.8,0,2.7,0c-0.1,0.7-0.2,1.3-0.4,2
		c-0.4,2.3-0.8,4.5-1.3,6.8c-0.2,0.9-0.3,1.8-0.5,2.6c0,0.1,0,0.1-0.1,0.1c-0.8,0-1.7,0-2.5,0c-0.1,0-0.1,0-0.1-0.1
		c0.3-1.5,0.6-3,0.8-4.5c0-0.2,0-0.2-0.2-0.2c-1.2,0-2.4,0-3.6,0c-0.2,0-0.2,0.1-0.2,0.2c-0.3,1.5-0.6,3-0.8,4.5
		c0,0.1,0,0.1-0.1,0.1c-0.8,0-1.7,0-2.5,0c0,0,0,0-0.1,0c0.2-1.1,0.4-2.2,0.6-3.3c0.4-2.1,0.8-4.3,1.2-6.4C27.2,5,27.4,4.4,27.5,3.8
		z"/>
	<path class="st1" d="M29.4,19.7c-0.1,0.4-0.1,0.7-0.2,1.1c0,0.2-0.1,0.4-0.1,0.6c0,0.1-0.1,0.2-0.2,0.2c-0.1,0-0.2,0-0.3,0
		c0.1-0.8,0.3-1.5,0.4-2.3c0-0.1,0.1-0.1,0.1-0.1c0.2,0,0.4,0,0.6,0c0.1,0,0.2,0,0.2,0.1c0,0.4,0.1,0.8,0.2,1.3
		c0.1,0,0.1-0.1,0.1-0.2c0.2-0.4,0.4-0.7,0.6-1.1c0-0.1,0.1-0.1,0.2-0.1c0.2,0,0.4,0,0.6,0c0.1,0,0.1,0,0.1,0.1
		c-0.1,0.7-0.3,1.5-0.4,2.2c0,0,0,0.1-0.1,0.1c-0.1,0-0.3,0-0.4,0c-0.1,0-0.1-0.1,0-0.1c0.1-0.5,0.2-0.9,0.3-1.4c0-0.1,0-0.2,0-0.3
		c-0.1,0-0.1,0.1-0.1,0.2c-0.3,0.5-0.5,1-0.8,1.5c-0.1,0.1-0.2,0.2-0.4,0.1c-0.1,0,0-0.1-0.1-0.1C29.6,20.9,29.5,20.3,29.4,19.7
		C29.4,19.7,29.4,19.7,29.4,19.7z M31,19.8C31,19.7,31,19.7,31,19.8C31,19.7,30.9,19.7,31,19.8C30.9,19.8,31,19.8,31,19.8
		C31,19.8,31,19.8,31,19.8z"/>
	<path class="st1" d="M34.2,16.3c-0.1,0.5-0.2,1-0.3,1.5c0.1-0.1,0.2-0.2,0.2-0.3c0.2-0.3,0.5-0.5,0.7-0.8c0,0,0.1-0.1,0.1-0.1
		c0-0.3,0.3-0.2,0.5-0.2c0,0,0.1,0,0.1,0c-0.1,0.3-0.1,0.6-0.2,1c-0.1,0.4-0.2,0.9-0.2,1.3c0,0.1-0.1,0.2-0.2,0.2
		c-0.4,0-0.4,0-0.3-0.4c0.1-0.3,0.1-0.7,0.2-1.1c-0.3,0.5-0.8,0.8-1,1.2c-0.1,0.2-0.3,0.2-0.5,0.2c-0.1,0-0.1,0-0.1-0.1
		c0.1-0.7,0.3-1.4,0.4-2.1c0-0.1,0.1-0.2,0.2-0.1C34,16.3,34.1,16.3,34.2,16.3z"/>
	<path class="st1" d="M40,20.2c-0.4,0.4-0.7,0.8-1,1.1c-0.1,0.1,0,0.2-0.2,0.2c-0.4,0-0.4,0-0.3-0.4c0.1-0.6,0.2-1.2,0.4-1.8
		c0-0.1,0-0.1,0.2-0.1c0.4,0,0.4,0,0.3,0.4c-0.1,0.3-0.1,0.7-0.2,1c0,0,0.1,0,0.1,0c0.3-0.4,0.6-0.7,0.9-1c0,0,0.1-0.1,0.1-0.1
		c0-0.1,0-0.2,0.1-0.2c0.1,0,0.3,0,0.4,0c0.1,0,0,0.1,0,0.2c-0.1,0.5-0.2,1-0.3,1.4c0,0.2-0.1,0.4-0.1,0.7c0,0.1-0.1,0.1-0.2,0.1
		c-0.4,0-0.4,0-0.3-0.4C39.9,20.9,39.9,20.6,40,20.2z M40,20.2C40,20.2,40,20.2,40,20.2C40,20.2,40,20.2,40,20.2
		C40,20.2,40,20.2,40,20.2C40,20.2,40,20.2,40,20.2z"/>
	<path class="st1" d="M42,21.6c0.1-0.3,0.1-0.6,0.2-0.8c0-0.1,0-0.1-0.1-0.1c-0.2,0-0.4,0-0.5,0.3c-0.1,0.2-0.2,0.4-0.3,0.6
		c-0.1,0.1-0.1,0.1-0.2,0.1c-0.1,0-0.3,0-0.4,0c0.2-0.3,0.4-0.6,0.6-0.9c0,0,0.1-0.1,0-0.2c-0.5-0.4-0.2-1.1,0.3-1.2
		c0.1,0,0.2,0,0.3,0c0.4,0,0.7,0,1.1,0c0.1,0,0.1,0,0.1,0.1c-0.1,0.7-0.3,1.4-0.4,2.1c0,0.1,0,0.1-0.1,0.1
		C42.3,21.6,42.1,21.6,42,21.6z M42.3,19.6c-0.2,0-0.4,0-0.6,0c-0.2,0-0.3,0.2-0.2,0.3c0,0.2,0.1,0.2,0.3,0.2c0.5,0,0.5,0,0.6-0.4
		C42.3,19.7,42.3,19.7,42.3,19.6z"/>
	<path class="st1" d="M47.8,18.6c0.2-0.3,0.4-0.6,0.6-0.9c0-0.1,0.1-0.1,0-0.1c-0.5-0.4-0.2-1.1,0.3-1.2c0.2-0.1,0.3-0.1,0.5-0.1
		c0.3,0,0.6,0,0.9,0c0.1,0,0.2,0,0.1,0.1c-0.1,0.7-0.3,1.4-0.4,2.1c0,0.1-0.1,0.2-0.2,0.2c-0.4,0-0.4,0-0.3-0.4c0-0.1,0-0.2,0-0.3
		c0-0.1,0.1-0.2,0-0.3c-0.2-0.1-0.4,0-0.5,0.1c-0.1,0.2-0.3,0.4-0.4,0.6c-0.1,0.1-0.2,0.2-0.3,0.2C48,18.7,47.9,18.7,47.8,18.6
		C47.8,18.6,47.8,18.6,47.8,18.6z M49.2,16.7c-0.1,0-0.2,0-0.3,0c-0.1,0-0.2,0.1-0.2,0.2c0,0.2,0,0.3,0.3,0.4
		c0.5,0.1,0.5,0.1,0.6-0.3C49.5,16.7,49.5,16.7,49.2,16.7z"/>
	<path class="st1" d="M36.1,21.6c0.1-0.8,0.3-1.5,0.4-2.3c0-0.1,0-0.1,0.1-0.1c0.4-0.1,0.5,0,0.4,0.4c0,0.2-0.1,0.4-0.1,0.5
		c0.1,0.1,0.3,0,0.5,0c0.2,0,0.3,0,0.3-0.2c0-0.2,0.1-0.4,0.1-0.6c0-0.1,0.1-0.2,0.2-0.1c0.4,0,0.4,0,0.3,0.4
		c-0.1,0.6-0.2,1.2-0.3,1.8c0,0.2-0.1,0.2-0.2,0.2c-0.3,0-0.3,0-0.3-0.3c0-0.2,0.1-0.4,0.1-0.6c0-0.1,0-0.1-0.1-0.1
		c-0.2,0-0.4,0-0.5,0c-0.1,0-0.1,0-0.1,0.1c0,0.3-0.1,0.5-0.1,0.8c0,0.1,0,0.1-0.1,0.1C36.3,21.6,36.2,21.6,36.1,21.6z"/>
	<path class="st1" d="M44.4,16.3c-0.1,0.3-0.1,0.5-0.2,0.8c0,0.1,0,0.1,0.1,0.1c0.2,0,0.4,0,0.5,0c0.1,0,0.1,0,0.1-0.1
		c0-0.2,0.1-0.5,0.1-0.7c0-0.1,0.1-0.1,0.1-0.1c0.4,0,0.4,0,0.3,0.4c-0.1,0.6-0.2,1.2-0.3,1.8c0,0.1-0.1,0.2-0.2,0.2
		c-0.3,0-0.3,0-0.3-0.3c0-0.2,0.1-0.4,0.1-0.5c0-0.1,0-0.2-0.1-0.1c0,0-0.1,0-0.1,0c-0.2,0-0.4-0.1-0.5,0c-0.1,0.1-0.1,0.3-0.1,0.5
		c0,0,0,0.1,0,0.1c-0.1,0.4-0.1,0.4-0.5,0.4c-0.1,0-0.1,0-0.1-0.1c0.1-0.7,0.3-1.5,0.4-2.2c0-0.1,0-0.1,0.1-0.1
		C44.1,16.3,44.3,16.3,44.4,16.3z"/>
	<path class="st1" d="M33.1,17.4c0,0.3-0.1,0.6-0.3,0.9c-0.3,0.4-0.7,0.5-1.1,0.3c-0.4-0.1-0.6-0.5-0.6-0.9c0-0.4,0.1-0.7,0.3-1
		c0.3-0.4,0.7-0.6,1.2-0.5C32.9,16.4,33.1,16.8,33.1,17.4z M32.6,17.3c0-0.4-0.1-0.5-0.3-0.6c-0.2,0-0.4,0.1-0.5,0.3
		c-0.1,0.3-0.2,0.6-0.1,0.9c0,0.3,0.2,0.4,0.5,0.4c0.2,0,0.3-0.1,0.3-0.3C32.5,17.7,32.6,17.5,32.6,17.3z"/>
	<path class="st1" d="M31.7,21.6c0.1-0.8,0.3-1.5,0.4-2.3c0-0.1,0-0.1,0.1-0.1c0.5,0,1,0,1.5,0c0.1,0,0.1,0.1,0.1,0.2
		c-0.1,0.7-0.3,1.4-0.4,2.1c0,0.1,0,0.1-0.1,0.1c-0.4,0-0.4,0-0.3-0.4c0.1-0.5,0.2-0.9,0.3-1.4c0-0.1,0-0.1-0.1-0.1
		c-0.6,0-0.6,0-0.7,0.5c-0.1,0.4-0.2,0.9-0.2,1.3c0,0.1-0.1,0.2-0.2,0.2C31.9,21.6,31.8,21.6,31.7,21.6z"/>
	<path class="st1" d="M28.5,20.2c0,0.4-0.1,0.7-0.4,1c-0.2,0.2-0.4,0.3-0.6,0.4c-0.6,0.1-1.1-0.3-1.1-0.9c0-0.4,0.1-0.7,0.3-1
		c0.3-0.4,0.7-0.6,1.2-0.5C28.2,19.3,28.5,19.7,28.5,20.2z M27.9,20.2c0-0.3-0.1-0.5-0.3-0.5c-0.2-0.1-0.4,0.1-0.6,0.3
		c-0.1,0.3-0.2,0.5-0.2,0.8c0,0.3,0.1,0.4,0.3,0.4c0.2,0,0.4-0.1,0.5-0.3C27.8,20.7,27.9,20.4,27.9,20.2z"/>
	<path class="st1" d="M24.9,20.2c0.2-0.3,0.5-0.5,0.7-0.8c0.1-0.2,0.3-0.2,0.5-0.2c0.1,0,0.2,0,0.3,0c-0.2,0.2-0.4,0.5-0.6,0.7
		c-0.1,0.1-0.1,0.2-0.1,0.3c0.1,0.4,0.3,0.9,0.4,1.4c0,0,0,0,0,0c-0.5,0-0.5,0-0.6-0.5c-0.1-0.2-0.1-0.4-0.2-0.6
		c-0.3,0.3-0.6,0.5-0.6,0.9c0,0.1-0.1,0.2-0.2,0.2c-0.4,0-0.4,0-0.3-0.3c0.1-0.6,0.2-1.3,0.4-1.9c0-0.1,0.1-0.1,0.2-0.1
		c0.4,0,0.4,0,0.3,0.4C25,19.8,25,20,24.9,20.2C24.9,20.2,24.9,20.3,24.9,20.2C24.9,20.3,24.9,20.3,24.9,20.2z"/>
	<path class="st1" d="M39.1,18.6c0,0-0.1,0-0.1,0c-0.5,0-0.9,0-1.4,0c-0.1,0-0.2,0-0.1-0.1c0.1-0.7,0.3-1.4,0.4-2.1
		c0-0.1,0.1-0.1,0.1-0.1c0.5,0,1,0,1.4,0c0.1,0,0.1,0,0.1,0.1c-0.1,0.3-0.1,0.3-0.4,0.3c-0.2,0-0.4,0-0.7,0c-0.1,0-0.2,0-0.2,0.2
		c0,0.1,0,0.2-0.1,0.3c0.3,0,0.5,0,0.8,0c0.1,0,0.1,0,0.1,0.1c-0.1,0.3-0.1,0.3-0.4,0.3c-0.2,0-0.3,0-0.5,0c-0.2,0-0.2,0.1-0.2,0.2
		c-0.1,0.4-0.1,0.4,0.3,0.4c0.2,0,0.4,0,0.5,0c0.2,0,0.2,0,0.2,0.2c0,0,0,0.1,0,0.1c0,0,0,0,0,0C39.1,18.5,39.1,18.6,39.1,18.6
		C39.1,18.6,39.1,18.6,39.1,18.6z"/>
	<path class="st1" d="M47.8,18.6C47.8,18.6,47.8,18.6,47.8,18.6c-0.2,0.1-0.3,0.1-0.5,0.1c-0.1,0-0.1,0-0.1-0.1
		c-0.1-0.4-0.1-0.4-0.5-0.4c-0.3,0-0.5,0-0.5,0.3c0,0.1,0,0.2-0.1,0.2c-0.1,0-0.3,0-0.4,0c-0.1,0,0-0.1,0-0.1
		c0.3-0.6,0.6-1.2,0.9-1.9c0.1-0.3,0.3-0.4,0.6-0.4c0.2,0,0.3,0,0.3,0.2c0.1,0.7,0.2,1.3,0.3,2C47.7,18.5,47.6,18.6,47.8,18.6z
		 M46.9,16.8C46.9,16.8,46.9,16.8,46.9,16.8c-0.1,0.2-0.2,0.3-0.3,0.5c-0.2,0.4-0.2,0.4,0.3,0.4c0.1,0,0.1,0,0.1-0.1
		C47,17.3,46.9,17.1,46.9,16.8z"/>
	<path class="st1" d="M33.7,21.6c0.4-0.8,0.8-1.5,1.1-2.3c0-0.1,0.1-0.1,0.2-0.1c0.1,0,0.3,0,0.4,0c0.1,0,0.1,0,0.1,0.1
		c0.1,0.7,0.2,1.5,0.3,2.2c0,0.1,0,0.1-0.1,0.1c0,0,0,0-0.1,0c-0.4,0-0.4,0-0.5-0.4c0-0.1,0-0.2-0.2-0.1c-0.2,0-0.4,0-0.5,0
		c-0.1,0-0.2,0-0.2,0.1C34.2,21.6,34.2,21.6,33.7,21.6z M35.1,19.8C35,19.8,35,19.8,35.1,19.8c-0.2,0.3-0.3,0.6-0.4,0.9
		c0.2,0,0.4,0,0.6,0C35.1,20.3,35.1,20,35.1,19.8z"/>
	<path class="st1" d="M24.9,17.6c0-0.3,0.1-0.7,0.4-1c0.3-0.3,0.7-0.5,1.1-0.4c0.4,0.1,0.6,0.4,0.6,0.8c0,0,0,0,0,0
		c-0.1,0.1-0.3,0-0.4,0.1c-0.1,0-0.1,0-0.1-0.1c0-0.3-0.1-0.4-0.3-0.4c-0.2,0-0.4,0.1-0.5,0.3c-0.1,0.2-0.2,0.5-0.2,0.8
		c0,0.3,0.1,0.4,0.3,0.5c0.2,0.1,0.4,0,0.5-0.3c0-0.1,0-0.2,0.1-0.1c0.1,0,0.3,0,0.4,0.1c0,0,0,0.1,0,0.1c-0.2,0.5-0.7,0.8-1.3,0.7
		C25.1,18.6,24.9,18.2,24.9,17.6z"/>
	<path class="st1" d="M41.9,18.7c-0.2,0-0.4,0-0.5,0c-0.1,0-0.1,0-0.1-0.1c0.1-0.7,0.3-1.4,0.4-2.2c0-0.1,0.1-0.1,0.2-0.1
		c0.4,0,0.4,0,0.3,0.4c0,0.2-0.1,0.4-0.1,0.5c0.1,0.1,0.3,0,0.4,0c0.1,0,0.2,0,0.3,0c0.2,0,0.3,0.2,0.4,0.4c0.1,0.5-0.2,1-0.7,1.1
		C42.4,18.7,42.2,18.7,41.9,18.7C41.9,18.7,41.9,18.7,41.9,18.7z M42.2,18.2c0.1,0,0.2,0,0.2,0c0.2,0,0.3-0.2,0.3-0.4
		c0-0.2-0.1-0.2-0.3-0.2c-0.4,0-0.4,0-0.4,0.4C41.9,18.2,41.9,18.2,42.2,18.2z"/>
	<path class="st1" d="M29.1,18.7c-0.3,0-0.3,0-0.3-0.3c0.1-0.7,0.3-1.3,0.4-2c0-0.1,0-0.1,0.1-0.1c0.4,0,0.8,0,1.1,0
		c0.3,0,0.4,0.2,0.5,0.4c0.1,0.5-0.2,0.9-0.7,1c-0.2,0-0.4,0-0.6,0c-0.1,0-0.2,0-0.2,0.1c0,0.2-0.1,0.3-0.1,0.5
		C29.4,18.6,29.3,18.7,29.1,18.7z M29.8,17.4C29.8,17.4,29.8,17.4,29.8,17.4c0.1,0,0.2,0,0.3,0c0.1,0,0.2-0.1,0.2-0.3
		c0-0.1,0-0.2-0.1-0.3c-0.2-0.1-0.4-0.1-0.6-0.1c-0.1,0-0.1,0.2-0.1,0.3c0,0.1,0,0.2-0.1,0.3c0,0.1,0,0.1,0.1,0.1
		C29.7,17.4,29.8,17.4,29.8,17.4z"/>
	<path class="st1" d="M39.1,18.6C39.1,18.6,39.1,18.6,39.1,18.6c0.1-0.1,0.1-0.1,0.1-0.1c0,0,0,0,0,0c0.1,0,0.1-0.1,0.1-0.2
		c0.3-0.6,0.6-1.3,0.9-1.9c0.1-0.1,0.1-0.2,0.2-0.2c0.5,0,0.5,0,0.6,0.5c0.1,0.6,0.1,1.2,0.2,1.8c0,0.1,0,0.1-0.1,0.1
		c-0.4,0-0.4,0-0.5-0.4c0-0.4-0.1-0.8-0.1-1.2c0-0.1,0-0.2-0.1-0.3c-0.1,0.3-0.2,0.5-0.4,0.8c-0.1,0.3-0.3,0.6-0.4,0.9
		c0,0.1-0.1,0.2-0.2,0.2C39.3,18.7,39.2,18.7,39.1,18.6z"/>
	<path class="st1" d="M37.6,16.3c-0.1,0.5-0.1,0.5-0.5,0.4c-0.2,0-0.2,0-0.2,0.2c-0.1,0.5-0.2,1-0.3,1.5c0,0.2-0.1,0.2-0.3,0.2
		c-0.3,0-0.3,0-0.3-0.3c0.1-0.5,0.2-1,0.3-1.5c0-0.1,0-0.1-0.1-0.1c0,0-0.1,0-0.2,0c-0.4,0-0.4,0-0.3-0.4c0-0.1,0-0.1,0.1-0.1
		c0.5,0,1,0,1.5,0C37.5,16.3,37.5,16.3,37.6,16.3z"/>
	<path class="st1" d="M27.7,16.7c-0.2,0-0.4,0-0.6,0c0-0.1,0-0.3,0-0.4c0-0.1,0.1-0.1,0.1-0.1c0.5,0,1,0,1.5,0c0.1,0,0.1,0,0.1,0.1
		c-0.1,0.3-0.1,0.3-0.4,0.3c-0.2,0-0.3,0-0.3,0.3c-0.1,0.5-0.2,1-0.3,1.5c0,0.1-0.1,0.2-0.2,0.2c-0.4,0-0.4,0-0.3-0.4
		C27.5,17.8,27.6,17.3,27.7,16.7z"/>
	<path class="st1" d="M31,19.8C31,19.8,31,19.8,31,19.8C31,19.8,30.9,19.8,31,19.8C30.9,19.7,31,19.7,31,19.8
		C31,19.7,31,19.7,31,19.8z"/>
	<path class="st1" d="M40,20.2C40,20.2,40,20.2,40,20.2C40,20.2,40,20.2,40,20.2C40,20.2,40,20.2,40,20.2C40,20.2,40,20.2,40,20.2z"
		/>
	<path class="st1" d="M24.9,20.2C24.9,20.3,24.9,20.3,24.9,20.2C24.9,20.3,24.9,20.2,24.9,20.2C24.9,20.2,24.9,20.2,24.9,20.2z"/>
</g>
</svg>
