<?xml version="1.0" encoding="utf-8"?>
<!-- Generator: Adobe Illustrator 26.4.1, SVG Export Plug-In . SVG Version: 6.00 Build 0)  -->
<svg version="1.1" id="Слой_1" xmlns="http://www.w3.org/2000/svg" xmlns:xlink="http://www.w3.org/1999/xlink" x="0px" y="0px"
	 viewBox="0 0 453.4 210.6" style="enable-background:new 0 0 453.4 210.6;" xml:space="preserve">

<g class="st0">
	<path class="st1" d="M118.3,11.4c0,19.2,0,37.8,0,55.6c12.1-4.3,24.2-7.8,35.6-12.1c3.6-1.4,3.6,0,3.6,2.9c0,14.3,0,29.2,0,43.5
		c0,2.9,0,3.6-3.6,3.6c-12.1,0-25,0-37.1,0c-2.9,0-3.6-1.4-3.6-3.6c0-9.3,0-17.8,0-27.8c-7.8,2.1-15.7,4.3-22.8,6.4
		c-2.9,0.7-2.1,3.6-2.1,5.7c0,24.2,0,48.5,0,72.7c0,4.3-0.7,6.4-5.7,5.7c-11.4-0.7-22.8,0-34.2,0c-5,0-5.7,1.4-5.7,5.7
		c0,10.7,0,21.4,0,31.4c0,4.3,0.7,5.7,5,5c54.9,0,110.5,0,165.4,0c1.4,0,2.1,0,3.6,0c1.4,0.7,5-1.4,5,2.1c0,3.6-2.9,2.1-5,2.1
		c-58.5,0-116.2,0-174.7,0c-4.3,0-5-1.4-4.3-5c0-12.1,0-24.2,0-36.4c0-5.7-1.4-6.4-6.4-5.7c-9.3,0.7-17.8,0-27.1,0
		c-3.6,0-4.3-0.7-4.3-4.3c0-17.1,0-34.9,0-52c0-2.9,1.4-5,3.6-5.7c10-2.1,18.5-7.1,28.5-8.6c2.9-0.7,5.7-2.1,5-6.4
		c-0.7-6.4,0-12.8,0-19.2c0-2.1,0.7-4.3,2.1-5.7c15-11.4,29.2-22.8,44.2-34.9c0.7-0.7,1.4-1.4,2.9-0.7c0,16.4,0,32.8,0,49.2
		c8.6-1.4,15.7-5.7,22.8-7.1c2.9-0.7,2.1-2.9,2.1-5c0-19.2,0-37.8,0-57c0-2.1-0.7-3.6,0.7-5.7c7.8,7.1,15.7,14.3,23.5,21.4
		c22.8,20.7,45.6,41.3,68.4,62c4.3,3.6,7.8,7.1,12.1,10.7c2.9,2.1,4.3,4.3,2.9,8.6C186.8,72.7,152.6,42.8,118.3,11.4z M83.4,84.1
		c-0.7,0-1.4,0-2.1,0c-10.7,3.6-21.4,7.1-32.1,10.7c-2.9,0.7-6.4,0-6.4,5.7c0.7,19.2,0,37.8,0,57c0,3.6,1.4,4.3,4.3,4.3
		c10.7,0,21.4,0,31.4,0c3.6,0,5-0.7,5-5c0-13.5,0-27.1,0-40.6C83.4,104.8,83.4,94.1,83.4,84.1z M38.5,97.7c-10.7,3.6-20,7.1-29.9,10
		c-2.9,0.7-2.9,2.1-2.9,4.3c0,15,0,29.9,0,44.9c0,2.9,0.7,4.3,3.6,4.3c8.6,0,17.1,0,25.7,0c2.9-0.7,3.6-1.4,3.6-4.3
		C38.5,137.6,38.5,117.6,38.5,97.7z M83.4,34.9c-10.7,8.6-20,17.1-29.9,23.5C44.2,64.2,41.3,72,42.8,82c0,1.4,0,2.9,0,4.3
		c-0.7,5,1.4,5,5,3.6c10.7-3.6,20.7-7.1,31.4-10.7c1.4-0.7,3.6-0.7,3.6-3.6C83.4,62.7,83.4,49.9,83.4,34.9z M153.3,61.3
		c-10.7,2.9-20.7,6.4-30.7,9.3c-2.9,0.7-5,2.9-5,6.4c0.7,7.1,0,13.5,0,20.7c0,2.9,0.7,3.6,3.6,3.6c9.3,0,18.5,0,28.5,0
		c2.1,0,3.6,0,3.6-2.9C153.3,86.3,153.3,74.1,153.3,61.3z"/>
	<path class="st1" d="M448.4,155.4c0,7.1,0,15,0,22.1c0,2.1-0.7,4.3,2.9,3.6c2.1,0,2.1,1.4,2.1,2.9c0,2.9,0,6.4,0,9.3
		c0,2.1-1.4,2.9-2.9,2.9c-2.1,0-3.6-0.7-2.9-2.9c0.7-5.7-2.1-5.7-6.4-5.7c-3.6,0-7.1,0-10.7,0c-4.3,0-9.3-0.7-7.8,6.4
		c0.7,2.1-1.4,2.1-2.9,2.1c-2.1,0-3.6,0-3.6-2.9c0-3.6,0-6.4,0-10c0-1.4,0-2.1,1.4-2.9c5,0,5-4.3,5-7.1c0.7-14.3,1.4-28.5,2.1-42.8
		c0-2.1,0.7-2.9,2.9-2.9c0.7,0,0.7,0,1.4,0c6.4,0,15-2.1,19.2,0.7c4.3,3.6,0.7,12.1,1.4,18.5C449.1,150.4,448.4,152.6,448.4,155.4z
		 M426.3,181.1c5,0,8.6,0,12.1,0c2.9,0,3.6-0.7,3.6-3.6c0-13.5,0-27.1,0-40.6c0-3.6-1.4-4.3-4.3-3.6c-2.9,0.7-7.1-2.1-7.1,3.6
		c0,9.3-1.4,18.5-1.4,27.8C429.1,169.7,429.1,175.4,426.3,181.1z"/>
	<path class="st1" d="M161.1,169.7c4.3-13.5,8.6-26.4,13.5-39.9c1.4-3.6,3.6-1.4,5.7-1.4c2.1-0.7,2.1,1.4,2.1,2.9
		c0,17.8,0,35.6,0,53.5c0,2.1-0.7,3.6-2.9,3.6c-2.9,0-2.9-2.1-2.9-3.6c0-13.5,0-27.1-0.7-40.6c-1.4,3.6-2.9,6.4-3.6,10
		c-2.9,10.7-7.1,21.4-10,32.1c-0.7,2.9-2.9,2.1-5,2.9c-3.6,0-2.9-2.1-2.9-3.6c0-17.1,0-34.9,0-52c0-2.1,0-3.6,2.9-3.6
		s2.9,1.4,2.9,3.6C160.4,144.7,160.4,157.5,161.1,169.7L161.1,169.7z"/>
	<path class="st1" d="M294.4,157.5c0,5.7,0,10.7,0,16.4c0,8.6-4.3,14.3-12.1,14.3c-9.3,0.7-15-4.3-15.7-12.8
		c-0.7-12.1-0.7-24.2,0-36.4c0.7-8.6,7.1-12.8,15-12.1c8.6,0.7,12.1,5,12.1,13.5C294.4,146.9,294.4,151.8,294.4,157.5z M273.7,157.5
		c0,5.7,0,11.4,0,16.4c0,5,2.1,7.1,6.4,7.8c5,0.7,7.1-2.1,7.1-6.4c0-12.1,0-23.5,0-35.6c0-3.6-2.1-7.1-7.1-6.4
		c-4.3,0.7-7.1,2.9-7.1,7.1C273.7,146.1,273.7,151.8,273.7,157.5z"/>
	<path class="st1" d="M391.4,128.3c3.6-1.4,4.3,0.7,5,3.6c3.6,12.8,5,25,7.1,37.8c0.7,5,2.9,9.3,2.9,14.3c0,1.4,2.1,2.9-0.7,3.6
		c-2.1,0-4.3,0.7-5-1.4c-0.7-1.4-1.4-2.9-1.4-4.3c0.7-6.4-2.9-6.4-7.1-6.4c-1.4,0-2.1,0-3.6,0c-3.6-0.7-6.4,0.7-6.4,5
		c0,0.7,0,1.4-0.7,2.1c-1.4,2.1,0,6.4-5,5.7c-4.3-1.4-0.7-4.3-0.7-5.7c2.1-16.4,5.7-32.8,9.3-49.2
		C386.4,129,387.1,126.9,391.4,128.3z M397.1,168.9c-2.1-10-2.9-20.7-7.1-32.8c-1.4,8.6-2.9,15.7-3.6,22.8c-0.7,3.6-5,7.1-0.7,10
		C388.5,171.1,392.8,170.4,397.1,168.9z"/>
	<path class="st1" d="M200.3,157.5c0,5.7,0,10.7,0,16.4c0,5,2.1,7.8,7.1,8.6c5,0.7,6.4-3.6,7.1-7.1c0.7-2.1,0-4.3,0-6.4
		c0-2.1,0.7-3.6,3.6-3.6c2.9,0,2.9,1.4,2.9,3.6c0,7.1,0.7,15-7.8,18.5c-7.8,3.6-16.4,0-18.5-7.8c-2.9-9.3-0.7-19.2-1.4-29.2
		c0-5,0-10,1.4-15c1.4-5.7,7.8-8.6,14.3-7.8c7.1,0.7,11.4,5,11.4,11.4c0,2.1,0,4.3,0,6.4c0,2.9-1.4,2.9-2.9,2.9
		c-2.1,0-2.9-0.7-2.9-2.9c0-2.1,0-4.3-0.7-6.4c-0.7-3.6-2.9-6.4-7.1-5.7c-4.3,0.7-6.4,2.9-6.4,7.1
		C199.6,146.1,200.3,151.8,200.3,157.5z"/>
	<path class="st1" d="M340,157.5c0-8.6,0-17.1,0-25c0-3.6,0.7-5,4.3-4.3c4.3,0.7,8.6,0,12.8,0c4.3,0,7.1,2.9,8.6,7.1
		c1.4,5,1.4,10.7,0.7,15.7c-0.7,9.3-4.3,12.1-13.5,12.1c-5.7,0-6.4,2.1-6.4,7.1c0,5,0,9.3,0,14.3c0,2.9-1.4,2.9-3.6,3.6
		c-2.1,0-3.6-0.7-3.6-3.6C340.7,175.4,340,166.8,340,157.5z M347.2,145.4c0,3.6,0,6.4,0,10c0,0.7,0,2.1,1.4,2.9
		c5,2.1,10.7-0.7,11.4-5.7c0.7-4.3,0.7-8.6,0-12.8c-1.4-5.7-5.7-5.7-10-5.7c-5,0.7-2.1,4.3-2.9,6.4
		C346.5,141.9,347.2,144,347.2,145.4z"/>
	<path class="st1" d="M136.9,162.5c-9.3,4.3-14.3,3.6-18.5-2.1c-1.4-1.4-2.1-2.9-2.1-5c0-7.8,0-16.4,0-24.2c0-2.1,0.7-3.6,2.9-3.6
		c2.9,0,2.9,1.4,2.9,3.6c0,6.4,0,12.1,0,18.5c0,3.6,0.7,7.1,4.3,8.6c5,2.9,10.7,0,10.7-5.7c0-7.1,0-13.5,0-20.7
		c0-2.9,0.7-4.3,3.6-4.3s3.6,1.4,3.6,3.6c0,17.1,0,34.9,0,52c0,2.9-0.7,4.3-3.6,4.3s-3.6-1.4-3.6-4.3
		C136.9,176.8,136.9,169.7,136.9,162.5z"/>
	<path class="st1" d="M305.1,158.3c0-8.6,0-17.1,0-25.7c0-3.6,0.7-4.3,4.3-4.3c5.7,0,11.4,0,16.4,0c2.1,0,4.3-0.7,4.3,2.9
		c0,2.9-1.4,2.9-3.6,2.9c-0.7,0-1.4,0-1.4,0c-11.4,0-11.4,0-11.4,11.4c0,12.8,0,25,0,37.8c0,2.9,0,5-4.3,5c-4.3,0-3.6-2.9-3.6-5
		C305.1,174.7,305.1,166.1,305.1,158.3z"/>
	<path class="st1" d="M247.4,161.1c0,7.8,0,15,0,22.8c0,2.1,0,4.3-3.6,4.3c-2.9,0-3.6-1.4-3.6-4.3c0-15,0-29.9,0-44.9
		c0-5-1.4-6.4-5.7-5.7c-0.7,0-2.1,0-2.9,0c-2.1,0-2.9-0.7-2.9-2.9c0-2.1,0.7-2.9,2.9-2.9c8.6,0,16.4,0,25,0c1.4,0,2.1,0.7,2.1,2.1
		c0,1.4,0,2.9-2.1,2.9h-0.7c-2.9,0.7-6.4-1.4-7.8,0.7c-1.4,2.1-0.7,5.7-0.7,9.3C247.4,149,247.4,155.4,247.4,161.1z"/>
</g>
</svg>
