<?xml version="1.0" encoding="utf-8"?>
<!-- Generator: Adobe Illustrator 26.4.1, SVG Export Plug-In . SVG Version: 6.00 Build 0)  -->
<svg version="1.1" id="Слой_1" xmlns="http://www.w3.org/2000/svg" xmlns:xlink="http://www.w3.org/1999/xlink" x="0px" y="0px"
	 viewBox="0 0 59 32" style="enable-background:new 0 0 59 32;" xml:space="preserve">
<polygon class="st0" points="17.4,16 17.3,16 16.3,16.9 15.9,17.2 15.9,15.8 16.6,15.2 17.3,15.9 "/>
<path class="st0" d="M21.5,10.6c-2.8-2.8-7.4-2.8-10.2,0s-2.8,7.4,0,10.2c2.8,2.8,7.4,2.8,10.2,0C24.3,18,24.3,13.5,21.5,10.6
	C21.5,10.6,21.5,10.6,21.5,10.6z M18,10c0.4,0,0.8,0.3,0.8,0.8c0,0.4-0.3,0.8-0.8,0.8s-0.8-0.3-0.8-0.8C17.2,10.3,17.5,10,18,10
	L18,10z M14.8,10c0.4,0,0.8,0.3,0.8,0.8c0,0.4-0.3,0.8-0.8,0.8c-0.4,0-0.8-0.3-0.8-0.8C14,10.3,14.3,10,14.8,10L14.8,10z M17.3,20.7
	v-2.9l-0.6-0.7l-0.1,0.1l-0.7,0.6v2.9h-1.7v-7.1L13.6,13h2.3v2.1l0.4-0.3l0.2-0.2l0.8-0.6l0.3-0.2l0.3,0.4l0.7,0.8l0.3,0.4l0,0
	l-1,0.8l1,1.2v2.7l0.6,0.6L17.3,20.7z"/>
<path class="st0" d="M16.6,29.7c-2.2,0-4.3-0.5-6.2-1.5l4.5-4.4c-0.5-0.1-0.9-0.2-1.4-0.3l-4.2,4.2l0,0c0,0,0,0,0,0l-0.9,0.9
	c0.3,0.2,0.7,0.4,1.1,0.6c2.2,1.2,4.6,1.8,7.1,1.8c5.1,0,9.5-2.5,12.2-6.4h-1.5C24.8,27.7,21,29.7,16.6,29.7z"/>
<path class="st0" d="M8.7,18.6c-0.2-0.4-0.3-0.9-0.3-1.4l-4.3,4.3l0,0c0,0,0,0,0,0c-0.8-1.7-1.2-3.6-1.2-5.5C2.9,8.4,9,2.3,16.6,2.3
	c4.8,0,9,2.5,11.5,6.2h1.4c-2.6-4.4-7.4-7.4-12.9-7.4C8.4,1.1,1.7,7.8,1.7,16c0,2.2,0.5,4.4,1.5,6.4c0.2,0.4,0.4,0.7,0.6,1.1l0,0
	L8.7,18.6z"/>
<path class="st0" d="M9.3,20.1l-3.9,3.9l0,0l-0.9,0.9c0.2,0.3,0.5,0.6,0.8,0.9l0,0l0.9-0.9l3.9-3.8C9.8,20.7,9.6,20.4,9.3,20.1z"/>
<path class="st0" d="M12.1,22.8c-0.3-0.2-0.7-0.4-1-0.7L7.2,26l0,0l-0.9,0.9c0.3,0.3,0.6,0.5,0.9,0.8l0,0L12.1,22.8z"/>
<path class="st0" d="M29.3,13.7h-1v2.5h-1.4V10h1.4v2.5h1L31,10h1.5l-2,3l2.1,3.2h-1.6L29.3,13.7z"/>
<path class="st0" d="M38,15.1v1.2h-4.8V10h4.7v1.2h-3.3v1.3h2.9v1.1h-2.9v1.4L38,15.1z M34.2,9.3c-0.2-0.2-0.2-0.6,0-0.9
	c0.1-0.1,0.3-0.2,0.4-0.2c0.3,0,0.6,0.3,0.6,0.6S35,9.5,34.7,9.5l0,0C34.5,9.5,34.3,9.4,34.2,9.3z M36,9.3c-0.2-0.2-0.2-0.6,0-0.9
	c0.1-0.1,0.3-0.2,0.5-0.2c0.2,0,0.3,0.1,0.4,0.2c0.2,0.2,0.2,0.6,0,0.9c-0.1,0.1-0.3,0.2-0.4,0.2C36.3,9.5,36.1,9.4,36,9.3L36,9.3z"
	/>
<path class="st0" d="M44.6,10v6.2h-1.4v-2.5h-2.8v2.5H39V10h1.4v2.4h2.8V10H44.6z"/>
<path class="st0" d="M45.9,10h1.4v4l3-4h1.3v6.2h-1.4v-4l-3,4h-1.4L45.9,10z"/>
<path class="st0" d="M57.3,11.2h-3l0,5h-1.4V10h4.4L57.3,11.2z"/>
<path class="st0" d="M27.8,22.7c-0.4-0.2-0.7-0.5-1-0.9c-0.5-0.8-0.5-1.8,0-2.7c0.2-0.4,0.6-0.7,1-0.9c0.4-0.2,0.9-0.3,1.4-0.3
	c0.4,0,0.8,0.1,1.2,0.2c0.3,0.1,0.6,0.4,0.9,0.7l-0.7,0.7c-0.3-0.4-0.8-0.6-1.3-0.6c-0.3,0-0.6,0.1-0.8,0.2
	c-0.2,0.1-0.4,0.3-0.6,0.6c-0.3,0.5-0.3,1.1,0,1.7c0.1,0.2,0.3,0.4,0.6,0.6c0.3,0.1,0.5,0.2,0.8,0.2c0.5,0,0.9-0.2,1.3-0.6l0.7,0.7
	c-0.2,0.3-0.5,0.5-0.9,0.7C30,22.9,29.6,23,29.2,23C28.7,23,28.2,22.9,27.8,22.7z"/>
<path class="st0" d="M33.7,20.9h-0.8v2h-1.2v-5h1.2v2h0.8l1.3-2h1.2l-1.6,2.4l1.7,2.6H35L33.7,20.9z"/>
<path class="st0" d="M41.1,20.8c0.2,0.2,0.2,0.5,0.2,0.8c0,0.4-0.2,0.8-0.5,1c-0.3,0.2-0.8,0.4-1.4,0.4h-2.5v-5h2.3
	c0.6,0,1,0.1,1.4,0.3c0.3,0.2,0.5,0.5,0.5,1c0,0.2-0.1,0.5-0.2,0.7c-0.1,0.2-0.3,0.3-0.5,0.4C40.7,20.4,40.9,20.6,41.1,20.8z M38,20
	h1.1c0.3,0,0.4-0.1,0.6-0.2c0.1-0.1,0.2-0.3,0.2-0.5c0-0.2-0.1-0.3-0.2-0.5c-0.1-0.1-0.3-0.2-0.6-0.2H38V20z M40.1,21.4
	c0-0.4-0.3-0.6-0.8-0.6H38v1.3h1.3C39.9,22.1,40.1,21.9,40.1,21.4L40.1,21.4z"/>
<path class="st0" d="M43.1,22.7c-0.4-0.2-0.7-0.5-1-0.9c-0.5-0.8-0.5-1.8,0-2.7c0.2-0.4,0.6-0.7,1-0.9c0.9-0.4,1.9-0.4,2.8,0
	c1.2,0.7,1.7,2.2,1.1,3.5c-0.2,0.4-0.6,0.8-1.1,1.1C45,23.1,43.9,23.1,43.1,22.7z M45.3,21.8c0.2-0.1,0.4-0.3,0.6-0.6
	c0.3-0.5,0.3-1.1,0-1.7c-0.1-0.2-0.3-0.4-0.6-0.6c-0.5-0.3-1.1-0.3-1.6,0c-0.2,0.1-0.4,0.3-0.6,0.6c-0.3,0.5-0.3,1.1,0,1.7
	c0.1,0.2,0.3,0.4,0.6,0.6C44.2,22.1,44.8,22.1,45.3,21.8z"/>
<path class="st0" d="M54.5,17.9v5h-6.6v-5h1.2V22h1.6v-4.1h1.2V22h1.6v-4.1H54.5z"/>
</svg>
