<?xml version="1.0" encoding="utf-8"?>
<!-- Generator: Adobe Illustrator 26.4.1, SVG Export Plug-In . SVG Version: 6.00 Build 0)  -->
<svg version="1.1" id="Слой_1" xmlns="http://www.w3.org/2000/svg" xmlns:xlink="http://www.w3.org/1999/xlink" x="0px" y="0px"
	 viewBox="0 0 119.2 129.5" style="enable-background:new 0 0 119.2 129.5;" xml:space="preserve">

<g>
	<path class="st0" d="M59.8,6c-0.7,0-1.2,0.6-1.7,1c-19,14.4-38,28.8-57,43.2c-0.3,0.2-0.6,0.5-1.1,0.8c0-2,0-3.8,0-5.7
		c0-0.5,0.4-0.7,0.7-0.9c11.8-9,23.7-18,35.5-27C43.8,11.9,51.4,6.2,59,0.4c0.2-0.1,0.3-0.3,0.4-0.4c0.2,0,0.3,0,0.5,0
		c-0.1,0.5,0.5,0.3,0.6,0.6c-0.7,0.1-0.6,0.6-0.6,1C59.8,3.1,59.8,4.6,59.8,6z"/>
	<path class="st1" d="M0.1,80.3C2,78.4,4.3,77,6.4,75.4c7.6-5.8,15.3-11.6,23-17.4c0.1-0.1,0.2-0.1,0.3-0.2
		c9.5,7.2,19,14.4,28.5,21.5c0.4,0.3,1,0.5,0.9,1.1c-0.3,0-0.5,0.2-0.7,0.4c-3,2.2-5.9,4.5-8.9,6.7c-5.1,3.8-10.1,7.6-15.2,11.4
		c-1.6,1.2-3.1,2.5-4.8,3.5c-1.1-0.8-2.2-1.6-3.2-2.4C17.6,93.5,8.8,86.9,0.1,80.3z M29.9,63.5c-0.9,0.4-1.6,1.2-2.4,1.7
		c-1.2,0.7-1.9,1.8-2.3,3.2c-1.7,5.1-3.6,10.1-5.3,15.2c-0.3,1-0.6,1.2-1.5,0.5c-1.9-1.5-3.9-3-5.9-4.5c-2-1.5-1.9-1.4-3.9,0
		c-0.8,0.6-0.8,0.9,0,1.5c6.3,4.7,12.7,9.5,19,14.3c2,1.5,2,1.5,4.1-0.1c0.6-0.5,0.8-0.7,0-1.2c-2.3-1.6-4.5-3.3-6.7-5
		c-0.3-0.3-0.8-0.4-0.9-1c6.3-1.1,12.4-2.3,18.6-3.2c3.3-0.5,5.7-2,8.2-4.4c-2.2,0.3-4.1,0.6-6,0.9c-7,1.1-14,2.3-21,3.4
		c-0.9,0.2-1.1-0.1-0.8-1c1.1-3,2.1-6,3.1-9C27.5,71.1,28.8,67.3,29.9,63.5c0.1,0,0.1,0,0.1-0.1C30,63.5,30,63.5,29.9,63.5z"/>
	<path class="st2" d="M30.2,57.5c5.4-4.1,10.7-8.2,16.1-12.3c4.2-3.2,8.3-6.3,12.5-9.6c0.7-0.5,1.1-0.5,1.7,0
		c6.4,4.9,12.8,9.8,19.2,14.7c3.2,2.4,6.3,4.8,9.5,7.2c-0.2,0.2-0.5,0.3-0.7,0.5C79.2,65,70,72,60.8,79c-0.8,0.6-1.3,0.8-2.3,0.1
		C49.1,71.8,39.6,64.7,30.2,57.5z M81.2,57.8c-0.3-0.3-0.5-0.5-0.8-0.7C73.6,52,66.8,46.8,60,41.6c-0.7-0.5-1.1-0.4-1.7,0.1
		c-6.4,5-12.8,10-19.2,15c-0.9,0.7-0.8,1,0,1.6c6.4,4.8,12.7,9.7,19.1,14.5c1.8,1.4,1.8,1.3,3.6,0c0.9-0.6,0.9-0.9,0-1.6
		c-5.8-4.4-11.6-8.8-17.4-13.2c-0.5-0.4-1-0.6-0.1-1.2c4.7-3.6,9.3-7.2,14-10.8c0.7-0.5,1.1-0.6,1.8,0c5.5,4.2,11,8.4,16.5,12.6
		c2.1,1.6,2.2,1.6,4.2-0.2C80.8,58.1,81,58,81.2,57.8z"/>
	<path class="st3" d="M30.2,57.5c9.5,7.1,18.9,14.3,28.4,21.5c0.9,0.7,1.5,0.5,2.3-0.1c9.2-7,18.5-14,27.7-21
		c0.2-0.2,0.5-0.3,0.7-0.5c0.1,0.1,0.2,0.2,0.3,0.3C80,65.1,70.4,72.3,60.9,79.5c-0.8,0.6-0.7,0.8,0,1.4c5.4,4.1,10.8,8.2,16.3,12.3
		c4.2,3.1,8.3,6.3,12.5,9.4c0,1.2,0,2.5,0,3.7c0,7.7,0,15.4,0,23.1c-0.5,0.4-0.7-0.1-1-0.3c-9.6-7.2-19.1-14.4-28.7-21.6
		c-0.2-0.2-0.5-0.3-0.7-0.4c-0.4-0.5-0.2-1.2-0.2-1.7c0-8.2,0-16.5-0.1-24.7c0.1-0.7-0.5-0.8-0.9-1.1c-9.5-7.2-19-14.4-28.5-21.5
		C29.9,57.8,30,57.6,30.2,57.5z"/>
	<path class="st4" d="M59.1,80.5c0,8.2,0,16.5,0.1,24.7c0,0.6-0.2,1.2,0.2,1.7c-9.5,7.2-19,14.5-28.5,21.7c-0.4,0.3-0.8,0.8-1.4,0.8
		c0-9,0-17.9,0-26.9c1.7-1,3.2-2.3,4.8-3.5c5.1-3.8,10.1-7.6,15.2-11.4c3-2.2,5.9-4.5,8.9-6.7C58.6,80.7,58.8,80.5,59.1,80.5z"/>
	<path class="st5" d="M29.5,102.5c0,9,0,17.9,0,26.9c-7-5.3-14-10.5-20.9-15.8c-2.6-2-5.2-3.9-7.8-5.9c-0.4-0.3-0.7-0.6-0.7-1.2
		C0,98,0,89.4,0,80.8c0-0.2,0.1-0.3,0.1-0.5c8.7,6.6,17.4,13.2,26.1,19.8C27.3,100.9,28.4,101.7,29.5,102.5z"/>
	<path class="st6" d="M89.7,129.4c0-7.7,0-15.4,0-23.1c0-1.2,0-2.5,0-3.7c4.6-3.5,9.1-7,13.7-10.4c5.2-4,10.5-7.9,15.7-11.8
		c0,0.6,0.1,1.1,0.1,1.7c0,8.1,0,16.2,0,24.2c0,0.7-0.2,1.2-0.8,1.6c-9.4,7.1-18.8,14.2-28.3,21.4C90,129.3,89.9,129.3,89.7,129.4z"
		/>
	<path class="st1" d="M119.1,80.3c-5.2,3.9-10.5,7.9-15.7,11.8c-4.6,3.5-9.1,6.9-13.7,10.4c-4.2-3.1-8.3-6.2-12.5-9.4
		c-5.4-4.1-10.8-8.2-16.3-12.3c-0.7-0.6-0.9-0.8,0-1.4c9.6-7.2,19.1-14.4,28.6-21.7c3.6,2.7,7.1,5.3,10.7,8
		c6,4.6,12.1,9.1,18.1,13.7C118.6,79.7,119,79.9,119.1,80.3z M112.5,80.4c0-0.4-0.3-0.4-0.4-0.6c-1.2-0.9-2.5-1.8-3.6-2.8
		c-1-0.9-1.7-0.9-2.6,0c-0.6,0.6-1.2,0.6-1.9,0c-5.3-4-10.6-7.9-15.8-11.9c-0.6-0.5-1-0.5-1.7,0c-4.7,3.7-9.4,7.3-14.2,10.9
		c-0.9,0.7-0.8,1,0,1.6c3.9,2.9,7.9,5.8,11.8,8.8c2.4,1.9,3.5,4,1.5,6.7c-0.3,0.5-0.2,0.7,0.2,0.9c1.2,0.9,2.4,1.7,3.5,2.7
		c0.7,0.6,1.2,0.5,1.7,0c0.6-0.6,1.9-1,1.9-1.8c0-0.5-1.2-1.1-1.9-1.6c-0.9-0.5-0.8-0.8,0-1.4c4.5-3.4,9.1-6.9,13.6-10.4
		c2.3-1.8,2.3-1.8,4.8,0c0.3,0.2,0.6,0.8,1.1,0.4C111.1,81.5,111.8,81,112.5,80.4z"/>
	<path class="st7" d="M59.8,16.4c-0.5-0.1-0.7,0.3-1,0.5c-19.3,14.7-38.7,29.3-58,44c-0.2,0.2-0.4,0.3-0.8,0.6c0-2,0-3.8,0-5.6
		c0-0.6,0.4-0.7,0.8-1C8.9,48.8,16.9,42.6,25,36.5c11.3-8.5,22.5-17.1,33.8-25.6c0.4-0.3,0.8-0.9,1.3-0.2c-0.4,0.3-0.3,0.7-0.3,1.1
		C59.8,13.3,59.8,14.9,59.8,16.4z"/>
	<path class="st8" d="M59.8,26.5c-0.6-0.1-0.8,0.4-1.2,0.7C39.5,41.7,20.3,56.3,1.1,70.8c-0.3,0.2-0.6,0.6-1.1,0.6
		c0-1.8,0-3.7,0-5.5c0-0.5,0.4-0.6,0.7-0.9c15.2-11.5,30.3-23,45.5-34.5c4.2-3.2,8.4-6.4,12.7-9.6c0.3-0.2,0.6-0.9,1,0
		C59.9,22.8,59.8,24.7,59.8,26.5z"/>
	<path class="st8" d="M59.8,26.5c0-1.9,0-3.7,0-5.6c0.5-0.1,0.8,0.3,1.1,0.5c16.5,12.5,33,25,49.5,37.6c2.6,2,5.2,4,7.8,5.9
		c0.6,0.5,0.9,1,0.9,1.8c-0.1,1.5,0,3.1,0,4.6c-0.3,0.2-0.5-0.1-0.7-0.2C99.1,56.4,79.6,41.6,60.2,26.9C60,26.8,59.9,26.7,59.8,26.5
		z"/>
	<path class="st9" d="M59.8,6c0-1.4,0-2.9,0-4.3c0-0.5,0-1,0.6-1c2,1.5,3.9,3,5.9,4.4C66.4,6,67,6.2,67.8,6.2
		c1.9,1.3,3.7,2.7,5.5,4.2c-0.1,0.9,0.5,0.9,1.1,0.9c1.8,1.4,3.7,2.8,5.5,4.2C79.9,16,80.3,16,80.7,16c3.9,2.9,7.8,5.8,11.6,8.8
		c0.1,0.1,0.2,0.2,0.3,0.2c0.1,0,0.1,0,0.2,0.1c0,0.6,0.3,0.7,0.8,0.6c0,0,0,0,0,0c0,0.5,0.3,0.5,0.7,0.5c1.9,1.5,3.9,2.9,5.8,4.4
		c0,0.9,0.5,1.2,1.4,1.1c1.5,1.2,3.1,2.3,4.6,3.5c-0.1,0.9,0.4,0.9,1.1,0.8c1,0.7,1.9,1.5,2.9,2.2c0.1,0.1,0.2,0.2,0.3,0.3
		c0.2,0.1,0.3,0.2,0.5,0.3c-0.1,0.6,0.3,0.6,0.7,0.6c2.1,1.4,4,2.9,5.9,4.5c0,0.3-0.1,0.7,0.4,0.3c0.3,0.2,0.6,0.5,1,0.7
		c0.1,0.1,0.1,0.1,0.2,0.2c0.2,0.2,0.1,0.5,0,0.7c-0.1,0.1-0.3,0.1-0.4,0.2c-0.1,0.3,0.2,0.3,0.4,0.3c0.1,0.7,0.1,1.4,0,2.2
		c-0.8,0.3-0.6,1.2-1,1.7c-0.4-0.3-0.8-0.6-1.2-0.9c0.1-0.6-0.3-0.6-0.7-0.6c-1.7-1.3-3.5-2.6-5.2-4c0.1-0.6-0.3-0.6-0.7-0.6
		c0,0,0,0,0,0c0-0.7-0.4-0.8-1-0.7c-1-0.6-1.8-1.3-2.7-2c0-0.7-0.2-0.9-0.9-0.7c-0.9-0.5-1.7-1.1-2.4-1.8c0-0.5-0.3-0.5-0.7-0.5
		c-0.9-0.5-1.7-1.1-2.4-1.8c0-0.6-0.3-0.6-0.7-0.6c-0.3-0.1-0.5-0.3-0.7-0.5c-0.1-0.1-0.2-0.1-0.3-0.2c-0.6-0.3-1-0.7-1.4-1.1
		c0.1-0.6-0.3-0.6-0.7-0.6c-0.9-0.6-1.7-1.3-2.6-1.9c-0.1-0.1-0.2-0.2-0.3-0.2c-0.7-0.5-1.4-1.1-2.1-1.6c0-0.5-0.3-0.6-0.7-0.6
		c-1.9-1.3-3.7-2.7-5.5-4.2c0.1-0.6-0.3-0.6-0.8-0.6c-0.2-0.1-0.3-0.2-0.5-0.3c0.1-0.8-0.5-0.9-1.1-0.8c0,0-0.1-0.1-0.1-0.1
		c-0.1-0.1-0.2-0.2-0.3-0.2c-1.5-1-2.9-2.1-4.3-3.2c0.1-0.6-0.3-0.6-0.7-0.6c-0.1,0-0.1,0-0.2-0.1c0-0.6-0.3-0.7-0.8-0.6
		c-0.9-0.5-1.6-1.1-2.4-1.8c0.1-1-0.7-1.1-1.4-1.1c-1.5-1.1-3-2.3-4.6-3.4c0.1-1.1-0.7-1.1-1.4-1.1C64.3,9.6,62.1,7.9,59.8,6z"/>
	<path class="st9" d="M59.8,16.4c0-1.5,0-3.1,0-4.6c0-0.4-0.1-0.8,0.3-1.1c2.4,1.8,4.8,3.6,7.1,5.4c0,0.6,0.3,0.6,0.7,0.6
		c1.3,0.8,2.4,1.7,3.5,2.7c0.1,0.1,0.2,0.1,0.3,0.2c0.6,0.3,1.1,0.7,1.6,1.2c0,0.8,0.6,0.9,1.2,0.9c0.7,0.4,1.4,0.9,2,1.5
		c-0.1,0.8,0.5,0.9,1.1,0.8c0.1,0.1,0.2,0.2,0.3,0.2c0,0.7,0.4,0.9,1,0.8c0.4,0.1,0.7,0.4,0.9,0.7c0,0.7,0.4,0.8,1,0.8
		c0.7,0.5,1.4,1.1,2.1,1.6c0,0.7,0.4,0.9,1,0.8c0,0,0,0,0,0c-0.1,0.6,0.3,0.5,0.7,0.5c1.8,1.3,3.5,2.7,5.3,4c0,0.6,0.3,0.6,0.7,0.6
		c0.4,0.2,0.9,0.5,1.2,0.9c0,0.5,0.3,0.5,0.7,0.5c1.5,1.1,3,2.3,4.6,3.4c-0.1,0.6,0.3,0.6,0.7,0.6c2.1,1.4,4,2.9,5.9,4.5
		c0,0.5,0.2,0.6,0.6,0.5c1.3,1,2.6,2,4,3c-0.1,0.9,0.6,0.9,1.2,0.9c0.5,0.4,1,0.7,1.4,1.1c0,1,0.7,1,1.4,1.1c1.5,1.1,3,2.3,4.6,3.4
		c0,1,0.7,1,1.4,1.1c0.2,0.1,0.4,0.3,0.6,0.4c-0.8,0.9-0.3,2-0.3,2.9c-0.1,1.7,0,1.7-1.5,1c-0.2-0.1-0.5-0.1-0.7-0.1
		c-0.2-0.1-0.3-0.2-0.5-0.3c0.1-1-0.7-1.1-1.4-1.1c-1.1-0.8-2.2-1.7-3.3-2.5c0.1-0.6-0.3-0.6-0.7-0.6c-0.9-0.6-1.8-1.2-2.6-1.9
		c-0.1-0.1-0.2-0.1-0.3-0.2c-1.2-0.8-2.4-1.7-3.5-2.7c0-0.2,0-0.4-0.2-0.5c-0.1-0.1-0.3,0-0.4,0.2c-2.1-1.4-4-2.9-6-4.5
		c-0.2-1.1-1-1.4-1.9-1.5c-0.2-0.1-0.3-0.2-0.5-0.3c-0.1-1-0.3-1.1-1-0.7c-1-0.7-1.9-1.4-2.9-2.2c0-1.1-0.8-1.3-1.7-1.3
		c-0.3-0.1-0.5-0.2-0.6-0.5c-0.1-0.1-0.2-0.2-0.3-0.2c-0.1-0.1-0.1-0.1-0.2-0.2c0-0.4,0-1-0.7-0.5c-1.3-0.8-2.4-1.7-3.6-2.7
		c-0.1-0.1-0.2-0.1-0.3-0.2c-0.2-0.1-0.3-0.2-0.5-0.3c0.1-0.6-0.3-0.6-0.7-0.6c-0.5-0.2-0.8-0.5-1.2-0.9c0.1-0.6-0.3-0.6-0.7-0.6
		c-0.8-0.6-1.6-1.2-2.4-1.8c0-0.3,0.2-0.8-0.4-0.4c-0.2-0.1-0.3-0.2-0.5-0.4c-0.1-1.1-0.8-1.3-1.7-1.3c-1.4-1.1-2.9-2.1-4.3-3.2
		c0-0.9-0.5-1.2-1.3-1c-0.7-0.6-1.5-1.1-2.2-1.7c0-0.5-0.3-0.5-0.7-0.5c-0.2-0.1-0.3-0.2-0.5-0.4c-0.1-0.8-0.1-0.8-0.7-0.5
		c-0.5-0.4-1-0.7-1.5-1.1c0.1-0.6-0.3-0.6-0.8-0.6c-1.1-0.7-2.1-1.5-3-2.3c0-0.1-0.1-0.1-0.2-0.1C60.4,16.8,60.1,16.6,59.8,16.4z"/>
	<path class="st7" d="M116.4,59.3c0.2,0,0.5,0,0.7,0.1c1.5,0.7,1.5,0.7,1.5-1c0-1-0.4-2,0.3-2.9c0.4,1.9,0,3.9,0.2,6
		C118.1,60.7,117.2,60.1,116.4,59.3z"/>
	<path class="st0" d="M118.1,50.2c0.4-0.5,0.3-1.4,1-1.7c0,0.8,0,1.6,0,2.5C118.7,50.8,118.3,50.6,118.1,50.2z"/>
	<path class="st7" d="M95.6,43.5c1,0.1,1.7,0.4,1.9,1.5C96.8,44.6,96.2,44.1,95.6,43.5z"/>
	<path class="st7" d="M89.6,39c0.9,0,1.6,0.2,1.7,1.3C90.8,39.9,90.2,39.4,89.6,39z"/>
	<path class="st7" d="M75.8,28.5c0.9,0,1.6,0.2,1.7,1.3C76.9,29.3,76.3,28.9,75.8,28.5z"/>
	<path class="st0" d="M101.4,31.7c-0.9,0.2-1.3-0.2-1.4-1.1C100.5,31,101,31.4,101.4,31.7z"/>
	<path class="st0" d="M66.7,11.3c0.7,0,1.5,0.1,1.4,1.1C67.6,12,67.1,11.7,66.7,11.3z"/>
	<path class="st0" d="M72.7,15.8c0.7,0,1.5,0.1,1.4,1.1C73.6,16.5,73.2,16.2,72.7,15.8z"/>
	<path class="st7" d="M114.5,57.9c0.7,0.1,1.5,0.1,1.4,1.1C115.5,58.6,115,58.2,114.5,57.9z"/>
	<path class="st0" d="M67.8,6.2c-0.8,0-1.3-0.2-1.4-1.1C66.9,5.4,67.4,5.7,67.8,6.2z"/>
	<path class="st7" d="M118.4,55c-0.7-0.1-1.5-0.1-1.4-1.1C117.5,54.2,117.9,54.6,118.4,55z"/>
	<path class="st7" d="M112.4,50.4c-0.7-0.1-1.4-0.1-1.4-1.1C111.5,49.7,112,50.1,112.4,50.4z"/>
	<path class="st7" d="M70.2,24.2c0.8-0.2,1.3,0.1,1.3,1C71,24.9,70.6,24.6,70.2,24.2z"/>
	<path class="st7" d="M94.2,42.5c0.6-0.4,0.8-0.3,1,0.7C94.8,43,94.5,42.7,94.2,42.5z"/>
	<path class="st0" d="M74.4,11.2c-0.6,0-1.2,0-1.1-0.9C73.7,10.6,74,10.9,74.4,11.2z"/>
	<path class="st7" d="M74.6,21.7c-0.6,0-1.2-0.1-1.2-0.9C73.8,21.1,74.2,21.4,74.6,21.7z"/>
	<path class="st7" d="M109.6,48.3c-0.6,0-1.3,0-1.2-0.9C108.8,47.7,109.2,48,109.6,48.3z"/>
	<path class="st0" d="M107.1,36c-0.7,0.1-1.2,0.1-1.1-0.8C106.4,35.5,106.7,35.7,107.1,36z"/>
	<path class="st0" d="M82.8,23.5c0.6,0,1.1,0,1.1,0.8C83.5,24,83.2,23.8,82.8,23.5z"/>
	<path class="st7" d="M84,28.9c-0.6,0.1-1,0-1-0.8C83.4,28.4,83.7,28.6,84,28.9z"/>
	<path class="st7" d="M77.7,24c-0.6,0.1-1.1,0-1.1-0.8C77,23.5,77.4,23.8,77.7,24z"/>
	<path class="st0" d="M109.2,43.5c0.5,0,1,0,1,0.7C109.8,44.1,109.5,43.9,109.2,43.5z"/>
	<path class="st0" d="M105.7,40.9c0.7-0.3,0.9,0,0.9,0.7C106.3,41.3,106,41.1,105.7,40.9z"/>
	<path class="st7" d="M80.9,26.5c-0.6,0.1-1-0.1-1-0.8C80.3,25.9,80.7,26.2,80.9,26.5z"/>
	<path class="st7" d="M79,25.1c-0.6,0.1-1-0.1-1-0.8C78.3,24.5,78.7,24.8,79,25.1z"/>
	<path class="st7" d="M66,21.1c0.6-0.3,0.6-0.2,0.7,0.5C66.5,21.4,66.3,21.3,66,21.1z"/>
	<path class="st7" d="M87.8,37.6c0.7-0.4,0.7,0.1,0.7,0.5C88.2,37.9,88,37.8,87.8,37.6z"/>
	<path class="st0" d="M93.6,25.8c-0.5,0.1-0.8,0-0.8-0.6C93.1,25.3,93.4,25.5,93.6,25.8z"/>
	<path class="st0" d="M76.5,18.7c0.5-0.1,0.8,0,0.8,0.6C77,19.2,76.7,19,76.5,18.7z"/>
	<path class="st0" d="M94.3,26.3c-0.4,0-0.7,0-0.7-0.5C93.8,25.9,94.1,26,94.3,26.3z"/>
	<path class="st0" d="M116.2,48.8c0.4,0,0.8,0,0.7,0.6C116.6,49.2,116.3,49.1,116.2,48.8z"/>
	<path class="st0" d="M102.6,38.5c0.4,0,0.7,0,0.7,0.5C103,38.9,102.8,38.8,102.6,38.5z"/>
	<path class="st0" d="M99.5,36.1c0.4,0,0.8,0,0.7,0.6C99.9,36.5,99.6,36.4,99.5,36.1z"/>
	<path class="st7" d="M97.9,39.4c-0.4,0-0.8,0-0.7-0.6C97.4,39,97.7,39.2,97.9,39.4z"/>
	<path class="st0" d="M111.5,39.4c-0.4,0-0.8,0-0.7-0.6C111,39,111.3,39.2,111.5,39.4z"/>
	<path class="st0" d="M84.4,24.7c0.4,0,0.8,0,0.8,0.6C84.9,25,84.6,24.8,84.4,24.7z"/>
	<path class="st7" d="M92.6,35.4c-0.4,0-0.7,0-0.7-0.5C92.2,34.9,92.4,35.1,92.6,35.4z"/>
	<path class="st7" d="M84.7,29.4c-0.4,0-0.8,0-0.7-0.5C84.2,29,84.5,29.2,84.7,29.4z"/>
	<path class="st0" d="M80.7,16c-0.4,0-0.8,0-0.7-0.6C80.2,15.6,80.4,15.8,80.7,16z"/>
	<path class="st0" d="M96.3,33.7c0.4,0,0.8,0,0.7,0.6C96.8,34.1,96.6,33.9,96.3,33.7z"/>
	<path class="st0" d="M110.2,44.3c0.4-0.1,0.8,0,0.7,0.6C110.7,44.6,110.4,44.5,110.2,44.3z"/>
	<path class="st7" d="M82.7,33.7c0.4,0,0.8,0,0.7,0.6C83.2,34.1,83,33.9,82.7,33.7z"/>
	<path class="st7" d="M68,16.7c-0.4,0-0.8,0-0.7-0.6C67.5,16.3,67.8,16.5,68,16.7z"/>
	<path class="st7" d="M90.7,33.9c-0.4,0-0.8,0-0.7-0.6C90.2,33.6,90.5,33.7,90.7,33.9z"/>
	<path class="st0" d="M90.6,29.4c0.4,0,0.8,0,0.7,0.6C91.1,29.8,90.9,29.6,90.6,29.4z"/>
	<path class="st7" d="M63.8,19.4c0.4,0,0.8,0,0.8,0.6C64.3,19.8,64.1,19.6,63.8,19.4z"/>
	<path class="st7" d="M103.5,49.5c0.1-0.1,0.2-0.3,0.4-0.2c0.1,0.1,0.1,0.4,0.2,0.5C103.8,49.9,103.6,49.8,103.5,49.5z"/>
	<path class="st7" d="M80.8,32.3c0.4,0,0.8,0,0.7,0.6C81.3,32.7,81,32.5,80.8,32.3z"/>
	<path class="st0" d="M77.4,19.4c0.4,0,0.8,0,0.7,0.6C77.9,19.8,77.6,19.7,77.4,19.4z"/>
	<path class="st7" d="M110.4,54.8c0.4,0,0.8,0,0.7,0.6C110.9,55.2,110.7,55,110.4,54.8z"/>
	<path class="st7" d="M67.2,22c0.4,0,0.7,0,0.7,0.5C67.7,22.3,67.5,22.2,67.2,22z"/>
	<path class="st7" d="M104.5,44.4c-0.4,0.1-0.6,0-0.6-0.5C104,44,104.3,44.2,104.5,44.4z"/>
	<path class="st0" d="M117.9,44.2c-0.5,0.4-0.4-0.1-0.4-0.3C117.6,44,117.8,44.1,117.9,44.2z"/>
	<path class="st0" d="M119.1,46.4c-0.2,0-0.4,0-0.4-0.3c0-0.1,0.2-0.1,0.4-0.2C119.1,46.1,119.1,46.2,119.1,46.4z"/>
	<path class="st7" d="M78,30.2c0.6-0.4,0.4,0.1,0.4,0.4C78.3,30.4,78.1,30.3,78,30.2z"/>
	<path class="st0" d="M92.6,25.1c-0.1-0.1-0.2-0.2-0.3-0.2C92.4,24.9,92.5,25,92.6,25.1z"/>
	<path class="st0" d="M93.5,31.6c0.1,0.1,0.2,0.2,0.3,0.2C93.7,31.7,93.6,31.6,93.5,31.6z"/>
	<path class="st7" d="M107.6,52.6c0.1,0.1,0.2,0.1,0.3,0.2C107.8,52.8,107.7,52.7,107.6,52.6z"/>
	<path class="st7" d="M71.8,19.6c-0.1-0.1-0.2-0.1-0.3-0.2C71.6,19.5,71.7,19.5,71.8,19.6z"/>
	<path class="st0" d="M110.3,38.5c-0.1-0.1-0.2-0.2-0.3-0.3C110.1,38.3,110.2,38.4,110.3,38.5z"/>
	<path class="st0" d="M82.5,23.2c0.1,0.1,0.2,0.2,0.3,0.2C82.7,23.4,82.6,23.3,82.5,23.2z"/>
	<path class="st7" d="M60.6,17c0.1,0,0.1,0.1,0.2,0.1C60.7,17.1,60.7,17,60.6,17z"/>
	<path class="st0" d="M119.1,45.2c-0.1-0.1-0.1-0.1-0.2-0.2C119,45,119.1,45,119.1,45.2z"/>
	<path class="st7" d="M88.7,38.3c0.1,0.1,0.2,0.2,0.3,0.2C88.9,38.4,88.8,38.3,88.7,38.3z"/>
	<path class="st7" d="M83.9,34.7c0.1,0.1,0.2,0.1,0.3,0.2C84.1,34.8,84,34.7,83.9,34.7z"/>
	<path class="st0" d="M98.5,35.4c0.1,0.1,0.2,0.1,0.3,0.2C98.7,35.5,98.6,35.5,98.5,35.4z"/>
	<path class="st10" d="M29.9,63.5c0,0,0.1-0.1,0.1-0.1C30,63.5,30,63.5,29.9,63.5C30,63.6,29.9,63.5,29.9,63.5z"/>
	<path class="st1" d="M89.6,89.3c-0.3-2.5-1.8-4.1-3.7-5.5c-2.8-2.1-5.6-4.4-8.4-6.5c-0.7-0.5-0.9-0.8-0.1-1.5c3-2.2,6-4.5,8.9-6.8
		c0.5-0.4,0.9-0.5,1.5-0.1c4.6,3.4,9.2,6.8,13.8,10.3c0.4,0.3,0.9,0.5,0.2,1c-4,3-8,6.1-12,9.1C89.8,89.3,89.7,89.3,89.6,89.3z"/>
</g>
</svg>
