<?xml version="1.0" encoding="utf-8"?>
<!-- Generator: Adobe Illustrator 26.4.1, SVG Export Plug-In . SVG Version: 6.00 Build 0)  -->
<svg version="1.1" id="Слой_1" xmlns="http://www.w3.org/2000/svg" xmlns:xlink="http://www.w3.org/1999/xlink" x="0px" y="0px"
	 viewBox="0 0 101.1 84" style="enable-background:new 0 0 101.1 84;" xml:space="preserve">
<g class="st0">
	<path class="st1" d="M51.5,49c-0.2,0-0.4,0-0.4,0c-2.3,0-4.6,0-6.9,0c-0.4,0-0.5-0.2-0.7-0.4c-1.6-2.5-3.2-4.8-4.8-7.3
		c-0.9-1.4-2-3-2.8-4.4c0-0.2-0.2-0.2-0.4-0.2c-0.4,0-0.7,0-1.1,0s-0.4,0-0.4,0.4c0,2,0,4.1,0,6c0,2,0,3.7,0,5.7
		c0,0.2,0,0.4-0.4,0.4c-2.1,0-4.3,0-6.4,0c-0.2,0-0.4,0-0.4-0.4c0-11,0-22,0-32.9v-0.2c0.2,0,0.4,0,0.7,0c3.2,0,6.4,0,9.4,0
		c0.9,0,1.8,0,2.7,0c2.5,0.2,4.8,0.7,6.8,2.3c1.6,1.2,2.7,2.8,3.2,4.8c0.4,1.4,0.5,2.8,0.5,4.3c0,1.8-0.4,3.6-1.4,5.2
		c-0.9,1.6-2.3,2.8-4.1,3.6c-0.5,0.2-1.1,0.4-1.4,0.5c-0.2,0-0.2,0-0.4,0.2C46,40.5,48.7,44.8,51.5,49z M33.9,30.7
		c0.2,0,0.2,0,0.4,0c1.2,0,2.5,0,3.7,0c0.5,0,1.2,0,1.8-0.2c1.1-0.2,2.1-0.7,2.8-1.8c1.1-1.6,1.1-3.4,0.2-5
		c-0.9-1.6-2.3-2.1-4.1-2.1c-1.4,0-3,0-4.4,0c-0.4,0-0.4,0-0.4,0.4c0,2.8,0,5.7,0,8.4C33.9,30.6,33.9,30.6,33.9,30.7z"/>
	<path class="st1" d="M74.8,15.5c0,2.1,0,4.1,0,6c-4.3,0-8.4,0-12.6,0c0,0.2,0,0.2,0,0.4c0,2.3,0,4.6,0,7.1c0,0.2,0,0.4,0.4,0.4
		c3.9,0,7.8,0,11.7,0c0.4,0,0.4,0,0.4,0.4c0,1.8,0,3.7,0,5.5c0,0.2,0,0.4-0.4,0.4c-1.4,0-2.7,0-4.1,0c-2.7,0-5.2,0-7.8,0
		c-0.2,0-0.2,0-0.4,0c0,0.2,0,0.2,0,0.4c0,2.3,0,4.6,0,6.9c0,0.2,0,0.4,0.4,0.4c3.9,0,8,0,11.9,0c0.2,0,0.2,0,0.4,0c0,2,0,4.1,0,6
		c-6.4,0-13,0-19.4,0V49c0-3.7,0-7.5,0-11c0-2.8,0-5.7,0-8.5s0-5.9,0-8.7c0-1.6,0-3,0-4.6c0-0.2,0-0.4,0.4-0.4c6.4,0,12.6,0,19,0
		C74.6,15.5,74.8,15.5,74.8,15.5z"/>
	<path class="st1" d="M74.8,5.9c0.7,0.2,1.4,0.5,2,0.7c2.3,0.9,4.6,1.8,6.8,2.8c2.7,1.2,5,2.8,7.3,4.6c1.2,1.1,2.5,2.1,3.7,3.4
		c1.8,2,3.4,4.1,4.6,6.4c0.7,1.6,1.4,3.4,1.6,5.2c0.2,1.1,0.4,2.1,0.4,3.4c0,2.5-0.5,4.8-1.6,7.1c-0.7,1.8-1.8,3.4-2.8,5
		c-1.1,1.4-2.1,2.5-3.4,3.7c-1.8,1.6-3.6,3-5.7,4.3c-2,1.2-3.9,2.3-6,3.2c-2.1,1.1-4.4,1.8-6.6,2.5c-2.3,0.7-4.6,1.4-6.9,1.8
		c-1.2,0.4-2.7,0.5-3.9,0.7c-1.1,0.2-2.1,0.4-3.2,0.4c-0.9,0.2-2,0.2-2.8,0.4c-1.1,0-2.1,0.2-3.2,0.2c-2.8,0-5.7,0-8.5,0
		c-0.9,0-1.8-0.2-2.7-0.2c-0.7,0-1.2-0.2-2-0.2s-1.2-0.2-2-0.2s-1.2-0.2-1.8-0.4c-1.1-0.2-2.1-0.4-3.2-0.5c-1.8-0.4-3.6-0.7-5.3-1.2
		c-2-0.5-4.1-1.2-6-2c-2.8-1.1-5.5-2.3-8.2-3.7c-1.6-0.7-3-1.8-4.6-3c-1.4-1.1-2.8-2.3-4.1-3.7c-2.3-2.3-4.1-5-5.3-8
		c-0.5-1.2-0.9-2.5-1.1-3.9c0-0.9-0.2-1.8-0.2-2.7c0-2.8,0.7-5.5,2-8c0.9-1.8,2-3.4,3.2-4.8c1.1-1.2,2.1-2.3,3.4-3.4
		c2.7-2.5,5.7-4.4,9.1-6c2.8-1.4,5.9-2.7,8.9-3.6c0-0.4,0.2-0.5,0.5-0.5c0,0.5,0,0.9,0,1.4l-0.2,0.2c-0.9,0.4-2,0.5-2.8,0.9
		c-1.8,0.7-3.6,1.4-5.3,2.3c-2.3,1.2-4.4,2.5-6.6,3.9c-1.6,1.1-3,2.3-4.3,3.7c-1.8,1.8-3.4,3.9-4.4,6.2c-0.7,1.4-1.2,2.8-1.6,4.4
		c-0.2,1.2-0.4,2.5-0.4,3.7C1.6,34.7,2.1,37,3,38.9c0.7,1.6,1.8,3.2,2.8,4.6c1.1,1.2,2.1,2.3,3.2,3.4c1.6,1.6,3.6,2.8,5.5,4.1
		c1.8,1.2,3.7,2.1,5.7,3c2,0.9,4.1,1.8,6.2,2.5c2,0.5,4.1,1.2,6,1.8c1.6,0.4,3.4,0.7,5.2,1.1c1.1,0.2,2.1,0.4,3.4,0.5
		c1.2,0.2,2.5,0.4,3.7,0.4c1.6,0.2,3.2,0.2,4.8,0.2c1.4,0,2.8,0,4.3,0c1.2,0,2.3-0.2,3.6-0.2c1.2-0.2,2.7-0.2,3.9-0.4
		c3.7-0.5,7.6-1.2,11.2-2.3c3.7-1.1,7.3-2.5,10.8-4.3c2.1-1.1,4.3-2.3,6.2-3.9c1.2-0.9,2.3-2,3.4-3c2-2,3.6-4.1,4.8-6.6
		c0.7-1.6,1.2-3.4,1.6-5.2c0.2-0.9,0.2-1.6,0.2-2.5c0-2.1-0.5-4.3-1.2-6.2c-0.9-2-2-3.9-3.4-5.5c-1.1-1.2-2.1-2.5-3.4-3.6
		c-1.6-1.4-3.4-2.7-5.3-3.9c-3.4-2.1-7.1-3.7-10.8-5.2c-0.2,0-0.5-0.2-0.7-0.4c-0.2-0.2,0-0.5,0-0.7C74.8,6.6,74.8,6.2,74.8,5.9z"/>
	<path class="st1" d="M27,8c0,0.5,0,0.5-0.5,0.7c-2.8,0.9-5.7,2-8.4,3.4c-2.1,1.2-4.3,2.7-6.2,4.3c-1.2,1.1-2.5,2.1-3.6,3.4
		c-2.1,2.3-3.7,4.8-4.6,7.6c-0.2,0.9-0.5,1.8-0.5,2.7C3,30.9,3,32,3,32.9c0,1.2,0.4,2.3,0.7,3.6c0.7,2.3,2,4.4,3.6,6.4
		c0.9,1.1,1.8,2.1,2.8,3c1.8,1.6,3.6,3,5.7,4.1c3,1.8,6.2,3.4,9.6,4.6c2.3,0.9,4.6,1.6,6.9,2.1c1.8,0.4,3.6,0.7,5.2,1.1
		c1.1,0.2,2.3,0.4,3.4,0.5c0.9,0.2,1.8,0.2,2.7,0.2c1.4,0.2,3,0.2,4.4,0.4c1.6,0,3.2,0,4.8,0c0.5,0,1.2,0,1.8,0
		c1.1,0,2.1-0.2,3.2-0.2c0.9,0,2-0.2,2.8-0.2c1.2-0.2,2.3-0.4,3.6-0.5c1.6-0.2,3-0.5,4.6-0.9c3.7-0.9,7.5-2,11.2-3.6
		c2.8-1.2,5.7-2.7,8.2-4.6c1.6-1.1,3-2.3,4.3-3.6c1.6-1.8,3-3.6,4.1-5.7c0.7-1.4,1.2-2.8,1.4-4.4c0.2-1.2,0.4-2.5,0.2-3.6
		c0-1.6-0.4-3.2-1.1-4.6c-0.7-2-1.8-3.9-3.2-5.5c-1.1-1.2-2.1-2.3-3.2-3.4c-2-1.8-4.1-3.2-6.2-4.4c-2-1.1-3.9-2.1-5.9-2.8
		c-1.1-0.5-2.3-0.9-3.6-1.2h-0.2c0-0.2,0-0.4,0-0.5c0.2,0,0.4,0.2,0.5,0.2c2.5,0.9,4.8,2,7.1,3c2.3,1.2,4.4,2.5,6.6,4.1
		c1.1,0.9,2.1,1.8,3,2.7c2.3,2.1,4.1,4.8,5.2,7.6c0.5,1.2,0.9,2.5,1.1,3.9c0.2,1.2,0.2,2.3,0,3.6c-0.2,1.8-0.7,3.6-1.4,5.3
		c-0.7,1.8-1.8,3.4-3,4.8c-1.1,1.2-2.1,2.3-3.4,3.4c-1.6,1.4-3.4,2.7-5.3,3.7c-3,1.8-6.4,3.2-9.8,4.4c-2.5,0.9-5,1.6-7.5,2.1
		c-1.6,0.4-3.2,0.5-4.8,0.9c-1.1,0.2-2.3,0.4-3.4,0.5c-1.1,0.2-2.1,0.2-3.2,0.2c-1.4,0-3,0.2-4.4,0.2c-1.1,0-2,0-3,0
		c-1.4,0-2.8-0.2-4.3-0.2c-1.1,0-2.3-0.2-3.4-0.4c-1.8-0.2-3.7-0.5-5.5-0.9c-3.2-0.5-6.4-1.4-9.6-2.5c-2.8-0.9-5.5-2-8-3.4
		c-2.3-1.2-4.6-2.5-6.8-4.3c-1.4-1.1-2.8-2.3-4.1-3.7C6,42.8,4.8,41,3.7,39.1c-0.7-1.4-1.2-3-1.4-4.6c-0.2-1.2-0.2-2.3-0.2-3.6
		c0.2-1.8,0.5-3.6,1.2-5.3C4.1,24,5,22.4,6,21c0.9-1.2,2-2.3,3-3.2c2-1.4,3.6-2.7,5.2-3.7c2.3-1.6,4.8-2.8,7.5-3.9
		c1.4-0.5,3-1.1,4.4-1.8C26.5,8.4,26.8,8.2,27,8z"/>
	<path class="st1" d="M46.2,70.2c-0.2,0-0.4-0.2-0.5-0.2c-0.7-0.4-1.2-1.1-1.1-2.1c0.2-1.1,0.7-1.6,1.6-1.8c1.2,0,2.7,0,3.9,0l0,0
		c0,2.3,0,4.8,0,7.1c-0.5,0-0.9,0-1.4,0c0-1.1,0-2,0-3c-0.7-0.2-1.2,0-1.4,0.4c-0.5,0.7-0.9,1.4-1.4,2.1c-0.2,0.4-0.4,0.5-0.7,0.4
		c-0.4,0-0.7,0-1.1,0c0.4-0.5,0.7-1.1,1.1-1.8C45.3,71.1,45.7,70.5,46.2,70.2z M48.7,67.3c-0.7,0-1.2,0-2,0c-0.5,0-0.7,0.4-0.9,0.7
		c0,0.5,0.2,0.9,0.7,0.9c0.7,0,1.4,0,2,0l0,0C48.7,68.6,48.7,68.1,48.7,67.3z"/>
	<path class="st1" d="M12.1,66.1h0.2c1.1,0,2.1,0,3.2,0c0.2,0,0.5,0,0.7,0c0.7,0.2,1.2,0.7,1.4,1.6c0,0.4,0,0.5,0,0.9
		c-0.2,0.7-0.7,1.2-1.4,1.4H16c0.4,0.4,0.5,0.5,0.9,0.9c0.5,0.7,0.9,1.4,1.4,2.3c-0.5,0-1.1,0-1.6,0L16.5,73
		c-0.5-0.7-0.9-1.4-1.4-2.1c-0.4-0.5-0.9-0.7-1.4-0.7c-0.2,0-0.2,0.2-0.2,0.2c0,0.9,0,1.6,0,2.5c0,0.2,0,0.2,0,0.4
		c-0.5,0-0.9,0-1.4,0C12.1,70.9,12.1,68.6,12.1,66.1z M13.3,69.1c0.7,0,1.4,0,2.1,0c0.5,0,0.7-0.4,0.7-0.9c0-0.5-0.4-0.9-0.7-0.9
		c-0.5,0-1.2,0-1.8,0c-0.2,0-0.2,0-0.2,0.2C13.3,68.1,13.3,68.6,13.3,69.1z"/>
	<path class="st1" d="M59,70.2c-1.1,0-2.3,0-3.4,0c0,0.7,0,1.2,0,2c1.2,0,2.5,0,3.7,0c0,0.4,0,0.9,0,1.2c-1.8,0-3.4,0-5.2,0
		c0-2.3,0-4.8,0-7.1c0.2,0,0.2,0,0.4,0c1.4,0,3,0,4.4,0c0.2,0,0.4,0,0.4,0.4c0,0.2,0,0.5,0,0.7c0,0.2,0,0.2-0.2,0.2
		c-1.1,0-2.1,0-3,0c-0.2,0-0.2,0-0.4,0c0,0.5,0,1.1,0,1.6c0.2,0,0.2,0,0.4,0c0.9,0,2,0,2.8,0c0.2,0,0.2,0,0.2,0.2
		C59,69.5,59,69.8,59,70.2z"/>
	<path class="st1" d="M89.9,73.4c-0.5,0-0.9,0-1.2,0l-0.2-0.2c-0.2-0.4-0.4-0.9-0.5-1.2c0-0.2-0.2-0.2-0.4-0.2c-0.7,0-1.6,0-2.3,0
		c-0.2,0-0.2,0-0.4,0.2c-0.2,0.4-0.4,0.9-0.5,1.2l-0.2,0.2c-0.4,0-0.9,0-1.2,0c0-0.2,0-0.2,0.2-0.4c0.9-2.1,1.6-4.4,2.5-6.6
		c0-0.2,0.2-0.2,0.4-0.2c0.4,0,0.7,0,1.1,0c0,0,0.2,0,0.2,0.2C88.1,68.6,89,70.9,89.9,73.4C89.9,73.2,89.9,73.2,89.9,73.4z
		 M86.5,67.9C86.4,67.9,86.4,67.9,86.5,67.9c-0.4,0.9-0.7,1.6-0.9,2.5c0.7,0,1.2,0,1.8,0C87.1,69.7,86.7,68.8,86.5,67.9z"/>
	<path class="st1" d="M67.7,75.3c-0.4,0-0.9,0-1.2,0c0-2.3,0-4.8,0-7.1c0.4,0,0.7,0,1.2,0c0,0.2,0,0.4,0,0.7c0,0,0.2,0,0.2-0.2
		c0.9-1.1,2.3-0.9,3,0.2c0.4,0.5,0.5,1.2,0.4,1.8c0,0.4-0.2,0.9-0.2,1.2c-0.4,0.9-1.1,1.4-2,1.4c-0.4,0-0.7-0.4-1.1-0.5
		c0,0,0,0-0.2-0.2c0,0.5,0,0.9,0,1.2C67.7,74.5,67.7,74.8,67.7,75.3z M69.8,70.7c0-0.4-0.2-0.7-0.2-1.1c-0.2-0.4-0.5-0.5-0.9-0.5
		c-0.4,0-0.7,0.2-0.9,0.5c-0.4,0.7-0.4,1.4,0,2.1c0.2,0.4,0.5,0.5,1.1,0.5c0.4,0,0.7-0.4,0.9-0.7C69.7,71.3,69.8,71.1,69.8,70.7z"/>
	<path class="st1" d="M66.8,8.5c0.2-0.4,0.5-0.9,0.7-1.2c0.2-0.4,0.4-0.5,0.5-0.9c0.2-0.2,0-0.4,0-0.5c-0.5-0.5-0.9-1.1-1.4-1.6
		c0,0-0.2-0.2-0.2-0.4l0,0c0.4,0,0.7,0.2,1.1,0.2c0.5,0.2,0.9,0.2,1.4,0.4c0.2,0,0.2,0,0.4-0.2c0.4-0.7,0.7-1.2,1.1-2l0.2-0.2v0.2
		c0,0.7,0.2,1.2,0.2,2c0,0.5,0.4,0.7,0.7,0.7c0.7,0.2,1.4,0.4,2.1,0.4c-0.2,0-0.2,0.2-0.4,0.2c-0.7,0.4-1.4,0.7-2.1,1.1
		c0,0,0,0.2,0,0.4c0.2,0.7,0.2,1.4,0.2,2.1c0,0.2,0,0.4,0,0.5c0-0.2-0.2-0.4-0.2-0.4c-0.5-0.5-0.9-1.1-1.4-1.6
		c-0.2-0.2-0.4-0.2-0.5-0.2c-0.7,0.4-1.4,0.5-2,0.9C67,8.5,67,8.5,66.8,8.5L66.8,8.5z"/>
	<path class="st1" d="M45.1,2.8C45,3,44.6,3.2,44.4,3.6c-0.4,0.4-0.7,0.7-1.2,1.1C43,4.8,43,5,43.2,5.2c0.4,0.7,0.5,1.2,0.9,2
		c0,0.2,0,0.2,0,0.4c-0.2-0.2-0.4-0.2-0.7-0.4c-0.5-0.4-1.1-0.7-1.6-0.9c-0.2,0-0.2,0-0.4,0c-0.5,0.5-1.2,1.1-1.8,1.6
		c0,0-0.2,0-0.2,0.2c0-0.2,0-0.2,0-0.4c0.2-0.7,0.4-1.4,0.5-2.1c0-0.2,0-0.4-0.2-0.5c-0.7-0.4-1.2-0.9-2-1.2c0,0-0.2,0-0.2-0.2
		c0.5,0,0.9-0.2,1.2-0.2c0.5,0,0.9,0,1.4-0.2c0.2,0,0.2-0.2,0.2-0.2c0.4-0.9,0.5-1.6,0.7-2.1c0-0.2,0-0.2,0.2-0.4
		c0,0.2,0.2,0.2,0.2,0.4c0.4,0.7,0.5,1.2,0.9,2C42.6,3,42.6,3.2,43,3.2C43.5,2.8,44.4,2.8,45.1,2.8L45.1,2.8z"/>
	<path class="st1" d="M56.9,2.8c0.4,0,0.7,0,1.2,0.2c0.4,0,0.9,0,1.2,0.2c0.4,0,0.4-0.2,0.5-0.4c0.4-0.7,0.5-1.2,0.9-2
		c0,0,0-0.2,0.2-0.2c0.2,0.5,0.2,0.9,0.4,1.4c0,0.4,0.2,0.7,0.2,1.1s0.4,0.4,0.5,0.4c0.7,0.2,1.4,0.2,2.3,0.4l-0.2,0.2
		c-0.5,0.4-1.2,0.7-1.8,1.1c-0.2,0.2-0.2,0.2-0.2,0.4c-0.2,0.5,0,1.2,0.2,2v0.2l0,0c-0.7-0.5-1.4-1.2-2.1-1.8
		c-0.7,0.5-1.6,1.1-2.5,1.6l0,0c0.2-0.4,0.4-0.7,0.4-1.1c0.2-0.5,0.4-0.9,0.7-1.4c0.2-0.2,0-0.4,0-0.4C58.3,4.1,57.6,3.6,57,3
		C56.9,3,56.9,2.8,56.9,2.8L56.9,2.8z"/>
	<path class="st1" d="M51.2,0c0,0.2,0.2,0.2,0.2,0.4c0.2,0.7,0.4,1.2,0.5,2c0.2,0.4,0.2,0.4,0.5,0.4c0.7,0,1.4,0,2.1,0
		c0.2,0,0.2,0,0.4,0l0,0c-0.2,0.2-0.4,0.4-0.7,0.5c-0.5,0.4-0.9,0.7-1.4,0.9c-0.2,0.2-0.2,0.4-0.2,0.5c0.2,0.7,0.5,1.4,0.7,2.1v0.2
		l0,0c-0.2-0.2-0.4-0.2-0.5-0.4c-0.5-0.4-1.1-0.7-1.6-1.1c-0.2-0.2-0.2-0.2-0.4,0c-0.5,0.4-1.2,0.9-1.8,1.2l-0.2,0.2
		c0-0.2,0-0.4,0-0.4c0.2-0.7,0.4-1.4,0.7-2c0.2-0.2,0-0.4-0.2-0.5c-0.5-0.4-1.2-0.9-1.8-1.2c0,0,0,0-0.2-0.2c0.2,0,0.2,0,0.4,0
		c0.7,0,1.4,0,2.3,0c0.2,0,0.2,0,0.4-0.2c0.2-0.7,0.5-1.4,0.7-2.1C51,0.2,51,0,51.2,0L51.2,0z"/>
	<path class="st1" d="M30.9,9.1c0-0.4,0-0.5,0-0.9c0-0.5,0.2-1.1,0.2-1.8c0,0,0-0.2-0.2-0.2c-0.7-0.4-1.4-0.7-2-1.1
		c0,0-0.2,0-0.4-0.2c0.2,0,0.2,0,0.2-0.2c0.7-0.2,1.6-0.4,2.3-0.5c0.2,0,0.2,0,0.2-0.2c0.2-0.7,0.2-1.6,0.4-2.3V1.6
		c0.4,0.5,0.5,0.7,0.7,1.1c0.2,0.5,0.5,0.9,0.7,1.4c0.2,0.2,0.2,0.4,0.5,0.2c0.7-0.2,1.4-0.4,2.1-0.4c0,0,0.2,0,0.4,0
		c-0.2,0-0.2,0-0.2,0c-0.5,0.5-1.1,1.1-1.6,1.6c-0.4,0.4-0.4,0.4-0.2,0.7c0.4,0.5,0.7,1.2,1.1,1.8c0,0,0,0.2,0.2,0.2l0,0
		C35.2,8.2,35,8,34.8,8c-0.5-0.2-1.1-0.5-1.6-0.7c-0.2,0-0.4,0-0.5,0c-0.5,0.5-1.1,0.9-1.6,1.4C31.1,8.9,30.9,8.9,30.9,9.1z"/>
	<path class="st1" d="M60.6,73.4c0-1.8,0-3.4,0-5.2h0.2c0.9,0,1.8,0,2.7,0c0.4,0,0.5,0,0.9,0.2c0.5,0.2,0.7,0.5,0.9,1.1
		c0,0.5,0,1.1-0.5,1.2c0,0-0.2,0-0.2,0.2c0.2,0.2,0.4,0.2,0.5,0.4c0.7,0.7,0.5,2-0.5,2.3c-0.2,0-0.4,0.2-0.5,0.2
		C62.7,73.4,61.7,73.4,60.6,73.4z M61.8,71.1c0,0.5,0,0.9,0,1.4c0.5,0,1.1,0,1.6-0.2c0.2,0,0.4-0.2,0.4-0.4c0.2-0.4-0.2-0.7-0.5-0.7
		C62.9,71.1,62.4,71.1,61.8,71.1z M61.8,68.9c0,0.5,0,0.9,0,1.2c0,0,0,0.2,0.2,0.2c0.5,0,1.1,0,1.6-0.2c0.4,0,0.4-0.4,0.4-0.5
		c0-0.4-0.2-0.5-0.5-0.5C62.9,68.9,62.4,68.9,61.8,68.9z"/>
	<path class="st1" d="M20.8,71.8c0.2-0.7,0.5-1.4,0.7-2.1c0.2-0.4,0.2-0.9,0.4-1.2l0.2-0.2c0.4,0,0.7,0,1.2,0
		c-0.2,0.7-0.5,1.4-0.7,2.1c-0.4,1.2-0.9,2.5-1.2,3.6c0,0.2-0.2,0.4-0.2,0.7c-0.4,0.5-0.7,0.9-1.4,0.9c-1.1,0-1.1,0-1.1-1.1l0,0
		c0.2,0,0.4,0,0.5,0c0.7,0,1.1-0.7,0.9-1.2c-0.5-1.6-1.1-3-1.6-4.6c0,0,0-0.2-0.2-0.4c0.5,0,0.9,0,1.4,0
		C20.1,69.3,20.4,70.5,20.8,71.8L20.8,71.8z"/>
	<path class="st1" d="M71.8,70.7c0-1.2,0.7-2.3,2-2.7c1.6-0.4,3.2,0.7,3.2,2.5c0,1.1-0.2,1.8-1.1,2.5c-1.1,0.9-3.6,0.5-3.9-1.6
		C72,71.3,71.8,70.9,71.8,70.7z M75.7,70.7L75.7,70.7c0-0.2,0-0.4-0.2-0.5c-0.2-0.5-0.5-0.9-1.1-1.1c-0.4,0-0.9,0.2-1.1,0.5
		c-0.4,0.7-0.4,1.4,0,2c0.2,0.4,0.5,0.5,1.1,0.5c0.5,0,0.7-0.2,0.9-0.7C75.5,71.4,75.5,71.1,75.7,70.7z"/>
	<path class="st1" d="M43.5,73.4c-0.4,0-0.7,0-1.1,0c0,0-0.2,0-0.2-0.2c0-0.2,0-0.2-0.2-0.4c-0.2,0-0.2,0.2-0.2,0.2
		c-0.5,0.5-1.2,0.5-2,0.4c-0.5-0.2-1.1-0.7-1.1-1.4c0-0.7,0.2-1.2,0.9-1.4c0.5-0.2,1.1-0.4,1.4-0.4c0.2,0,0.2,0,0.4-0.2
		c0.2,0,0.4,0,0.4-0.2c0-0.4-0.2-0.5-0.4-0.7c-0.5-0.2-1.1,0-1.4,0.5L40,69.8c-0.4,0-0.7-0.2-1.1-0.2c0.2-0.7,0.7-1.2,1.4-1.4
		c0.5,0,1.1,0,1.6,0c0.9,0.2,1.2,0.5,1.2,1.4c0,0.5,0,1.1,0,1.6c0,0.4,0,0.7,0,1.1C43.4,72.5,43.5,72.9,43.5,73.4z M42.1,70.9
		c-0.5,0.2-0.9,0.2-1.4,0.4c-0.4,0.2-0.5,0.4-0.4,0.7c0,0.4,0.4,0.5,0.5,0.5c0.5,0.2,1.1-0.4,1.2-0.9C42.1,71.4,42.1,71.1,42.1,70.9
		z"/>
	<path class="st1" d="M79.3,73.4c-0.5,0-0.9,0-1.2,0c0-1.8,0-3.4,0-5.2c1.4,0,2.8,0,4.4,0c0,1.8,0,3.4,0,5.2c-0.4,0-0.9,0-1.2,0
		c0-1.4,0-2.7,0-4.1c-0.5,0-1.2,0-1.8,0C79.3,70.5,79.3,72,79.3,73.4z"/>
	<path class="st1" d="M38.4,68.1c0,0.4,0,0.5,0,0.9l0,0c-0.5,0-0.7,0.2-0.9,0.7c-0.2,0.4-0.2,0.7-0.7,0.9c0.5,0.2,0.9,0.7,1.1,1.2
		c0.2,0.5,0.5,0.9,0.7,1.4c-0.5,0-0.9,0-1.2,0L37.1,73c-0.2-0.5-0.5-1.1-0.7-1.6c-0.2-0.2-0.4-0.4-0.5-0.4c0,0.7,0,1.4,0,2.1
		c-0.4,0-0.9,0-1.2,0c0-1.8,0-3.4,0-5.2c0.4,0,0.9,0,1.2,0c0,0.7,0,1.4,0,2.1c0.4,0,0.5-0.2,0.5-0.4c0.2-0.2,0.2-0.5,0.4-0.7
		C37,68.2,37.5,67.9,38.4,68.1z"/>
	<path class="st1" d="M28.3,69.7c-0.4,0-0.9,0.2-1.2,0.2v-0.2c-0.2-0.4-0.4-0.7-0.9-0.7c-0.4,0-0.7,0.2-0.9,0.5
		c-0.4,0.7-0.4,1.4,0,2.1c0.2,0.4,0.5,0.5,0.9,0.5s0.7-0.2,0.7-0.5c0-0.2,0-0.2,0.2-0.4c0.4,0,0.9,0.2,1.2,0.2
		c-0.2,0.5-0.4,1.1-0.9,1.4c-1.2,0.9-3.2,0.4-3.6-1.1c-0.2-0.7-0.2-1.6,0-2.3c0.2-0.4,0.4-0.9,0.7-1.1c0.9-0.7,2.5-0.7,3.2,0.2
		C27.9,68.9,28.1,69.3,28.3,69.7z"/>
	<path class="st1" d="M33.6,69.7c-0.4,0-0.9,0.2-1.2,0.2v-0.2c-0.2-0.5-0.4-0.7-0.9-0.7c-0.4,0-0.7,0.2-0.9,0.7s-0.2,0.9-0.2,1.4
		c0,0.2,0,0.4,0.2,0.5c0.2,0.4,0.5,0.7,1.1,0.5c0.4,0,0.7-0.2,0.7-0.7c0,0,0-0.2,0-0.4c0.4,0,0.9,0.2,1.2,0.2c0,0.7-0.5,1.4-1.2,1.8
		c-1.6,0.5-3.2-0.2-3.4-2.1c0-0.4,0-0.9,0-1.2c0.4-1.2,1.2-2,2.7-1.8C32.5,68.1,33.2,68.6,33.6,69.7z"/>
	<path class="st1" d="M31.1,82.4c-0.4,0-0.5,0-0.9,0L30,82.3c-0.4-0.5-0.7-1.2-1.1-1.8c-0.2-0.4-0.4-0.5-0.7-0.7
		c-0.4,0-0.4,0-0.4,0.2c0,0.7,0,1.4,0,2.1c0,0.2,0,0.2-0.2,0.2c-0.7,0-0.5,0-0.5-0.5c0-1.6,0-3.4,0-5c0-0.2,0-0.4,0.4-0.4
		c0.5,0,0.5,0,0.5,0.5s0,1.2,0,1.8c0,0.2,0,0.2,0.2,0.2c0.5,0,0.7-0.4,0.9-0.7c0.2-0.4,0.4-0.7,0.5-1.1c0.4-0.5,0.9-0.7,1.6-0.7
		c0,0,0.2,0,0.2,0.2v0.2c0,0.5,0,0.4-0.4,0.4s-0.5,0.2-0.7,0.5c-0.2,0.2-0.2,0.5-0.4,0.7c-0.2,0.4-0.4,0.7-0.7,0.9
		c0.9,0.5,1.2,1.6,1.8,2.3C30.9,81.9,31.1,82.1,31.1,82.4z"/>
	<path class="st1" d="M74.1,81.7c0.2,0,0.2,0,0.4,0c0,0.5,0,1.2,0,1.8c-0.2,0-0.2,0-0.4,0c-0.2,0-0.2,0-0.2-0.2c0-0.2,0-0.5,0-0.7
		c0-0.2,0-0.2-0.2-0.2c-1.1,0-2,0-3,0l0,0c0,0.4,0,0.5,0,0.9c0,0.4-0.2,0.2-0.4,0.2s-0.4,0-0.4-0.2c0-0.5,0-0.9,0-1.4
		c0-0.2,0-0.2,0.2-0.2c0.2,0,0.4-0.2,0.4-0.4c0.4-0.5,0.4-1.2,0.5-1.8c0-0.4,0-0.9,0-1.2c0-0.2,0.2-0.4,0.4-0.4c0.7,0,1.6,0,2.3,0
		c0.4,0,0.4,0,0.4,0.4c0,1.1,0,2,0,3C74.1,81.6,74.1,81.7,74.1,81.7z M71.8,78.9c0,1.1-0.2,2-0.5,3c0.7,0,1.2,0,2,0
		c0.2,0,0.2,0,0.2-0.2c0-0.9,0-1.6,0-2.5v-0.2C72.9,78.9,72.3,78.9,71.8,78.9z"/>
	<path class="st1" d="M62.4,84c-0.2,0-0.5,0-0.7,0c0-0.2,0-0.2,0-0.2c0-1.8,0-3.6,0-5.3c0-0.2,0-0.2,0-0.2c0.2,0,0.4,0,0.5,0
		c0,0,0,0.2,0,0.4l0,0c0.7-0.7,2.3-0.5,2.7,0.7c0.4,0.9,0.4,1.8-0.2,2.7c-0.5,0.7-1.6,1.1-2.3,0.4c0,0,0,0-0.2-0.2
		c0,0.4,0,0.7,0,0.9C62.4,83.3,62.4,83.7,62.4,84z M64.5,80.3c0-0.2,0-0.5-0.2-0.7c-0.2-0.5-0.5-0.9-0.9-0.9s-0.9,0.4-1.1,0.7
		c-0.2,0.5-0.2,1.1,0,1.6c0.2,0.4,0.4,0.7,0.9,0.9c0.4,0.2,0.7,0,1.1-0.4C64.5,81.2,64.5,80.7,64.5,80.3z"/>
	<path class="st1" d="M35.4,82.4c-0.7,0-0.7,0-0.9-0.4c-0.2,0.2-0.4,0.2-0.5,0.4c-0.5,0.2-1.2,0.4-1.8,0c-0.7-0.4-0.7-1.4-0.2-2
		c0.4-0.4,0.7-0.4,1.2-0.4c0.4,0,0.7-0.2,1.1-0.2c0.2,0,0.2-0.2,0.2-0.4c0-0.4-0.2-0.5-0.5-0.7c-0.2,0-0.5,0-0.7,0
		c-0.4,0-0.5,0.2-0.7,0.5c0,0.2-0.2,0.2-0.4,0.2c-0.5,0-0.5,0-0.4-0.5c0.2-0.4,0.5-0.5,0.9-0.7c0.5-0.2,1.2-0.2,1.8,0
		c0.5,0.2,0.7,0.5,0.7,1.1c0,0.9,0,1.6,0,2.5C35.2,81.9,35.2,82.1,35.4,82.4z M34.3,80.3c-0.5,0.2-1.1,0.2-1.6,0.4
		c-0.4,0-0.5,0.4-0.4,0.5c0,0.2,0.2,0.5,0.5,0.5C33.8,82.1,34.5,81.4,34.3,80.3z"/>
	<path class="st1" d="M69.7,82.4c-0.5,0.2-0.7,0-0.7-0.4c-0.4,0.2-0.7,0.4-1.1,0.4c-0.5,0.2-1.1,0.2-1.6-0.4
		c-0.5-0.5-0.4-1.4,0.4-1.8c0.4-0.2,0.9-0.2,1.4-0.4c0.2,0,0.4,0,0.5-0.2c0.2,0,0.4,0,0.4-0.2c0-0.2,0-0.5-0.2-0.7
		c-0.5-0.5-1.6-0.4-1.8,0.4c0,0.2-0.2,0.2-0.4,0.2l0,0c-0.4,0-0.5-0.2-0.2-0.5c0.2-0.4,0.5-0.7,0.9-0.7c0.5-0.2,1.2-0.2,1.8,0
		c0.4,0.2,0.5,0.4,0.5,0.9s0,1.1,0,1.6C69.7,81.4,69.7,81.9,69.7,82.4z M68.8,80.3c-0.4,0-0.7,0.2-0.9,0.2s-0.5,0-0.7,0.2
		c-0.4,0.2-0.4,0.4-0.4,0.5c0,0.2,0.2,0.5,0.4,0.5c0.4,0.2,0.5,0,0.9,0C68.6,81.6,68.8,81.2,68.8,80.3z"/>
	<path class="st1" d="M50.6,81.2c0.4-0.7,0.9-1.4,1.2-2.1c0.2-0.2,0.4-0.5,0.5-0.7c0-0.2,0.2-0.2,0.4-0.2c0.7,0,0.5-0.2,0.5,0.5
		c0,1.1,0,2.3,0,3.4c0,0.2,0,0.4-0.4,0.4c-0.5,0-0.5,0-0.5-0.5c0-0.7,0-1.4,0-2.3v-0.2l0,0c-0.2,0.4-0.4,0.7-0.5,1.1
		c-0.4,0.5-0.7,1.2-1.1,1.8c-0.2,0.4-0.4,0.2-0.5,0.2c-0.4,0-0.4,0-0.4-0.4c0-1.2,0-2.3,0-3.6c0-0.2,0-0.4,0.4-0.4
		c0.5,0,0.5,0,0.5,0.5c0,0.7,0,1.6,0,2.3C50.5,81,50.5,81.2,50.6,81.2L50.6,81.2z"/>
	<path class="st1" d="M40.9,78.2c0.7-0.2,0.7-0.2,0.7,0.5c0,0.7,0,1.6,0,2.3c0,0,0,0,0,0.2c0.2-0.4,0.4-0.5,0.5-0.9
		c0.4-0.7,0.9-1.2,1.2-2c0.2-0.2,0.7-0.4,0.9-0.2v0.2c0,1.2,0,2.7,0,3.9l0,0c-0.2,0-0.4,0-0.5,0l-0.2-0.2c0-0.9,0-1.8,0-2.5
		c0,0,0-0.2,0-0.4c-0.2,0.4-0.4,0.5-0.5,0.9c-0.4,0.7-0.9,1.4-1.2,2.1c0,0.2-0.2,0.2-0.4,0.2c-0.2,0-0.4,0-0.5,0
		C40.9,81,40.9,79.6,40.9,78.2z"/>
	<path class="st1" d="M39.1,78.9c-0.5,0-1.2,0-1.8,0c0,0.2,0,0.2,0,0.4c0,0.7,0,1.4,0,2.3c0,0.2,0,0.2,0,0.4c0,0.4-0.4,0.7-0.7,0.7
		c-0.2,0-0.2,0-0.4,0c-0.4,0-0.4,0-0.4-0.4c0-0.4,0-0.4,0.4-0.4s0.4,0,0.4-0.4c0-0.9,0-2,0-2.8c0-0.2,0-0.4,0.4-0.4
		c0.9,0,1.8,0,2.8,0c0.2,0,0.2,0,0.2,0.2c0,1.2,0,2.5,0,3.7c0,0.2,0,0.2-0.2,0.2c-0.5,0-0.5,0-0.5-0.5c0-0.9,0-1.8,0-2.7
		C39.1,79.1,39.1,78.9,39.1,78.9z"/>
	<path class="st1" d="M48,80c0-0.5,0-0.9,0-1.4c0-0.2,0-0.4,0.4-0.4c0.5,0,0.5,0,0.5,0.5c0,1.2,0,2.3,0,3.6c0,0.2,0,0.4-0.4,0.4
		c-0.5,0-0.5,0-0.5-0.5c0-0.4,0-0.7,0-1.2c0-0.2,0-0.2-0.2-0.2c-0.5,0-1.1,0-1.4,0c-0.2,0-0.2,0-0.2,0.2c0,0.5,0,0.9,0,1.4
		c0,0.2,0,0.2-0.2,0.2c-0.5,0-0.5,0-0.5-0.5c0-1.1,0-2.3,0-3.4c0-0.2,0-0.4,0.4-0.4c0.5,0,0.5,0,0.5,0.5c0,0.4,0,0.7,0,1.1l0.2,0.2
		C46.7,80,47.4,80,48,80L48,80z"/>
	<path class="st1" d="M55.1,80.7c0,0.7,0,1.2,0,1.8c-0.2,0-0.5,0-0.7,0v-0.2c0-1.2,0-2.5,0-3.7c0-0.2,0-0.4,0.4-0.4h0.2
		c0.2,0,0.2,0,0.2,0.2c0,0.4,0,0.9,0,1.2c0,0.2,0,0.2,0.2,0.2c0.5,0,1.1,0,1.4,0c0.2,0,0.2,0,0.2-0.2c0-0.4,0-0.9,0-1.2
		c0-0.2,0-0.2,0.2-0.2c0.7,0,0.5,0,0.5,0.5c0,1.1,0,2.3,0,3.4c0,0.2,0,0.4-0.4,0.4c-0.5,0-0.5,0-0.5-0.5c0-0.4,0-0.7,0-1.2
		c0,0,0-0.2-0.2-0.2C56.2,80.7,55.6,80.7,55.1,80.7z"/>
	<path class="st1" d="M59.5,78.9c0,0.2,0,0.2,0,0.4c0,1.1,0,2,0,3c0,0.2,0,0.4-0.4,0.4c-0.5,0-0.5,0-0.5-0.5c0-1.1,0-2.3,0-3.4
		c0-0.2,0-0.4,0.4-0.4c0.7,0,1.2,0,2,0c0.2,0,0.2,0.2,0.2,0.4s0,0.4-0.2,0.4C60.4,78.9,60.1,78.9,59.5,78.9z"/>
</g>
</svg>
