<?xml version="1.0" encoding="utf-8"?>
<!-- Generator: Adobe Illustrator 26.4.1, SVG Export Plug-In . SVG Version: 6.00 Build 0)  -->
<svg version="1.1" id="Слой_1" xmlns="http://www.w3.org/2000/svg" xmlns:xlink="http://www.w3.org/1999/xlink" x="0px" y="0px"
	 viewBox="0 0 70 30.4" style="enable-background:new 0 0 70 30.4;" xml:space="preserve">
<g class="st0">
	<path class="st1" d="M20.1,3.3c0.1-0.1,0.1-0.1,0.1-0.1c4.3,0,8.5,0,12.8,0c1.1,0,2.1,1.1,2.1,2.3c0,1.6,0,3.2,0,4.8
		c0,1.3-1.1,2.2-2.4,2.3c-3.4,0-6.7,0-10.1,0c-0.2,0-0.4,0-0.7,0c0,1.9,0,3.7,0,5.6c-0.6,0-1.1,0-1.7,0C20.1,13.2,20.1,8.3,20.1,3.3
		z M27.5,4.9c-1.5,0-3.1,0-4.6,0c-1,0-1.2,0.2-1.2,1.2c0,1.1,0,2.3,0,3.4c0,1.2,0.2,1.4,1.4,1.4c2.4,0,4.9,0,7.3,0
		c0.6,0,1.3,0,1.9,0c0.6,0,1-0.4,1-1c0-1.2,0-2.5,0-3.7c0-1-0.3-1.2-1.3-1.2C30.6,4.9,29,4.9,27.5,4.9z"/>
	<path class="st1" d="M51.9,3.2c0,0.6,0,1.1,0,1.7c-0.3,0-0.6,0-0.9,0c-3.7,0-7.3,0-11,0c-1.1,0-1.3,0.2-1.3,1.3c0,3,0,6,0,8.9
		c0,1.1,0.2,1.3,1.3,1.3c3.7,0,7.3,0,11,0c0.3,0,0.6,0,0.9,0c0,0.6,0,1.1,0,1.8c-0.3,0-0.6,0-0.8,0c-3.7,0-7.4,0-11.1,0
		c-2.1,0-3-0.9-3-2.9c0-3.1,0-6.3,0-9.4c0-1.7,0.9-2.7,2.6-2.7c3.9-0.1,7.9,0,11.8,0C51.6,3.2,51.7,3.2,51.9,3.2z"/>
	<path class="st1" d="M9.7,3.3c1.2,0,2.4,0,3.6,0c0,1.3,0,2.6,0,3.9c0,0.9,0,1.9,0,2.8c0,1.2,0.5,1.7,1.7,1.7c0.6,0,1.1,0,1.7,0
		c0,0.1,0,0.2,0,0.3c-0.2,0-0.5,0.1-0.7,0.1c-2,0-3.9,0-5.9,0c-1.7,0-2.2,0.5-2.1,2.3c0.1,1.1,0,2.2,0,3.3c0,0.2-0.3,0.5-0.5,0.5
		c-1.3,0-2.5,0-3.8-0.1c-1.2-0.1-1.8-0.8-1.9-2c0-1.1,0-2.3,0-3.5c1.2,0,2.3-0.1,3.4,0c0.3,0,0.8,0.5,0.8,0.8
		C6.2,14,6.5,14.7,5.7,15c-0.6,0.2-0.8,0.8-0.7,1.4c0.1,0.6,0.5,0.9,1.1,1c0.6,0.1,1.1-0.2,1.3-0.8c0.3-0.6,0.1-1.1-0.3-1.5
		c-0.2-0.2-0.4-0.6-0.4-0.9c0-1.5-0.4-2-1.9-2c-0.8,0-1.6,0-2.4,0c-0.2,0-0.3-0.2-0.5-0.3c0.2-0.1,0.3-0.3,0.5-0.3
		c1.9,0,3.9,0,5.8,0c0.6,0,1.3,0,1.9,0c1.2,0,1.7-0.6,1.7-1.8c0-0.6,0-1,0.6-1.4C13.1,8,13,7,12.4,6.5C11.9,6,11.1,6,10.7,6.5
		c-0.5,0.6-0.5,1.4,0.1,1.9c0.6,0.5,0.8,1.3,0.4,2c-0.2,0.3-0.5,0.5-0.8,0.5c-2.7,0-5.3,0-8,0c-0.2,0-0.3-0.2-0.5-0.3
		c0.2-0.1,0.3-0.2,0.5-0.2c1.8,0,3.7,0,5.5,0c1.3,0,1.8-0.5,1.8-1.9C9.7,6.8,9.7,5,9.7,3.3z"/>
	<path class="st1" d="M53.9,3.2c0.6,0,1.1,0,1.6,0c0,2.2,0,4.3,0,6.6c1.2,0,2.3-0.1,3.5,0c1,0.1,1.6-0.3,2.2-1
		c1.3-1.6,2.7-3.1,3.9-4.8c0.5-0.7,1.1-1.1,2-0.9c0.2,0,0.5,0,1,0c-2.1,2.6-4.2,5-6.2,7.5c2.1,2.5,4.1,4.9,6.2,7.5
		c-1.3,0.2-2.3,0.1-3.1-1c-1.3-1.7-2.8-3.3-4.1-5c-0.4-0.4-0.7-0.6-1.3-0.6c-1.3,0-2.6,0-4,0c0,2.2,0,4.4,0,6.6c-0.6,0-1.1,0-1.7,0
		C53.9,13.2,53.9,8.3,53.9,3.2z"/>
	<path class="st1" d="M9.2,3.3c0,1.8,0,3.6,0,5.4c0,0.8-0.3,1.1-1.2,1.1c-1.8,0-3.7,0-5.5,0c-0.2,0-0.4-0.2-0.5-0.2
		c0.2-0.1,0.4-0.3,0.5-0.3c1.1,0,2.1,0,3.2,0c1.4,0,1.9-0.5,1.9-2c0-0.5,0.1-0.9,0.6-1.2c0.6-0.4,0.6-1.3,0.1-1.9
		C7.7,3.7,6.8,3.8,6.3,4.4C5.8,4.9,5.9,5.7,6.5,6.2C7.1,6.7,7.2,7.4,7,8.1C6.7,8.8,6.1,8.7,5.6,8.7c-1,0-2,0-3.1,0
		c-0.4,0-0.7-0.1-0.6-0.6c0-1,0-2,0-3c0.1-1,0.7-1.8,1.7-1.8C5.4,3.2,7.3,3.3,9.2,3.3z"/>
	<path class="st1" d="M16.8,13c-0.2,0-0.5,0.1-0.7,0.1c-1.4,0-2.8,0-4.1,0c-1.1,0-1.5,0.4-1.7,1.5c0,0.2-0.2,0.5-0.4,0.7
		c-0.4,0.4-0.7,1-0.4,1.5c0.3,0.4,0.8,0.7,1.3,0.8c0.6,0.1,1-0.4,1.2-1c0.1-0.6-0.1-1.1-0.7-1.4c-0.3-0.2-0.6-0.3-0.5-0.7
		c0.1-0.5,0.5-0.8,1-0.8c1.1,0,2.2,0,3.4,0c1.8,0,1.8,0,1.7,1.8c0,0.6-0.1,1.2-0.3,1.7c-0.3,0.7-0.9,1.1-1.6,1.1
		c-1.9,0-3.9,0.1-5.8,0.1c-0.2,0-0.5-0.3-0.5-0.5c0-1.4,0-2.8,0-4.1c0-0.6,0.3-0.9,0.8-0.9c2.4,0,4.8,0,7.2,0c0.1,0,0.1,0.1,0.2,0.1
		C16.8,12.9,16.8,12.9,16.8,13z"/>
	<path class="st1" d="M16.7,11.2c-0.6,0-1.3,0-2,0c-0.6,0-0.9-0.4-0.9-1c0-2.3,0-4.5,0-6.8c1.2-0.4,2.7,0.2,2.8,1.4
		C16.8,6.9,16.7,9,16.7,11.2z"/>
	<path class="st1" d="M8.5,21.2c1.6,0,3.2,0,4.7,0c0.3,0,0.7,0.5,0.8,0.8c0.2,1.3,0.3,2.5,0.3,3.8c0,0.9-0.3,1.2-1.2,1.2
		c-1.5,0-3,0-4.6,0C8.5,25.1,8.5,23.2,8.5,21.2z M11.4,26.5c0.5,0,1.1,0,1.6,0c0.5,0,0.7-0.2,0.7-0.7c0-0.2,0-0.4,0-0.5
		c0.1-0.6-0.2-0.8-0.8-0.8c-0.9,0-1.8,0-2.7,0c-1.1,0-1.2,0.2-1.2,1.3c0,0.6,0.3,0.8,0.8,0.8C10.5,26.4,10.9,26.5,11.4,26.5z
		 M9.2,21.8c0,0.6-0.1,1,0,1.4c0,0.2,0.3,0.5,0.5,0.5c1.1,0,2.1,0,3.2,0c0.7,0,0.6-0.5,0.6-0.9c0-0.4,0.1-1-0.6-1
		C11.7,21.8,10.5,21.8,9.2,21.8z"/>
	<path class="st1" d="M21.8,24.2c0-0.6,0-1.3,0-1.9c0-0.7,0.3-1,1-1c1.2,0,2.5,0,3.7,0c0.8,0,1.1,0.3,1.1,1.1c0,1.2,0,2.4,0,3.6
		c0,0.8-0.3,1.2-1.2,1.2c-1.2,0-2.4,0-3.6,0c-0.8,0-1.1-0.4-1.2-1.2C21.8,25.3,21.8,24.8,21.8,24.2z M27,24.1c0-0.5,0-1.1,0-1.6
		c0-0.5-0.2-0.7-0.7-0.7c-1.1,0-2.1,0-3.2,0c-0.5,0-0.7,0.2-0.7,0.7c0,1.1,0,2.2,0,3.3c0,0.4,0.2,0.6,0.6,0.6c1.1,0,2.2,0,3.4,0
		c0.5,0,0.6-0.2,0.6-0.7C27,25.2,27,24.7,27,24.1z"/>
	<path class="st1" d="M41.2,25c-1.6,0-3,0-4.6,0c0,0.7,0,1.4,0,2c-0.5,0.3-0.7,0.1-0.7-0.4c0-1.4,0-2.8,0-4.2c0-0.9,0.3-1.2,1.3-1.2
		c1.1,0,2.2,0,3.4,0c1,0,1.2,0.3,1.2,1.2c0,1.4,0,2.7,0,4.1c0,0.2-0.2,0.4-0.3,0.5c-0.1-0.2-0.3-0.3-0.3-0.5
		C41.1,26.1,41.2,25.6,41.2,25z M36.6,24.3c1.1,0,2,0,3,0c1.9,0,1.5,0.3,1.6-1.7c0,0,0-0.1,0-0.1c0-0.5-0.2-0.7-0.7-0.7
		c-1.1,0-2.1,0-3.2,0c-0.5,0-0.8,0.2-0.7,0.7C36.6,23.1,36.6,23.6,36.6,24.3z"/>
	<path class="st1" d="M31.7,24c1.3-0.8,1.6-2.6,3.4-2.9c0,0.6,0,1.1,0,1.6c0,1.2,0,2.5,0,3.7c0,0.4-0.1,0.7-0.7,0.5
		c0-1.6,0-3.2,0-4.8c-0.1,0-0.1,0-0.2-0.1c-0.8,1-1.7,1.9-2.5,3c-0.9-1-1.7-2-2.6-3.1c0,0.3-0.1,0.5-0.1,0.7c0,1.3,0,2.5,0,3.8
		c0,0.2-0.2,0.3-0.3,0.5c-0.1-0.2-0.3-0.3-0.3-0.5c0-1.8,0-3.5,0-5.3c0.6-0.3,0.9-0.1,1.3,0.3C30.4,22.5,31.1,23.2,31.7,24z"/>
	<path class="st1" d="M7.1,25c-1.6,0-3,0-4.6,0c0,0.5,0,1.1,0,1.6c0,0.2-0.2,0.3-0.3,0.5c-0.1-0.2-0.3-0.3-0.3-0.5
		c0-1.5,0-2.9,0-4.4c0-0.7,0.4-1,1-1c1.3,0,2.6,0,3.9,0c0.6,0,1,0.3,1,1c0,1.5,0,3,0,4.4c0,0.2-0.2,0.3-0.3,0.5
		c-0.1-0.2-0.3-0.3-0.3-0.5C7.1,26.1,7.1,25.6,7.1,25z M2.5,24.2c1.6,0,3.1,0,4.6,0c0-0.7,0.1-1.2,0-1.8c0-0.2-0.4-0.6-0.6-0.6
		c-1.1-0.1-2.2-0.1-3.4,0c-0.2,0-0.6,0.3-0.6,0.5C2.4,23,2.5,23.6,2.5,24.2z"/>
	<path class="st1" d="M67.5,27.1c0-0.7,0-1.3,0-2c-1.5,0-3,0-4.6,0c0,0.5,0,1.1,0,1.6c0,0.2-0.2,0.3-0.3,0.5
		c-0.1-0.2-0.3-0.3-0.3-0.5c0-1.5,0-3,0-4.5c0-0.6,0.4-0.9,1-0.9c1.3,0,2.5,0,3.8,0c0.7,0,1,0.4,1,1c0,1.5,0,2.9,0,4.4
		c0,0.2-0.2,0.4-0.3,0.6C67.7,27.1,67.6,27.1,67.5,27.1z M63,24.2c1.5,0,3,0,4.5,0c0-0.6,0-1.1,0-1.6c0-0.6-0.2-0.8-0.8-0.8
		c-0.6,0-1.2,0-1.8,0c-2.2,0-2.2,0-2,2.3C62.9,24.1,62.9,24.1,63,24.2z"/>
	<path class="st1" d="M55.1,21.3c0,1.8,0,3.6,0,5.4c0,0.1-0.2,0.3-0.3,0.4c-0.1-0.2-0.3-0.3-0.3-0.5c0-1.2,0-2.3,0-3.5
		c0-0.3,0-0.6,0-1.1c-0.3,0.3-0.5,0.5-0.7,0.7c-1.1,1.3-2.1,2.5-3.2,3.8c-0.3,0.3-0.7,0.5-1.1,0.7c-0.1-0.1-0.2-0.1-0.2-0.2
		c0-0.5,0-1,0-1.5c0-1.3,0-2.5,0-3.8c0-0.5,0.2-0.6,0.7-0.5c0,1.6,0,3.2,0,5c1-1.1,1.8-2.1,2.6-3.1c0.4-0.5,0.9-1,1.3-1.5
		C54.1,21.3,54.5,21.1,55.1,21.3z"/>
	<path class="st1" d="M56.6,23.7c1.3,0.3,2.2,0.1,2.8-1c0.3-0.4,0.6-0.8,1-1.2c0.2-0.2,0.6-0.3,0.9-0.4c0,0.1,0.1,0.1,0.1,0.2
		c-0.8,0.9-1.5,1.8-2.3,2.8c0.8,1,1.6,1.9,2.3,2.8c0,0.1-0.1,0.2-0.1,0.2c-0.3-0.1-0.6-0.2-0.8-0.4c-0.5-0.5-1-1.2-1.5-1.7
		c-0.5-0.5-1.3-0.8-2-0.5c-0.2,0.1-0.3,0.3-0.3,0.5c-0.1,0.6,0,1.1-0.1,1.7c0,0.1-0.2,0.3-0.3,0.4c-0.1-0.1-0.3-0.3-0.3-0.4
		c0-1.8,0-3.6,0-5.4c0.5-0.2,0.7,0,0.7,0.4C56.6,22.4,56.6,23.1,56.6,23.7z"/>
	<path class="st1" d="M45.2,21.9c-0.9-0.1-1.8-0.2-2.6-0.3c0,0,0-0.2,0-0.4c1.9,0,3.7,0,5.5,0c0.1,0,0.2,0.2,0.3,0.3
		c-0.1,0.1-0.2,0.3-0.4,0.3c-0.7,0-1.4,0-2.2,0c0,1.6,0,3.1,0,4.7c0,0.4,0,0.7-0.7,0.6C45.2,25.4,45.2,23.7,45.2,21.9z"/>
	<path class="st1" d="M17.8,21.8c-0.8,0-1.4,0-2.1,0c-0.2,0-0.4-0.2-0.5-0.3c0.2-0.1,0.4-0.3,0.5-0.3c1.6,0,3.1,0,4.7,0
		c0.2,0,0.4,0.2,0.5,0.2c-0.2,0.1-0.3,0.3-0.5,0.3c-0.4,0.1-0.8,0.1-1.1,0c-0.7-0.1-1,0.2-1,0.9c0.1,1.2,0,2.5,0,3.7
		c0,0.2-0.2,0.4-0.2,0.6c-0.1-0.2-0.3-0.4-0.3-0.6C17.8,25,17.8,23.5,17.8,21.8z"/>
	<path class="st1" d="M12.4,7.7c-0.2,0.2-0.5,0.5-0.9,0.6c-0.5,0.1-0.8-0.3-0.8-0.8c0-0.5,0.3-0.8,0.8-0.8C12,6.6,12.4,6.9,12.4,7.7
		z"/>
	<path class="st1" d="M10.7,15.1c0.4,0.5,0.8,0.8,0.8,1.1c0,0.3-0.4,0.7-0.7,0.8c-0.3,0-0.7-0.4-0.7-0.7C9.9,16,10.3,15.6,10.7,15.1
		z"/>
	<path class="st1" d="M8.2,5.4C7.9,5.6,7.6,6,7.3,5.9C7,5.9,6.8,5.4,6.5,5.2C6.8,4.9,7,4.5,7.3,4.5c0.3,0,0.6,0.4,0.9,0.6
		C8.2,5.2,8.2,5.3,8.2,5.4z"/>
	<path class="st1" d="M6.4,15.3c0.2,0.3,0.5,0.6,0.5,0.9c0.1,0.5-0.3,0.8-0.7,0.7c-0.3-0.1-0.7-0.5-0.7-0.7c0-0.3,0.4-0.6,0.6-0.9
		C6.2,15.3,6.3,15.3,6.4,15.3z"/>
</g>
</svg>
