<?xml version="1.0" encoding="utf-8"?>
<!-- Generator: Adobe Illustrator 26.4.1, SVG Export Plug-In . SVG Version: 6.00 Build 0)  -->
<svg version="1.1" id="Слой_1" xmlns="http://www.w3.org/2000/svg" xmlns:xlink="http://www.w3.org/1999/xlink" x="0px" y="0px"
	 viewBox="0 0 70 30.4" style="enable-background:new 0 0 70 30.4;" xml:space="preserve">
<g class="st0">
	<path class="st1" d="M12.8,10.4h-1.9c0-0.1-0.4-1.3-1.9-1.3c-1.1,0-1.4,0.6-1.4,1c0,0.9,1.6,1.1,2.5,1.4c1,0.3,3.1,0.8,3.1,2.9
		c0,1.1-0.6,1.9-1.2,2.3c-0.7,0.6-1.7,0.8-2.9,0.8c-2.9,0-4.2-1.7-4.3-3.3H7c0,0.4,0.5,1.5,2.2,1.5c1.4,0,1.6-0.8,1.6-1.1
		c0-0.9-1.3-1.1-2.4-1.4c-1.1-0.3-3.1-0.8-3.1-2.9c0-1.6,1.1-3,3.8-3C12.4,7.4,12.8,9.9,12.8,10.4"/>
	<path class="st1" d="M21.1,15c-0.1,0.5-0.8,2.6-3.5,2.6c-1.2,0-2.1-0.5-2.6-1c-0.5-0.5-1-1.4-1-2.8c0-1.6,0.7-2.5,1.3-3
		c0.8-0.7,1.8-0.8,2.4-0.8c1.4,0,2.3,0.6,2.8,1.2c0.4,0.5,0.8,1.4,0.8,2.6v0.4h-5c0,1,0.4,1.9,1.5,1.9c1,0,1.3-0.7,1.4-1.1
		C19.1,15,21.1,15,21.1,15z M19,13c0-0.4-0.2-1.6-1.4-1.6c-1.2,0-1.4,1.1-1.4,1.6H19z"/>
	<path class="st1" d="M25,10.1h1.5v1.5H25v3.3c0,0.3,0,0.6,0.2,0.8c0.2,0.2,0.4,0.2,0.7,0.2h0.8v1.5c-0.5,0.1-1.1,0.1-1.6,0.1
		c-0.5,0-1.2-0.1-1.7-0.6c-0.5-0.6-0.5-1.3-0.5-2v-3.3h-1.1v-1.5h1.1l0.2-2.2H25V10.1z"/>
	<path class="st1" d="M40.2,17.4H39l-0.4-1.1c-0.2,0.3-0.6,0.6-0.9,0.8c-0.5,0.3-1.2,0.4-1.8,0.4c-0.9,0-2-0.2-2.9-1.2
		c-0.9-0.9-1.3-2.4-1.3-3.7c0-1.3,0.4-2.8,1.2-3.8c1-1.2,2.3-1.4,3.3-1.4c3,0,3.8,2,3.9,3.5H38c0-0.4-0.2-0.8-0.4-1.1
		c-0.2-0.3-0.6-0.7-1.4-0.7c-0.6,0-1.2,0.2-1.6,1.1c-0.1,0.2-0.4,0.8-0.4,2.3c0,0.8,0.1,1.8,0.5,2.4c0.3,0.5,0.8,1,1.7,1
		c0.5,0,1-0.2,1.2-0.5C37.8,15,38,14.6,38,14v-0.2h-2v-1.7h4.1L40.2,17.4L40.2,17.4z"/>
	<path class="st1" d="M41.8,17.4v-7.3h1.9v1.6h0c0.1-0.6,0.3-0.9,0.5-1.1c0.2-0.3,0.7-0.6,1.4-0.6c0.1,0,0.3,0,0.4,0v1.9h-0.3
		c-0.4,0-0.7,0.1-1,0.2c-0.7,0.4-0.8,1.1-0.8,1.9v3.4L41.8,17.4L41.8,17.4z"/>
	<path class="st1" d="M52.8,10.9c0.3,0.3,1.1,1.2,1.1,2.8c0,1.2-0.5,2.2-1.1,2.9c-0.5,0.5-1.3,0.9-2.5,0.9c-1.2,0-2-0.5-2.5-0.9
		c-0.7-0.7-1.1-1.7-1.1-2.9c0-1.5,0.7-2.4,1.1-2.8c0.8-0.8,1.8-1,2.5-1C51,9.9,52,10.1,52.8,10.9 M49.3,11.9
		c-0.3,0.5-0.4,1.2-0.4,1.8c0,1,0.2,1.5,0.3,1.8c0.3,0.5,0.7,0.6,1.1,0.6c0.4,0,0.8-0.1,1.1-0.6c0.2-0.3,0.3-0.8,0.3-1.8
		c0-0.5,0-1.2-0.4-1.8c-0.2-0.4-0.6-0.6-1-0.6S49.5,11.6,49.3,11.9z"/>
	<path class="st1" d="M57.1,10.1v4.4c0,0.3,0,0.8,0.2,1.1c0.2,0.2,0.4,0.3,0.7,0.3c0.3,0,0.7-0.2,1-0.5c0.3-0.4,0.3-0.8,0.3-1.2
		v-4.2h2.1v7.3h-2v-1.3h0c-0.4,0.9-1.1,1.4-2.2,1.4c-0.7,0-1.1-0.2-1.5-0.5c-0.7-0.6-0.8-1.4-0.8-2.2v-4.7L57.1,10.1L57.1,10.1z"/>
	<path class="st1" d="M63,19.7v-9.7h2v1.2c0.4-0.9,1.3-1.3,2.2-1.3c1.8,0,2.8,1.6,2.8,3.7c0,2.8-1.4,3.9-2.8,3.9
		c-0.9,0-1.5-0.4-2-1.1v3.3L63,19.7L63,19.7z M65.2,14.5c0,1,0.5,1.6,1.2,1.6c1.1,0,1.3-1.2,1.3-2.4c0-1.7-0.5-2.3-1.3-2.3
		c-0.8,0-1.2,0.6-1.2,1.5V14.5z"/>
	<rect x="28.3" y="6.5" class="st1" width="2.2" height="10.9"/>
	<rect x="28.3" y="6.5" class="st1" width="2.2" height="10.9"/>
	<polygon class="st1" points="0,0 0,30.4 30.4,30.4 30.4,19.6 28.3,19.6 28.3,28.2 2.2,28.2 2.2,2.2 28.3,2.2 28.3,4.4 30.4,4.4 
		30.4,0 	"/>
</g>
</svg>
