<?xml version="1.0" encoding="utf-8"?>
<!-- Generator: Adobe Illustrator 26.4.1, SVG Export Plug-In . SVG Version: 6.00 Build 0)  -->
<svg version="1.1" id="Слой_1" xmlns="http://www.w3.org/2000/svg" xmlns:xlink="http://www.w3.org/1999/xlink" x="0px" y="0px"
	 viewBox="0 0 59 56.9" style="enable-background:new 0 0 59 56.9;" xml:space="preserve">
<g>
	<path class="st0" d="M33.4,36.7c-4.2,0-8.4,0-12.6,0c-0.1,0-0.2,0.1-0.3-0.1c-0.1-0.1,0-0.3,0.1-0.4c1.2-1.3,2-2.8,2.7-4.3
		c1.9-4.3,3.8-8.5,5.7-12.8c0.9-2.1,1.9-4.2,2.8-6.4c0.1-0.3,0.2-0.6,0.3-0.9c0.2-0.8-0.1-1.4-0.8-1.9c-0.1-0.1-0.3-0.1-0.4-0.2
		c-0.1,0-0.2-0.1-0.1-0.2c0-0.1,0.1-0.1,0.2-0.1c0.7,0,1.4,0,2.1,0c1,0,2.1,0.1,3.1,0.1c0.2,0,0.3,0,0.4,0.2
		c2.4,5.4,4.8,10.8,7.2,16.3c1.2,2.7,2.4,5.3,3.5,8c0.1,0.2,0.2,0.2,0.3,0.2c0.6,0,1.1,0.1,1.6,0.5c0.1,0.1,0.2,0.1,0.2,0.2
		c0.4,0.4,0.5,0.6,0.2,1.1c-0.5,0.9-1.1,1.8-1.6,2.7c-0.2,0.3-0.4,0.6-0.5,0.9C47.3,39.9,47,40,46.6,40c-0.3,0-0.3,0-0.2-0.3
		c0.2-0.5,0.4-0.9,0.5-1.4v-0.1c0.2-1-0.1-1.4-1.2-1.4C41.7,36.7,37.5,36.7,33.4,36.7L33.4,36.7z M34.2,15.4
		c-0.1,0.2-0.1,0.3-0.2,0.4c-1.1,2.7-2.2,5.3-3.3,8c-1.4,3.4-2.8,6.8-4.3,10.2c-0.1,0.2-0.1,0.3,0.2,0.3c4,0,7.9,0,11.9,0.1
		c0.9,0,1.7,0,2.5-0.2s1.1-0.7,0.7-1.4c-0.6-1.3-1.2-2.7-1.7-4c-1.4-3.3-2.9-6.6-4.3-9.8C35.2,17.7,34.7,16.6,34.2,15.4z"/>
	<path class="st0" d="M13.6,36.7c-0.7,0-1.4,0-2.1,0c-0.3,0-0.3-0.1-0.2-0.3c0.1-0.5,0.4-0.9,1-1c0.9-0.1,1.4-0.8,1.7-1.6
		c2.8-6.2,5.5-12.4,8.3-18.6c0.8-1.7,1.5-3.4,2.3-5C24.9,9.6,25,9,24.8,8.4c-0.1-0.1,0-0.2,0.1-0.2c0.4,0,0.9,0,1.3,0
		c0.1,0,0.2,0,0.2,0.1c0.7,0.6,1.5,1.2,2.2,1.9c0.5,0.5,0.6,1,0.3,1.6c-0.9,2-1.8,4-2.7,6c-2.1,4.8-4.2,9.5-6.3,14.3
		c-0.4,0.9-0.7,1.7-1.2,2.5c-0.8,1.4-2,2-3.6,2C14.6,36.6,14.1,36.7,13.6,36.7z"/>
	<path class="st0" d="M9.2,8.9C9.7,8,10.1,7,10.7,6.2C11,5.7,11.3,5.4,11.6,5c0.4-0.3,0.8-0.5,1.3-0.5c3.8,0,7.6,0,11.4,0
		c6.7,0,13.4,0,20,0c0.2,0,0.5,0,0.7,0c0.6-0.1,1-0.3,1.3-0.8c0.1-0.1,0.2-0.2,0.3-0.2c0.2,0,0.5,0,0.7,0c0.1,0,0.2,0,0.1,0.2
		C47,4.8,46.7,5.9,46,6.9c-0.5,0.8-1.2,1.2-2.2,1.2C33.3,8,22.7,8,12.1,8c-0.1,0-0.2,0-0.3,0c-0.5,0-0.9,0.2-1.2,0.6
		c-0.1,0.2-0.3,0.2-0.5,0.2C9.8,8.9,9.5,8.9,9.2,8.9z"/>
	<path class="st0" d="M18.9,43.9c0.1-0.1,0.1-0.2,0.1-0.3c0.2-0.1,0.3-0.3,0.6-0.3c10.9,0,21.9,0,32.8,0c0.2,0,0.5,0,0.7-0.2
		c0-0.1,0.1-0.1,0.2,0c0.1,0,0,0.1,0,0.2c-0.1,0.2-0.1,0.3-0.2,0.5c-0.1,0.2-0.3,0.3-0.5,0.3c0,0,0,0-0.1,0c-11,0-22,0-33,0
		c-0.1,0-0.1,0-0.2,0C19.1,44.1,18.9,44.1,18.9,43.9z"/>
	<path class="st0" d="M8.3,44.4c0.4,0,0.8,0,1.1,0c0.2,0,0.2,0.1,0.2,0.2c0.7,1.6,1.4,3.1,2.1,4.7c0.1,0.3,0.2,0.5,0.6,0.6
		c0.2,0,0.3,0.2,0.1,0.4c-0.1,0.2-0.3,0.4-0.4,0.7c-0.1,0.1-0.1,0.2-0.2,0.2c0,0,0,0,0-0.1c0.2-0.7,0.2-0.7-0.5-0.7
		c-1.7,0-3.3,0-5,0c-0.1,0-0.2,0-0.2,0c1-1.6,1.6-3.4,2.4-5.1C8.7,44.9,8.7,44.7,8.3,44.4z M7.4,49.9c1.1,0,2.1,0,3.1,0
		c0.3,0,0.4-0.1,0.3-0.4c-0.4-0.9-0.8-1.7-1.1-2.6c-0.2-0.4-0.3-0.7-0.5-1.1C8.5,47.1,7.9,48.5,7.4,49.9z"/>
	<path class="st0" d="M17.7,43.2c0.1,0.6,0.3,1.2,0.4,1.7c-0.1,0-0.1,0-0.2-0.1c-0.6-0.9-2-1.3-3.1-0.9c-0.7,0.3-1.1,1-1.3,1.7
		c-0.3,1.3,0.1,2.5,1,3.4c1,0.9,2.9,1.1,3.9-0.1l0.1-0.1c0-0.1,0.1-0.2,0.2-0.2v0.2c-0.2,0.4-0.3,0.9-0.5,1.3
		c-0.1,0.1-0.1,0.2-0.2,0.2c-0.4,0-0.8,0-1.2,0c-1.7,0.1-3.3-0.5-4.1-2c-0.7-1.3-0.6-3.1,0.4-4.1c0.8-0.8,1.8-1,2.8-1
		c0.4,0,0.8,0.1,1.2,0.1C17.3,43.3,17.6,43.3,17.7,43.2z"/>
	<path class="st0" d="M36.7,50.2c-0.6,0-1.2,0-1.7,0c0.5-0.2,0.4-0.6,0.4-1c0-0.9,0-1.8,0-2.7c0-0.1,0-0.2,0-0.2
		c-0.1-0.1-0.1,0-0.2,0.1c-0.6,0.6-1.3,1.1-1.9,1.7c-0.1,0.1-0.2,0.1-0.2,0.2c0,0.4,0,0.8,0,1.2c0,0.3,0.1,0.5,0.4,0.6
		c-0.6,0-1.2,0-1.7,0c0.4-0.2,0.4-0.6,0.4-0.9c0-1.1,0-2.2,0-3.2c0-0.4,0-0.7-0.5-0.9c0.6,0,1.2,0,1.7,0c-0.3,0.1-0.4,0.3-0.4,0.6
		c0,0.6,0,1.2,0,1.8c0.1,0,0.2-0.1,0.3-0.2c0.6-0.5,1.1-1,1.7-1.5c0.4-0.3,0.4-0.6-0.2-0.8c0.6,0,1.2,0,1.8,0
		c-0.4,0.1-0.4,0.5-0.4,0.8c0,1.2,0,2.3,0,3.5C36.2,49.8,36.3,50.1,36.7,50.2z"/>
	<path class="st0" d="M29,50.3c-1.6,0-2.8-1.2-2.7-2.8c0-1.5,1.3-2.6,2.9-2.5c1.5,0,2.7,1.3,2.7,2.8C31.8,49.2,30.5,50.4,29,50.3z
		 M27.2,47.3c0,0.7,0.2,1.3,0.5,1.8c0.4,0.6,1,0.9,1.7,0.8c0.7-0.1,1.1-0.6,1.3-1.2c0.3-1,0-2-0.7-2.7c-0.9-0.9-2.2-0.6-2.7,0.6
		C27.3,46.8,27.2,47.1,27.2,47.3z"/>
	<path class="st0" d="M45.7,49.3L45.7,49.3c-0.1,0.4-0.1,0.8-0.3,0.9s-0.6,0-0.9,0c-1,0-2,0-3,0c0.5-0.2,0.5-0.6,0.5-1
		c0-1.1,0-2.1,0-3.2c0-0.4,0-0.8-0.5-1c0.2,0,0.3,0,0.5,0c1,0,2.1,0,3.1,0c0.1,0,0.1,0,0.1,0.1c0.1,0.4,0.2,0.9,0.2,1.3
		c-0.4-0.6-1-0.9-1.7-1c-0.1,0-0.2,0-0.2,0c-0.6,0-0.7,0.1-0.7,0.7c0,0.7,0,0.7,0.7,0.7c0.3,0,0.7,0,0.8-0.4
		c0.2,0.5,0.2,0.9,0.2,1.4c-0.3-0.7-1-0.6-1.6-0.6c-0.2,0-0.2,0.1-0.2,0.2c0,0.6,0,1.2,0,1.8c0,0.5,0.2,0.6,0.7,0.6
		c0.8,0,1.5-0.2,2-0.8C45.6,49.1,45.7,49.1,45.7,49.3z"/>
	<path class="st0" d="M53.9,50.2L53.9,50.2c-1,0.1-2,0-2.9,0c0.4-0.1,0.5-0.5,0.5-0.8c0-1.1,0-2.2,0-3.4c0-0.4,0-0.7-0.5-0.9
		c0.6,0,1.2,0,1.9,0c-0.4,0.2-0.4,0.2-0.5,0.4c-0.1,0.4,0,0.8-0.1,1.2c0,0.2,0.1,0.1,0.2,0.1c0.5,0.1,1.1,0.2,1.6,0.4
		c0.6,0.3,1.1,0.8,1.1,1.6c0,0.1,0,0.3-0.1,0.4C54.9,49.8,54.4,50,53.9,50.2z M52.3,48.4c0,0.2,0,0.5,0,0.7c0,0.7,0.1,0.8,0.8,0.8
		c0,0,0,0,0.1,0c0.5-0.1,0.9-0.2,1-0.7c0.2-0.5,0-0.9-0.3-1.3c-0.4-0.4-0.9-0.5-1.4-0.6c-0.2,0-0.2,0.1-0.2,0.2
		C52.3,47.8,52.3,48.1,52.3,48.4z"/>
	<path class="st0" d="M47.4,46.5c-0.4,0.8-0.7,1.7-0.7,2.7c0,0.5,0.1,0.9,0.6,1c-0.4,0-0.8,0-1.2,0c-0.2,0-0.1-0.1-0.1-0.2
		c0.1-1.2,0.4-2.4,0.9-3.6c0-0.1,0.1-0.1,0.1-0.2c0.2-0.3,0.6-0.6,0.2-1.1c1.1,0,2.2,0,3.3,0c-0.4,0.2-0.4,0.5-0.4,0.9
		c0,1.1,0,2.2,0,3.4c0,0.1,0,0.2,0,0.3l0,0c0,0.3,0.2,0.4,0.5,0.5c-0.6,0-1.2,0-1.8,0c0.4-0.2,0.4-0.5,0.5-0.8c0-1.1,0-2.2,0-3.3
		c0-0.5-0.3-0.7-0.8-0.6C47.8,45.6,47.6,46,47.4,46.5z"/>
	<path class="st0" d="M24.2,50.2c-0.7,0-1.2,0-1.8,0c0.4-0.2,0.5-0.5,0.5-0.9c0-1.1,0-2.2,0-3.3c0-0.4,0-0.7-0.5-0.9
		c0.1,0,0.1,0,0.1,0c1,0,2,0,3,0c0.4,0,0.7,0.1,0.9,0.5c0.2,0.4,0,0.8-0.2,1.1c-0.5,0.5-1.2,0.8-1.8,1c-0.6,0.2-0.6,0.2-0.6,0.8
		c0,0.3,0,0.6,0,0.9C23.7,49.9,23.7,50,24.2,50.2z M23.6,46.6c0,0.3,0,0.5,0,0.7s0,0.2,0.2,0.1c0.5-0.2,0.9-0.3,1.3-0.7
		c0.2-0.1,0.3-0.3,0.3-0.5c0.1-0.3,0-0.6-0.3-0.7c-0.4-0.1-0.8-0.2-1.2-0.1c-0.2,0-0.3,0.2-0.3,0.4C23.6,46.1,23.6,46.4,23.6,46.6z"
		/>
	<path class="st0" d="M7.4,44.1c0.1,0.2,0.3,0.3,0.4,0.4C8,44.6,8,44.8,7.9,45c-0.7,1.5-1.4,3.1-2.1,4.7c-0.2,0.5-0.5,0.8-1.1,0.7
		c-0.2,0-0.3,0-0.5,0c-0.1,0-0.2,0-0.2-0.1s0-0.2,0.1-0.2c0.3,0,0.4-0.3,0.5-0.6c0.7-1.7,1.5-3.3,2.2-5c0.1-0.1,0.1-0.3,0-0.4
		C7.2,44.2,7.2,43.9,7.4,44.1z"/>
	<path class="st0" d="M17.6,46.3c0.1-0.4,0.2-0.8,0.3-1.2c0-0.1,0.1-0.1,0.2-0.1c1.2,0.1,2.4,0,3.6,0c0.1,0,0.2,0,0.2,0.1
		c0.1,0.4,0.2,0.8,0.3,1.2c-0.2-0.2-0.3-0.4-0.5-0.5c-0.3-0.2-0.7-0.3-1.1-0.3c-0.2,0-0.2,0.1-0.2,0.2c0,1.3,0,2.5,0,3.8
		c0,0.3,0.1,0.6,0.4,0.7c-0.6,0-1.2,0-1.7,0c0.4-0.1,0.5-0.4,0.5-0.8c0-1.2,0-2.4,0-3.6c0-0.3-0.1-0.3-0.3-0.3
		c-0.6,0.1-1.1,0.3-1.4,0.7C17.7,46.3,17.7,46.3,17.6,46.3z"/>
	<path class="st0" d="M39.9,50.2c-0.6,0-1.2,0-1.9,0c0.6-0.1,0.6-0.5,0.6-0.9c0-1.2,0-2.4,0-3.6c0-0.2-0.1-0.3-0.3-0.3
		c-0.6,0.1-1.1,0.3-1.4,0.8c0,0,0,0.1-0.1,0.1c0.1-0.4,0.2-0.8,0.3-1.2c0-0.1,0.1-0.1,0.2-0.1c1.2,0.1,2.4,0,3.6,0
		c0.1,0,0.2-0.1,0.2,0.1c0.1,0.4,0.2,0.8,0.3,1.3c-0.3-0.4-0.6-0.7-1-0.8c-0.8-0.2-0.8-0.2-0.8,0.6c0,1.1,0,2.2,0,3.3
		C39.5,49.8,39.5,50.1,39.9,50.2z"/>
	<path class="st0" d="M7.4,44.1c-0.2-0.2-0.2,0.1-0.4,0.1c-0.1-0.1-0.2-0.1-0.3-0.1c-0.7,0-1.5,0-2.2,0c-0.2,0-0.5,0-0.7,0.1
		c0,0-0.1,0.1-0.2,0c0-0.1,0-0.1,0-0.2c0.1-0.1,0.2-0.3,0.2-0.4c0.1-0.2,0.3-0.3,0.6-0.3c2.2,0,4.4,0,6.6,0c0.2,0,0.4,0,0.6-0.2
		c0-0.1,0.1-0.1,0.2,0c0.1,0,0,0.1,0,0.2c-0.1,0.1-0.1,0.3-0.2,0.4c-0.1,0.3-0.3,0.4-0.6,0.4C9.9,44.1,8.7,44.1,7.4,44.1z"/>
	<path class="st0" d="M7.4,53.3c-0.2,0-0.4,0.1-0.3-0.3c0.1-0.5,0-1,0-1.5c0.2,0,0.4,0,0.6,0c0.4,0,0.6,0.3,0.6,0.6
		s-0.2,0.6-0.6,0.6C7.3,52.8,7.3,52.9,7.4,53.3z M7.5,51.7c-0.1,0-0.2,0-0.2,0.2s0,0.4,0,0.6c0,0.2,0.1,0.2,0.3,0.2
		c0.3,0,0.5-0.2,0.5-0.5C8,51.9,7.8,51.7,7.5,51.7z"/>
	<path class="st0" d="M48.7,51.7c0.3,0.2,0.3,0.4,0.3,0.7c-0.1,0.3-0.3,0.4-0.6,0.4s-0.4,0.1-0.3,0.4c0,0,0.1,0.1,0,0.1
		s-0.2,0-0.3,0s0-0.1,0-0.1c0-0.5,0-1,0-1.6C48,51.6,48.3,51.5,48.7,51.7C48.7,51.6,48.7,51.7,48.7,51.7z M48.4,51.7
		c-0.1,0-0.1,0-0.2,0c-0.2-0.1-0.2,0-0.2,0.2c0,0.1,0,0.2,0,0.3s0,0.1,0,0.2c0,0.1,0,0.3,0.2,0.4c0.2,0,0.4,0,0.5-0.3
		c0.1-0.2,0-0.5-0.1-0.7C48.6,51.7,48.5,51.7,48.4,51.7z"/>
	<path class="st0" d="M17.3,52.8c-0.2,0-0.4,0-0.3-0.3c0-0.2,0-0.5,0-0.7c-0.1-0.3,0.1-0.3,0.3-0.3c0,0.1-0.1,0.3,0,0.4
		c0.1,0.1,0.3,0,0.5,0c0.1,0,0.1-0.1,0.1-0.1c-0.1-0.4,0.1-0.2,0.3-0.3c-0.1,0.3-0.1,0.6,0,0.9c0.1,0.3-0.1,0.3-0.3,0.3
		c0-0.1,0-0.3,0-0.4c0-0.2-0.1-0.3-0.3-0.3c-0.3,0-0.4,0.1-0.3,0.3C17.3,52.5,17.3,52.6,17.3,52.8z"/>
	<path class="st0" d="M44.9,52.8c-0.3-0.2-0.6,0-0.9,0c-0.1,0-0.3-0.1-0.3-0.2c-0.1-0.2,0-0.3,0.1-0.4c0.2-0.1,0.4-0.2,0.5-0.2
		s0.2,0,0.2-0.2c0-0.1-0.1-0.1-0.2-0.1c-0.1,0-0.2,0-0.2,0c-0.1,0-0.1,0.1-0.2,0c0-0.1,0.1-0.1,0.2-0.1c0.5-0.2,0.8,0,0.8,0.6
		C44.8,52.3,44.8,52.6,44.9,52.8z M44.5,52.1c-0.2,0.1-0.5,0.1-0.5,0.4c0,0.1,0.1,0.2,0.3,0.2C44.5,52.6,44.6,52.4,44.5,52.1z"/>
	<path class="st0" d="M26.6,51.5c0.4,0,0.6,0.2,0.6,0.6c0,0.4-0.3,0.7-0.7,0.7c-0.4,0-0.7-0.3-0.7-0.6
		C25.9,51.8,26.2,51.5,26.6,51.5z M26.2,52.2c0,0.3,0.2,0.5,0.4,0.5c0.2,0,0.4-0.2,0.4-0.5s-0.2-0.5-0.4-0.5
		C26.3,51.7,26.2,51.8,26.2,52.2z"/>
	<path class="st0" d="M28.3,53c0.2-0.5,0.4-1,0.6-1.4c0-0.1,0.1-0.1,0.1-0.1c0.2,0,0.5,0,0.7,0c-0.1,0.5-0.2,1,0.2,1.5
		C29.3,52.7,28.8,52.7,28.3,53L28.3,53z M29.4,52.2L29.4,52.2c0-0.1,0-0.2,0-0.3c0-0.2-0.1-0.2-0.2-0.2c-0.2,0.1-0.5,0.8-0.4,0.9
		l0,0c0.2,0,0.3,0,0.5,0c0.1,0,0.1-0.2,0.1-0.3C29.4,52.3,29.4,52.2,29.4,52.2z"/>
	<path class="st0" d="M33.4,51.5c0.4,0,0.7,0.2,0.7,0.6c0,0.4-0.3,0.6-0.7,0.6s-0.7-0.2-0.7-0.6C32.8,51.8,33,51.6,33.4,51.5z
		 M33.8,52.2c0-0.3-0.2-0.5-0.4-0.5S33,51.9,33,52.2s0.2,0.5,0.4,0.5C33.7,52.7,33.8,52.5,33.8,52.2z"/>
	<path class="st0" d="M36.9,51.6c0.1,0,0.2-0.1,0.2,0.2c-0.1,0.3-0.1,0.7,0,1.1c-0.1,0.1-0.2,0-0.4,0c0.1-0.2,0.1-0.4,0.1-0.5
		s-0.1-0.2-0.2-0.2c-0.3,0-0.4,0-0.4,0.4c0,0.1,0,0.2,0,0.3c-0.1,0-0.2,0-0.3,0c0.1-0.4,0.1-0.8,0-1.2c0.1-0.1,0.2,0,0.4,0
		c-0.1,0.2-0.1,0.5,0.3,0.4c0.2,0,0.3-0.1,0.2-0.3C36.7,51.5,36.8,51.6,36.9,51.6c-0.1,0.3-0.1,0.6-0.1,0.9h0.1
		C36.9,52.2,37,51.9,36.9,51.6z"/>
	<path class="st0" d="M9.1,52.8c-0.4,0-0.6-0.3-0.6-0.6c0-0.4,0.3-0.6,0.7-0.6s0.7,0.3,0.7,0.6C9.8,52.6,9.6,52.8,9.1,52.8z
		 M9.6,52.2c0-0.2,0-0.4-0.2-0.5c-0.1-0.1-0.3-0.1-0.4,0c-0.2,0.1-0.2,0.8,0,0.9c0.1,0.1,0.3,0.1,0.4,0C9.5,52.5,9.6,52.4,9.6,52.2z
		"/>
	<path class="st0" d="M15.6,51.6c0.1,0,0.3,0,0.4,0c-0.1,0.3-0.1,0.4,0.2,0.4c0.1,0,0.1,0,0.2,0c0.2,0.1,0.4,0.2,0.4,0.4
		s-0.2,0.3-0.4,0.3c-0.2,0-0.5,0-0.7,0C15.7,52.4,15.7,52,15.6,51.6z M16.2,52.7c0.2,0,0.3-0.1,0.3-0.3s-0.2-0.3-0.4-0.3
		c-0.2,0-0.1,0.2-0.1,0.3C15.9,52.6,15.9,52.7,16.2,52.7z"/>
	<path class="st0" d="M31.2,52.4c-0.1,0.4-0.2,0.4-0.6,0.4S30,52.5,30,52.1c0-0.3,0.2-0.6,0.5-0.6c0.1,0,0.3,0,0.4,0
		c0.1,0.1,0.3,0.2,0.3,0.3s-0.2,0.1-0.3,0.1c-0.1,0-0.2,0-0.3,0.1c-0.1,0-0.3,0-0.3,0.1s0.1,0.2,0.2,0.3
		C30.8,52.8,31,52.7,31.2,52.4z M30.2,52.1c0.2-0.1,0.4-0.1,0.5-0.1c0.2,0,0.1-0.1,0-0.2c-0.1-0.1-0.2-0.1-0.3-0.1
		C30.3,51.7,30.3,51.9,30.2,52.1z"/>
	<path class="st0" d="M12.7,52c0.2-0.3,0.4-0.5,0.8-0.5c0.1,0,0.2,0,0.3,0.1s0.2,0.1,0.2,0.3c0,0.1-0.2,0.1-0.3,0.1
		s-0.3,0.1-0.4,0.1c-0.1,0-0.2,0-0.2,0.1s0.1,0.2,0.2,0.3c0.2,0.2,0.5,0.1,0.7,0c0,0.2-0.1,0.3-0.3,0.3C13.1,52.8,12.9,52.7,12.7,52
		L12.7,52z M13,52.1c0.2,0,0.3-0.1,0.5-0.1s0.1-0.1,0-0.2c-0.1-0.1-0.2-0.1-0.3-0.1C13.1,51.7,13.1,51.9,13,52.1z"/>
	<path class="st0" d="M40.6,52.5c0,0.4-0.2,0.4-0.5,0.3c-0.6,0-0.9-0.5-0.7-0.9s0.7-0.5,1-0.2c0.1,0.1,0.2,0.3-0.1,0.3
		c-0.2,0-0.4,0.1-0.5,0.1c-0.2,0-0.2,0.2-0.1,0.3C40,52.8,40.2,52.8,40.6,52.5z M40.3,51.9c-0.1-0.2-0.2-0.3-0.4-0.2
		s-0.2,0.2-0.2,0.4C39.9,52,40.1,52,40.3,51.9z"/>
	<path class="st0" d="M53.6,52.8c0.1-0.4,0.1-0.8,0-1.2c0.1-0.1,0.3,0,0.4,0c-0.2,0.3-0.1,0.4,0.2,0.4c0.1,0,0.1,0,0.1,0
		c0.2,0.1,0.4,0.2,0.4,0.4s-0.2,0.3-0.4,0.3C54.1,52.8,53.8,52.8,53.6,52.8z M53.9,52.4c0,0.1-0.1,0.3,0.2,0.3c0.2,0,0.3,0,0.3-0.3
		s-0.2-0.3-0.4-0.3C53.8,52.1,54,52.3,53.9,52.4z"/>
	<path class="st0" d="M52.4,52.8c-0.2,0.1-0.3,0-0.3-0.2c0-0.3,0.2-0.6,0.3-0.9c0-0.1,0.1,0,0.2-0.1c0.2,0,0.4,0,0.7,0
		c-0.1,0.4-0.1,0.8,0,1.2C53,52.9,53,52.9,53,52.5c0-0.2,0-0.4,0-0.6c0-0.1,0-0.2-0.1-0.3c-0.1,0-0.2,0-0.3,0.1
		C52.3,52,52.3,52.5,52.4,52.8z"/>
	<path class="st0" d="M37.4,52.8c0.1-0.4,0-0.8,0-1.2c0.1,0,0.2,0,0.4,0c-0.1,0.1-0.1,0.2-0.1,0.3c0,0.2,0.2,0.1,0.3,0.1
		s0.3,0.1,0.4,0.1c0.2,0.2,0.2,0.5-0.1,0.6C38,52.8,37.7,52.8,37.4,52.8z M37.7,52.3c0,0.1-0.1,0.4,0.2,0.3c0.2,0,0.3-0.1,0.3-0.3
		S38,52,37.8,52C37.6,52.1,37.8,52.3,37.7,52.3z"/>
	<path class="st0" d="M15.3,52.8c-0.1,0-0.2,0-0.4,0c0.1-0.3,0-0.6,0-0.8c0-0.1,0-0.2-0.1-0.3c-0.1,0-0.3,0-0.3,0.1
		c-0.2,0.3-0.3,0.6-0.1,1c-0.2,0.1-0.3,0-0.3-0.2c0-0.3,0.2-0.6,0.3-0.9c0-0.1,0.1-0.1,0.2-0.1c0.2,0,0.4,0,0.7,0
		C15.2,52,15.2,52.4,15.3,52.8z"/>
	<path class="st0" d="M18.5,52.8c0.1-0.4,0.1-0.8,0-1.2c0.1,0,0.3,0,0.4,0c-0.2,0.3-0.1,0.4,0.2,0.4c0.1,0,0.2,0,0.3,0.1
		c0.1,0.1,0.3,0.2,0.2,0.4c0,0.2-0.1,0.3-0.3,0.3C19.1,52.8,18.8,52.8,18.5,52.8z M18.8,52.4c0,0.1-0.1,0.4,0.2,0.3
		c0.2,0,0.3-0.1,0.3-0.3c0-0.3-0.2-0.3-0.4-0.3C18.7,52.1,18.9,52.3,18.8,52.4z"/>
	<path class="st0" d="M20.9,52.2c-0.2,0-0.2,0.1-0.1,0.3c0.2,0.3,0.5,0.3,0.8,0c0,0.3-0.2,0.3-0.4,0.3c-0.5,0-0.9-0.4-0.7-0.8
		c0.1-0.2,0.2-0.4,0.4-0.4c0.2,0,0.5,0,0.6,0.2c0.1,0.1,0.2,0.2,0,0.3c-0.1,0-0.2,0-0.2-0.1c0-0.2-0.1-0.3-0.3-0.3
		c-0.2,0-0.3,0.1-0.3,0.3C20.7,52.1,20.8,52.1,20.9,52.2C20.9,52.1,20.9,52.1,20.9,52.2z"/>
	<path class="st0" d="M46.2,52c0.1,0.1,0.1-0.1,0.2-0.2c0.2-0.3,0.8-0.3,1-0.1c0.1,0.1,0.1,0.2-0.1,0.3c-0.2,0-0.4,0.1-0.6,0.2
		c-0.1,0-0.2,0.1-0.1,0.2c0.1,0.2,0.3,0.3,0.6,0.3c0.1,0,0.2-0.1,0.2,0s-0.1,0.1-0.2,0.1C46.6,52.9,46.3,52.6,46.2,52
		C46.3,52,46.3,52,46.2,52L46.2,52z M46.5,52.1C46.7,52,46.9,52,47,52c0.2,0,0.1-0.1,0-0.2c-0.1-0.1-0.2-0.1-0.3-0.1
		C46.6,51.7,46.6,51.9,46.5,52.1z"/>
	<path class="st0" d="M43,51.9c-0.1,0.2-0.2,0.4-0.3,0.6c-0.1-0.1-0.1-0.2-0.2-0.3c-0.1-0.1-0.1-0.2-0.2-0.3c-0.1,0.2-0.1,0.5,0,0.7
		c0.1,0.3-0.1,0.2-0.2,0.2c0.1-0.3,0-0.7,0.1-1c0-0.1-0.2-0.2,0-0.2c0.1,0,0.3-0.1,0.4,0.1c0,0.1,0.1,0.2,0.2,0.4
		C42.9,52.1,42.9,51.9,43,51.9C42.9,51.9,43,51.9,43,51.9z"/>
	<path class="st0" d="M5.5,52.6c0,0.2,0,0.2-0.2,0.3c-0.6,0.1-0.9-0.2-0.9-0.7s0.6-0.8,1-0.5c0.1,0.1,0.1,0.2,0.1,0.3
		c-0.2-0.2-0.4-0.3-0.7,0c-0.2,0.2-0.2,0.5,0,0.7C4.9,52.7,5.2,52.7,5.5,52.6L5.5,52.6z"/>
	<path class="st0" d="M6.4,52.8c-0.1,0-0.3,0-0.4,0c0.1-0.3,0.1-0.5,0.1-0.8S6,51.6,5.7,51.8c0,0-0.1,0-0.1,0.1
		c0-0.2,0.1-0.3,0.3-0.3c0.2,0,0.4,0,0.6,0s0.2,0.1,0.2,0.2c-0.4-0.2-0.4-0.2-0.4,0.3C6.4,52.3,6.4,52.6,6.4,52.8z"/>
	<path class="st0" d="M49.6,51.6c0,0.2-0.1,0.3,0,0.6c0.2-0.2,0.5-0.2,0.5-0.6c0-0.1,0.2,0,0.4,0c-0.1,0.4-0.1,0.8,0,1.2
		c-0.1,0-0.2,0-0.4,0c0.1-0.3,0.1-0.5,0.1-0.8c-0.2,0.1-0.3,0.3-0.5,0.4C49.5,52.1,49.5,51.9,49.6,51.6z"/>
	<path class="st0" d="M46.2,51.9c-0.1-0.1-0.1-0.1-0.2-0.2c-0.2-0.1-0.3-0.1-0.3,0.1c0,0.3,0,0.6,0.1,0.9c-0.3,0.1-0.3,0.1-0.3-0.3
		c0-0.2,0-0.4,0-0.5c0-0.3,0-0.3-0.3-0.2c0,0-0.1,0-0.1,0.1c-0.1-0.2,0-0.3,0.2-0.3s0.4,0,0.6,0S46.2,51.6,46.2,51.9
		C46.2,52,46.2,51.9,46.2,51.9z"/>
	<path class="st0" d="M23.5,52.2C23.7,52,24,52,24,51.6c0-0.1,0.2,0,0.4,0c-0.1,0.4-0.1,0.8,0,1.2c-0.2,0-0.4,0.1-0.3-0.3
		c0-0.2,0-0.4,0-0.6c-0.2,0.1-0.4,0.3-0.6,0.4C23.5,52.3,23.5,52.2,23.5,52.2z"/>
	<path class="st0" d="M12.7,52c0-0.1-0.1-0.2-0.2-0.2c-0.1-0.1-0.2-0.1-0.3-0.1s0,0.2,0,0.2c0,0.3,0,0.6,0.1,0.8c-0.1,0-0.2,0-0.4,0
		c0.1-0.3,0-0.7,0.1-1c0-0.1-0.1-0.1-0.2-0.1c-0.1,0-0.2,0.1-0.3,0.2c0-0.3,0.1-0.4,0.4-0.4c0.1,0,0.2,0,0.3,0
		C12.7,51.6,12.7,51.6,12.7,52L12.7,52z"/>
	<path class="st0" d="M28.1,52.8c-0.1,0-0.2,0-0.4,0c0.1-0.3,0.1-0.6,0.1-0.8c0-0.1,0.1-0.2,0-0.3s-0.2,0-0.3,0.1
		c0,0-0.1,0.1-0.1,0.2c0-0.3,0.1-0.4,0.4-0.4c0.2,0,0.4,0,0.6,0s0.2,0.1,0.2,0.2c-0.1,0-0.1,0-0.2-0.1c-0.2-0.1-0.3,0-0.2,0.2
		C28.1,52.2,28,52.5,28.1,52.8z"/>
	<path class="st0" d="M34.8,52.1c0.5,0,0.5-0.1,0.4-0.6c0.1,0,0.2,0,0.3,0s0.1,0,0.1,0.1c-0.1,0.3-0.1,0.5,0,0.8s-0.1,0.4-0.3,0.3
		c0.1-0.2,0.1-0.4,0-0.6c-0.1,0-0.2,0-0.3,0.1C34.8,52.2,34.8,52.2,34.8,52.1z"/>
	<path class="st0" d="M43,51.9C42.9,51.9,42.9,52,43,51.9L43,51.9c0-0.1,0-0.2,0-0.3c0.1,0,0.3,0,0.4,0c-0.1,0.4-0.1,0.8,0,1.2
		c-0.1,0.1-0.2,0-0.4,0C43.1,52.5,43.1,52.2,43,51.9C43.1,51.9,43.1,51.9,43,51.9z"/>
	<path class="st0" d="M51.5,52c0.2-0.2,0.1-0.3-0.2-0.3c-0.2,0-0.3,0.1-0.5,0.2c0-0.2,0-0.3,0.2-0.3c0.1,0,0.3,0,0.4-0.1
		c0.3,0,0.4,0.1,0.4,0.4c0,0.2,0,0.4,0,0.6c-0.1,0.1-0.1,0.1-0.2,0.1l0,0c0-0.1-0.1-0.1-0.1-0.2C51.6,52.3,51.7,52.2,51.5,52
		C51.6,52,51.5,52,51.5,52z"/>
	<path class="st0" d="M19.9,52.8c0.1-0.4,0.1-0.8,0-1.2c0.1,0,0.2,0,0.4,0c-0.1,0.3-0.1,0.6-0.1,0.9C20.2,52.8,20.1,52.8,19.9,52.8z
		"/>
	<path class="st0" d="M32.2,51.6c0.3-0.1,0.4,0,0.3,0.3c0,0.2,0,0.4,0,0.6c0.1,0.3-0.1,0.4-0.3,0.3C32.3,52.4,32.3,52.1,32.2,51.6
		C32.2,51.6,32.2,51.6,32.2,51.6z"/>
	<path class="st0" d="M10.9,51.8c0-0.3,0.2-0.2,0.4-0.2c-0.1,0.4-0.1,0.8,0,1.2c-0.3,0-0.3,0-0.3-0.1C11.1,52.4,11.1,52.1,10.9,51.8
		z"/>
	<path class="st0" d="M49.6,51.6c-0.1,0.2-0.1,0.5,0,0.7c-0.1,0.2,0,0.3,0,0.5c-0.1,0-0.2,0-0.4,0c0-0.4,0.1-0.8,0-1.2
		C49.4,51.5,49.5,51.5,49.6,51.6C49.6,51.6,49.7,51.6,49.6,51.6C49.7,51.6,49.6,51.6,49.6,51.6z"/>
	<path class="st0" d="M38.8,51.6c0.1,0,0.2,0,0.3,0c-0.1,0.3-0.1,0.6,0,0.9c0,0.3,0,0.4-0.3,0.3C38.8,52.4,38.8,52,38.8,51.6z"/>
	<path class="st0" d="M10.4,52.4c0,0.1,0,0.1,0,0.2c0.1,0.3-0.1,0.3-0.3,0.3c0-0.4,0.1-0.8,0-1.2c0.1,0,0.2,0,0.4,0
		c-0.1,0.2,0,0.4-0.1,0.6C10.4,52.2,10.4,52.3,10.4,52.4z"/>
	<path class="st0" d="M54.9,51.6c0.2,0,0.4-0.1,0.3,0.3c-0.1,0.3,0,0.5,0,0.8c0,0.1,0.1,0.1,0,0.2c-0.1,0-0.2,0-0.2,0
		c-0.1,0,0-0.1,0-0.1C55,52.3,55,51.9,54.9,51.6z"/>
	<path class="st0" d="M23.5,52.2c0,0.1,0,0.1,0,0.2c0,0.1,0,0.3,0,0.4c-0.1,0-0.2,0-0.3,0c0.1-0.4,0.1-0.8,0-1.2
		c0.3-0.1,0.4,0,0.3,0.3C23.5,52,23.5,52.1,23.5,52.2z"/>
	<path class="st0" d="M51.6,52.5c0,0.1,0.1,0.1,0.1,0.2c-0.1-0.1-0.2,0.1-0.3,0.1c-0.2,0.1-0.5,0.1-0.6-0.2s0.1-0.4,0.3-0.5
		c0.1-0.1,0.3-0.1,0.4-0.1l0.1,0.1c-0.1,0.1-0.3,0.1-0.4,0.2c-0.1,0.1-0.2,0.2-0.1,0.3c0.1,0.1,0.2,0.1,0.3,0
		C51.4,52.6,51.5,52.5,51.6,52.5z"/>
	<path class="st0" d="M32.2,51.6L32.2,51.6c-0.2,0-0.4,0.1-0.5,0.3c-0.1,0.3-0.2,0.6,0,0.8c-0.3,0.1-0.3,0-0.3-0.3s0.2-0.6,0.4-0.9
		C31.8,51.8,32,51.6,32.2,51.6C32.1,51.6,32.1,51.6,32.2,51.6z"/>
	<path class="st0" d="M34.8,52.1L34.8,52.1c-0.2,0.2-0.4,0.1-0.4-0.3c0-0.1,0-0.2-0.1-0.3c0.2,0,0.3,0,0.4,0
		c-0.1,0.1-0.1,0.3-0.1,0.4l0,0C34.7,52.1,34.7,52.1,34.8,52.1z"/>
	<path class="st0" d="M10.4,52.4c0-0.1,0-0.1,0-0.2c0.2-0.1,0.3-0.3,0.5-0.4c0.2,0.3,0.2,0.6,0.1,0.9c0-0.2,0-0.5,0-0.8
		C10.8,52,10.6,52.2,10.4,52.4z"/>
	<path class="st0" d="M45.7,49.3c0-0.1,0-0.2-0.2-0.2c0.1-0.2,0.3-0.4,0.4-0.6C45.9,48.8,45.8,49,45.7,49.3z"/>
	<path class="st0" d="M36.9,51.6c0.1,0.3,0,0.6,0.1,0.9h-0.1C36.8,52.2,36.8,51.9,36.9,51.6C36.8,51.6,36.9,51.6,36.9,51.6z"/>
	<path class="st0" d="M18.9,43.9c0,0.2,0.2,0.2,0.4,0.2c-0.1,0-0.2,0-0.3,0.1c-0.1,0.1-0.2,0.1-0.2,0.1c-0.1-0.1,0-0.2,0-0.2
		C18.8,44,18.9,43.9,18.9,43.9z"/>
	<path class="st0" d="M21.4,51.9c0.1,0.1,0.1,0.1,0.2,0.1c-0.2,0.1-0.4,0.1-0.6,0.2v-0.1C21.1,52,21.2,52,21.4,51.9z"/>
	<path class="st0" d="M51.7,52.7c0.1,0,0.1-0.1,0.2-0.1c0,0.1,0.1,0.1,0.1,0.2C51.9,52.8,51.7,52.9,51.7,52.7z"/>
	<path class="st0" d="M32.1,51.6c-0.1,0-0.2,0.2-0.4,0C31.8,51.5,32,51.6,32.1,51.6z"/>
	<path class="st0" d="M43,51.6c0,0.1,0,0.1-0.1,0.2C43,51.7,42.9,51.6,43,51.6z"/>
	<path class="st0" d="M5.5,52.6C5.5,52.5,5.5,52.5,5.5,52.6C5.6,52.6,5.5,52.5,5.5,52.6L5.5,52.6z"/>
	<path class="st0" d="M28.3,53C28.3,53.1,28.3,53.1,28.3,53C28.3,53.1,28.3,53.1,28.3,53C28.3,53.1,28.3,53.1,28.3,53L28.3,53z"/>
	<path class="st0" d="M34.6,52L34.6,52L34.6,52z"/>
	<path class="st0" d="M48.7,51.7C48.7,51.7,48.7,51.6,48.7,51.7C48.7,51.6,48.7,51.7,48.7,51.7z"/>
	<path class="st0" d="M50.1,49.7L50.1,49.7L50.1,49.7L50.1,49.7z"/>
	<path class="st0" d="M48.3,51.7c-0.3,0-0.2,0.3-0.2,0.4c0-0.1,0-0.2,0-0.3C48,51.6,48.1,51.6,48.3,51.7z"/>
	<path class="st0" d="M48.6,51.8L48.6,51.8C48.5,51.7,48.6,51.7,48.6,51.8z"/>
</g>
</svg>
