<?xml version="1.0" encoding="utf-8"?>
<!-- Generator: Adobe Illustrator 26.4.1, SVG Export Plug-In . SVG Version: 6.00 Build 0)  -->
<svg version="1.1" id="Слой_1" xmlns="http://www.w3.org/2000/svg" xmlns:xlink="http://www.w3.org/1999/xlink" x="0px" y="0px"
	 viewBox="0 0 59 56.9" style="enable-background:new 0 0 59 56.9;" xml:space="preserve">
<g class="st0">
	<path class="st1" d="M30,1.9c0.2,0.1,0.3,0.2,0.5,0.3c1.2,0.7,2.4,1.4,3.6,2.1c0.6,0.3,0.8,0.6,0.8,1.3c0,9,0,18,0,27
		c0,0.9,0,1.8,0,2.7c0,0.3-0.1,0.6-0.4,0.7c-1.4,0.8-2.8,1.6-4.2,2.4c-0.2,0.1-0.5,0.1-0.7,0c-1.3-0.7-2.6-1.5-4-2.3
		c-0.5-0.3-0.7-0.6-0.7-1.1c0-5.2,0-10.3,0-15.5c0-0.4-0.1-0.7-0.3-1.1c-0.3-0.6-0.2-1.4,0.3-1.9c0.5-0.5,1.4-0.5,1.9,0
		c0.6,0.5,0.6,1.3,0.2,1.9c-0.2,0.3-0.3,0.6-0.3,0.9c0,4.8,0,9.7,0,14.5c0,0.5,0.2,0.8,0.6,1c0.7,0.4,1.4,0.8,2.1,1.2
		c0.3,0.2,0.5,0.2,0.8,0c0.7-0.5,1.5-0.9,2.2-1.3c0.4-0.2,0.5-0.4,0.5-0.9c0-3,0-6,0-8.9c0-6.2,0-12.5,0-18.7c0-0.5-0.1-0.8-0.6-1
		c-0.7-0.4-1.4-0.8-2.2-1.2c-0.2-0.1-0.5-0.1-0.7,0c-4.5,2.6-9,5.2-13.4,7.7c-0.2,0.1-0.3,0.3-0.3,0.5c0,1.9,0,3.8,0,5.7
		c0,0,0,0.1,0.1,0.1c0.2-0.1,0.3-0.2,0.5-0.3c3.7-2.2,7.5-4.3,11.2-6.5c0.2-0.1,0.5-0.4,0.6-0.6c0.4-0.6,1.1-0.9,1.8-0.7
		c0.7,0.3,1.1,1,0.9,1.7c-0.1,0.7-0.8,1.2-1.5,1.1c-0.5-0.1-0.8,0.1-1.2,0.3c-4.6,2.6-9.1,5.3-13.7,7.9c-0.2,0.1-0.3,0.2-0.6,0.3
		c0-0.3,0-0.5,0-0.6c0-3,0-6.1,0-9.1c0-0.5,0.2-0.7,0.6-1c4.9-2.8,9.9-5.7,14.8-8.6c0.2-0.1,0.3-0.3,0.5-0.4C30,1.9,30,1.9,30,1.9z"
		/>
	<path class="st1" d="M58.1,55c-0.8,0-1.5,0-2.3,0c-0.4,0-0.5-0.1-0.5-0.5c0-1.3,0-2.7,0-4c0-0.5-0.1-0.6-0.6-0.6
		c-1.3,0-2.6,0-3.9,0c-0.5,0-0.6,0.2-0.6,0.6c0,1.3,0,2.6,0,3.9c0,0.4-0.1,0.6-0.6,0.6c-0.5,0-1.1,0-1.6,0c-0.5,0-0.6-0.2-0.6-0.6
		c0-2.6,0-5.2,0-7.8c0-1.3,0-2.6,0-3.9c0.9,0,1.8,0,2.7,0c0,0.8,0,1.6,0,2.4c0,0.7,0,1.3,0,2c0,0.3,0.1,0.5,0.5,0.5
		c1.4,0,2.7,0,4.1,0c0.4,0,0.5-0.2,0.5-0.5c0-1.2,0-2.5,0-3.7c0-0.5,0.2-0.7,0.7-0.6c0.7,0,1.5,0,2.2,0C58.1,46.7,58.1,50.8,58.1,55
		z"/>
	<path class="st1" d="M15.6,42.7c0,2.7,0,5.2,0,8c0.2-0.3,0.4-0.4,0.5-0.6c1.7-2.3,3.3-4.5,5-6.8c0.3-0.5,0.7-0.7,1.2-0.6
		c0.4,0.1,0.8,0,1.2,0c0,4.1,0,8.1,0,12.3c-0.8,0-1.6,0-2.5,0c-0.1,0-0.2-0.4-0.2-0.6c0-2.1,0-4.2,0-6.3c0-0.2,0-0.4,0-0.6
		c0,0-0.1,0-0.1-0.1c-0.1,0.1-0.3,0.3-0.4,0.4c-1.6,2.2-3.3,4.4-4.9,6.6c-0.3,0.4-0.6,0.6-1.2,0.6c-1.4,0-1.4,0-1.4-1.4
		c0-3.4,0-6.8,0-10.1c0-0.7,0-0.7,0.8-0.7C14.2,42.7,14.9,42.7,15.6,42.7z"/>
	<path class="st1" d="M23.7,35.2c-0.3-0.1-0.4-0.2-0.6-0.3c-2.9-1.7-5.7-3.3-8.6-5c-0.4-0.2-0.5-0.4-0.5-0.9c0-1.7,0-3.4,0-5.1
		c0-0.4,0.1-0.5,0.4-0.7c1-0.6,2-1.4,3.3-0.1c0-0.1,0-0.1,0.1-0.2c0-0.4,0-0.9,0-1.3c0-0.2,0.2-0.4,0.4-0.6c0,0,0,0,0,0
		c0.5-0.3,1.1-0.8,1.6-0.8c0.5-0.1,1.1,0.3,1.7,0.5c0,0,0.1-0.1,0.1-0.1c0.1-0.4,0-0.9,0.2-1.1c0.6-0.4,1.2-0.8,1.9-1.1
		c0.3-0.2,0.7,0.3,0.8,0.9c-0.1,0-0.3-0.1-0.4-0.1c-0.1,0-0.2-0.1-0.4-0.1C23.7,24.4,23.7,29.7,23.7,35.2z M21.5,33.2
		c0-0.1,0.1-0.2,0.1-0.2c0-3.8,0-7.6,0-11.3c0-0.1-0.1-0.3-0.2-0.4c-0.5-0.2-1-0.4-1.5-0.6c0,0.2-0.1,0.3-0.1,0.3
		c0,3.6,0,7.3,0,10.9c0,0.2,0.1,0.4,0.2,0.5C20.5,32.7,21,32.9,21.5,33.2z M16.1,22.9c0,2.4,0,4.6,0,6.9c0,0.1,0.1,0.2,0.1,0.3
		c0.5,0.3,0.9,0.6,1.4,0.8c0.1-0.1,0.1-0.1,0.1-0.2c0-2.3,0-4.6,0-6.9c0-0.1-0.1-0.3-0.2-0.4C17.1,23.3,16.6,23.2,16.1,22.9z"/>
	<path class="st1" d="M36.2,19c-0.4,0.1-0.6,0.2-1,0.3c0.1-0.3,0.1-0.6,0.3-0.7c0.3-0.1,0.6-0.3,0.9-0.2c0.6,0.2,1.1,0.6,1.6,0.9
		c0.1,0.1,0.2,0.3,0.3,0.5c0,0.2,0,0.5,0,0.8c0.2-0.1,0.4-0.1,0.5-0.1c1.3-0.9,2.2,0.1,3.2,0.6c0.1,0.1,0.1,0.3,0.1,0.5
		c0,0.4,0,0.9,0,1.4c0.5-0.2,0.9-0.4,1.3-0.5c0.2-0.1,0.5-0.1,0.7,0c0.6,0.3,1.3,0.5,1.6,1c0.3,0.5,0.1,1.2,0.1,1.9
		c0,1.3,0,2.5,0,3.8c0,0.2-0.2,0.5-0.3,0.6c-3,1.8-6,3.5-9.1,5.3c0,0-0.1,0-0.2,0.1C36.2,29.7,36.2,24.4,36.2,19z M39.9,20.6
		c-0.4,0.2-0.7,0.3-1,0.4c-0.5,0.1-0.7,0.4-0.7,1c0,3.5,0,7,0,10.4c0,0.2,0,0.4,0,0.7c0.5-0.3,0.9-0.5,1.3-0.8
		c0.2-0.1,0.3-0.4,0.3-0.6c0-3.5,0-7.1,0-10.6C40,21,40,20.9,39.9,20.6z M43.8,22.9c-0.5,0.2-0.8,0.3-1.1,0.4
		c-0.5,0.1-0.7,0.4-0.6,1c0,2,0,4,0,6c0,0.2,0,0.4,0,0.6c0.4-0.2,0.8-0.5,1.1-0.6c0.4-0.2,0.6-0.5,0.5-0.9c0-1.9,0-3.8,0-5.6
		C43.8,23.5,43.8,23.3,43.8,22.9z"/>
	<path class="st1" d="M46,55c-0.9,0-1.7,0-2.5,0c-0.1,0-0.4-0.2-0.4-0.4c-0.3-0.6-0.5-1.3-0.7-1.9c-0.1-0.4-0.3-0.5-0.7-0.5
		c-1,0-2,0-2.9,0c-0.3,0-0.5,0.1-0.6,0.5c-0.2,0.7-0.4,1.3-0.7,2c-0.1,0.2-0.3,0.4-0.4,0.4c-0.8,0-1.6,0-2.5,0
		c0.1-0.2,0.1-0.4,0.2-0.6c1.3-3.7,2.7-7.4,4-11.1c0.2-0.4,0.3-0.6,0.8-0.6c0.5,0,1,0,1.4,0c0.3,0,0.5,0.1,0.6,0.4
		c1.4,3.8,2.8,7.6,4.2,11.5C45.9,54.6,46,54.8,46,55z M38.8,50.3c1.1,0,2,0,3,0c-0.5-1.5-1-2.9-1.4-4.3c-0.1,0-0.1,0-0.2,0
		C39.8,47.4,39.3,48.8,38.8,50.3z"/>
	<path class="st1" d="M44,18.5c0-0.3,0.1-0.5,0.1-0.6c0-1.7,0-3.4,0-5.1c0-0.4-0.1-0.6-0.5-0.8c-1.8-1-3.6-2.1-5.3-3.1
		c-0.2-0.1-0.5-0.2-0.8-0.2c-0.8,0-1.4-0.4-1.5-1.2c-0.1-0.7,0.3-1.4,0.9-1.7c0.7-0.2,1.4,0.1,1.8,0.8C38.8,7,39,7.3,39.2,7.4
		c2,1.2,4.1,2.4,6.1,3.5c0.4,0.2,0.6,0.5,0.6,0.9c0,3,0,6.1,0,9.1c0,0.2,0,0.4,0,0.7c-0.3-0.2-0.5-0.2-0.7-0.4
		c-2.3-1.3-4.5-2.6-6.8-3.9c-0.3-0.2-0.6-0.2-1-0.2c-0.8,0-1.4-0.5-1.5-1.2c-0.1-0.8,0.3-1.5,1-1.7c0.7-0.2,1.4,0.1,1.8,0.8
		c0.1,0.2,0.1,0.3,0.3,0.4C40.6,16.5,42.3,17.5,44,18.5z M37.4,15c-0.4,0-0.8,0.3-0.8,0.7c0,0.4,0.3,0.7,0.7,0.7
		c0.4,0,0.7-0.3,0.7-0.7C38,15.3,37.8,15,37.4,15z M38,7.4c0-0.4-0.3-0.7-0.7-0.7c-0.4,0-0.7,0.3-0.7,0.7c0,0.4,0.3,0.7,0.7,0.7
		C37.8,8,38,7.8,38,7.4z"/>
	<path class="st1" d="M35.4,42.7c0,0.8,0,1.6,0,2.4c-3.4,0-6.8,0-10.3,0c0-0.8,0-1.6,0-2.4C28.6,42.7,32,42.7,35.4,42.7z"/>
	<path class="st1" d="M6.1,45.1c-1.5,0-3.1,0-4.6,0c-0.4,0-0.6-0.1-0.6-0.6C1,43.9,1,43.3,1,42.7c0.6,0,1.1-0.1,1.7-0.1
		c2.6,0,5.2,0,7.8,0c0.5,0,0.7,0.1,0.7,0.6c-0.1,0.6,0.1,1.4-0.2,1.7c-0.3,0.3-1.1,0.1-1.7,0.1C8.3,45.1,7.2,45.1,6.1,45.1z"/>
	<path class="st1" d="M4.8,46.4c0.9,0,1.8,0,2.7,0c0,0.2,0,0.4,0,0.5c0,2.5,0,5,0,7.5c0,0.5-0.1,0.6-0.6,0.6c-0.6,0-1.2,0-1.7,0
		c-0.3,0-0.5-0.1-0.5-0.4c0-2.6,0-5.3,0-7.9C4.7,46.6,4.8,46.5,4.8,46.4z"/>
	<path class="st1" d="M28.9,46.4c1,0,1.8,0,2.7,0c0,0.2,0,0.4,0,0.5c0,2.5,0,5,0,7.5c0,0.5-0.2,0.6-0.6,0.6c-0.6,0-1.2,0-1.7,0
		c-0.1,0-0.4-0.2-0.4-0.3C28.9,51.9,28.9,49.2,28.9,46.4z"/>
</g>
</svg>
