<?xml version="1.0" encoding="utf-8"?>
<!-- Generator: Adobe Illustrator 26.4.1, SVG Export Plug-In . SVG Version: 6.00 Build 0)  -->
<svg version="1.1" id="Слой_1" xmlns="http://www.w3.org/2000/svg" xmlns:xlink="http://www.w3.org/1999/xlink" x="0px" y="0px"
	 viewBox="0 0 396.7 88.9" style="enable-background:new 0 0 396.7 88.9;" xml:space="preserve">
<g>
	<path class="st0" d="M31.4,65.7c-0.2,0.1-0.2,0.4-0.1,0.5c0.1,0.1,0.2,0.2,0.3,0.2h32.8c0.7,0,1.3-0.6,1.3-1.3v-21
		c0-0.4-0.3-0.7-0.7-0.7c-0.1,0-0.3,0-0.4,0.1L31.4,65.7z"/>
	<path class="st1" d="M51.3,19c0.4-0.3,0.5-0.8,0.2-1.2c-0.1-0.1-0.1-0.2-0.2-0.2l-14-9.3c-0.6-0.4-1.5-0.4-2.1,0L7.8,26.4
		c-0.7,0.4-1.1,1.2-1.1,2v18.9c0,0.4,0.3,0.7,0.7,0.7c0.1,0,0.3,0,0.4-0.1L51.3,19z"/>
	<path class="st0" d="M64.6,38.3c0.7-0.4,1.1-1.2,1.1-2v-7.9c0-0.8-0.4-1.5-1.1-2l-7.2-4.8c-0.6-0.4-1.5-0.4-2.1,0L7.8,53.2
		c-0.7,0.4-1.1,1.2-1.1,2v9.9c0,0.7,0.6,1.3,1.3,1.3h13.1c0.8,0,1.7-0.2,2.3-0.7L64.6,38.3z"/>
	<path class="st0" d="M107,66.4H85.3V12.2h35.9v9.4H95.9v11H107c10.9,0,17.6,7,17.6,16.9S118,66.4,107,66.4 M106.5,42H95.9V57h10.6
		c4.7,0,7.5-3,7.5-7.5C114,45.1,111.2,42,106.5,42"/>
	<path class="st0" d="M151,66.4V63c-1.8,1.7-2.6,2.3-4.1,2.9c-1.8,0.7-3.7,1-5.6,0.9c-8.5,0-13.4-4.6-13.4-12.3
		c0-7.2,5.2-11.6,13.6-11.6h9.4v-2c0-4.4-2.2-6.3-7.5-6.3c-3.5,0-5.1,0.7-7.5,3.3l-6.3-6.2c2.3-2.3,3.4-3.1,5.3-4
		c2.3-1,5-1.4,8.8-1.4c11.4,0,17.1,4.7,17.1,14v26.1L151,66.4z M142.9,49.7c-3.5,0-5.6,1.6-5.6,4.5c0,3,2,4.6,6.2,4.6
		c5.1,0,7.2-2,7.2-6.9v-2.1H142.9z M182.3,72.8c-2.1,5.7-5.5,8.1-11.5,8.1h-3.9v-8.9h2.3c2.9,0,4-0.8,5-3.6l1.7-4.9l-13.6-36.9h10.4
		l8.2,24.5l7.9-24.5h10.4L182.3,72.8z M231.4,76.2v-9.8h-28.6V26.7h10v30.9h12.7V26.7h10v30.9h5.3v18.5H231.4L231.4,76.2z M253,49.7
		c0.3,5.9,3.3,8.8,9.1,8.8c1.6,0,3.1-0.3,4.6-0.8c1.4-0.6,2.3-1.2,4.1-2.9l6,5.9c-3,2.8-4.3,3.7-6.9,4.8c-2.6,1-5.4,1.5-8.1,1.4
		c-12.2,0-18.4-6.9-18.4-20.4c0-12.4,6.6-20.2,17.3-20.2c10.5,0,17.3,7.5,17.3,19v4.4L253,49.7z M260.6,34.5c-4.6,0-7.3,3-7.5,8.4
		h15.1C267.8,37.5,265.1,34.5,260.6,34.5 M306,66.4V50.5h-12.7v15.9h-10V26.7h10v15H306v-15h10v39.7C316,66.4,306,66.4,306,66.4z
		 M341.5,35.5v30.9h-10V35.5h-11.7v-8.8h33.1v8.8H341.5z M376.1,26.3c4,0,7.5,1.3,9.8,3.6c1.7,1.9,2.9,4.2,3.4,6.7
		c0.5,2.9,0.7,4.9,0.7,10.2c0,9.3-1.1,13.6-4,16.6c-2.3,2.3-5.9,3.6-9.8,3.6c-4.1,0-6.6-1.1-9.5-4V81h-9.9V26.7h9.6v3.7
		C369.4,27.4,371.7,26.3,376.1,26.3 M373.3,35.2c-6.9,0-6.7,6.9-6.7,12c0,7.8,1.9,10.8,6.7,10.8c5,0,6.7-3,6.7-11.5
		C380,38.2,378.3,35.2,373.3,35.2"/>
</g>
</svg>
