<?xml version="1.0" encoding="utf-8"?>
<!-- Generator: Adobe Illustrator 26.4.1, SVG Export Plug-In . SVG Version: 6.00 Build 0)  -->
<svg version="1.1" id="Слой_1" xmlns="http://www.w3.org/2000/svg" xmlns:xlink="http://www.w3.org/1999/xlink" x="0px" y="0px"
	 viewBox="0 0 396.7 211.4" style="enable-background:new 0 0 396.7 211.4;" xml:space="preserve">
<g>
	<path class="st0" d="M198.2,205.1c-49.9,0-99.9,0-149.8,0c-3.8,0-6.2-2.1-6.6-6c-0.1-0.7-0.1-1.4-0.1-2.1c0-37.4,0-74.7,0-112.1
		c0-0.4,0-0.8,0-1.3c0.1-4.6,3.2-7.7,7.8-7.8c0.6,0,1.2,0,1.8,0c98.1,0,196.1,0,294.2,0c0.7,0,1.4,0,2.1,0c3.8,0.3,6.7,3,7.1,6.8
		c0.1,0.6,0.1,1.2,0.1,1.8c0,37.6,0,75.2,0,112.8c0,1.7-0.2,3.3-1,4.8c-1.2,2-2.7,3.1-5.2,3.1C298.5,205.1,248.4,205.1,198.2,205.1z
		 M174.4,135.6c0.1,0,0.3,0,0.4-0.1c1.9,3.2,3.9,6.4,5.8,9.6c4.2,7,8.5,13.9,12.7,20.9c0.6,0.9,1.2,1.4,2.3,1.3
		c1.3-0.1,2.6-0.1,3.9,0c1.1,0.1,1.8-0.3,2.3-1.3c0.2-0.4,0.4-0.7,0.6-1.1c5.7-9.5,11.4-19,17.1-28.5c0.3-0.5,0.5-1.2,1.4-1.7
		c0,0.8,0,1.4,0,1.9c0,11.8,0,23.6,0.1,35.4c0,0.5,0,1,0,1.4c0,0.7,0.3,0.9,1,0.9c4.2,0,8.3,0,12.5,0c0.9,0,1.2-0.4,1.1-1.2
		c0-0.4,0-0.8,0-1.3c0-11.7-0.1-23.4-0.1-35c0-9.2,0-18.5,0-27.7c0-2,0.2-1.9-2-1.9c-3,0-6.1,0.1-9.1,0c-1.3,0-2,0.4-2.7,1.5
		c-7.6,12.9-15.2,25.8-22.8,38.6c-0.3,0.5-0.4,1.1-1.1,1.4c-0.5-0.4-0.7-1-1-1.5c-7.8-12.8-15.5-25.7-23.2-38.6
		c-0.7-1.1-1.4-1.5-2.7-1.5c-3.1,0.1-6.2,0-9.3,0c-1.7,0-1.7,0-1.8,1.8c0,0.2,0,0.4,0,0.5c0,20.9,0,41.7,0,62.6c0,0.4,0,0.8,0,1.3
		c0,0.7,0.2,1,0.9,1c4.2,0,8.5,0,12.7,0c0.7,0,1-0.3,1-1c0-0.5,0-1,0-1.4c0-11.6,0-23.1,0-34.7C174.4,136.9,174.4,136.2,174.4,135.6
		z M89.1,140.9c0,10.7,0,21.3,0,32c0,1.7,0,1.7,1.7,1.7c10.1,0,20.3,0,30.4,0c5,0,10-0.7,14.7-2.6c3.7-1.5,6.8-3.8,9-7.1
		c3.7-5.6,4-11.8,2.2-18c-1.7-6-6.1-9.5-11.9-11.4c-3.6-1.2-7.3-1.7-11.1-1.7c-6.1,0-12.2,0-18.2,0c-1.5,0-1.5,0-1.5-1.5
		c0-3.1,0-6.2,0-9.3c0-1-0.4-2.2,0.3-2.9c0.7-0.6,1.9-0.2,2.9-0.2c11.3,0,22.5,0,33.8,0c1.7,0,1.7,0,1.7-1.6c0-3,0-6.1,0-9.1
		c0-1.5,0-1.5-1.6-1.5c-16.9,0-33.8,0-50.8,0c-1.6,0-1.6,0-1.6,1.6c0,0.3,0,0.6,0,0.9C89.1,120.3,89.1,130.6,89.1,140.9z
		 M312.9,174.6c-0.1-0.9-0.6-1.3-0.9-1.8c-6.8-10.4-13.5-20.8-20.3-31.1c-0.8-1.3-0.9-2.1,0-3.5c6.6-9.6,13.1-19.3,19.7-29
		c0.3-0.5,0.8-0.9,0.8-1.5c-0.6-0.4-1.2-0.2-1.7-0.2c-4.1,0-8.2,0.1-12.3,0c-1.4,0-2.2,0.5-3,1.7c-5.2,8.1-10.5,16.2-15.8,24.3
		c-0.6,0.9-1.2,1.3-2.3,1.3c-2.5-0.1-5,0-7.5,0c-2.1,0-2.1,0-2.1-2.2c0-7.7,0-15.4,0-23.1c0-1.9,0-1.9-1.8-1.9c-4,0-8,0-12,0
		c-1.7,0-1.7,0-1.7,1.7c0,7.4,0,14.9,0,22.3c0,13.8,0,27.7,0,41.5c0,1.6,0,1.6,1.5,1.6c4.2,0,8.3,0,12.5,0c1.4,0,1.4,0,1.4-1.4
		c0-2.6,0-5.1,0-7.7c0-5.4,0-10.8,0-16.3c0-1.7,0-1.7,1.8-1.8c2,0,4.1,0,6.1,0c3.4,0,2.4-0.4,4.2,2.2c0.3,0.5,0.7,1,1,1.5
		c4.7,7.3,9.4,14.6,14.1,22c0.6,1,1.3,1.5,2.6,1.4c2.3-0.1,4.5,0,6.8,0C306.9,174.6,309.9,174.6,312.9,174.6z"/>
	<path class="st0" d="M71.2,44.1c1.7-2.5,3.1-4.7,4.6-6.9c2.6-3.9,5.2-7.9,7.8-11.7c0.7-1,0.7-1.6,0-2.7c-3.3-4.9-6.6-9.9-9.8-14.9
		c-0.3-0.4-0.7-0.8-0.8-1.6c1.2,0,2.5,0,3.7,0c0.8,0,1,0.7,1.4,1.3c2.6,4,5.1,7.9,7.6,11.9c0.7,1.1,1.1,2.5,2.3,3.1
		c1.1,0.6,2.6,0.2,3.9,0.2c0.8,0,1.5,0,2.3,0c1.6,0,1.6,0,1.6-1.6c0-4.1,0-8.2,0-12.3c0-2.9-0.6-2.6,2.7-2.6c1.4,0,1.4,0,1.4,1.6
		c0,4.4,0,8.8,0,13.2c0,1.7,0,1.7,1.6,1.7c1.6,0,3.2-0.1,4.8,0c1.1,0.1,1.7-0.4,2.3-1.3c2.9-4.6,5.9-9.1,8.8-13.7
		c0.7-1.1,1.5-1.8,2.8-1.6c0.8,0.1,1.5-0.1,2.4,0.2c0,0.6-0.4,1-0.7,1.4c-3.3,5-6.5,10-9.8,14.9c-0.7,1-0.7,1.8,0,2.8
		c3.7,5.5,7.3,11,11,16.5c0.4,0.6,0.8,1.2,1.2,1.9c-1.5,0.4-2.9,0.2-4.3,0.2c-0.7,0-0.9-0.7-1.2-1.2c-3.3-4.9-6.6-9.8-9.8-14.7
		c-0.8-1.3-1.7-2-3.3-1.8c-1.5,0.2-3,0-4.5,0c-1.4,0-1.4,0-1.4,1.4c0,3.9,0,7.9,0,11.8c0,1.1,0,2.1,0,3.2c0,0.9-0.2,1.3-1.2,1.3
		c-3,0.1-3,0.2-3-2.7c0-4.5,0-8.9,0-13.4c0-1.6,0-1.6-1.6-1.6c-1.7,0-3.3,0.1-5,0c-1-0.1-1.6,0.4-2.2,1.2
		c-3.3,5.1-6.8,10.1-10.1,15.2c-0.7,1-1.4,1.5-2.6,1.4C73.5,44.1,72.6,44.1,71.2,44.1z"/>
	<path class="st0" d="M143.1,30.8c-3.6,0-7.1,0-10.7,0c-1.5,0-1.5,0.1-1.3,1.5c0.9,4.7,5,8.2,10.2,8.5c3.5,0.2,6.7-0.6,9.3-3.1
		c0.4-0.4,0.7-0.5,1.2,0c1.9,1.8,1.9,2.3-0.2,3.9c-3.5,2.6-7.5,3.3-11.7,2.8c-8.8-1-14.2-8.4-12.8-17.4c1.8-11.6,14-14.8,21.7-10.1
		c3.6,2.2,5.6,5.6,6.2,9.8c0.1,0.9,0.2,1.8,0.2,2.7c0,1.5,0,1.5-1.5,1.5C150.3,30.8,146.7,30.8,143.1,30.8z M141.2,27.8
		c2.9,0,5.8,0,8.7,0c1.5,0,1.5-0.1,1.2-1.5c-0.8-4.7-5-8.1-10.1-8.1c-5.1,0-9.2,3.5-9.9,8.3c-0.2,1.3-0.1,1.4,1.1,1.4
		C135.3,27.9,138.3,27.8,141.2,27.8z"/>
	<path class="st0" d="M211.7,30.8c-3.6,0-7.1,0-10.7,0c-1.5,0-1.6,0.1-1.3,1.5c0.8,4.7,4.9,8.2,10,8.5c3.6,0.2,6.9-0.5,9.5-3.1
		c0.5-0.5,0.8-0.4,1.3,0.1c1.8,1.9,1.8,2.1-0.3,3.8c-3.5,2.7-7.5,3.3-11.7,2.8c-5.6-0.7-9.8-3.5-11.8-8.8
		c-2.1-5.4-1.6-10.8,2.1-15.6c3.6-4.7,10-6.4,16-4.4c5.3,1.8,9,6.9,9.1,12.8c0.1,2.9,0.3,2.4-2.3,2.4
		C218.2,30.8,215,30.8,211.7,30.8z M209.8,27.8c2.9,0,5.8,0,8.7,0c1.3,0,1.4-0.2,1.2-1.4c-0.8-4.8-5-8.2-10-8.2
		c-5.1,0-9.2,3.4-10,8.2c-0.2,1.3-0.2,1.4,1.2,1.5C203.9,27.9,206.9,27.8,209.8,27.8z"/>
	<path class="st0" d="M310.6,44.4c-8.7,0-14.9-6.2-14.9-14.8c0-8.6,6.1-14.8,14.7-14.8c8.8,0,14.9,6,15,14.7
		C325.4,38.2,319.3,44.4,310.6,44.4z M299.8,29.7c0,0.4,0,1,0.1,1.7c0.6,5.2,4.6,9.1,9.6,9.4c5.7,0.3,10.1-2.7,11.4-7.9
		c0.2-0.9,0.3-1.8,0.4-2.6c0.4-5.2-2.4-9.7-6.9-11.3C307.9,16.6,299.9,20.4,299.8,29.7z"/>
	<path class="st0" d="M287.4,29.5c0,4.4,0,8.8,0,13.2c0,1.4,0,1.4-1.4,1.4c-3.1,0-2.5,0.3-2.6-2.5c0-2.9,0-5.8,0-8.8
		c0-1.5,0-1.6-1.5-1.6c-5.1,0-10.2,0-15.4,0c-1.4,0-1.4,0-1.4,1.4c0,3.3,0,6.7,0,10c0,1.4,0,1.4-1.4,1.4c-3.1,0-2.6,0.3-2.6-2.5
		c0-8,0-16,0-24c0-0.4,0-0.8,0-1.3c0-1.3,0-1.4,1.4-1.4c2.8,0,2.5-0.3,2.5,2.4c0,3,0,6.1,0,9.1c0,1.3,0,1.3,1.3,1.3
		c5.2,0,10.5,0,15.7,0c0.9,0,1.2-0.3,1.2-1.2c0-3.3,0-6.7,0-10c0-1.6,0-1.6,1.7-1.6c0.2,0,0.4,0,0.5,0c1.7,0,1.8,0,1.8,1.8
		C287.4,21,287.4,25.3,287.4,29.5z"/>
	<path class="st0" d="M187.2,29.7c0,4.3,0,8.7,0,13c0,1.4,0,1.4-1.4,1.4c-3.1,0-2.6,0.3-2.6-2.5c0-6.9,0-13.8,0-20.7
		c0-0.4,0-0.8,0-1.3c0.1-0.9-0.4-1.1-1.2-1.1c-3.8,0-7.6,0-11.4,0c-1.2,0-1.2,0-1.3,1.3c-0.2,3-0.3,5.9-0.5,8.9
		c-0.2,3-0.5,6.1-1.3,9c-0.4,1.7-1.1,3.3-2.2,4.6c-1.5,1.8-4.3,2.6-6.5,1.8c-0.5-0.2-0.7-0.4-0.6-0.9c0-0.3,0.1-0.6,0.1-0.9
		c0.1-1.5,0.1-1.6,1.7-1.6c1.5,0,2.4-0.8,3.1-2c1.1-2,1.5-4.1,1.7-6.3c0.6-5.3,0.7-10.6,1-15.9c0.1-1.5,0.1-1.6,1.6-1.6
		c6.1,0,12.2,0,18.2,0c1.6,0,1.6,0,1.6,1.6C187.2,21,187.2,25.3,187.2,29.7z"/>
	<path class="st0" d="M246.8,28.8c0.4,0.6,1,0.6,1.5,0.9c4.4,2.1,5.4,7.3,2.1,10.8c-1.4,1.5-3.2,2.5-5.2,3.1
		c-5.3,1.5-10.4,1.1-15.3-1.3c-0.5-0.3-1-0.6-1.5-0.9c-0.6-0.3-0.7-0.8-0.4-1.4c0.1-0.2,0.1-0.3,0.2-0.5c0.7-1.6,0.7-1.6,2.2-0.8
		c4.1,2.1,8.4,2.9,13,1.7c1.2-0.3,2.3-0.9,3.3-1.7c2.4-2.2,2-5.4-0.9-7c-1.5-0.9-3.3-1.1-5-1.1c-1.4,0-2.9-0.1-4.3,0
		c-0.8,0-1.2-0.2-1.1-1.1c0-0.4,0-0.7,0-1.1c0-0.6,0.3-0.8,0.9-0.8c1.4,0,2.9,0,4.3,0c1.4,0,2.7-0.3,4-0.8c1.6-0.7,2.7-1.8,2.8-3.6
		c0.1-1.8-1-3-2.5-3.8c-2.6-1.3-5.4-1.3-8.2-0.9c-1.8,0.3-3.6,0.8-5.3,1.6c-1.3,0.6-1.3,0.5-1.9-0.8c-0.1-0.2-0.2-0.5-0.3-0.7
		c-0.4-0.7-0.2-1.2,0.6-1.5c4.8-2.2,9.8-2.9,15-1.5c1.3,0.4,2.6,0.9,3.7,1.7c4,2.8,4,8-0.1,10.7C247.9,28.2,247.3,28.5,246.8,28.8z"
		/>
	<path class="st0" d="M114.3,145.1c2.3,0,4.5,0,6.8,0c2.2,0,4.3,0.3,6.3,1.1c3.3,1.4,4.9,3.8,5,7.3c0.1,3.6-1.2,6.4-4.5,8
		c-1.7,0.8-3.5,1.3-5.3,1.3c-5.7,0.3-11.3,0.1-17,0.1c-0.9,0-1.1-0.3-1.1-1.2c0-5.2,0-10.5,0-15.7c0-0.9,0.4-1.1,1.2-1.1
		C108.5,145.2,111.4,145.1,114.3,145.1z"/>
</g>
</svg>
