<?xml version="1.0" encoding="utf-8"?>
<!-- Generator: Adobe Illustrator 26.4.1, SVG Export Plug-In . SVG Version: 6.00 Build 0)  -->
<svg version="1.1" id="Слой_1" xmlns="http://www.w3.org/2000/svg" xmlns:xlink="http://www.w3.org/1999/xlink" x="0px" y="0px"
	 viewBox="0 0 739.2 302.2" style="enable-background:new 0 0 739.2 302.2;" xml:space="preserve">
<g>
	<path class="st0" d="M320.6,0c0.9,0,1.9,0,2.8,0c0,0.7,0.1,1.4,0.3,2.1c1.3,5.5,2.3,11.1,2.5,16.7c0.2,6.1,0.3,12.3-0.2,18.4
		c-0.4,5.9-1.2,11.8-2.3,17.7c-2.4,12.8-6.1,25.3-10.6,37.6c-5.5,14.7-12.5,28.8-18.6,43.2c-3.7,8.7-7.4,17.4-11,26.2
		c-0.2,0.5-0.5,1,0.2,1.4c1.3-1.3,2.4-2.8,3.9-3.8c10.8-7.3,21.5-14.9,31.6-23.3c6.6-5.5,13-11.3,19.2-17.2
		c5.1-4.9,9.9-10.1,14.5-15.5c4.4-5,8.5-10.1,12.5-15.3c5.3-6.9,10.1-14,14.7-21.3c4.4-7,8.4-14.3,12.2-21.7
		c2.9-5.8,5.7-11.7,8-17.8c0.6-1.6,1.9-1.8,2.9-0.5c4,5.5,8.2,11,11.9,16.7c0.7,1,0.7,1.9,0.2,3c-0.4,0.7-0.7,1.5-1.1,2.2
		C407.8,59.5,400.9,70,393.1,80c-6.4,8.1-13.2,15.9-20.4,23.4c-2.5,2.7-5.2,5.2-7.9,7.7c-5,4.7-10.1,9.2-15.4,13.6
		c-10.1,8.4-20.9,16-32,23.1c-0.8,0.5-1.8,0.7-2.4,1.9c1.8-0.4,3.1-1.2,4.5-2c6.3-3.4,12.5-6.9,18.5-10.8c9.6-6.2,18.9-13,27.7-20.3
		c6.5-5.4,12.8-10.9,18.8-16.8c7.5-7.3,14.5-14.9,21.2-22.9c5.2-6.3,10.2-12.7,15-19.4c1.4-1.9,2.1-2,3.5,0
		c3.1,4.8,5.8,9.9,8.6,14.9c0.9,1.7,0.6,3-0.6,4.3c-2.4,2.6-4.6,5.3-7.1,7.8c-8,8.2-16.2,16.1-25,23.3c-7.1,5.9-14.4,11.5-22.1,16.7
		c-13.3,9.1-27.2,17.2-41.8,24.1c-4.5,2.1-9,4.3-13.6,6.1c-2,0.8-4.1,1.7-6.1,2.6c1.2,0.3,2.3-0.1,3.3-0.4
		c15.1-5.2,29.9-11.1,44.1-18.7c7.6-4,15.1-8.2,22.4-12.9c10.2-6.5,20.1-13.5,29.4-21.2c6.8-5.6,13.5-11.2,19.8-17.3
		c0.5-0.5,1.1-0.9,1.7-1.3c1-0.6,1.9-0.5,2.4,0.7c2.3,5.3,4.4,10.6,6.2,16c0.5,1.5,0.3,2.5-1,3.5c-4.9,3.7-9.7,7.5-14.8,10.9
		c-9.6,6.5-19.3,12.8-29.6,18.2c-9.5,5-19.1,9.7-29,13.8c-9,3.7-18.2,6.9-27.5,9.7c-6.7,2-13.5,3.9-20.3,5.4
		c-1.5,0.3-3.2,0.3-4.8,1.5c1.7,0.5,3.1,0,4.3-0.2c10-1.6,20-3.5,29.8-6.2c8.1-2.2,16.1-4.6,23.9-7.6c7.7-2.9,15.3-5.9,22.8-9.2
		c7.7-3.4,15.2-7.1,22.5-11.2c8.7-4.8,17.3-9.9,25.5-15.5c1.2-0.8,2-0.5,2.4,1c1.6,5.4,2.6,11,3.8,16.5c0.3,1.3-0.1,2.4-1.5,3
		c-1.2,0.5-2.2,1.3-3.4,1.8c-7.8,4-15.7,7.8-23.8,11.2c-12.2,5.1-24.8,9.3-37.5,12.7c-13.7,3.7-27.6,6.4-41.7,8.2
		c-6.5,0.8-13.1,1.5-19.6,2c-4.5,0.3-9.1,0.6-13.7,0.4c-0.5,0-1.1-0.2-1.6,0.4c0.7,0.5,1.3,0.3,1.9,0.3c7.4,0.1,14.9-0.2,22.3-0.6
		c4.2-0.3,8.4-0.5,12.6-0.9c6.7-0.6,13.4-1.4,20.1-2.3c6.5-0.9,12.9-1.9,19.3-3.1c9-1.7,17.9-3.7,26.8-6.1
		c9.2-2.5,18.3-5.4,27.2-8.9c4.2-1.7,8.3-3.4,12.5-5.2c1.5-0.6,2.5-0.2,2.7,1.1c0.5,5.3,1,10.6,1.4,15.8c0.2,2.9,0.1,2.9-2.8,3.9
		c-12.2,4.2-24.7,7.3-37.4,9.7c-5.7,1.1-11.5,2.1-17.2,2.8c-5.8,0.8-11.7,1.3-17.6,1.9c-6.9,0.6-13.7,1.2-20.6,1.3
		c-11.8,0.1-23.6,0.4-35.3-0.6c-5-0.4-10-0.7-15-1.2c-5.8-0.6-11.7-1.5-17.5-2.4c-4.5-0.7-9-1.5-13.1-3.8c-4.3-2.4-6.5-7.2-4.8-11.9
		c2.7-7.4,5.4-14.7,8.2-22c4.6-12.2,9.2-24.5,13.5-36.9c3.5-9.9,6.1-20,8-30.3c0.9-5.1,1.6-10.3,1.8-15.4c0.2-6.4,0.2-12.9-1-19.2
		c-1-5.5-2.8-10.8-6-15.4c-0.9-1.4-0.8-2.4,0.1-3.4c5.3-5.9,10.9-11.5,16.9-16.6C319,2.3,320.2,1.5,320.6,0z M318.1,165.6
		c-0.1-0.2-0.2-0.3-0.3-0.3c-0.1,0-0.4,0-0.4,0.1c-0.1,0.2,0,0.4,0.3,0.4C317.7,165.8,317.9,165.7,318.1,165.6z"/>
	<path class="st0" d="M0,228.9c15.7,0,31.3,0,47,0c2.8,0,3.4,0.6,3.4,3.4c0,2.9,0,5.9,0,8.8c0,2.1-0.5,2.6-2.6,2.6
		c-8.6,0-17.1,0-25.7,0c-2.3,0-2.3,0-2.3,2.4c0,2.9,0.1,5.8,0,8.6c0,1.3,0.4,1.7,1.7,1.7c8-0.1,16,0,23.9,0c2.6,0,3.3,0.6,3.3,3.2
		c0,2.9,0,5.9,0,8.8c0,2.5-0.7,3.2-3.3,3.2c-7.9,0-15.8,0-23.8,0c-1.4,0-1.9,0.4-1.9,1.9c0.1,3.6,0.1,7.2,0,10.7
		c-0.1,1.6,0.5,1.9,2,1.9c8.9-0.1,17.8,0,26.8,0c2.6,0,3,0.4,3,2.9c0,3.1,0,6.2,0,9.3c0,2.6-0.6,3.2-3.2,3.2c-16.1,0-32.2,0-48.2,0
		C0,277.2,0,253.1,0,228.9z"/>
	<path class="st0" d="M739.2,285.6c0,5.3,0,10.6,0,15.8c-15.2,0-30.4,0-45.6,0c-2.3,0-3-0.7-3-2.9c0-22.4,0-44.7,0-67.1
		c0-2.1,0.5-2.6,2.6-2.6c4.9,0,9.7,0,14.6,0c2.9,0,3.2,0.3,3.2,3.2c0,17.1,0,34.3,0,51.4c0,1.7,0.5,2.1,2.2,2.1
		C721.8,285.5,730.5,285.6,739.2,285.6z"/>
	<path class="st1" d="M320.6,0c-0.4,1.5-1.7,2.3-2.7,3.1c-6,5.2-11.6,10.8-16.9,16.6c-1,1.1-1.1,2-0.1,3.4c3.2,4.7,5,9.9,6,15.4
		c1.2,6.4,1.2,12.8,1,19.2c-0.2,5.2-0.9,10.3-1.8,15.4c-1.8,10.3-4.5,20.4-8,30.3c-4.3,12.4-8.9,24.6-13.5,36.9
		c-2.8,7.3-5.5,14.7-8.2,22c-1.7,4.7,0.4,9.5,4.8,11.9c4.1,2.2,8.6,3.1,13.1,3.8c5.8,0.9,11.6,1.8,17.5,2.4c5,0.5,10,0.8,15,1.2
		c11.8,0.9,23.6,0.7,35.3,0.6c6.9-0.1,13.7-0.6,20.6-1.3c5.9-0.5,11.7-1.1,17.6-1.9c5.8-0.8,11.5-1.8,17.2-2.8
		c12.7-2.4,25.2-5.5,37.4-9.7c2.9-1,3-1,2.8-3.9c-0.4-5.3-0.9-10.6-1.4-15.8c-0.1-1.3-1.2-1.7-2.7-1.1c-4.2,1.7-8.3,3.5-12.5,5.2
		c-8.9,3.5-17.9,6.4-27.2,8.9c-8.8,2.4-17.8,4.4-26.8,6.1c-6.4,1.2-12.9,2.2-19.3,3.1c-6.7,1-13.4,1.7-20.1,2.3
		c-4.2,0.4-8.4,0.6-12.6,0.9c-7.4,0.4-14.8,0.7-22.3,0.6c-0.6,0-1.3,0.2-1.9-0.3c0.4-0.6,1.1-0.4,1.6-0.4c4.6,0.2,9.1-0.1,13.7-0.4
		c6.6-0.5,13.1-1.2,19.6-2c14.1-1.8,28-4.5,41.7-8.2c12.8-3.4,25.3-7.6,37.5-12.7c8.1-3.4,16-7.3,23.8-11.2c1.1-0.6,2.2-1.3,3.4-1.8
		c1.4-0.6,1.8-1.6,1.5-3c-1.2-5.5-2.2-11.1-3.8-16.5c-0.4-1.4-1.2-1.8-2.4-1c-8.2,5.6-16.8,10.7-25.5,15.5
		c-7.3,4-14.8,7.8-22.5,11.2c-7.5,3.3-15.1,6.4-22.8,9.2c-7.8,2.9-15.8,5.3-23.9,7.6c-9.8,2.7-19.8,4.6-29.8,6.2
		c-1.3,0.2-2.6,0.7-4.3,0.2c1.6-1.1,3.3-1.1,4.8-1.5c6.9-1.5,13.6-3.4,20.3-5.4c9.3-2.8,18.5-6,27.5-9.7c9.9-4.1,19.5-8.8,29-13.8
		c10.3-5.4,20-11.6,29.6-18.2c5.1-3.5,9.9-7.2,14.8-10.9c1.3-1,1.5-2,1-3.5c-1.8-5.4-3.9-10.8-6.2-16c-0.5-1.2-1.4-1.4-2.4-0.7
		c-0.6,0.4-1.2,0.8-1.7,1.3c-6.2,6.2-13,11.8-19.8,17.3c-9.4,7.7-19.3,14.6-29.4,21.2c-7.2,4.7-14.8,8.8-22.4,12.9
		c-14.2,7.5-29,13.5-44.1,18.7c-1,0.4-2.1,0.7-3.3,0.4c2-0.9,4-1.8,6.1-2.6c4.6-1.8,9.1-4,13.6-6.1c14.6-6.9,28.5-14.9,41.8-24.1
		c7.6-5.2,14.9-10.8,22.1-16.7c8.8-7.3,17.1-15.2,25-23.3c2.4-2.5,4.7-5.2,7.1-7.8c1.2-1.3,1.5-2.6,0.6-4.3
		c-2.8-5-5.4-10.1-8.6-14.9c-1.3-2-2.1-2-3.5,0c-4.8,6.6-9.8,13.1-15,19.4c-6.7,8-13.8,15.6-21.2,22.9c-6,5.9-12.3,11.4-18.8,16.8
		c-8.8,7.3-18.1,14-27.7,20.3c-6,3.9-12.2,7.4-18.5,10.8c-1.4,0.7-2.7,1.6-4.5,2c0.6-1.1,1.6-1.3,2.4-1.9
		c11.1-7.1,21.8-14.7,32-23.1c5.3-4.4,10.4-8.9,15.4-13.6c2.7-2.5,5.4-5,7.9-7.7c7.1-7.5,14-15.2,20.4-23.4
		c7.8-10,14.7-20.5,21.2-31.3c0.4-0.7,0.7-1.5,1.1-2.2c0.5-1,0.5-1.9-0.2-3c-3.8-5.7-7.9-11.1-11.9-16.7c-1-1.3-2.3-1.1-2.9,0.5
		c-2.3,6.1-5,12-8,17.8c-3.7,7.4-7.8,14.7-12.2,21.7c-4.6,7.3-9.5,14.5-14.7,21.3c-4,5.2-8.2,10.3-12.5,15.3
		c-4.7,5.3-9.4,10.6-14.5,15.5c-6.2,5.9-12.5,11.7-19.2,17.2c-10.1,8.4-20.8,15.9-31.6,23.3c-1.5,1-2.6,2.5-3.9,3.8
		c-0.7-0.4-0.4-0.9-0.2-1.4c3.5-8.8,7.2-17.5,11-26.2c6.1-14.4,13.1-28.5,18.6-43.2c4.5-12.2,8.2-24.7,10.6-37.6
		c1.1-5.8,1.8-11.7,2.3-17.7c0.5-6.2,0.4-12.3,0.2-18.4c-0.2-5.6-1.1-11.2-2.5-16.7c-0.2-0.7-0.3-1.4-0.3-2.1c0.2,0,0.5,0,0.7,0
		c1.2,5.1,2.1,10.3,2.5,15.5c0.6,6.9,0.5,13.7,0.2,20.6c-0.3,8-1.6,15.9-3.2,23.7c-2,9.3-4.5,18.5-7.6,27.5
		c-2.8,8-5.9,15.8-9.3,23.5c-5.7,12.8-11.5,25.5-16.8,38.4c-1.3,3.2-2.7,6.4-4.2,9.8c1,0.2,1.4-0.5,1.9-0.8
		c10.3-6.8,20.3-14,29.9-21.8c4-3.3,8-6.7,11.8-10.2c3.8-3.6,7.9-7,11.5-10.9c5.8-6.1,11.5-12.3,16.9-18.8
		c5.8-7.1,11.4-14.4,16.5-22c4.5-6.7,8.7-13.6,12.6-20.7c2.7-5,5.3-10,7.7-15.2c1.9-4,3.6-8,5.3-12c0.8-1.9,2.7-2.2,4.1-0.6
		c1.3,1.5,2.5,3.1,3.6,4.7c2.9,4,5.6,8,8.5,12c1.2,1.6,1.2,3.2,0.2,4.9c-4.1,7.4-8.7,14.4-13.5,21.4c-4.1,6-8.6,11.7-13.1,17.3
		c-2.4,3-5,5.9-7.6,8.7c-4.1,4.5-8.2,9-12.6,13.3c-7.9,7.6-16,15-24.8,21.7c-1.7,1.3-3.3,2.6-4.9,3.9c0.4,0.6,0.7,0.2,0.9,0
		c7.7-5.1,15.2-10.5,22.3-16.3c5.9-4.8,11.6-9.8,17.2-15c3.9-3.6,7.8-7.3,11.4-11.2c8-8.5,15.6-17.2,22.5-26.6
		c2.1-2.9,4.2-5.7,6.3-8.6c1.1-1.6,3.1-1.6,4.1,0c2.5,3.6,4.5,7.5,6.7,11.3c0.9,1.6,1.8,3.2,2.6,4.8c1,1.9,0.8,3.3-0.7,5
		c-6.1,6.8-12.4,13.4-19.1,19.7c-9.5,9-19.6,17.3-30.3,24.9c-10.2,7.3-20.8,14.1-31.9,20c-2.9,1.5-5.7,3.1-8.6,4.7
		c2.2-0.2,4.1-1.4,6-2.3c16.6-7.6,32.4-16.8,47.5-27.2c7.6-5.3,15-10.9,22.1-16.9c5.6-4.7,11.2-9.4,16.3-14.6
		c0.4-0.4,0.8-0.7,1.3-0.9c1.7-1,2.9-0.6,3.7,1.1c2.4,5.3,4.5,10.8,6.4,16.3c0.9,2.5,0.7,2.9-1.4,4.6c-7.9,6.3-16.1,12.1-24.5,17.5
		c-6.5,4.2-13.2,8.1-20,11.7c-11.5,6.2-23.4,11.6-35.6,16.3c-6.7,2.6-13.4,4.9-20.3,6.9c-0.5,0.2-1.1,0.2-1.6,0.7
		c0.2,0.5,0.5,0.3,0.9,0.3c13.5-3.4,26.8-7.5,39.8-12.6c11.1-4.4,22-9.4,32.6-14.9c9-4.7,17.8-9.9,26.3-15.4
		c1.3-0.8,2.6-1.6,3.8-2.5c2-1.2,3.6-0.7,4.2,1.5c1.5,5.9,3.2,11.8,3.6,18c0.1,1.4-0.4,2.1-1.6,2.7c-11,5.9-22.3,11.2-34,15.7
		c-13.7,5.3-27.7,9.5-42.1,12.8c-6.1,1.4-12.2,2.6-18.3,3.8c1.3,0.8,2.8,0.1,4-0.1c6.7-0.9,13.5-1.9,20.2-3.1
		c13.1-2.3,26.1-5.3,38.8-9.2c10.8-3.3,21.3-7.1,31.5-11.9c2.5-1.2,3.7-0.4,3.9,2.3c0.4,4.1,0.9,8.1,1.3,12.1
		c0.2,1.9,0.3,3.8,0.4,5.8c0.1,1-0.4,1.5-1.3,1.8c-8.5,2.9-17.2,5.5-25.9,7.5c-5.3,1.2-10.7,2.3-16.1,3.3
		c-5.9,1.1-11.8,1.9-17.8,2.7c-6.6,0.9-13.3,1.4-20,2c-2.4,0.2-4.8,0.3-7.2,0.4c-11.1,0.6-22.2,0.4-33.2,0.3
		c-6.9-0.1-13.9-0.6-20.8-1.3c-5.6-0.5-11.2-1-16.7-1.9c-6.4-1-12.9-1.4-18.8-4.4c-3.8-2-5.8-4.8-5.9-9.3c-0.1-4.1,1.7-7.5,3-11.1
		c3.3-8.9,6.8-17.8,10.1-26.8c3.7-10,7.5-20.1,10.8-30.2c3-9.5,5.5-19.2,7-29.1c1-6.8,1.7-13.7,1.3-20.6c-0.4-7.1-1.6-14.1-4.8-20.6
		c-0.7-1.5-1.6-2.9-2.5-4.2c-1-1.5-1-2.8,0.2-4.1c5.6-6.1,11.4-12,17.7-17.3c0.6-0.5,1.5-1,1.5-2C319.7,0,320.2,0,320.6,0z
		 M357,169.7c0.2-0.1,0.5,0,0.4-0.4c-0.1-0.3-0.3-0.3-0.6-0.3c-0.2,0-0.5,0-0.4,0.4C356.5,169.7,356.7,169.7,357,169.7z
		 M342.3,160.1c-0.1,0-0.2-0.1-0.3-0.1c-0.1,0-0.1,0.2-0.1,0.3c0.1,0,0.2,0.1,0.3,0.1C342.3,160.4,342.3,160.2,342.3,160.1z
		 M339.2,134.6c0-0.1-0.1-0.3-0.1-0.3c-0.1,0-0.2,0.1-0.3,0.1c0,0.1,0.1,0.3,0.1,0.3C338.9,134.7,339.1,134.6,339.2,134.6z"/>
	<path class="st1" d="M739.2,285.6c-8.7,0-17.4,0-26.1,0c-1.7,0-2.2-0.4-2.2-2.1c0.1-17.1,0-34.3,0-51.4c0-2.9-0.3-3.2-3.2-3.2
		c-4.9,0-9.7,0-14.6,0c-2.1,0-2.6,0.5-2.6,2.6c0,22.4,0,44.7,0,67.1c0,2.2,0.7,2.9,3,2.9c15.2,0,30.4,0,45.6,0c0,0.2,0,0.5,0,0.7
		c-15.5,0-31.1,0-46.6,0c-2.5,0-2.7-0.2-2.7-2.7c0-22.9,0-45.9,0-68.8c0-2.4,0-2.4,2.4-2.4c5.8,0,11.5,0.1,17.3,0
		c1.7,0,2.2,0.5,2.2,2.2c-0.1,17.5,0,35-0.1,52.4c0,1.7,0.5,2.1,2.2,2.1c8.4-0.1,16.9,0,25.3,0C739.2,285.1,739.2,285.3,739.2,285.6
		z"/>
	<path class="st0" d="M144.1,250.7c-0.5,0.9-0.3,1.6-0.3,2.2c0,15,0,30,0,45.1c0,2.9-0.6,3.4-3.5,3.4c-3.9,0-7.7,0-11.6,0
		c-2.5,0-3.2-0.7-3.2-3.1c0-22.1,0-44.2,0-66.4c0-2.4,0.7-3.1,3.2-3.1c8.3,0,16.6,0,24.8,0c1.8,0,2.5,0.8,3,2.3
		c2.2,7.3,4.5,14.6,6.6,22c2.1,7.3,4.6,14.5,6.5,21.8c0.1,0.4,0.3,0.8,0.6,1.6c0.7-2.6,1.4-4.8,2.1-7c2.2-7.2,4.4-14.4,6.6-21.6
		c1.6-5.3,3.2-10.6,4.8-15.9c0.8-2.8,1.2-3.1,4-3.1c7.9,0,15.9,0,23.8,0c2.3,0,2.8,0.5,2.8,2.8c0,22.4,0,44.7,0,67.1
		c0,2.2-0.5,2.7-2.7,2.7c-4.6,0-9.2,0-13.7,0c-2.2,0-3-0.7-3-2.9c0-15.4,0-30.9,0-46.3c0-1.1,0.8-2.2-0.1-3.7
		c-0.9,2.8-1.8,5.4-2.6,8c-1.8,5.7-3.6,11.5-5.4,17.2c-2.6,8.3-5.2,16.5-7.8,24.8c-0.9,3-1,3-4.1,3c-4.1,0-8.2,0-12.3,0
		c-1.6,0-2.6-0.6-3.1-2.2c-4.6-14.7-9.2-29.5-13.8-44.2C145.3,253.6,145,252.2,144.1,250.7z"/>
	<path class="st0" d="M65.5,264.9c0-11,0-22.1,0-33.1c0-2.5,0.4-2.9,3-2.9c4.9,0,9.9,0,14.8,0c2.2,0,2.7,0.5,2.7,2.7
		c0,17.3,0,34.6,0,51.9c0,1.7,0.5,2.1,2.2,2.1c7.7-0.1,15.5,0,23.2,0c2.5,0,3.2,0.7,3.2,3.1c0,3.3,0,6.6,0,9.9
		c0,2.1-0.7,2.9-2.8,2.9c-14.4,0-28.9,0-43.3,0c-2.1,0-2.8-0.8-2.8-3.1C65.5,287.2,65.5,276.1,65.5,264.9z"/>
	<path class="st1" d="M395.9,254.5c-1.5,4.7-3,9.1-4.4,13.6c-1.7,5.4-3.4,10.7-5,16.1c-1.6,5.1-3.2,10.3-4.8,15.4
		c-0.7,2.3-1,2.5-3.5,2.5c-4.9,0-9.9,0-14.8,0c-1.5,0-2.3-0.5-2.7-1.9c-3.1-9.9-6.1-19.9-9.2-29.8c-1.5-4.9-3.1-9.8-4.7-14.8
		c-0.8,0.7-0.5,1.5-0.5,2.1c0,14,0,27.9,0,41.9c0,2.5,0,2.5-2.6,2.5c-4.9,0-9.9,0-14.8,0c-1.5,0-2.1-0.4-2.1-2c0-23.4,0-46.7,0-70.1
		c0-1.5,0.5-1.9,1.9-1.9c9.3,0,18.7,0,28,0c1.2,0,1.8,0.5,2.2,1.6c2.7,8.8,5.4,17.7,8.1,26.5c1.6,5.2,3.2,10.5,4.8,15.8
		c0.9-0.3,0.9-1.1,1.1-1.7c3.3-10.6,6.5-21.1,9.7-31.7c0.9-3,1.9-6,2.7-9.1c0.3-1,0.8-1.5,1.9-1.5c9.5,0,18.9,0,28.4,0
		c1.5,0,1.5,0.9,1.5,2c0,7.3,0,14.6,0,21.8c0,15.8,0,31.7,0,47.5c0,2.4-0.2,2.6-2.6,2.6c-5.3,0-10.7-0.1-16,0
		c-1.7,0-2.2-0.5-2.2-2.2c0.1-14.4,0-28.8,0-43.1C396.4,256.2,396.6,255.4,395.9,254.5z M396.7,249.3c0.5,0.8,0.3,1.5,0.3,2.2
		c0,15.7,0,31.3,0,47c0,2.5,0.4,2.9,3,2.9c4.5,0,8.9,0,13.4,0c2.3,0,3-0.7,3-2.9c0-22.4,0-44.7,0-67.1c0-2.1-0.5-2.6-2.6-2.6
		c-8.2,0-16.4,0-24.7,0c-1.8,0-2.7,0.7-3.2,2.4c-1.4,4.8-3,9.6-4.4,14.4c-1.7,5.5-3.4,11.1-5.1,16.6c-1.3,4.3-2.9,8.5-3.8,12.9
		c-0.1,0.4-0.2,0.7-0.6,0.7c-0.3,0-0.3-0.3-0.4-0.5c-1.2-4.8-2.8-9.5-4.2-14.3c-3.1-10.1-6.1-20.1-9.1-30.2c-0.4-1.5-1.3-2.1-2.8-2
		c-8.5,0-16.9,0-25.4,0c-2,0-2.5,0.5-2.5,2.5c0,22.5,0,45,0,67.4c0,2.1,0.5,2.6,2.6,2.6c4.1,0,8.2,0,12.3,0c2.6,0,3-0.4,3-3.1
		c0-15.4,0-30.9,0-46.3c0-0.6-0.3-1.4,0.5-2c0.4,1.3,0.7,2.4,1,3.5c4.7,15.1,9.5,30.2,14.2,45.4c0.6,1.8,1.6,2.6,3.5,2.6
		c4.2-0.1,8.3,0,12.5,0c2.3,0,3-0.5,3.6-2.7c0.9-2.8,1.7-5.6,2.6-8.4c3.8-12,7.5-24,11.3-36C395.4,252.7,395.8,251,396.7,249.3z"/>
	<path class="st1" d="M431.3,264.9c0-11.4,0-22.8,0-34.2c0-2.3,0.2-2.6,2.5-2.6c15.9,0,31.7,0,47.6,0c2.2,0,2.4,0.3,2.4,2.4
		c0,3.9-0.1,7.9,0,11.8c0,1.6-0.5,2-2,2c-8.8-0.1-17.6,0-26.4-0.1c-1.4,0-2,0.4-1.9,1.9c0.1,2.5,0.1,4.9,0,7.4
		c-0.1,1.6,0.3,2.1,2,2.1c8-0.1,16,0,24,0c2.4,0,2.6,0.2,2.6,2.6c0,3.8,0,7.6,0,11.4c0,2.5,0,2.5-2.4,2.5c-8,0-16.1,0-24.1,0
		c-1.6,0-2.1,0.5-2,2.1c0.1,3.1,0.1,6.2,0,9.3c0,1.3,0.4,1.7,1.7,1.7c9.2-0.1,18.3,0,27.5-0.1c1.6,0,2.3,0.4,2.2,2.2
		c-0.1,4.2-0.1,8.3,0,12.5c0,1.7-0.6,2.3-2.3,2.3c-16.3,0-32.6,0-49,0c-2,0-2.3-0.3-2.3-2.4C431.2,288.1,431.3,276.5,431.3,264.9z
		 M432,265.1c0,11.1,0,22.2,0,33.3c0,2.3,0.7,3.1,2.8,3.1c15.5,0,31,0,46.5,0c2.1,0,2.8-0.8,2.8-2.9c0-3.1,0-6.1,0-9.2
		c0-3.2-0.2-3.4-3.4-3.4c-8.7,0-17.5,0-26.2,0c-1.4,0-1.8-0.3-1.8-1.8c0.1-3.5,0.1-7,0-10.6c-0.1-1.7,0.4-2.2,2.1-2.2
		c8,0.1,16,0,23.9,0c2,0,2.5-0.5,2.5-2.5c0-3.1,0-6.2,0-9.3c0-2.7-0.6-3.3-3.3-3.3c-7.8,0-15.6,0-23.4,0c-1.5,0-1.9-0.5-1.9-1.9
		c0.1-3,0.1-6,0-9c-0.1-1.5,0.4-1.9,1.9-1.9c8.5,0.1,17,0,25.5,0c2.5,0,2.9-0.4,2.9-3c0-2.9,0-5.7,0-8.6c0-2.5-0.7-3.2-3.2-3.2
		c-14.8,0-29.7,0-44.5,0c-2.7,0-3.3,0.6-3.3,3.3C432,243.2,432,254.1,432,265.1z"/>
	<path class="st1" d="M229.4,265c0-11.6,0-23.1,0-34.7c0-1.7,0.5-2.2,2.2-2.2c15.9,0.1,31.8,0,47.7,0c2.2,0,2.2,0,2.2,2.3
		c0,3.9,0,7.7,0,11.6c0,2.3,0,2.3-2.4,2.3c-8.6,0-17.3,0-25.9,0c-1.7,0-2.1,0.5-2,2.1c0.1,2.5,0.1,5,0,7.6c0,1.3,0.4,1.7,1.7,1.7
		c8.2-0.1,16.3,0,24.5,0c2.4,0,2.4,0,2.4,2.3c0,4.1,0,8.2,0,12.3c0,1.5-0.5,1.9-1.9,1.9c-8.3-0.1-16.6,0-24.8-0.1
		c-1.3,0-1.9,0.3-1.8,1.7c0.1,3.2,0.1,6.5,0,9.7c0,1.4,0.5,1.7,1.7,1.7c9.2,0,18.3,0,27.5-0.1c1.7,0,2.2,0.5,2.2,2.2
		c-0.1,4.2-0.1,8.5,0,12.7c0,1.5-0.4,2.1-2,2.1c-16.4,0-32.9,0-49.3,0c-1.6,0-2-0.6-2-2.1C229.4,288.4,229.4,276.7,229.4,265z
		 M230.1,265.1c0,11.2,0,22.4,0,33.6c0,2.2,0.5,2.7,2.5,2.7c15.6,0,31.2,0,46.9,0c1.9,0,2.4-0.6,2.5-2.6c0-3.3,0-6.6,0-9.9
		c0-2.7-0.4-3.1-3-3.1c-8.8,0-17.6,0-26.4,0c-1.6,0-2-0.5-2-2c0.1-3.5,0.1-7,0-10.6c-0.1-1.6,0.4-2,2-2c7.9,0.1,15.7,0,23.6,0
		c2.6,0,3-0.4,3-2.9c0-3.1,0-6.1,0-9.2c0-2.7-0.4-3.1-3-3.1c-7.9,0-15.9,0-23.8,0c-1.4,0-1.8-0.4-1.8-1.8c0.1-3,0.1-6,0-9
		c-0.1-1.6,0.4-2,2-2c8.5,0.1,16.9,0,25.4,0c2.6,0,3-0.4,3-2.9c0-3,0-6,0-9c0-2.5-0.4-2.9-3-2.9c-14.9,0-29.8,0-44.7,0
		c-2.6,0-3,0.4-3,3.1C230.1,243,230.1,254,230.1,265.1z"/>
	<path class="st1" d="M585.4,228.2c3.7,0,7.4,0,11.1,0c1.2,0,1.8,0.5,2.2,1.6c5.9,15.8,11.9,31.5,17.9,47.2
		c2.6,6.8,5.2,13.7,7.8,20.5c0.1,0.3,0.2,0.7,0.3,1c0.7,3,0.2,3.7-2.8,3.7c-5.9,0-11.7,0-17.6,0c-1.5,0-2.3-0.6-2.7-1.9
		c-1.3-3.9-2.7-7.7-3.9-11.6c-0.4-1.2-0.9-1.7-2.2-1.7c-7.2,0.1-14.3,0.1-21.5,0c-1.1,0-1.7,0.3-2,1.4c-1.2,3.7-2.5,7.4-3.8,11.1
		c-0.8,2.4-1.1,2.6-3.7,2.6c-5.5,0-11,0-16.6,0c-1.6,0-2.1-0.5-2-2c0.1-1.3,0.5-2.4,0.9-3.5c4.5-12,9.1-23.9,13.6-35.9
		c3.9-10.3,7.8-20.5,11.7-30.8c0.5-1.2,1.2-1.7,2.5-1.7C578.1,228.2,581.7,228.2,585.4,228.2z M613.3,301.4c2.7,0,5.4,0,8.1,0
		c2.5,0,3-0.8,2.1-3.1c-2-5.4-4-10.7-6.1-16.1c-6.5-17.2-13-34.3-19.5-51.5c-0.5-1.3-1.2-1.9-2.6-1.9c-6.7,0-13.4,0-20.1,0
		c-1.5,0-2.3,0.7-2.8,1.9c-2.7,7.1-5.4,14.2-8.1,21.3c-3.1,8.1-6.2,16.3-9.3,24.4c-2.8,7.3-5.5,14.5-8.3,21.8
		c-1,2.6-0.5,3.1,2.3,3.1c4.7,0,9.4,0,14.1,0c2.6,0,3.1-0.4,4-2.8c1.2-3.5,2.5-7.1,3.6-10.6c0.4-1.3,1.1-1.7,2.4-1.7
		c7.5,0,15,0.1,22.5,0c1.4,0,1.9,0.5,2.3,1.8c1.2,3.8,2.6,7.6,3.9,11.5c0.5,1.4,1.4,2,2.9,2C607.8,301.4,610.6,301.4,613.3,301.4z"
		/>
	<path class="st1" d="M531.3,273.8c0,8.7,0,17.4,0,26.1c0,2.3,0,2.3-2.2,2.3c-5.7,0-11.4,0-17.1,0c-2.3,0-2.5-0.2-2.5-2.5
		c0-17.3,0-34.5,0-51.8c0-2.4,0-2.4-2.5-2.4c-4.3,0-8.6,0-12.9,0c-1.7,0-2.3-0.6-2.3-2.3c0.1-4.2,0.1-8.5,0-12.7
		c0-1.6,0.5-2.3,2.2-2.3c17.7,0,35.3,0,53,0c1.4,0,1.9,0.4,1.8,1.8c-0.1,4.5,0,8.9,0,13.4c0,1.5-0.6,2.1-2.1,2.1
		c-4.6,0-9.2,0-13.7,0c-1.4,0-1.8,0.4-1.8,1.8C531.3,256,531.3,264.9,531.3,273.8z M530.6,272.7c0-8.7,0-17.5,0-26.2
		c0-1.4,0.4-1.8,1.8-1.8c4.3,0.1,8.6,0,12.9,0c2.3,0,3-0.7,3-2.9c0-3.5,0-6.9,0-10.4c0-2-0.5-2.5-2.5-2.5c-16.8,0-33.6,0-50.4,0
		c-2.1,0-2.8,0.8-2.8,2.9c0,3.2,0,6.5,0,9.7c0,2.6,0.6,3.2,3.2,3.2c4.1,0,8.2,0.1,12.3,0c1.7-0.1,2.1,0.5,2.1,2.2
		c-0.1,17,0,34,0,51.1c0,3,0.6,3.5,3.4,3.5c4.6,0,9.3,0,13.9,0c2.7,0,3.1-0.4,3.1-3C530.6,289.8,530.6,281.3,530.6,272.7z"/>
	<path class="st1" d="M630,265.2c0-11.6,0-23.1,0-34.7c0-2.3,0-2.3,2.4-2.3c5.6,0,11.3,0,16.9,0c2.6,0,2.6,0,2.6,2.5
		c0,17.4,0,34.7,0,52.1c0,1.7,0.5,2.2,2.2,2.1c8-0.1,16,0,24,0c2.2,0,2.5,0.3,2.5,2.4c0,4.2,0,8.4,0,12.7c0,1.6-0.6,2.2-2.2,2.2
		c-15.4,0-30.9,0-46.3,0c-1.7,0-1.9-0.7-1.9-2.1C630,288.4,630,276.8,630,265.2z M630.7,265c0,11.3,0,22.5,0,33.8
		c0,2.1,0.5,2.7,2.5,2.7c14.6,0,29.1,0,43.7,0c2,0,2.7-0.8,2.8-2.8c0-3.3,0-6.6,0-9.9c0-2.6-0.7-3.2-3.2-3.2c-7.7,0-15.4,0-23.1,0
		c-2.2,0-2.2,0-2.2-2.3c0-17.2,0-34.4,0-51.6c0-2.3-0.5-2.8-2.7-2.8c-4.9,0-9.7,0-14.6,0c-2.7,0-3.1,0.4-3.1,3
		C630.7,242.9,630.7,253.9,630.7,265z"/>
	<path class="st1" d="M318.1,165.6c-0.2,0.1-0.4,0.2-0.5,0.2c-0.3,0-0.4-0.2-0.3-0.4c0.1-0.1,0.3-0.1,0.4-0.1
		C317.8,165.3,317.9,165.4,318.1,165.6z"/>
	<path class="st1" d="M357,169.7c-0.2,0-0.5,0-0.6-0.3c-0.1-0.3,0.2-0.3,0.4-0.4c0.2,0,0.5,0,0.6,0.3
		C357.5,169.7,357.2,169.6,357,169.7z"/>
	<path class="st1" d="M342.3,160.1c0,0.1-0.1,0.2-0.1,0.3c-0.1,0-0.2-0.1-0.3-0.1c0-0.1,0.1-0.2,0.1-0.3
		C342.1,160,342.2,160.1,342.3,160.1z"/>
	<path class="st1" d="M339.2,134.6c-0.1,0-0.2,0.1-0.3,0.1c-0.1,0-0.1-0.2-0.1-0.3c0.1,0,0.2-0.1,0.3-0.1
		C339.1,134.4,339.1,134.5,339.2,134.6z"/>
	<path class="st0" d="M396.7,249.3c-0.9,1.7-1.3,3.4-1.8,5.1c-3.8,12-7.5,24-11.3,36c-0.9,2.8-1.7,5.6-2.6,8.4
		c-0.7,2.2-1.4,2.7-3.6,2.7c-4.2,0-8.3,0-12.5,0c-1.9,0-2.9-0.8-3.5-2.6c-4.7-15.1-9.5-30.2-14.2-45.4c-0.3-1.1-0.7-2.2-1-3.5
		c-0.9,0.7-0.5,1.4-0.5,2c0,15.4,0,30.9,0,46.3c0,2.7-0.4,3.1-3,3.1c-4.1,0-8.2,0-12.3,0c-2.1,0-2.6-0.5-2.6-2.6c0-22.5,0-45,0-67.4
		c0-2,0.5-2.5,2.5-2.5c8.5,0,16.9,0,25.4,0c1.5,0,2.4,0.6,2.8,2c3,10.1,6.1,20.1,9.1,30.2c1.5,4.7,3,9.5,4.2,14.3
		c0.1,0.2,0.1,0.5,0.4,0.5c0.4,0,0.6-0.4,0.6-0.7c0.9-4.4,2.5-8.7,3.8-12.9c1.7-5.5,3.4-11.1,5.1-16.6c1.5-4.8,3-9.6,4.4-14.4
		c0.5-1.7,1.4-2.4,3.2-2.4c8.2,0.1,16.4,0,24.7,0c2.1,0,2.6,0.5,2.6,2.6c0,22.4,0,44.7,0,67.1c0,2.2-0.7,2.9-3,2.9
		c-4.5,0-8.9,0-13.4,0c-2.6,0-3-0.4-3-2.9c0-15.7,0-31.3,0-47C397.1,250.8,397.2,250.1,396.7,249.3z"/>
	<path class="st0" d="M432,265.1c0-11,0-21.9,0-32.9c0-2.7,0.6-3.3,3.3-3.3c14.8,0,29.7,0,44.5,0c2.6,0,3.2,0.6,3.2,3.2
		c0,2.9,0,5.7,0,8.6c0,2.6-0.4,3-2.9,3c-8.5,0-17,0-25.5,0c-1.5,0-1.9,0.4-1.9,1.9c0.1,3,0.1,6,0,9c0,1.4,0.4,1.9,1.9,1.9
		c7.8-0.1,15.6,0,23.4,0c2.7,0,3.3,0.6,3.3,3.3c0,3.1,0,6.2,0,9.3c0,2-0.5,2.5-2.5,2.5c-8,0-16,0.1-23.9,0c-1.7,0-2.2,0.5-2.1,2.2
		c0.1,3.5,0.1,7,0,10.6c0,1.4,0.4,1.8,1.8,1.8c8.7-0.1,17.5,0,26.2,0c3.1,0,3.3,0.2,3.4,3.4c0,3.1,0,6.1,0,9.2
		c0,2.1-0.7,2.9-2.8,2.9c-15.5,0-31,0-46.5,0c-2.2,0-2.8-0.8-2.8-3.1C432,287.3,432,276.2,432,265.1z"/>
	<path class="st0" d="M230.1,265.1c0-11,0-22.1,0-33.1c0-2.7,0.4-3.1,3-3.1c14.9,0,29.8,0,44.7,0c2.6,0,3,0.4,3,2.9c0,3,0,6,0,9
		c0,2.5-0.4,2.9-3,2.9c-8.5,0-16.9,0-25.4,0c-1.6,0-2,0.4-2,2c0.1,3,0.1,6,0,9c0,1.4,0.4,1.8,1.8,1.8c7.9-0.1,15.9,0,23.8,0
		c2.6,0,3,0.4,3,3.1c0,3.1,0,6.1,0,9.2c0,2.5-0.4,2.9-3,2.9c-7.9,0-15.7,0-23.6,0c-1.5,0-2,0.4-2,2c0.1,3.5,0.1,7,0,10.6
		c0,1.5,0.4,2,2,2c8.8-0.1,17.6,0,26.4,0c2.6,0,3,0.4,3,3.1c0,3.3,0,6.6,0,9.9c0,2-0.5,2.6-2.5,2.6c-15.6,0-31.2,0-46.9,0
		c-2,0-2.5-0.5-2.5-2.7C230.1,287.5,230.1,276.3,230.1,265.1z"/>
	<path class="st0" d="M613.3,301.4c-2.8,0-5.5-0.1-8.3,0c-1.5,0-2.5-0.6-2.9-2c-1.3-3.8-2.7-7.6-3.9-11.5c-0.4-1.2-0.9-1.8-2.3-1.8
		c-7.5,0.1-15,0.1-22.5,0c-1.3,0-2,0.5-2.4,1.7c-1.2,3.6-2.4,7.1-3.6,10.6c-0.8,2.4-1.4,2.8-4,2.8c-4.7,0-9.4,0-14.1,0
		c-2.8,0-3.2-0.5-2.3-3.1c2.7-7.3,5.5-14.5,8.3-21.8c3.1-8.1,6.2-16.3,9.3-24.4c2.7-7.1,5.4-14.2,8.1-21.3c0.5-1.3,1.3-2,2.8-1.9
		c6.7,0,13.4,0,20.1,0c1.4,0,2.1,0.6,2.6,1.9c6.5,17.2,13,34.3,19.5,51.5c2,5.4,4.1,10.7,6.1,16.1c0.9,2.4,0.3,3.1-2.1,3.1
		C618.7,301.4,616,301.4,613.3,301.4z"/>
	<path class="st0" d="M530.6,272.7c0,8.6,0,17.1,0,25.7c0,2.6-0.4,3-3.1,3c-4.6,0-9.3,0-13.9,0c-2.9,0-3.4-0.6-3.4-3.5
		c0-17,0-34,0-51.1c0-1.7-0.4-2.2-2.1-2.2c-4.1,0.1-8.2,0-12.3,0c-2.5,0-3.2-0.7-3.2-3.2c0-3.2,0-6.5,0-9.7c0-2.1,0.7-2.9,2.8-2.9
		c16.8,0,33.6,0,50.4,0c1.9,0,2.5,0.5,2.5,2.5c0,3.5,0,6.9,0,10.4c0,2.2-0.7,2.9-3,2.9c-4.3,0-8.6,0.1-12.9,0
		c-1.4,0-1.8,0.4-1.8,1.8C530.6,255.2,530.6,264,530.6,272.7z"/>
	<path class="st0" d="M630.7,265c0-11,0-22.1,0-33.1c0-2.6,0.4-3,3.1-3c4.9,0,9.7,0,14.6,0c2.3,0,2.7,0.5,2.7,2.8
		c0,17.2,0,34.4,0,51.6c0,2.3,0,2.3,2.2,2.3c7.7,0,15.4,0,23.1,0c2.6,0,3.2,0.6,3.2,3.2c0,3.3,0,6.6,0,9.9c0,2-0.8,2.8-2.8,2.8
		c-14.6,0-29.1,0-43.7,0c-2,0-2.5-0.5-2.5-2.7C630.7,287.5,630.7,276.2,630.7,265z"/>
</g>
</svg>
