<?xml version="1.0" encoding="utf-8"?>
<!-- Generator: Adobe Illustrator 26.4.1, SVG Export Plug-In . SVG Version: 6.00 Build 0)  -->
<svg version="1.1" id="Слой_1" xmlns="http://www.w3.org/2000/svg" xmlns:xlink="http://www.w3.org/1999/xlink" x="0px" y="0px"
	 viewBox="0 0 820 555.1" style="enable-background:new 0 0 820 555.1;" xml:space="preserve">

<g id="XeYvvu_00000111189032384559251470000001020684151584967571_">
	<g>
		<path class="st0" d="M415.2,440.8c-22.2-0.4-41-7.9-56.6-23.3c-32-31.6-64-63.3-95.9-94.9c-16.7-16.5-33.4-33-50.2-49.5
			c-33.1-32.6-32.9-81,0.1-113.6c45.9-45.3,91.6-90.7,137.3-136.2C364.9,8.4,383.2,0.6,403.7,0c24.4-0.6,45.4,9,62.1,27.2
			c2.1,2.2,0.4,3.1-0.9,4.3c-14,13.8-27.9,27.7-41.9,41.5c-29.8,29.6-59.7,59.1-89.4,88.8c-30.3,30.3-30.2,79,0.3,109.2
			c46.2,45.9,92.6,91.7,139,137.3c3.1,3.1,2.6,4.4-0.2,7.2C456.9,432,437.7,440.3,415.2,440.8z"/>
		<path class="st0" d="M30.2,216.5c0.1-21.6,7.7-40.1,23-55.2c46.1-45.8,92.3-91.5,138.3-137.4c15-15,33.3-23.2,54-23.9
			c24.7-0.8,45.7,8.9,62.6,27.2c2.1,2.2,0.3,3.1-1,4.3c-15.2,15.2-30.5,30.3-45.7,45.5c-28.4,28.2-56.9,56.2-85.1,84.5
			c-30.6,30.6-30.7,79,0,109.5c46.2,45.9,92.6,91.7,139,137.3c3.2,3.1,2.5,4.4-0.2,7.2c-33.5,33.5-82.2,33.5-116,0.1
			c-47.8-47.4-95.7-94.7-143.7-141.9C39.4,258,30.3,239.3,30.2,216.5z"/>
		<path class="st1" d="M641.1,468.9c-9.4,12.8-18.8,25.6-28.1,38.5c-1.3,1.7-1.5,3.7,0,5.5c9.8,11.9,18.1,25,29.3,37.5
			c0-4.5,0.1-8,0-11.4c-0.1-2.4,0.4-3.4,3.3-3.3c10.6,0.3,12.1-1.2,12.2-11.9c0-17.2,0.1-34.3-0.1-51.5c0-3.5,0.9-4.5,4.5-4.5
			c20.5,0.2,41,0.1,61.5,0c3.2,0,4.3,0.8,4.2,4.1c-0.1,26.2-0.1,52.3,0,78.5c0,3.1-0.9,4-3.9,3.9c-5-0.2-10-0.3-15,0
			c-3.6,0.2-4.4-1.1-4.4-4.5c0.2-18.8-0.1-37.6,0.2-56.5c0.1-4.6-1.3-5.7-5.6-5.4c-5.1,0.4-10.3,0.3-15.5,0c-3.1-0.1-4,0.8-4,3.9
			c0.2,10.2,0.1,20.3,0.1,30.5c0,2,0,4-0.1,6c-1.1,18.4-10.7,27.3-29,26.4c-9.8-0.5-19.6-0.6-29.5-0.4c-3.5,0.1-5.7-0.9-7.8-3.9
			c-6.4-9.3-13.3-18.2-19.6-27.5c-2.1-3.1-4.7-2.2-7-1.9c-2.7,0.3-1.5,2.9-1.5,4.5c-0.1,8.2-0.2,16.3,0,24.5
			c0.1,3.2-0.7,4.5-4.1,4.3c-5.1-0.3-10.3-0.1-15.5-0.1c-2,0-3.5-0.1-3.5-2.8c0.2-27.6,0.2-55.3,0.3-82.9c0.4-0.2,0.9-0.4,1.3-0.6
			c5.8,0,11.7,0.2,17.5-0.1c3.1-0.1,4,0.9,4,3.9c-0.2,8-0.1,16,0,24c0,1.6-1.2,4.1,1.7,4.4c2.4,0.3,4.8,0.6,6.6-2.1
			c5.3-8,11-15.7,16.1-23.8c2.9-4.6,6.2-7.1,12-6.5c6.3,0.6,12.6,0.2,19,0.2C640.7,468.2,640.9,468.5,641.1,468.9z M633.6,545.7
			c0.3-2.5-2.1-3.7-3.2-5.2c-3.2-4.3-5.1-9.6-9.8-12.8c-0.1-1.9-1.1-2.9-3-3c-1.1-0.4-3.1-1.1-3.1-1.2c1.7-5.4-4.6-7.8-4.8-12.6
			c-0.1-1.6,0-3.1,0.9-4.3c5.6-7.3,9.8-15.7,16-22.6c5.6-6.2,5.6-6.3-0.4-11.2c-0.1-0.1-0.2-0.2-0.4-0.3c-3.1-2.5-8.5-2.1-11.1,0.8
			c-5.9,6.7-10.7,14.1-15.2,21.7c-2.1,3.5-4.6,6-8,7.9c-1.8,1-4.2,2.8-5.9,1c-1.9-2-5-4.1-4-7.5c1.5-5.4,0.7-10.9,0.8-16.4
			c0.1-6.9-2-8.9-8.6-9.2c-7.2-0.3-9.3,1.8-9.3,9.1c0,12.2,0,24.3,0,36.5c0,9,0,18,0,27c0,1.7-0.2,4.5,2.4,3.9
			c2.7-0.6,3.9,0.8,5.7,1.9c5.6,3.4,10.4,1.2,9.5-4.8c-1-6.7-0.2-13.2,0.3-19.8c0.4-6,2.3-7.9,8.1-6.7c3.9,0.8,7.1,3.3,8.7,6.9
			c3.8,8.6,9.1,16,16.1,22.2c2.5,2.3,5.8,4.6,9.3,4.6c3.1,0,6.1-1.2,9.2,0.1c0.7,0.3,1.8,0.3,2.2-0.7c0.4-1.2-0.6-1.7-1.5-2.2
			C634.6,547.6,634.8,546.4,633.6,545.7z"/>
		<path class="st2" d="M137.9,510.1c6.6,1.6,12.4,4.3,13.3,11.8c1.2,9.5,2.3,19.2-5.2,26.9c-3.5,3.7-8.5,4.6-13.4,4.8
			c-17.1,1-34.3,0.2-51.5,0.5c-2.8,0-3.3-1.1-3.3-3.6c0.1-26.3,0.1-52.6,0-79c0-3.1,1-3.9,4-3.9c15,0.2,30-0.1,45,0.2
			c19.3,0.4,26.9,10.5,23.1,29.5C148.8,504.3,144.9,508.4,137.9,510.1z M112.7,518.6c-11.9-0.2-11.9-0.2-11.8,11.8
			c0,0.8,0,1.7,0,2.5c0,1.4,0.7,2.2,2.1,2.2c6.8-0.1,13.6,0.2,20.4-0.5c5.2-0.5,5.5-4.9,5.4-9.1c-0.1-4.2-1.9-6.6-6.2-6.8
			C119.3,518.5,116,518.6,112.7,518.6z M112.9,486.7c-12.6,0-12.6,0-12,12.3c0,0.2,0,0.3,0,0.5c-0.2,2.1,0.6,3,2.8,3
			c5.5-0.1,11,0.1,16.5-0.1c5.7-0.3,7.5-2.6,7.4-8.4c-0.1-5.5-1.8-7.1-7.7-7.2C117.5,486.7,115.2,486.7,112.9,486.7z"/>
		<path class="st2" d="M739.2,510.9c0-5.3-0.3-10.7,0.1-16c1.1-15.9,8.3-23.9,24-26.6c10.1-1.7,20.3-1.7,30.4-0.2
			c16.1,2.4,24,10.2,25.6,27.7c1.1,11.7,1.4,23.6-0.8,35.3c-2.3,12-9.1,19.3-21.1,21.8c-12.9,2.7-25.8,2.8-38.6-0.5
			c-11.8-3-18.1-10.6-19.2-22.7c-0.5-6.3-0.1-12.6-0.1-19C739.4,510.9,739.3,510.9,739.2,510.9z M794.7,511
			C794.6,511,794.6,511,794.7,511c0-5,0.2-10-0.1-15c-0.3-5-3.1-7.9-8.2-8.4c-5-0.5-10-0.4-15,0c-4.4,0.4-7.2,2.8-7.9,7.1
			c-1.5,10.8-1.4,21.6,0,32.3c0.5,4.1,3.2,6.5,7.3,7.1c5.1,0.8,10.3,0.8,15.4,0.1c5.6-0.7,7.9-3.1,8.4-8.8
			C794.9,520.7,794.7,515.9,794.7,511z"/>
		<path class="st3" d="M241.6,510.7c0-5.5-0.2-11,0-16.5c0.7-13.9,8.1-22.8,21.7-25.5c11.9-2.4,23.9-2.4,35.7,0
			c13.4,2.7,20.6,10.7,21.7,24.3c0.9,11.5,0.7,23,0.1,34.4c-0.8,14.6-7.3,22.4-21.4,25.5c-12.6,2.8-25.5,2.8-38.1-0.4
			c-12.5-3.2-19-11.5-19.7-24.5C241.3,522.3,241.6,516.5,241.6,510.7z M297.6,510.9c-0.4-5.3,0.5-10.6-0.7-15.9
			c-1-4.5-3.6-7-8.1-7.4c-5-0.5-9.9-0.5-14.9,0c-4.9,0.5-7.6,3.3-8.1,7.9c-1.2,10.3-1.2,20.5,0,30.8c0.6,4.7,3.4,7.4,8.2,7.9
			c4.8,0.5,9.6,0.5,14.4,0.1c4.9-0.5,7.8-3.1,8.7-8.1C298,521.2,297.2,516.1,297.6,510.9z"/>
		<path class="st4" d="M162.6,511c0-13,0.1-26-0.1-39c0-3.2,0.8-4.4,4.1-4.3c13.6,0.2,27.3,0.1,41,0.1c2.5,0,5,0.4,7.4,0.7
			c9.8,1.6,16.4,6.9,18.8,16.8c2.5,10.6,2.3,21.2-0.3,31.6c-1.9,7.7-7,12.2-14.8,13.8c-9.6,1.9-19.3,1-28.9,1
			c-3.6,0-4.6,1.1-4.4,4.5c0.3,4.6-0.1,9.3,0.1,14c0.2,3.2-1,4-4,3.9c-5-0.2-10-0.2-15,0c-3.3,0.2-4.2-1-4.2-4.2
			C162.7,537,162.6,524,162.6,511z M185.6,499.7c0,3,0.2,6,0,9c-0.2,2.7,0.9,3.4,3.5,3.3c4.5-0.2,9,0,13.5-0.1
			c7.1-0.2,8.7-1.8,9.1-8.9c0.8-13.3-0.9-15.2-14.1-15.2C185.6,487.9,185.6,487.9,185.6,499.7z"/>
		<path class="st2" d="M328.8,511c0.1-6.8-0.2-13.6,0.7-20.4c1.7-11.9,8-19.3,19.7-21.6c11.7-2.3,23.5-2.7,35.3-0.4
			c14,2.7,21.7,13.5,20.2,27.6c-0.2,1.8-0.7,2.7-2.6,2.7c-6.2-0.1-12.3-0.1-18.5,0c-2.3,0-2.6-1.1-2.8-3c-0.8-5.9-2.7-7.7-8.7-8.3
			c-16.2-1.6-19.4,1.2-19.5,17.2c0,6.5-0.1,13,0.2,19.5c0.4,7,3.3,9.8,10.3,10.3c2.8,0.2,5.7,0.2,8.5,0c6.7-0.4,8.9-2.5,9.1-9.3
			c0.1-3.1,1.1-4,4.1-3.8c5.3,0.2,10.7,0.2,16,0c3.2-0.1,3.8,1,3.9,4c0.3,19.6-8.5,28.8-28.2,29.2c-8.5,0.2-17,0.4-25.4-0.9
			c-12.9-2-19.7-9-21.5-21.9C328.6,524.9,328.9,517.9,328.8,511z"/>
		<path class="st5" d="M0.1,511.2c0-13,0.1-26-0.1-39c-0.1-3.6,1.2-4.5,4.6-4.5c18,0.1,36,0.1,54,0c3.1,0,4.6,0.7,4.3,4.1
			c-0.4,4.8,1.9,11-0.9,14c-2.8,3.1-9.1,0.8-13.9,0.9c-7,0.2-14,0.1-21,0c-2.6-0.1-3.4,0.7-3.5,3.3c-0.5,12.4-0.6,12.4,11.9,12.4
			c7.2,0,14.3,0.1,21.5,0c2.4,0,3.5,0.5,3.6,3.3c0.6,12.8,0.7,12.8-12.1,12.8c-7.2,0-14.3,0.1-21.5-0.1c-2.6-0.1-3.3,0.8-3.4,3.4
			c-0.5,13.1-0.6,13.1,12.6,13.1c7.7,0,15.3,0.1,23-0.1c3-0.1,4.7,0.5,4.4,4.1c-0.4,4.8,1.5,11.1-0.9,14c-2.6,3.2-9.1,0.9-13.9,1
			c-14.7,0.1-29.3-0.1-44,0.1c-4.1,0.1-5-1.2-4.9-5.1C0.2,536.5,0.1,523.8,0.1,511.2z"/>
		<path class="st5" d="M484,510.8c0-12.8,0.1-25.6-0.1-38.5c0-3.3,0.6-4.7,4.3-4.6c18,0.2,36,0.2,53.9,0c3.3,0,4.5,0.9,4.3,4.2
			c-0.3,3.6-0.2,7.3,0,11c0.2,3.1-0.9,4-4,4c-10.3-0.2-20.6,0.1-31-0.1c-3.2-0.1-4.2,0.7-4.2,4.1c0,11.7-0.1,11.7,11.6,11.7
			c7.2,0,14.3,0.1,21.5-0.1c2.9-0.1,3.5,0.9,3.6,3.7c0.2,12.4,0.3,12.4-11.9,12.4c-6.8,0-13.7,0.1-20.5-0.1c-3-0.1-4.3,0.5-4.4,4
			c-0.1,12.6-0.2,12.6,12.2,12.6c8,0,16,0.1,24,0c2.8-0.1,3.9,0.8,3.7,3.7c-0.2,4-0.2,8,0,12c0.1,2.5-0.7,3.5-3.4,3.5
			c-18.8-0.1-37.6-0.1-56.4,0c-3.2,0-3.5-1.4-3.4-3.9C484.1,537.1,484,523.9,484,510.8z"/>
		<path class="st6" d="M453.7,521.2c0,9.7-0.1,19.3,0.1,29c0.1,3-0.7,4.2-3.9,4c-4.8-0.2-9.7-0.3-14.5,0c-3.6,0.2-4.8-0.8-4.8-4.7
			c0.2-18.8,0-37.6,0.2-56.4c0-4.1-1-5.6-5.2-5.3c-4.5,0.4-9,0-13.5,0.1c-2.6,0.1-3.6-0.8-3.5-3.4c0.2-4.5,0.2-9,0-13.5
			c-0.1-2.8,1.1-3.3,3.6-3.3c20.5,0.1,40.9,0.1,61.4,0c2.6,0,3.5,0.8,3.4,3.4c-0.1,4.5-0.2,9,0,13.5c0.1,2.7-1,3.4-3.5,3.3
			c-5.3-0.2-10.7,0.1-16-0.1c-3-0.1-4,0.8-4,3.9C453.8,501.6,453.7,511.4,453.7,521.2z"/>
		<path class="st7" d="M563.7,467.8c-0.4,0.2-0.9,0.4-1.3,0.6C562.6,467.7,563,467.5,563.7,467.8z"/>
		<path class="st7" d="M641.1,468.9c-0.2-0.3-0.4-0.7-0.6-1c0.3,0.1,0.7,0.2,1,0.3C641.3,468.4,641.2,468.6,641.1,468.9z"/>
		<path class="st8" d="M767.3,171C717.4,121.1,667.1,71.5,616.8,22C601.3,6.7,581.9-0.5,560.6,0c-20.5,0.5-38.9,8.1-53.8,23
			c-46.4,46.1-92.9,92.2-139.4,138.3c-6.4,6.4-11.8,13.6-15.6,21.9c-14,30.4-8.1,64.4,15.5,88.1c17.4,17.5,35.1,34.6,52.6,52
			c31.9,31.5,63.7,63.1,95.6,94.5c15.4,15.2,34.2,22.6,56,23c21.4-0.4,40.1-7.8,55.6-23c11.9-11.7,23.7-23.4,35.5-35.2
			c34.7-34.4,69.5-68.5,103.9-103.1C796.7,249.1,797.2,200.9,767.3,171z M669.2,141.1c-3.6-1.5-6.3-4.1-8.9-6.8
			c-9.3-7.4-18.7-14.7-28-22.1c-9.3-7.4-18.7-14.7-28.1-22c-7.3-5.7-14.9-11.1-23-15.8c-12.2-7.2-24.2-7-36.3,0.2
			c-17.8,10.6-33.4,24.2-49.7,36.8c-10.3,8-20.5,16.1-30.7,24.1c-1.2,1-2.3,2.5-4.8,1.9c25-24.1,47.5-50.3,74.4-71.8
			c22.1-17.7,36.2-17.5,58.6,0.1c19,15,35.3,32.8,52.4,49.9c4.2,4.2,8.3,8.5,12.4,12.8c1.4,1.4,2.7,2.9,4.1,4.3l0,0
			c3.5,1.8,5.8,4.9,8.2,7.8c0.2,0.3,0.3,0.6,0.5,0.9C669.9,141.4,669.5,141.2,669.2,141.1z"/>
		<path class="st7" d="M669.8,140.6c0.2,0.3,0.3,0.6,0.5,0.9c-0.3-0.1-0.7-0.3-1-0.4C669.4,140.9,669.6,140.7,669.8,140.6z"/>
		<path class="st8" d="M620.6,527.7c4.6,3.2,6.6,8.5,9.8,12.8c1.1,1.5,3.5,2.7,3.2,5.2c-1.8,1.7-0.1,2.2,1,3c0.8,0.5,1.9,1,1.5,2.2
			c-0.3,1-1.5,0.9-2.2,0.7c-3.1-1.3-6.2-0.1-9.2-0.1c-3.5,0-6.7-2.4-9.3-4.6c-6.9-6.2-12.2-13.6-16.1-22.2c-1.6-3.6-4.8-6-8.7-6.9
			c-5.8-1.2-7.6,0.7-8.1,6.7c-0.5,6.6-1.2,13.1-0.3,19.8c0.9,6-4,8.3-9.5,4.8c-1.8-1.1-3-2.5-5.7-1.9c-2.6,0.6-2.4-2.1-2.4-3.9
			c0-9,0-18,0-27c0-12.2,0-24.3,0-36.5c0-7.3,2.2-9.4,9.3-9.1c6.7,0.3,8.7,2.3,8.6,9.2c-0.1,5.5,0.7,10.9-0.8,16.4
			c-0.9,3.5,2.1,5.5,4,7.5c1.7,1.9,4.1,0,5.9-1c3.4-1.8,5.9-4.3,8-7.9c4.5-7.6,9.3-15,15.2-21.7c2.6-3,8.1-3.4,11.1-0.8
			c0.1,0.1,0.2,0.2,0.4,0.3c6,4.9,6,4.9,0.4,11.2c-6.2,6.9-10.4,15.3-16,22.6c-0.9,1.2-1,2.7-0.9,4.3c0.2,4.7,6.4,7.1,4.8,12.6
			c0,0.1,2,0.8,3.1,1.2C617.4,526.9,618.4,527.9,620.6,527.7z"/>
		<path class="st0" d="M620.6,527.7c-2.2,0.2-3.2-0.8-3-3C619.5,524.8,620.5,525.8,620.6,527.7z"/>
		<path class="st0" d="M634.6,548.7c-1.1-0.7-2.8-1.3-1-3C634.8,546.4,634.6,547.6,634.6,548.7z"/>
	</g>
</g>
</svg>
