<?xml version="1.0" encoding="utf-8"?>
<!-- Generator: Adobe Illustrator 26.4.1, SVG Export Plug-In . SVG Version: 6.00 Build 0)  -->
<svg version="1.1" id="Слой_1" xmlns="http://www.w3.org/2000/svg" xmlns:xlink="http://www.w3.org/1999/xlink" x="0px" y="0px"
	 viewBox="0 0 396.7 88.9" style="enable-background:new 0 0 396.7 88.9;" xml:space="preserve">
<g>
	<g>
		<polygon class="st0" points="93.7,64.9 93.7,24.1 110.6,24.1 110.6,30.1 100,30.1 100,64.9 		"/>
		<polygon class="st0" points="121.3,64.9 114.8,64.9 114.8,24.1 120.4,24.1 120.4,49.9 122.9,41 128.2,24.1 135.2,24.1 135.2,64.9 
			129.4,64.9 129.4,36.2 126.8,46.2 		"/>
		<path class="st0" d="M148.6,53.8c-0.2,3.2-0.7,4.4-1.8,5.5h8.4V30.1h-5.5L148.6,53.8L148.6,53.8z M138.4,65v-5.8h2.5
			c1.1-1.4,1.4-3,1.6-5.3l1.4-29.7h17.9v35h2.8V65H138.4z"/>
		<path class="st0" d="M174.4,30.1v13.7h3c2.1,0,3.2-0.9,3.2-3.9v-6.2c0-3-1.1-3.9-3.2-3.9h-3V30.1z M187.1,34.3v5.3
			c0,6.5-3.2,10-9.5,10h-3v15.3h-6.5V24.1h9.5C183.9,24.1,187.1,27.8,187.1,34.3z"/>
		<path class="st0" d="M195.9,55.6c0,3,1.2,4,3.3,4s3.3-1.1,3.3-4v-22c0-3-1.2-4-3.3-4c-2.1,0-3.3,1.1-3.3,4V55.6L195.9,55.6z
			 M189.5,33.9c0-6.5,3.3-10.2,9.7-10.2s9.7,3.7,9.7,10.2V55c0,6.5-3.3,10.2-9.7,10.2s-9.7-3.7-9.7-10.2V33.9z"/>
		<polygon class="st0" points="221.6,48.7 219.4,52.4 219.4,64.9 213.1,64.9 213.1,24.1 219.4,24.1 219.4,41.8 227.9,24.1 
			234.2,24.1 225.4,42.4 234.2,64.9 227.7,64.9 		"/>
		<path class="st0" d="M243,55.6c0,3,1.2,4,3.3,4s3.3-1.1,3.3-4v-22c0-3-1.2-4-3.3-4s-3.3,1.1-3.3,4V55.6L243,55.6z M236.7,33.9
			c0-6.5,3.3-10.2,9.7-10.2s9.7,3.7,9.7,10.2V55c0,6.5-3.3,10.2-9.7,10.2s-9.7-3.7-9.7-10.2V33.9z"/>
		<polygon class="st0" points="273.8,53.1 278.2,24.1 287.1,24.1 287.1,64.9 281,64.9 281,35.7 276.6,64.9 270.6,64.9 265.9,36 
			265.9,64.9 260.2,64.9 260.2,24.1 269,24.1 		"/>
		<path class="st0" d="M309.5,32.2v24.3h2.5c2.1,0,3.2-1.2,3.2-4V36.2c0-3-1.2-4-3.2-4H309.5L309.5,32.2z M303.1,32.2h-2.5
			c-2.1,0-3.2,1.1-3.2,4v16.2c0,3,1.2,4,3.2,4h2.5V32.2L303.1,32.2z M303.1,61.9h-2.5c-6.3,0-9.5-3.5-9.5-10V36.6
			c0-6.5,3.2-10,9.5-10h2.5v-2.8h6.3v2.8h2.5c6.3,0,9.5,3.5,9.5,10v15.3c0,6.5-3.2,10-9.5,10h-2.5v3h-6.3V61.9L303.1,61.9z"/>
		<path class="st0" d="M331.6,55.6c0,3,1.2,4,3.3,4c2.1,0,3.3-1.1,3.3-4v-22c0-3-1.2-4-3.3-4c-2.1,0-3.3,1.1-3.3,4V55.6L331.6,55.6z
			 M325.1,33.9c0-6.5,3.3-10.2,9.7-10.2c6.3,0,9.7,3.7,9.7,10.2V55c0,6.5-3.3,10.2-9.7,10.2c-6.3,0-9.7-3.7-9.7-10.2V33.9z"/>
		<path class="st0" d="M355.2,30.1v13.7h3c2.1,0,3.2-0.9,3.2-3.9v-6.2c0-3-1.1-3.9-3.2-3.9h-3V30.1z M367.7,34.3v5.3
			c0,6.5-3.2,10-9.5,10h-3v15.3h-6.3V24.1h9.5C364.5,24.1,367.7,27.8,367.7,34.3z"/>
		<polygon class="st0" points="368.7,24.1 388.6,24.1 388.6,30.1 381.9,30.1 381.9,64.9 375.6,64.9 375.6,30.1 368.7,30.1 		"/>
	</g>
	<g>
		<path class="st1" d="M46.1,82.6c5.6,0,10.9-1.2,15.6-3.3l-3.9-6.7c-3.7,1.6-7.7,2.5-12,2.5C33,75.1,22,67.2,17.6,55.9h21.8
			l6.7,11.4l0,0c2.8,0,5.5-0.5,7.9-1.4L43.8,48.2H8.1C9.8,67.7,26.2,82.6,46.1,82.6z"/>
		<path class="st0" d="M79.1,25.3c-2.8-4.9-6.5-8.8-10.7-12L64.5,20c3.2,2.5,5.8,5.5,7.9,9.1c6.5,11.1,5.1,24.6-2.3,34.1L59.2,44.5
			L65.9,33l0,0c-1.4-2.5-3.2-4.6-5.3-6.2L50.5,44.5l17.9,31.1C84.2,64.2,89.1,42.5,79.1,25.3z"/>
		<path class="st2" d="M13,25.3c-2.8,4.9-4.4,10-4.9,15.3h7.7c0.5-3.9,1.8-7.9,3.9-11.4C26,18.1,38.3,12.5,50.3,14.2L39.4,33H26.2
			l0,0c-1.4,2.5-2.3,5.1-2.8,7.6h20.4L61.7,9.7C44.1,1.6,22.8,8.2,13,25.3z"/>
	</g>
</g>
</svg>
