<?xml version="1.0" encoding="utf-8"?>
<!-- Generator: Adobe Illustrator 26.4.1, SVG Export Plug-In . SVG Version: 6.00 Build 0)  -->
<svg version="1.1" id="Слой_1" xmlns="http://www.w3.org/2000/svg" xmlns:xlink="http://www.w3.org/1999/xlink" x="0px" y="0px"
	 viewBox="0 0 819.1 136.4" style="enable-background:new 0 0 819.1 136.4;" xml:space="preserve">
<g id="Z54oIH_00000033346820396040319680000006082045995171163569_">
	<g>
		<path class="st0" d="M82.1,20.2c0.1,36.9,0.1,73.7,0.3,110.6c0,4.1-1.7,4.8-5.1,4.8c-21.9-0.1-43.7,0-65.6-0.1
			c-2.2,0-4.5,0-6.7,0.6c-1.5,0.4-3.3,0.7-4.3-1.3c2-2.2,4.8-1.3,7.2-1.5c5.1,0.3,10.2,0.4,15.2-0.7c5.6-1.2,11.4-0.5,17.1-1.3
			c1.1-0.2,2.2,0.3,2.2-1.3c0-1.3-0.6-2.4-2.2-2.2c-1,0.1-2.1,0.3-3.1,0.6c-9.2,3.2-18.6,2.3-28,2c-2.7-0.1-5.4,0.5-7.9-0.8
			c0.6-1.7,0.6-1.7,2.5-1.8c6.9-0.3,13.7-0.2,20.6-0.7c15.5-1.2,27-8.4,34-22.4c2.6-5.1,4.2-10.5,6.4-15.7c1.2-9,3.8-17.8,4.4-26.9
			c0.6-9.1,1.5-18.2,1.7-27.3c0.2-9.1,0.6-18.2,0.5-27.3C71.3,1,72,0.8,78,0.7c3-0.1,3.6,0.9,3.9,3.8C82.4,9.7,81.6,15,82.1,20.2z"
			/>
		<path class="st1" d="M93.9,23.7c2.8-0.2,3.4,1.5,3.7,3.9c1.2,9.8,0.7,19.7,0.8,29.6c0.1,11.3,1.5,22.4,3.1,33.4
			c0.9,5.8,2.1,11.9,5.9,16.9c5.6,11.4,14.6,17.8,27.4,19c4.9,0.5,9.8-0.4,14.6,0.5c1.5,0.3,3.5-0.3,4.2,1.8c-0.7,1.3-2,1.3-3.1,1.3
			c-6.7,0-13.3,0.9-20,1.1c-2,0-3.7-2-5.8-0.3c4.8,0.9,9.4,2.8,14.6,2.2c5-0.5,10.3-0.7,15.2,1.4c-2.3,2.2-5.5,1.5-8,1.4
			c-18.5-0.8-37-1-55.6-0.5c-0.5,0-1-0.6-1.5-0.9c-1.7-5.6-0.7-11.3-0.8-16.9c-0.4-15.5-0.1-31-0.2-46.6
			c-0.2-13.6,0.2-27.2,0.1-40.8C88.4,26.2,89.5,23.9,93.9,23.7z"/>
		<path class="st2" d="M566.4,75.2c-3.1-0.5-6.5,2-10.2-2c18.2-1.4,35.5-0.5,53.8,0.1c-3.5,3.4-7.3,1.5-10.2,2.7c-2.8,1.5-4,4-4,7
			c0,13.8-0.3,27.5,0,41.3c0.1,5.2,1.9,6.8,6.6,7.2c1.2,0.1,3.1-0.7,3.1,1.5c0,1.6-1.5,2.1-2.9,2.1c-0.6,0-1.2,0-1.8,0
			c-10.8,0-21.6-0.1-32.4,0c-2.5,0-4.7-0.7-7.1-1c-0.8-0.1-1.5-0.5-1.4-1.4c0.1-0.9,0.8-1.2,1.6-1.2c3,0,6.2,0.5,7.5-3.3
			c1-2.9,1.4-5.8,0.7-8.8c-0.5-2.2,0-4.5,0.2-6.7c0.2-2.5,0-4.8-1.3-6.9c-4.2-2.5-1.1-3.7,0.9-5.1c0.8-0.4,1.5-0.9,1.5-2
			c-0.3-5.9,0.6-11.8-0.5-17.7C570,78.4,568.8,76.4,566.4,75.2z"/>
		<path class="st3" d="M640.3,111.2c0.7-3.3,3.2-5.9,5.1-8.1c7.9-8.9,14.1-19.1,21.9-28.1c1.9-2.2,3.7-2.6,6-0.3
			c6.1,6,10.2,13.4,15.6,19.9c1.4,1.7,3.6,3.1,3.9,5.7c5.7,7.7,11.8,15.1,17.3,22.9c1.4,2,3.9,3.8,3.7,6.8c-2.8,0.8-4.5,3.1-6.6,4.7
			c-8.1,0.7-16.2,1.1-24.3-0.4c-0.7-0.1-1.7,0.2-1.7-0.8c-0.1-1.2,1.1-1.2,1.8-1.5c3.3-0.2,3.5-2.1,2.5-4.6
			c-0.3-0.7-1.1-1.1-1.3-1.8c-3-8-9.1-8.5-16.6-8.1c-7.5,0.4-15.2,0.9-22.6-1.4c-0.7-1.3-0.1-2.3,0.8-3.1c7.9-0.2,15.9,0,23.8-0.1
			c1.2,0,2.7,0.4,3.3-0.9c0.7-1.4-0.8-2.1-1.6-2.9c-3.1-3.3-4.9-7.5-7.5-11.2c-1.1-1.4-1.9-3.1-4-3.2c-1.7-1.3-2.7-0.5-4,0.8
			c-4.3,3.9-7.1,9.1-10.8,13.5C643.7,110.2,642.9,112.5,640.3,111.2z"/>
		<path class="st4" d="M370.7,134.6c-13.8-1.3-27.9,1.7-42.6-1.5c4.4-3.6,9.5-0.3,12.7-3.9c2.9-5.8,1.1-12,1.3-18.1
			c0.1-3.1-0.2-6.3,0.3-9.4c1.1-7.5-1.4-14.9-0.7-22.4c0.2-1.7-1.2-2.6-2.9-2.8c-1.3-0.1-3,0.1-2.8-2c0.2-2.1,1.9-2.1,3.4-2.1
			c5.7,0,11.4-0.3,17.1,0.1c2.9,0.2,5.7-0.2,8.5-0.1c4.2,0.1,5.1,1.5,3.2,5.2c-1.4,2.7-1.5,5.6-1.4,8.3c0.6,12.1-0.1,24.2,0.3,36.4
			c0.2,6.4,0.9,7.4,7,9.2c0.6,0.2,1.2,0.4,1.2,1.1c0,0.4-0.4,0.8-0.8,1.1C373.4,134.6,371.8,133.7,370.7,134.6z"/>
		<path class="st5" d="M738.5,134.7c-1.8-0.3-3.8,0.3-5.8-1.1c1.9-1.5,3.8-1.4,5.6-1.5c5.2-0.3,7.2-2,7.4-7.3c0.2-10,0.1-20,0.1-30
			c0-4.2,0.1-8.3,0.1-12.5c-0.1-6.6-5.7-6.3-10-7.2c0.4-1.6,1.2-1.5,1.9-1.5c10.5-0.8,20.9,0.2,31.4,0.1c3.2,0,2.5,1.9,2.2,4
			c-0.9,8.4-2.5,16.8,0.3,25.2c0.2,0.6,0.5,1.3,0.3,1.7c-3.9,6.2-0.9,13.1-1.7,19.6c-0.4,3.5,0,7.3,4.7,8.3c0.7,0.1,0.9,0.7,0.8,1.4
			c-0.2,0.9-0.9,1.1-1.7,1.1c-2.5,0.2-5.1,0-7.6-0.1C757.2,134.8,747.8,135.6,738.5,134.7z"/>
		<path class="st6" d="M232.6,133.8c-2.6,0-5.3,0-7.9,0c-5.2-1-10.4-0.6-15.6,0.1c-1.2,0.1-2.4,0.6-3.6,0.2
			c-1.5-0.5-2.7-1.4-0.8-2.7c4.6-3,4.5-7.3,4.3-12.2c-0.5-11.7-0.1-23.4-0.1-35.1c0-2.5,0.4-5.2-1.1-7.4c-1.3-1.9-0.1-2.7,1.3-3.5
			c1.3-0.7,2.7-1.2,4.3-1.1c6.1,0.2,12.3,0.5,18.4,0.7c2.4,0.1,3.8,1.2,3.2,3.7c-1.6,6.4,0.1,12.8-0.6,19.2
			c-0.7,7.3-0.1,14.6-0.2,21.9c-0.1,4.8-0.6,10.3,3.8,14.2c1.2,1.1,0.7,2.3-0.9,2.4C235.6,134.2,234,134.4,232.6,133.8z"/>
		<path class="st7" d="M539.5,134.7c-2.8,0.8-5.5,0.7-8.3,0.1c-5.3-1.4-10.6-0.5-15.9-0.6c-7.5-0.1-7.5-0.2-6.7-7.5
			c0.8-7.3-0.4-14.5-0.2-21.8c0.3-9.2,1-18.5-0.6-27.6c-0.2-1.2,0.4-1.7,1.3-2c2.7-0.8,5-2.8,8.1-2.2c4.7,0.9,9.4,0.3,14.1,0.7
			c2.6,0.2,5.2,0.9,2.4,4.4c-0.6,0.7-0.6,1.7-0.7,2.6c0,0.6,0,1.2,0,1.8c0.2,7.3-1.2,14.8,3,21.5c-0.4,0.5,0.1-0.1-0.2,0.4
			c-2.9,3.7-2.6,22.2,0.3,25.7c0.8,1,1.7,1.6,3,1.5c1.4-0.1,3.5-0.5,3.7,1.5C543.1,135.2,540.2,133.3,539.5,134.7z"/>
		<path class="st8" d="M403.1,100.5c-1.4-6-0.4-12.1-0.7-18.1c-0.1-1.9,0.3-3.9-1-5.6c-1.4-2.5-0.9-4,2.3-4c7.8,0.1,15.6,0,23.3,0
			c1.9,0,2.8,0.4,2.1,2.6c-2.6,7.6-0.5,15.4-1,23.1c-0.1,1.7,1.1,2.7,2.9,2.7c1.2,0,2.4-0.2,3.5,0.5c0.1,3.6-3.2,1.9-4.7,3
			c-1.8,0.5-2,1.7-1.9,3.4c0.3,5.9,0.3,11.8,0,17.7c-0.1,2.3,0.9,2.8,2.6,3.3c9.1,2.9,18.3,0.7,27.3-0.2c8.3-0.8,16.1-4.3,21.3-11.7
			c0.8-1.1,1.5-2.6,3-2.2c1.4,0.3,1.8,1.8,1.3,2.9c-2.2,5.1-1.4,11.1-5.2,15.7c-3.4-4.4-0.8-8.2,1.7-12c-6.1,6.3-13.2,8.6-21.5,9.9
			c-7.6,1.2-15.1,1.5-22.7,1.5c-1,0-2.2,0.2-3.1-0.3c-4.1-2.3-7.7-1.1-11.4,1c-1.8,0.7-3.7,1.5-5.5,0.1c1-1.2,1-1.2,0.1-1.5
			c-8.3-2.2-10.2-5.6-7.5-13.6c0.2-0.7,0.6-1.5,0.3-2.2c-3.1-8,0.2-16.7-2.4-24.8c-0.5-1.5,0.2-3,0.5-4.4c0.7-2.6,0.3-5-1.9-7
			c1.2,5.2-0.2,10.4,0.2,15.6C405,97.8,405.3,99.7,403.1,100.5z"/>
		<path class="st9" d="M802.8,76c3.9,0.6,7.2,2.6,10.5,4.5c4,2.3,6.1,5.8,5.9,10.7c-0.2,4.6-2.6,7.8-6.3,9.6
			c-5.2,2.5-10.5,4.8-16.4,5.2c-0.1-0.2-0.2-0.3-0.4-0.5c0.7-4.6-3.9-2.7-5.6-4.5c0.8-3.6,2.5-7,2-10.8c-0.2-1.6,0.2-3.3-1.4-4.4
			c-2.8-3.7-6.4-5.7-11-5.9c-1.2-0.1-2.4-0.4-3.3-1.2c-0.4-0.3-0.7-0.5-1-0.9c-1-0.9-2.5-1.9-1.8-3.3c0.7-1.4,2.4-0.8,3.7-0.4
			c4.5,1.2,9.1-0.7,13.7,0.6C795,75.7,798.9,75.4,802.8,76z"/>
		<path class="st10" d="M370.7,134.6c0.8-1.6,3-0.2,3.9-2.4c-2.4-0.7-5.7,0.5-6.9-3.2c-0.9-2.6-1.6-5.1-1.5-7.8c0-13,0-26.1,0-39.1
			c0-1.8-0.1-3.5,1.3-5.1c2.6-2.9,0.5-3.6-2-3.6c-8.7-0.1-17.4,0-26.1,0c-1,0-2.4-0.2-2.6,1.2c-0.2,1.5,1.2,1.4,2.2,1.5
			c2.1,0.3,4,0.9,3.8,3.5c-0.5,6.4,0.9,12.6,1.6,18.8c0.4,3.8-1.7,7.3-1,11.4c0.7,4.8,0.4,9.7,0.4,14.6c0,2.1-1.3,3.6-2.8,4.8
			c0-16.1,0-32.1,0.1-48.2c0-2.5-0.5-4.5-3.4-3.9c-5.4,1.2-10.7-0.1-16.1-0.2c-3.3,0-4.6,1.3-4.6,4.5c0,8.2-0.4,16.5,0,24.7
			c0.2,4.8-1.9,8.7-2.8,13.1c-0.2,0.8-1,1.1-1.8,1.2c-1.1-2.8-1.4-5.5,0.8-8c1.2-1.3,1.3-3,1.3-4.7c0.3-9.1,0.1-18.3,0.1-27.4
			c0-1.6,0-3.3-2.9-4.9c2.2,5.7,1.8,10.9,1.7,16c-0.2,8.1,0,16.2-2.5,24c-0.4,1.3-0.1,3.2-2.4,3c-0.9-1.3-0.5-2.4,0.2-3.6
			c2-10.5,2.1-21.2,1.8-31.8c-0.2-6.1-1.8-7.4-7.8-7.5c-2.2,0-4.9,0.1-7.2-3.8c28.8,0.1,56.7-0.5,84.5,0.7c0,0.5,0.1,0.9,0.1,1.4
			c-1.2,0.5-2.4,1-3.6,1.3c-7.1,1.7-9.1,3.3-8.7,10.3c0.7,12.7-0.6,25.4,0.7,38c0.7,6.6,1.3,7.4,7.6,7.6c0.9,0,1.8,0.1,2.7,0.2
			c0.8,0.1,1.5,0.5,1.6,1.3c0.1,1-0.9,1.1-1.6,1.1C376,133.7,373.5,135.4,370.7,134.6z"/>
		<path class="st11" d="M232.6,133.8c1.6-0.1,3.3-0.2,4.9-0.3c-3.2-6.4-5.7-12.4-4.1-19.9c1.1-5.1,0.2-10.7,0.3-16
			c0-6.9-0.3-13.7,0.3-20.5c0.3-3.1-0.2-3-3-3.3c-4.6-0.6-9.3,0.5-13.7-1.2c-1.3-0.5-3.2-0.5-4.4,0.1c-1.9,0.9-5.4,0.6-3.7,5.1
			c1.2,3,0,6.8,0.3,10.2c1,11.6-1.1,23.3,0.8,34.8c0.8,4.7-2,7.6-5.7,10.3c6.8,0.5,13.6-1.6,20.1,0.8c-9-0.4-18.1,2.2-27-1
			c-0.5-0.2-1-0.4-1.5-1.3c1.8-0.3,3.6-0.8,5.4-1c4.9-0.6,7-2.5,7-7.3c0-11.1-0.1-22.2-0.2-33.2c0-2.5,0-5.1,0-7.6
			c0.1-5.5-2.2-7.9-7.7-7.5c-1.1,0.1-2.1-0.1-3-0.7c-1.2-1.3-0.1-2,0.8-2.6c27.4,0,54.8,0,82.1,0.1c6,0,6.5,0.5,6.4,6.3
			c0,2,0.7,4.1-0.2,6.2c-2.8-0.5-2.1-2.9-2.3-4.6c-0.8-5.4-1.8-6-6.9-3.4c2.5,1.8,6.5,2.9,3.7,7.4c-5.7-8.2-14.6-6.2-22.5-6.7
			c-6.6-0.4-13.2,0-19.8-0.1c-2.8-0.1-4.1,1-4,3.9c0.1,14.9,0.1,29.8,0.4,44.7c0.1,3.3,2.1,5.7,6.1,5.6c2-0.1,4.2-0.4,7.2,1.4
			C242.6,132.9,238,135.8,232.6,133.8z"/>
		<path class="st12" d="M535.8,104c-2.9-2.7-3.5-6.1-3.6-9.8c0-4.5,0.1-9-0.1-13.5c-0.1-2,1.1-3.3,2.5-5.4c-3.4,0.9-6.4-3.6-9.3,1
			c-0.6,0.9-2.2-1-3.4-1.5c-3.3-1.4-10.8-0.8-13.1,1.5c-0.9,0.9-0.1,2,0,3c1.2,7.8,0.1,15.6,0.4,23.4c0.2,5.9-1.7,11.9,1,17.8
			c0.8,1.8-0.5,4.6-1,6.9c-1.1,5.1-0.3,6.2,5,6.3c4.5,0.1,8.9,0,13.4,0c1.3,0,2.8-0.4,3.6,1.1c-11.8-0.7-23.7,2-36.4-1.9
			c2.9-1.7,5.1-1.2,7.1-1.2c4.2-0.1,6-2.4,6-6.1c0.1-14.7,0-29.4-0.1-44.1c0-3.8-2.7-6.4-6.5-6.1c-2.3,0.2-4-0.3-5.7-2.1
			c17.1-1.1,34.1-1.1,51.9-0.6c-2.4,2.8-4.7,2-6.6,2.3c-4.9,0.8-6.9,2.7-7,7.6c-0.1,4.2,0.1,8.4-0.2,12.6c-0.3,3.7,1.7,5.1,4.8,4.9
			c10.5-0.8,21,1,31.4-0.8c0.6,0.6,0.2,1.3,0.1,1.9c-0.4,0.8-0.9,1.5-1.8,1.7c-2.6,0.6,0.1,1.2,0,1.7c-1.9,1.2-4,0.8-6,0.7
			c-7.4-0.4-14.8,0.2-22.2-0.1C538.6,105.2,536.7,106,535.8,104z"/>
		<path class="st13" d="M430.4,129.1c-2.7,0.3-3.5-0.4-3.2-3.5c0.6-5.9,0.6-11.9-0.1-17.8c-0.3-2.1,0.1-3.5,2.3-4
			c5.7-0.6,11.1-0.8,16.1,3.2c2.5,2,4.6,4.1,5.6,7.3c-0.2-7.5,0.1-14.8,0.2-22.4c-2.7,5-6.3,8.9-11.8,10.5c-1.6,0.5-3.2,1-4.6-0.3
			c-7.9-0.4-7.1,1.6-7.3-7.6c-0.1-5.9,0-11.8-0.5-17.7c-0.1-1.7,2-1.8,1.4-3.6c-7.9,0-15.9,0.1-23.9-0.1c-2.8-0.1-3.2,1.4-3.1,3.6
			c-3.7-1.6-7.7-1.9-11.6-2.9c0.7-2.4,2.3-1.7,3.5-1.7c17.8,0,35.7,0,53.5,0c8.4,0,16.8,0.2,25.1,0c3.8-0.1,5,1.8,5,5.1
			c0,3.3,0,6.6,0,9.8c0,1.5,0.3,3.2-1.9,3.4c-1.7,0.1-4,0.6-4.7-1.5c-1.7-5.3-5.9-7.9-10.4-10.3c4-1.4,8,0.3,10.4,4.2
			c1,1.6,1,5,3.5,4.3c2-0.6,0.4-3.5,0.4-5.3c-0.1-6.7-1.3-8.1-7.9-7.1c-4.4,0.7-8.5,0.1-12.8-0.1c-2-0.1-3,0.7-3.5,2.4
			c-5.8-0.1-11.7-0.1-17.5-0.3c-2.5-0.1-4,0.7-3.9,3.5c0,5.2-0.2,10.5-0.2,15.7c0,3,1,5,4.7,3.5c2.6-1.1,5.7,0.6,8.3-1.1
			c3.2-2,6.2-4.2,6.9-8.4c0.4-2.2,1.9-3.8,3.9-3.5c2.1,0.3,1.4,2.7,1.4,4.2c0.1,8.1,0,16.2,0,24.3c0,1.6,0.3,3.7-1.9,4
			c-1.8,0.2-2.9-1.4-3.3-3.1c-2.3-8.9-10.4-10.5-17.2-10.3c-1.6,0-2.7,0.3-2.7,2.1c0,6.1,0.1,12.3,0,18.4
			C428.5,127.8,429.9,128.1,430.4,129.1z"/>
		<path class="st14" d="M403.1,100.5c1-5.8,1-11.6,0.6-17.4c-0.1-1.3-0.5-2.7-0.2-4c0.3-1.8,1.8-1.7,2.6-0.5
			c1.1,1.7,2.5,3.8,2.3,5.6c-0.4,4-0.6,7.7-0.1,11.9c0.9,6.3-1.1,13,1.2,19.4c0.6,1.7,1.3,3.6-1,5.1c-1.2,0.8,0.5,9,1.7,8.9
			c3.3-0.3,5.3,3.3,8.8,2.7c-1.1,0.6-2.2,1.1-3.3,1.7c-8.5,1.3-17,1.4-25.3-1.9c2.1-0.2,4.1-0.6,6.2-0.7c4-0.1,6.6-2.4,6.3-6.5
			c-0.7-7.7,1-15.5-0.4-23.2C402.3,101.4,402.8,100.9,403.1,100.5z"/>
		<path class="st15" d="M640.3,111.2c4.1-1.3,5.5-5.3,7.5-8.3c2.5-3.7,5.9-6.6,8.6-10.1c2-2.6,2.4-0.5,2.9,1.2
			c-0.9,2.2-1.7,4.3-2.8,6.4c-0.2,0.3-0.5,0.6-0.8,0.9c-4,3.3-5.9,8.3-9.8,11.7c-0.3,0.9-0.7,1.8-1,2.7c-2.6,2.5-4.7,5.3-6.8,8.3
			c-1.2,1.8-1.5,3.4-0.6,5.4c1,2.2,2.6,2.5,4.7,2.6c1.8,0.1,3.9-0.7,6.2,2.1c-10.9,1.7-21.2,1.2-31.4,0.6c-1.5-2.1-1.6-2.4-0.6-2.4
			c9-0.5,12.9-7.7,17.8-13.6C636.1,116.1,638.3,113.6,640.3,111.2z"/>
		<path class="st16" d="M308.4,118.3c2.2-5.8,3.2-11.7,3.2-17.9c0-4.1,0.3-8.3,0.4-12.5c0.2-3.7-0.2-7.2-1.1-10.7
			c-0.3-1.1-1.6-2.8,0.4-3.2c1.5-0.3,3.4,0.1,3.9,2.2c0.2,0.9,0.4,1.8,0.4,2.6c-0.1,10.5-0.2,21-0.3,31.5c0,0.4,0.3,1.2,0.1,1.3
			c-3.7,1.9-2.1,5.9-3.3,8.7c-1,5.5-5.4,7.9-9.6,10.3c-7.1,4.1-14.9,4.7-22.9,3.7c-1-0.1-1.7-0.4-2.1-1.4c0.4-0.7,1.1-1.1,1.9-1
			c5.7,0.5,11.2-0.1,16.3-1.2c-2.2-0.9-6.9,2.5-7.2-3.4c3.1-0.1,6.4,2.2,9.3-0.7l0,0C302.5,125.4,304.8,120.9,308.4,118.3z"/>
		<path class="st17" d="M421.1,133.8c2.6-3.7,5.7-4.8,10.1-2.6c3,1.5,6.5,0.5,9.7,0.9c7.5,0.8,14.8-1.1,22-2.3
			c5.3-0.9,11.4-2.6,14.6-8.3c0.7-1.3,1.8-2.3,4.5-3.5c-2.2,3.2,1,7.2-4.1,8.5c-0.5,0.1,0.1,4.7,0.2,7.2c-2.8,2.3-6.1,1-9.1,1
			c-12.9,0.2-25.9,0.8-38.8-0.3C427.2,133.6,424.2,134.1,421.1,133.8L421.1,133.8z"/>
		<path class="st18" d="M288.7,127.5c2.2,4.8,6.7,1.5,10.2,3c-7,3.2-14.1,3-21.3,2.5c-2.5,0.3-5.2-0.3-6.4-2.1
			c-1.2-1.7-4.3-3.5-2.2-6.5c1.8-2.6,3.8-5,7.3-4.9c3.7,0.1,7.4-0.2,10.4,2.6C287.8,123.8,289.3,125.2,288.7,127.5z"/>
		<path class="st19" d="M791.9,85.1c2.3,0.2,1.8,1.9,1.8,3.3c0,4.5,0.4,9-2.8,12.8c-4.1,3.5-8.9,3.4-13.8,3.1
			c-2.1,0-4.2,0.3-5.9-1.2c-3.4-2-2.5-5.9-2.2-8.3c0.6-4.4-0.1-8.8,0.4-13.1c0.1-0.9-0.2-2,0.2-2.7c3.7-5.8-0.7-4.8-3.9-4.8
			c-9.6,0-19.1,0-28.7,0.1c8.9,2,8.9,2.1,8.9,8c-1.6-7.2-8.8-5.1-13.6-7.9c2.2-1.8,4.4-1.5,6.6-1.6c17.3-0.6,34.7,0.3,52,0.6
			c4,0.1,8,1.6,12,2.4c-9.4,0.5-18.8-0.5-28.2-1.2c0.2,1.7,2.3,1.8,2.9,3.1c-4.3,1.3-5.6,4.1-5.1,8.4c0.4,3.4,0.1,6.9,0.1,10.3
			c0,3.1,1.4,4.2,4.4,4.3c9.3,0.5,14.4-4.1,14.5-13.4C791.3,86.7,791.2,85.8,791.9,85.1z"/>
		<path class="st20" d="M93.9,23.7c-3.4,0.9-4.6,2.9-4.6,6.6c0.3,11.8,0.2,23.6,0.2,35.4c0,7.9-0.1,15.7-0.2,23.6
			c-0.1,7.6,0.5,15.3,0.4,22.8c-0.1,7.5,0.4,15.1-0.4,22.7c-3.5-1.9-2.2-5.5-2.1-7.9c0.5-11.7-0.4-23.4,0.1-35
			c0.5-11.5-0.7-22.9-0.2-34.4c0.4-9.3,0.2-18.7,0.3-28C87.7,23.3,87.6,23.3,93.9,23.7z"/>
		<path class="st21" d="M535.8,104c3,1.7,6.2,0.8,9.2,0.8c7.7,0,15.5,0,23.2-0.1c3.8,2.7,2.5,6.8,2.2,10.3c-0.3,3.8,0.7,7.5,0,11.4
			c-0.8,4.3-2.6,6-6.8,5.7c-1-0.1-2.1-0.4-3.2,0.9c2.9,0.9,5.6,1.6,8.5,1.6c10.6,0,21.2,0.1,31.8,0.2c0.2,0.2,0.3,0.3,0.2,0.5
			c-0.1,0.1-0.2,0.2-0.3,0.2c-13.9-0.4-27.8,1.1-41.7-0.9c-1.2-0.2-3.1,0.6-3.2-1.4c0-1.7,1.8-1.7,3.1-2c2.6-0.7,5.6,1,8-1.7
			c2.3-2.5,2.6-5.6,2.1-8.4c-0.6-3.8,0.2-7.4,0.1-11.1c-0.1-2.3-0.6-4.1-3.6-4.1c-7.9,0.1-15.7,0-23.6,0c-6.4,0-6.1,0.1-6.6,6.3
			c-0.4,4.6-0.3,9.1,0.3,13.6c0.5,3.4,1.9,5.5,5.7,5.4c2.3-0.1,6.2-0.7,6.3,1.7c0.1,3.2-3.8,1.2-5.9,2c-0.7,0.2-1.5,0-2.2,0
			c0.4-1.5,2.3-0.4,2.8-1.6c-0.2-0.2-0.3-0.6-0.5-0.7c-8.4-1.4-8.7-1.8-8.7-10.4c0-4.6-0.1-9.2-0.1-13.8
			C533,106.2,533.1,104.3,535.8,104z"/>
		<path class="st22" d="M82.1,20.2c-1.7-4.8-0.4-9.8-0.7-14.6c-0.1-2.7-0.3-4.7-3.8-4.2c-2.8,0.3-5.6-0.5-5.4,4.3
			c0.4,9.3,0,18.6,0,27.9c0,10.6-1.9,21.1-2.1,31.7c-0.2,8-2.7,15.9-4.3,23.9c0,0.2-0.5,0.4-0.7,0.5c-0.4,0.3-0.8,0.3-1.1-0.1
			c-0.2-3.3,0.7-6.4,1.4-9.5c3-13.9,4.3-27.9,4.2-42c0-4,0.7-8,0.7-11.9c0.1-5.1,1.1-10.3,0.2-15.2c-0.6-3,0-5.9,0.7-8.2
			c1.2-4,5.4-1.8,8.3-2.2c2.3-0.3,2.5,1.1,2.8,3C83.1,9,83.4,14.6,82.1,20.2z"/>
		<path class="st23" d="M450,77.3c0.1-1.2-2.2-1.5-1-3c0.7-1,1.8-0.9,2.9-0.8c5.3,0.4,10.6,0.7,16,0.1c6-0.6,7.7,1.2,7.5,7.2
			c-0.1,1.7,0.1,3.3,0.6,4.9c0.5,1.5,0.4,3.2-1.5,3.7c-1.9,0.5-3-0.2-3.7-2.2c-1.6-5.3-5-8.6-10.9-8.3
			C456.6,78.3,453.3,77.8,450,77.3z"/>
		<path class="st24" d="M617,134.6c9.9-0.1,19.9,0.8,29.7-1.1c-12.3-0.3-13.4-6.4-6.5-14.2c1.5-1.6,3.1-2.5,4.7-3.6
			c10.5,0.6,21.1,1.4,31.7,0.3c3.1-0.3,11.1,12.5,9.7,15.2c-0.5,0.9-1.5,0.8-2.4,0.9c-1.6,0.2-3.2,0.9-4.7-0.2
			c0.2-0.2,0.5-0.5,0.7-0.5c6.8-1.3,6.8-1.3,2.5-7.1c-0.7-0.9-1.2-2-1.8-3c-1.4-2.2-2.9-3.6-6.1-2.9c-6.4,1.4-12.9-0.1-19.3,0
			c-3.4,0.1-6.8,0.1-10.2,0.2c-3.2,0.1-7.6,6.8-6.8,10c0.8,3.1,3.1,2.6,5.3,2.7c2.1,0.1,5.5-0.7,5.6,2c0.1,2.2-3.3,2.3-5.5,2.4
			c-7.5,0.1-14.9,0.1-22.4,0.1C619.7,135.6,618,136.2,617,134.6z"/>
		<path class="st25" d="M600.7,135.5c0-0.2,0-0.5,0.1-0.7c1.4-0.5,3.4,0.3,4.1-1.8c-0.3-0.8-0.9-0.8-1.5-0.8
			c-7.2-0.9-8.8-2.5-8.8-9.8c-0.1-12.6-0.1-25.1,0-37.7c0-3.8,0.5-7.6,5.2-8.7c-2.3,2.4-2.8,5.3-2.8,8.6c0.2,13.2,0.1,26.3,0.1,39.5
			c0,5.6,1.4,6.8,6.9,7c1.8,0,3.6,0.1,5.4,0.3c0.8,0.1,1.9,0.5,1.8,1.7c-0.1,1-1,1.4-2,1.5C606.3,134.9,603.5,135.2,600.7,135.5z"/>
		<path class="st26" d="M771.1,103.1c2.2,0,4.3,0.1,6.5,0.1c0.2,1.2-0.1,2.1-1.1,2.5c4.4-0.4,9-0.1,13.5-1.5c2-0.6,4.5-0.4,6.4,1.2
			c0.1,0.1,0.1,0.3,0,0.5c-7,1.8-14.1,2-21.2,1.7c-3.5-0.2-4.4,0.8-4,4.3c0.4,4-0.1,8.1-0.1,12.1c-0.1,6.6,1.3,7.9,7.7,8
			c2,0,4.1-0.3,6.4,2.2c-4.6,0.5-8.3,1.2-12,1.3c-9.9,0.2-19.8,0.2-29.6,0.2c-1.7,0-3.6,0.4-5-1.1c12.2,0,24.4,0,36.6,0
			c-4.9-3-6.6-7-5.7-14.4c0.3-2.2,0.7-4.1-0.6-6.3c-1.1-1.8-0.5-4.2,0.8-5.9C770.8,106.5,771.4,105,771.1,103.1z"/>
		<path class="st27" d="M154.4,134.7c-6.2,0.2-12.5-0.8-18.7-0.1c-3.5,0.4-6.9-1.5-10.3-1.4c-2.6,0.1-2.7-1.3-2.5-3
			c0.3-2.8,3.4-1.7,3.7-1.4c3.7,3.2,8.3,1.4,11.9,1.2c5-0.3,10.1-0.3,15.1-0.8c0.9-0.4,1.2,0.6,1.8,0.8
			C155.2,131.5,156.1,133.4,154.4,134.7z"/>
		<path class="st28" d="M64,89.5c0.4,0,0.7,0.1,1.1,0.1c-3.7,13.2-9.1,25.4-21.7,32.8c-8.6,5-17.9,6.4-27.8,6.1
			c-4.8-0.2-9.8-1-14.5,0.8c0.1,0.8-0.2,1.2-1,0.9c0-2,0.2-3.2,2.9-3.1c10.5,0,21.1-0.1,31.3-2.7c10.1-2.6,17.3-9.1,22.4-18.3
			C59.7,100.7,61.1,94.8,64,89.5z"/>
		<path class="st29" d="M155.4,129.9c-0.6-0.3-1.2-0.5-1.8-0.8c-3.4-1.2-6.9-1.1-10.4-1.2c-11.3-0.1-22.3-1.8-30.4-10.7
			c-2.5-2.7-5.3-5.5-5.3-9.7c2.4,2.8,4.7,5.8,7.2,8.4c4.9,5.2,11.3,9.3,18.5,9.1c3-0.1,5.5,1.2,8.4,0.9c3.3-0.4,6.7-0.5,10.1,0.1
			C154.4,126.5,155.2,127.6,155.4,129.9z"/>
		<path class="st30" d="M43.3,34.7c-0.3,0.6-0.5,1.6-1.1,2.1c-1.9,1.6-2.9,2.9-1.1,5.5c1,1.5,0.1,3.4-2.3,2.5
			c-2.6-0.9-4.9-1.4-7.7-0.5c-1.9,0.6-4.3,0.4-2.4-2.9c1.2-2.1-0.3-3.3-1.5-4.6c-1.8-2.1-3.2-4.2,1.3-4.4c2-0.1,3.1-1.2,4-3
			c0.9-1.8,3.4-2.6,4.1-0.4c0.9,3,2.4,3.7,5.1,3.6C42.6,32.6,43.4,33.2,43.3,34.7z"/>
		<path class="st31" d="M713.4,130.1c-4.4-7.5-9.9-14.3-15.2-21.1c-2.1-2.7-4.7-5.2-5.5-8.8c2.4,0,2.5,2.3,3.6,3.6
			c5.7,6.7,10.6,13.9,15.9,20.9c2.4,3.2,5.3,6.8,10.1,7.3c0.9,0.1,2,0.2,2.1,1.3c0.1,1-1,1.4-1.8,1.7c-1.6,0.7-3.1,1-4.8,0.4
			c0.2-2,1.4-1.3,2.2-1.3C717.9,133.3,714.7,133.3,713.4,130.1z"/>
		<path class="st32" d="M281.3,83.5c1.2-5.5-3.6-5.5-7.2-7.3c1.9-1,3.4-1.8,4.9-2.4c4-1.6,6.3,0.2,6.4,4.5c0.1,2,0,4.1,1.4,5.9
			c0.2,1.7,0.8,4.5-1.2,4.6C282.8,88.9,281.7,86.2,281.3,83.5z"/>
		<path class="st33" d="M0.1,130.1c0.3-0.3,0.7-0.6,1-0.9c3,0,5.9,0,8.9,0c0.8,0.6,1.7,0.3,2.6,0.4c1.2,0.2,3.1-0.7,3.1,1.4
			c0.1,1.5-1.4,2.1-2.7,2.6c-1.3,0.4-2.7,0.3-3.9,0.9c-2.8,0.1-5.6,0.2-8.4,0.3C-0.5,133.4,0.2,131.7,0.1,130.1z"/>
		<path class="st34" d="M56.9,16.5c-2.5-0.5-4.1,3.4-6.3,1.9c-2.2-1.4-0.2-4.2-0.6-6.3c-0.2-1.3-1-2.2-1.8-3c-2.9-2.9-1.5-4,1.8-4.1
			C52,5,53.3,4.1,54,2.2c0.4-0.9,0.4-2.4,1.7-2.2c1.4,0.2,1.4,1.7,1.4,2.9c-0.2,0.4-0.4,0.7-0.7,1.1c-0.9,0.8-1.5,1.9-2.4,2.7
			c-1.9,1.9-0.9,4.1-1,6.3c-0.3,4.1,4.1-0.7,4.1,2.3C57.2,15.7,57.2,16.1,56.9,16.5z"/>
		<path class="st35" d="M56.9,16.5c0-0.3,0-0.6,0-0.9c1.3-2.4,2.3-4.6-0.2-7.1C55.4,7.2,55.4,5,56,3c0.4,0,0.7,0,1.1-0.1
			C58.6,4,59.7,5.7,62,5.6c4.4-0.1,2.8,2.7,1.2,4c-1.7,1.4-1.8,2.8-1.8,4.6c0,1.3,0.8,2.9-0.6,3.7C59.1,18.9,58.1,17.4,56.9,16.5z"
			/>
		<path class="st31" d="M679.1,131.9c1.6,0.1,3.1,0.1,4.7,0.2c-0.7,0.3-1.3,0.7-2.6,1.4c9.3,1.7,18,1.6,26.7,0.4
			c1.8-0.1,3.9-1.1,4.6,1.7c-11.2,0.1-22.5,0.5-33.6-0.8c-1.6-0.2-4.5,0.9-4.4-1.5C674.6,131.1,677.4,132.1,679.1,131.9z"/>
		<path class="st7" d="M570.1,101.3c-1-0.6,0-1.3-0.1-1.9c0-4.7,0-9.3-0.1-14c-0.1-3.7-0.4-7.4-3.5-10.2c2.9-0.1,4.2,2.2,4.7,4.2
			c1.7,6.8,0.4,13.8,0.6,20.7C571.7,100.8,570.8,101.1,570.1,101.3z"/>
		<path class="st36" d="M712.5,135.5c-1.1-1.7-3.4-0.2-4.6-1.7c0.6-3.1,2-5,5.5-3.7c2.5,1.1,4.5,3.2,7.9,3.3c-1,1.7-3,0.6-3.4,2
			C716.1,135.4,714.3,135.5,712.5,135.5z"/>
		<path class="st37" d="M288.7,127.5c-1.1-1.6-2.1-3.3-1.9-5.4c0.5,0.3,1.2,0.4,1.5,0.9c2.4,3.5,5.9,3.6,9.6,3.6
			c0.1,3.4-2.5,2.4-4.3,2.5C291.7,129.3,290.1,128.5,288.7,127.5z"/>
		<path class="st38" d="M308.4,118.3c-3.1,3.3-4.3,9.1-10.6,8.3c4.2-3.4,8.1-7,10.8-11.8C308.5,116,308.5,117.1,308.4,118.3z"/>
		<path class="st8" d="M421.2,133.8c3.1-0.9,6.2-1.2,9.1,0.7C427.1,135,424.1,134.8,421.2,133.8z"/>
		<path class="st39" d="M198.5,71.5c-0.3,0.9-0.6,1.7-0.8,2.6c-1.1,0-2.8,0.4-2.6-1.3C195.3,70.8,197.2,71.6,198.5,71.5z"/>
		<path class="st40" d="M9.1,134.5c1.8-1.4,4.4-1.4,6-3.4c-1.3-2-3.9-0.1-5.1-1.9c4.1,0.2,8.2,0.3,12.4,0.5c6.3,0.3,12-2.3,18-3.3
			c0.9-0.2,2.5-1.3,2.7,0.1c0.3,1.9,1.9,3.9,0.5,5.9c-0.8,1.1-2.2,0.1-3.2,0.3c-2.8,0.4-5.5,0.4-8.3,0.4
			C24.4,133,16.8,135.4,9.1,134.5z"/>
		<path class="st41" d="M645.8,112.9c2.5-4.8,5.2-9.5,9.8-12.6c1.5,2.3-0.6,3.6-1.4,5.1c-0.9,1.7-2.5,3-3.7,5.2
			c6.7,1.9,13.1,1.2,20.2,0.9c-2.4-4.1-4.5-7.4-6.8-10.7c-1.6-2.3-3.1-3.7-5.5-0.8c-0.6,0.8-1.7,1.3-2.7,0.3
			c1.2-2.1,0.9-5.1,3.6-6.3c2.4-1.3,3.4,0.4,4.7,2c3.5,4.4,5.4,10,9.9,13.7c1.4,1.1,1.7,4-0.9,4c-8.8,0.2-17.6,0.8-26.4-0.4
			C646.4,113.3,646.1,113.1,645.8,112.9z"/>
		<path class="st15" d="M664.5,83.6c1,0.1,1.3,1,1,1.6c-1,2.3-1.9,4.9-4.5,5.9c-0.5,0.2-1.3-0.6-1.4-1.5
			C659.6,88.2,663.3,83.5,664.5,83.6z"/>
		<path class="st42" d="M434.8,102.3c7.5-0.6,12.4-4.1,14.4-10.7c0.3-1.1,0.6-2,2-1.9c1.4,0.1,1.5,1.2,1.6,2.3
			c0.4,3.7-1.3,7.3-0.1,11c0.7,2.3-1.5,4.6-0.5,7c0.9,2.3,1.1,4.6-0.7,8.3c-3.6-11.7-12.2-14.2-22-14.4
			C430.9,102.1,433.4,104,434.8,102.3z"/>
		<path class="st43" d="M796.4,105.5c-5.8-1.1-11.4,1.5-17.2,1.3c-3.7-0.2-3.2-1.4-1.6-3.5c4.7,1.1,8.8-1.4,13.3-2.1
			C796.6,100.3,797.6,101.1,796.4,105.5z"/>
		<path class="st44" d="M40.5,35.8c-2.1,1.7-1.5,4.3-1.8,6.8c-0.1,0.7-1,0.8-1.5,0.4c-1.8-1.5-3.5-2.2-5.4-0.1
			c-0.6,0.6-1.8-0.1-1.6-0.8c0.7-2.1-0.9-3.8-0.8-5.5c0.2-2.4,3-3.4,4.5-5.1c1.3-1.4,2.2,0.7,3,1.6C38,34,40.1,33.4,40.5,35.8z"/>
		<path class="st45" d="M56,3c1.5,2.1,0.1,5.7,3.8,7c0.7,0.2,0.2,4.7-2.9,5.6c-2.5-2.2-3.5,2.1-5.7,1.3C52.1,12,50.3,6.2,56,3z"/>
	</g>
</g>
</svg>
