<?xml version="1.0" encoding="utf-8"?>
<!-- Generator: Adobe Illustrator 26.4.1, SVG Export Plug-In . SVG Version: 6.00 Build 0)  -->
<svg version="1.1" id="Слой_1" xmlns="http://www.w3.org/2000/svg" xmlns:xlink="http://www.w3.org/1999/xlink" x="0px" y="0px"
	 viewBox="0 0 396.7 88.9" style="enable-background:new 0 0 396.7 88.9;" xml:space="preserve">

<path class="st0" d="M57.8,61.4H27.9c-3.2-0.2-3.7-2.9-3.7-3.7V27c0-6.9-7.1-7.1-7.1-7.1v48.6h47.8C64.9,68.5,65,61.4,57.8,61.4z"/>
<path class="st0" d="M70.3,6.7H11.9c-4.5,0-8.4,3.7-8.4,8.4v58.6c0,4.6,3.7,8.4,8.4,8.4h58.4c4.5,0,8.4-3.7,8.4-8.4V15.1
	C78.7,10.4,74.8,6.7,70.3,6.7z M67.6,75.1h-53c-4.2,0-4-4.1-4-4.1V17.8c0-4.2,4-4.1,4-4.1h53c3.7,0,4,3.2,4,3.9V71
	C71.6,74.7,68.4,75.1,67.6,75.1z"/>
<path class="st0" d="M47.7,19.9c-9.8,0-17.8,7.9-17.8,17.9c0,10,7.9,17.9,17.8,17.9c9.8,0,17.8-7.9,17.8-17.9
	C65.6,27.8,57.6,19.9,47.7,19.9z M47.7,48.4c-5.9,0-10.8-4.9-10.8-10.8c0-5.9,4.9-10.8,10.8-10.8s10.8,4.9,10.8,10.8
	C58.5,43.7,53.6,48.4,47.7,48.4z"/>
<path class="st1" d="M151.8,37.8H148l-12.6-13.8v13.8h-3.2V10.4h3.2v13.3l12.3-13.3h3.7l-12.1,13.3L151.8,37.8z"/>
<path class="st1" d="M164.6,16.8c2.5,0,4.2,0.5,5.4,1.7c1.2,1.2,1.8,2.9,1.8,5.2v14h-2.2l-0.7-3h-0.2c-0.5,0.7-1.2,1.4-1.9,1.9
	c-0.7,0.5-1.3,0.8-2.2,1.2c-0.8,0.3-1.8,0.3-3,0.3c-1.2,0-2.4-0.2-3.4-0.7c-1-0.5-1.7-1.2-2.4-2c-0.5-0.8-0.8-2-0.8-3.4
	c0-2,0.8-3.5,2.4-4.7c1.7-1.2,4-1.7,7.4-1.9l3.5-0.2v-1.2c0-1.7-0.3-3-1.2-3.7c-0.8-0.7-1.9-1-3.2-1c-1,0-2,0.2-3,0.5
	c-1,0.3-1.9,0.7-2.7,1.2l-1-2.4c1.3-0.5,2.4-1,3.5-1.3C162.1,17,163.4,16.8,164.6,16.8z M168.8,27.6l-3.2,0.2
	c-2.5,0-4.2,0.5-5.4,1.2c-1.2,0.7-1.5,1.9-1.5,3.2c0,1.2,0.3,2,1,2.5c0.7,0.5,1.7,0.8,2.9,0.8c1.9,0,3.4-0.5,4.5-1.5
	c1.2-1,1.7-2.5,1.7-4.6V27.6z"/>
<path class="st1" d="M195.6,37.8h-3.2V19.9h-6.2c-0.2,3.2-0.5,6.1-1,8.3c-0.3,2.4-0.8,4.2-1.3,5.6c-0.5,1.5-1.2,2.5-2,3.2
	c-0.8,0.7-1.7,1-2.9,1c-0.3,0-0.7,0-1,0s-0.5-0.2-0.8-0.2v-2.4c0.2,0,0.3,0.2,0.5,0.2c0.2,0,0.3,0,0.5,0c0.5,0,1-0.2,1.5-0.7
	c0.5-0.5,0.8-1.2,1.3-2.2c0.5-1,0.7-2.2,1-3.5c0.3-1.5,0.5-3.2,0.8-5.2c0.2-2,0.5-4.2,0.7-6.8h12.1V37.8z"/>
<path class="st1" d="M206.8,17.2V30c0,0.2,0,0.5,0,1c0,0.3,0,0.8,0,1.2c0,0.5,0,0.8,0,1.4c0,0.3,0,0.7,0,1l11.1-17.4h3.9v20.6h-2.9
	V25.1c0-0.3,0-0.8,0-1.5c0-0.7,0-1.2,0-1.9c0-0.7,0-1,0-1.3l-11.1,17.4H204V17.2H206.8z"/>
<path class="st1" d="M233.2,17.2v8.6h11.4v-8.6h3v20.6h-3v-9.3h-11.4v9.3H230V17.2H233.2z"/>
<path class="st1" d="M259.1,17.2V30c0,0.2,0,0.5,0,1c0,0.3,0,0.8,0,1.2c0,0.5,0,0.8,0,1.4c0,0.3,0,0.7,0,1l11.1-17.4h3.9v20.6h-2.9
	V25.1c0-0.3,0-0.8,0-1.5c0-0.7,0-1.2,0-1.9c0-0.7,0-1,0-1.3l-11.1,17.4h-3.9V17.2H259.1z"/>
<path class="st1" d="M285.5,17.2v8.6H297v-8.6h3v20.6h-3v-9.3h-11.4v9.3h-3V17.2H285.5z"/>
<path class="st1" d="M321,17.2v2.7h-9.2v17.9h-3.2V17.2H321z"/>
<path class="st1" d="M336.5,16.8c2.5,0,4.5,0.8,6.1,2.7c1.5,1.7,2.3,4.4,2.3,7.9c0,2.4-0.3,4.2-1,5.9c-0.7,1.5-1.7,2.7-2.9,3.5
	c-1.3,0.8-2.7,1.2-4.5,1.2c-1,0-2-0.2-2.9-0.5c-0.8-0.3-1.5-0.7-2.2-1.2c-0.5-0.5-1-1-1.5-1.5h-0.2c0,0.5,0,1,0.2,1.7
	c0.2,0.7,0,1.4,0,1.9v8.4h-3.2V17.2h2.5l0.3,3h0.2c0.3-0.7,0.8-1.2,1.5-1.7c0.5-0.5,1.3-1,2-1.2C334.5,17,335.3,16.8,336.5,16.8z
	 M336,19.5c-1.3,0-2.5,0.3-3.4,0.8c-0.8,0.5-1.5,1.3-1.9,2.5c-0.3,1-0.7,2.5-0.7,4.1v0.7c0,1.7,0.2,3.2,0.5,4.4c0.3,1.2,1,2,1.8,2.7
	c0.8,0.7,2,1,3.5,1c1.3,0,2.4-0.3,3.2-1c0.8-0.7,1.5-1.7,1.9-2.9c0.3-1.2,0.7-2.7,0.7-4.2c0-2.4-0.5-4.4-1.3-5.7
	C339.4,20.2,338,19.5,336,19.5z"/>
<path class="st1" d="M359.9,16.8c2.5,0,4.2,0.5,5.4,1.7c1.2,1.2,1.9,2.9,1.9,5.2v14h-2.2l-0.7-3h-0.2c-0.5,0.7-1.2,1.4-1.9,1.9
	c-0.7,0.5-1.3,0.8-2.2,1.2c-0.8,0.3-1.9,0.3-3,0.3c-1.2,0-2.4-0.2-3.4-0.7c-1-0.5-1.7-1.2-2.4-2c-0.5-0.8-0.8-2-0.8-3.4
	c0-2,0.8-3.5,2.4-4.7c1.7-1.2,4-1.7,7.4-1.9l3.5-0.2v-1.2c0-1.7-0.3-3-1.2-3.7c-0.8-0.7-1.9-1-3.2-1c-1,0-2,0.2-3,0.5
	c-1,0.3-1.9,0.7-2.7,1.2l-1-2.4c0.8-0.5,2-0.8,3.2-1.2C357,17.2,358.5,16.8,359.9,16.8z M364.1,27.6l-3.2,0.2
	c-2.5,0.2-4.4,0.5-5.4,1.2c-1,0.7-1.5,1.9-1.5,3.2c0,1.2,0.3,2,1,2.5c0.7,0.5,1.7,0.8,2.9,0.8c1.9,0,3.4-0.5,4.5-1.5
	c1.2-1,1.7-2.5,1.7-4.6V27.6z"/>
<path class="st1" d="M390.3,17.2v17.9h2.9v9.8h-3v-7.1h-14.5v7.1h-3v-9.8h1.7c1.2-1.7,2.2-3.4,2.9-5.4c0.8-1.9,1.3-4.1,1.7-6.1
	c0.3-2.2,0.7-4.2,0.7-6.4H390.3z M387.3,19.7h-4.9c-0.2,1.9-0.3,3.7-0.8,5.6c-0.3,1.9-1,3.7-1.7,5.4c-0.7,1.7-1.5,3.2-2.4,4.4h9.8
	V19.7z"/>
<path class="st1" d="M143.9,51.1c-1.5,0-2.9,0.3-4,0.8c-1.2,0.5-2.2,1.4-3,2.2c-0.8,1-1.5,2.2-1.9,3.5c-0.5,1.4-0.7,2.9-0.7,4.7
	c0,2.4,0.3,4.2,1,5.9c0.7,1.7,1.9,3,3.2,3.9c1.3,0.8,3.2,1.4,5.4,1.4c1.2,0,2.4-0.2,3.4-0.3c1-0.2,2.2-0.5,3.2-0.8v2.7
	c-1,0.3-2,0.7-3.2,0.8c-1.2,0.2-2.4,0.3-3.9,0.3c-2.9,0-5-0.5-6.9-1.7c-1.9-1.2-3.2-2.9-4.2-4.9c-1-2-1.3-4.6-1.3-7.4
	c0-2,0.3-3.9,0.8-5.7c0.5-1.7,1.3-3.2,2.5-4.4s2.5-2.2,4-2.9c1.7-0.7,3.5-1,5.5-1c1.3,0,2.7,0.2,4,0.3c1.3,0.3,2.4,0.7,3.5,1.2
	l-1.3,2.7c-0.8-0.3-1.8-0.7-2.9-1C146.3,51.1,145.1,51.1,143.9,51.1z"/>
<path class="st1" d="M160.9,55.7v8.6h11.4v-8.6h3v20.6h-3V67h-11.4v9.3h-3.2V55.7H160.9z"/>
<path class="st1" d="M191.5,55.3c2.5,0,4.2,0.5,5.4,1.7c1.2,1.2,1.9,2.9,1.9,5.2v14h-2.2l-0.7-3h-0.2c-0.5,0.7-1.2,1.4-1.9,1.9
	c-0.7,0.5-1.3,0.8-2.2,1.2s-1.9,0.3-3,0.3c-1.2,0-2.4-0.2-3.4-0.7c-1-0.5-1.7-1.2-2.4-2c-0.5-0.8-0.8-2-0.8-3.4c0-2,0.8-3.5,2.4-4.7
	c1.7-1.2,4-1.7,7.4-1.9l3.5-0.2v-1.2c0-1.9-0.3-3-1.2-3.7c-0.8-0.7-1.9-1-3.2-1c-1,0-2,0.2-3,0.5c-1,0.3-1.9,0.7-2.7,1.2l-1-2.4
	c0.8-0.5,2-0.8,3.2-1.2C189,55.5,190.2,55.3,191.5,55.3z M195.7,66l-3.2,0.2c-2.5,0.2-4.4,0.5-5.4,1.2c-1,0.7-1.5,1.9-1.5,3.2
	c0,1.2,0.3,2,1,2.5c0.7,0.5,1.7,0.8,2.9,0.8c1.8,0,3.4-0.5,4.5-1.5c1.2-1,1.7-2.5,1.7-4.6V66z"/>
<path class="st1" d="M206,63.8c0-2.9,0.3-5.4,0.8-7.4c0.5-2,1.3-3.7,2.5-5.1c1.2-1.2,2.7-2.2,4.5-2.5c1.5-0.5,3.2-0.8,4.9-1.2
	c1.7-0.3,3.2-0.7,4.9-0.8l0.5,2.7c-0.8,0.2-1.7,0.2-2.5,0.3c-0.8,0.2-1.7,0.3-2.5,0.5c-0.8,0.2-1.7,0.3-2.4,0.5
	c-0.8,0.2-1.5,0.3-2,0.5c-1,0.3-2,0.8-2.7,1.5c-0.8,0.7-1.3,1.7-1.9,2.9c-0.5,1.2-0.7,2.9-0.8,4.7h0.2c0.3-0.5,0.8-1,1.5-1.7
	c0.7-0.5,1.3-1,2.4-1.4c0.8-0.3,1.9-0.5,3-0.5c1.7,0,3.2,0.3,4.4,1.2c1.2,0.8,2,1.9,2.7,3.2c0.7,1.4,0.8,3,0.8,4.9
	c0,2.2-0.3,4.1-1.2,5.6c-0.8,1.5-1.9,2.7-3.2,3.4c-1.3,0.8-3,1.2-4.9,1.2c-1.5,0-2.7-0.3-3.9-0.8c-1.2-0.5-2-1.3-2.9-2.5
	c-0.8-1-1.3-2.4-1.9-4.1C206,67.1,206,65.8,206,63.8z M215.4,73.9c1.2,0,2.2-0.2,3-0.7c0.8-0.5,1.5-1.3,2-2.4c0.5-1,0.7-2.5,0.7-4.2
	c0-2.2-0.3-3.9-1.2-5.1c-0.8-1.2-2.2-1.9-4-1.9c-1.2,0-2.2,0.2-3,0.7c-0.8,0.5-1.7,1-2.4,1.7c-0.7,0.7-1.2,1.2-1.3,1.9
	c0,1.4,0.2,2.5,0.3,3.7c0.2,1.2,0.5,2.2,1,3.2c0.5,1,1.2,1.7,1.9,2.4C213.1,73.6,214.2,73.9,215.4,73.9z"/>
<path class="st1" d="M255.6,55.7l-8.6,10l9.2,10.5h-3.5l-8.9-10.5v10.5H241V65.6l-8.9,10.5h-3.5l9.2-10.5l-8.6-10h3.4l8.4,10v-10
	h2.9v10l8.4-10H255.6z"/>
<path class="st1" d="M269.6,55.2c1.7,0,3.2,0.3,4.5,1.2c1.2,0.8,2.2,1.9,2.9,3.2c0.7,1.4,1,3,1,4.9v1.9h-14.1c0,2.4,0.7,4.2,1.9,5.6
	c1.2,1.2,2.9,1.9,4.9,1.9c1.3,0,2.4-0.2,3.4-0.3c1-0.2,2-0.5,3-1v2.7c-1,0.5-2,0.8-3,1c-1,0.2-2.2,0.3-3.5,0.3c-2,0-3.7-0.3-5.2-1.2
	c-1.5-0.8-2.5-2-3.4-3.5s-1.2-3.5-1.2-5.7c0-2.2,0.3-4.1,1.2-5.7c0.7-1.7,1.8-2.9,3.2-3.7C266.4,55.7,267.7,55.2,269.6,55.2z
	 M269.6,57.7c-1.7,0-3,0.5-4,1.7c-1,1-1.5,2.5-1.7,4.6h10.8c0-1.2-0.2-2.4-0.5-3.2c-0.3-1-0.8-1.7-1.7-2.2S270.7,57.7,269.6,57.7z"
	/>
<path class="st1" d="M288.1,55.7v8.6h11.4v-8.6h3v20.6h-3V67h-11.4v9.3h-3.2V55.7H288.1z"/>
<path class="st1" d="M314.1,55.7v12.8c0,0.2,0,0.5,0,1c0,0.3,0,0.8,0,1.2c0,0.3,0,0.8,0,1.3c0,0.3,0,0.7,0,1l11.1-17.4h3.9v20.6
	h-2.9V63.6c0-0.3,0-0.8,0-1.5c0-0.7,0-1.2,0-1.9s0-1,0-1.4l-11.1,17.4h-4V55.7H314.1z"/>
<path class="st1" d="M345.3,55.2c1.7,0,3.2,0.3,4.5,1.2c1.2,0.8,2.2,1.9,2.9,3.2c0.7,1.4,1,3,1,4.9v1.9h-14.1c0,2.4,0.7,4.2,1.9,5.6
	c1.2,1.2,2.9,1.9,4.9,1.9c1.3,0,2.4-0.2,3.4-0.3c1-0.2,2-0.5,3-1v2.7c-1,0.5-2,0.8-3,1c-1,0.2-2.2,0.3-3.5,0.3c-2,0-3.7-0.3-5.2-1.2
	c-1.5-0.8-2.5-2-3.4-3.5c-0.8-1.5-1.2-3.5-1.2-5.7c0-2.2,0.3-4.1,1.2-5.7c0.7-1.7,1.9-2.9,3.2-3.7C342.1,55.7,343.4,55.2,345.3,55.2
	z M345.1,57.7c-1.7,0-3,0.5-4,1.7c-1,1-1.5,2.5-1.7,4.6h10.8c0-1.2-0.2-2.4-0.5-3.2c-0.3-1-0.8-1.7-1.7-2.2
	C347.3,58,346.3,57.7,345.1,57.7z"/>
</svg>
