<?xml version="1.0" encoding="utf-8"?>
<!-- Generator: Adobe Illustrator 26.4.1, SVG Export Plug-In . SVG Version: 6.00 Build 0)  -->
<svg version="1.1" id="Слой_1" xmlns="http://www.w3.org/2000/svg" xmlns:xlink="http://www.w3.org/1999/xlink" x="0px" y="0px"
	 viewBox="0 0 396.7 211.4" style="enable-background:new 0 0 396.7 211.4;" xml:space="preserve">
<g>
	<path class="st0" d="M254.1,198c-1.3-0.8-2.8-0.2-4.2-0.4c-1.5-0.2-3.6,0.4-4.5-0.5c-1-0.8-0.3-2.9-0.3-4.5c0-9.3,0-18.6,0-27.9
		c0-1.3,0.3-1.6,1.6-1.6c7.1,0.1,14.2,0.1,21.3,0c1.3,0,1.6,0.4,1.5,1.6c-0.1,1.6-0.1,3.3,0,4.9c0.1,1-0.3,1.3-1.3,1.2
		c-4.5-0.1-9.1,0-13.6-0.1c-1.2,0-1.6,0.3-1.5,1.5c0.1,3.4,0,3.4,3.4,3.4c2.7,0,5.3-0.1,8,0.7c4.5,1.3,7.1,4.4,7.5,9
		c0.4,5.2-1.8,9.1-6.1,10.9c-2.2,0.9-4.4,1.3-6.8,1.4c-0.5,0-1.1-0.3-1.4,0.3C256.5,198,255.3,198,254.1,198z M253.1,186.6
		c0,0.9,0,1.7,0,2.6c0,0.4,0.1,0.8,0.6,0.8c2.6,0.1,5.2,0.4,7.8-0.4c1.5-0.5,2.4-1.4,2.4-3c0-1.6-0.9-2.5-2.4-3
		c-1.6-0.5-3.2-0.5-4.8-0.5C253.1,183.2,253.1,183.2,253.1,186.6z"/>
	<path class="st1" d="M386.7,170.8c-3.5,0-7,0.1-10.5,0c-1.1,0-1.4,0.3-1.4,1.4c0.1,7.9,0,15.8,0.1,23.8c0,1.4-0.4,1.7-1.7,1.6
		c-1.6-0.1-3.2-0.1-4.7,0c-1.3,0.1-1.8-0.2-1.7-1.7c0.1-7.9,0-15.7,0.1-23.6c0-1.2-0.3-1.6-1.5-1.5c-3,0.1-6.1,0-9.1,0.1
		c-1,0-1.3-0.2-1.3-1.2c0.1-1.6,0.1-3.3,0-4.9c-0.1-1.2,0.3-1.6,1.5-1.5c9.4,0.1,18.9,0,28.3,0c0.6,0,1.3,0,1.9-0.1
		C386.7,165.6,386.7,168.2,386.7,170.8z"/>
	<path class="st2" d="M10.3,197.3l-0.2,0l-0.2,0c0-11.4,0-22.8,0-34.2c0.1,0,0.3,0,0.4,0.1c0,0.7-0.1,1.4-0.1,2.1
		C10.3,175.9,10.3,186.6,10.3,197.3z"/>
	<path class="st3" d="M291.8,68.8c0,8.8,0,17.6,0,26.4c0,1.2-0.4,1.8-1.4,2.4c-15.3,8.8-30.6,17.6-45.9,26.5c-1,0.6-1.7,0.3-2.5-0.2
		c-14.8-8.5-29.6-17.1-44.4-25.6c-1.1-0.6-1.8-0.7-2.9,0c-14.8,8.6-29.6,17.1-44.4,25.7c-1,0.6-1.8,0.6-2.8,0
		c-15.2-8.8-30.5-17.6-45.7-26.4c-0.9-0.5-1.3-1.1-1.3-2.2c0-17.7,0-35.4,0-53.1c0-1,0.2-1.5,1.1-2.1c15.3-8.8,30.5-17.5,45.8-26.4
		c1.2-0.7,2-0.6,3.1,0c14.7,8.5,29.5,17,44.2,25.6c1,0.6,1.8,0.6,2.8,0c14.7-8.5,29.4-17,44.1-25.5c1.3-0.7,2.2-0.8,3.4-0.1
		c15.1,8.8,30.3,17.5,45.5,26.2c1,0.6,1.3,1.2,1.3,2.3C291.8,51.2,291.8,60,291.8,68.8z M148.9,16c-0.3,0.1-0.7,0.2-0.9,0.4
		c-14.6,8.4-29.2,16.9-43.8,25.2c-1,0.6-1.1,1.3-1.1,2.3c0,16.1,0,32.3,0,48.4c0,0.5,0,1,0,1.5c0.3-0.1,0.4-0.1,0.5-0.1
		c14.5-8.3,28.9-16.7,43.4-25c0.7-0.4,0.9-0.9,0.9-1.7c0-2.4,0-4.9,0-7.3c0-11.3,0-22.6,0-33.9c0-0.8-0.2-1.7,1-1.7
		c1.3,0,1.4,0.7,1.4,1.8c0,13.6,0,27.1-0.1,40.7c0,1.2,0.3,1.9,1.4,2.5c10.5,6,21,12.1,31.6,18.2c3.9,2.2,7.8,4.5,11.9,6.8
		c0-0.5,0-0.7,0-0.9c0-16.5,0-33.1,0-49.6c0-1.1-0.5-1.5-1.3-2c-14.4-8.3-28.9-16.6-43.3-25C149.9,16.3,149.5,15.8,148.9,16z
		 M243.3,121.8c0.6-0.2,1.2-0.4,1.7-0.7c14.3-8.3,28.7-16.6,43-24.8c1-0.6,1.4-1.2,1.4-2.4c0-16.1,0-32.2,0-48.4c0-0.5,0-1,0-1.7
		c-0.5,0.2-0.7,0.4-1,0.5c-14.2,8.2-28.5,16.4-42.7,24.6c-1,0.6-1.1,1.3-1.1,2.3c0,13.4,0,26.9,0.1,40.3c0,1.2-0.3,1.7-1.4,1.9
		c-1.4,0.1-1-1-1-1.7c0-13.6,0-27.1,0-40.7c0-1.1-0.3-1.6-1.2-2.2c-14.2-8.1-28.3-16.3-42.5-24.4c-0.3-0.2-0.6-0.6-1.1-0.2
		c0,0.2-0.1,0.3-0.1,0.5c0,16.5,0,33.1,0,49.6c0,1,0.4,1.4,1.2,1.9c6.1,3.5,12.2,7,18.3,10.5C225.7,111.7,234.5,116.7,243.3,121.8z
		 M198.7,41.6c0.4,0.3,0.6,0.4,0.8,0.6c14.3,8.3,28.6,16.5,42.9,24.8c0.9,0.5,1.4,0.3,2.2-0.1c8.7-5,17.3-10,26-15
		c5.8-3.3,11.6-6.7,17.5-10.1c-0.3-0.3-0.5-0.5-0.8-0.6c-14.3-8.2-28.5-16.5-42.8-24.7c-0.9-0.5-1.6-0.4-2.4,0.1
		c-9,5.2-17.9,10.4-26.9,15.5C209.8,35.1,204.4,38.3,198.7,41.6z M193.7,96.2c-0.3-0.3-0.4-0.4-0.6-0.5
		c-14.4-8.3-28.7-16.6-43.1-24.9c-1-0.6-1.6-0.3-2.4,0.2c-14,8.1-28,16.2-42,24.3c-0.4,0.3-1,0.4-1.2,1
		c14.6,8.4,29.1,16.8,43.7,25.2c0.7,0.4,1.3,0.3,1.9-0.1c2.9-1.7,5.8-3.4,8.8-5.1C170.4,109.6,181.9,102.9,193.7,96.2z"/>
	<path class="st1" d="M181.2,180.4c0-5.2,0-10.5,0-15.7c0-1.2,0.3-1.6,1.5-1.6c1.6,0.1,3.3,0.1,4.9,0c1.3-0.1,1.7,0.3,1.7,1.6
		c-0.1,3.3,0,6.6-0.1,9.9c0,1.2,0.4,1.6,1.6,1.5c4.4-0.1,8.7-0.1,13.1,0c1.2,0,1.6-0.3,1.6-1.5c-0.1-3.4,0-6.8-0.1-10.1
		c0-1.2,0.3-1.5,1.5-1.4c1.8,0.1,3.6,0.1,5.4,0c0.9,0,1.2,0.2,1.2,1.2c0,10.7,0,21.4,0,32.1c0,0.8-0.3,1.1-1.1,1.1
		c-1.9,0-3.8-0.1-5.8,0c-1.1,0-1.2-0.4-1.2-1.3c0-3.7,0-7.3,0-11c0-1.1-0.3-1.5-1.4-1.5c-4.5,0.1-9,0.1-13.5,0
		c-1.1,0-1.4,0.4-1.3,1.4c0.1,3.7,0,7.3,0,11c0,1.1-0.3,1.4-1.4,1.4c-1.6-0.1-3.3-0.1-4.9,0c-1.4,0.1-1.9-0.3-1.9-1.8
		C181.3,190.6,181.2,185.5,181.2,180.4z"/>
	<path class="st0" d="M350.1,180.3c0,5.2,0,10.5,0,15.7c0,1.3-0.4,1.6-1.6,1.5c-1.6-0.1-3.2-0.1-4.7,0c-1.5,0.1-2-0.2-1.9-1.9
		c0.1-7.8,0-15.6,0.1-23.4c0-1.2-0.3-1.6-1.5-1.5c-2.3,0.1-4.5,0.1-6.8,0c-0.9,0-1.2,0.2-1.3,1.1c-0.6,5-1,10.1-2.4,15
		c-0.6,2.1-1.3,4.2-2.5,6.1c-2.2,3.7-6.2,5.5-10.5,4.7c-0.8-0.1-0.9-0.5-0.9-1.2c0.1-2,0.1-4,0.1-5.9c0-0.4,0-0.9,0.6-0.8
		c2.8,0.2,3.8-1.8,4.7-3.9c1.2-2.7,1.7-5.6,2.1-8.4c0.5-4.3,1-8.7,1.3-13c0.1-1.1,0.5-1.3,1.5-1.3c7.4,0,14.8,0,22.2,0
		c1.2,0,1.5,0.3,1.5,1.5C350.1,169.8,350.1,175,350.1,180.3z"/>
	<path class="st0" d="M10.3,197.3c0-10.7,0-21.4,0-32.1c0-0.7,0.1-1.4,0.1-2.1c2.2,0,4.3,0.1,6.5,0c1.1,0,1.5,0.3,1.5,1.5
		c-0.1,4.5,0,8.9,0,13.9c0.8-0.8,1.3-1.4,1.8-2c3.5-4.2,7.1-8.3,10.6-12.5c0.5-0.6,1.1-0.9,1.9-0.9c3,0,5.9,0,9,0
		c-0.1,0.8-0.7,1.2-1.1,1.6c-4,4.4-8,8.7-12.1,13c-0.8,0.8-1,1.3-0.1,2.4c4.9,5.6,9.7,11.3,14.8,17.3c-2.9,0-5.4-0.2-7.9,0.1
		c-2.4,0.2-3.8-0.7-5.2-2.5c-3.7-4.8-7.6-9.4-11.6-14.4c0,5.2-0.1,9.9,0,14.7c0,1.7-0.3,2.4-2.2,2.2
		C14.3,197.3,12.3,197.7,10.3,197.3z"/>
	<path class="st1" d="M313.1,197.5c-2.6,0-5.1,0-7.6,0c-0.8,0-1-0.4-1.2-1c-0.7-1.6-1.5-3.3-2.2-4.9c-0.3-0.8-0.8-1.2-1.8-1.2
		c-4.5,0.1-9.1,0.1-13.6,0c-0.9,0-1.4,0.3-1.7,1.1c0,0.1,0,0.1-0.1,0.2c-1,1.9-1.2,4.8-2.9,5.5c-2.2,0.9-5,0.2-7.7,0.2
		c0.3-1.3,1-2.4,1.5-3.5c4.6-9.8,9.2-19.7,13.7-29.5c0.5-1.1,1.1-1.4,2.2-1.4c1.9,0.1,4.1-0.6,5.5,0.3c1.3,0.8,1.7,3.1,2.5,4.8
		c4.3,9.2,8.6,18.5,12.9,27.8C312.8,196.4,313.2,196.8,313.1,197.5z M293.5,172.6c-1.5,3.3-2.8,6.2-4.2,9.2
		c-0.4,0.9-0.3,1.2,0.8,1.2c2.3-0.1,4.5,0,6.8,0c0.8,0,1.2-0.1,0.8-1C296.3,178.9,295,175.9,293.5,172.6z"/>
	<path class="st1" d="M137.3,197.5c3.2-6.8,6.2-13.4,9.3-19.9c2.1-4.4,4.1-8.8,6.2-13.2c0.4-0.9,0.9-1.3,1.9-1.3
		c1.9,0.1,4.2-0.5,5.7,0.3c1.5,0.8,1.8,3.2,2.6,4.9c4.4,9.3,8.7,18.6,13,27.9c0.2,0.4,0.3,0.7,0.6,1.3c-2.8,0-5.4,0-8.1,0
		c-0.7,0-0.8-0.6-1-1c-0.8-1.7-1.6-3.3-2.3-5.1c-0.3-0.8-0.8-1-1.6-1c-4.6,0-9.2,0-13.8,0c-0.8,0-1.2,0.3-1.6,1
		c-0.7,1.7-1.5,3.3-2.2,4.9c-0.4,0.8-0.8,1.3-1.8,1.2C142,197.4,139.8,197.5,137.3,197.5z M152,182.9c3.1,0,6,0,9,0
		c0-0.2,0.1-0.4,0-0.6c-1.4-3.2-2.8-6.3-4.4-9.7c-1.1,2.4-2.1,4.6-3.1,6.8C153,180.5,152.6,181.6,152,182.9z"/>
	<path class="st1" d="M85.9,180.2c0-5.2,0-10.5,0-15.7c0-0.5-0.4-1.4,0.8-1.3c5.1,0.1,10.2-0.5,15.4,0.3c6.6,1,10.4,5.1,10.5,11.2
		c0.1,6.8-3.7,11.4-10.3,12.6c-2.4,0.4-4.8,0.3-7.1,0.2c-0.8,0-1.2,0.1-1.2,1.1c0.1,2.6,0,5.1,0.1,7.7c0,1.2-0.4,1.3-1.4,1.3
		c-1.7-0.1-3.5-0.1-5.2,0c-1.1,0.1-1.5-0.3-1.5-1.4C85.9,190.8,85.9,185.5,85.9,180.2z M93.9,175.1c0,1.2,0,2.4,0,3.7
		c0,0.6,0,1,0.8,1c1.7,0,3.5,0.2,5.2,0c2.6-0.3,4.2-2.3,4.1-4.8c-0.1-2.5-1.6-3.9-4.4-4.3c-1.5-0.2-2.9,0.1-4.3,0
		c-1.2-0.1-1.5,0.4-1.4,1.5C94,173.2,93.9,174.2,93.9,175.1z"/>
	<path class="st0" d="M45.1,163.1c3.3,0,6.3,0,9.2,0c0.9,0,1.2,0.5,1.6,1.1c2.7,4.3,5.3,8.6,8,12.9c0.4,0.6,0.8,1.2,1.2,1.9
		c2.4-4.9,4.8-9.7,7.1-14.5c0.5-1,1-1.4,2.1-1.4c2.2,0.1,4.4,0,6.6,0c0.3,0.6-0.1,1-0.3,1.3c-4.1,8.3-8.3,16.6-12.4,24.9
		c-1,2-2.2,3.8-3.8,5.4c-3,2.8-7.7,3.5-11.2,1.8c-0.8-0.4-1.1-0.8-0.6-1.7c0.7-1.5,1.3-3,1.9-4.5c0.3-0.9,0.6-1.4,1.7-0.8
		c1.1,0.6,2.3,0.4,3.3-0.3c1.5-1.1,1.7-2.2,0.7-3.7c-4.6-6.9-9.2-13.8-13.8-20.7C45.8,164.4,45.6,163.9,45.1,163.1z"/>
	<path class="st0" d="M118.1,180.2c0-5.2,0-10.4,0-15.5c0-1.2,0.3-1.6,1.5-1.6c6.6,0.1,13.3,0.1,19.9,0c1.2,0,1.5,0.4,1.4,1.5
		c-0.1,1.6-0.1,3.3,0,4.9c0.1,1.2-0.4,1.3-1.4,1.3c-3.8-0.1-7.6,0.1-11.4-0.1c-1.6-0.1-2.1,0.3-2.1,2c0.1,7.7,0,15.4,0.1,23
		c0,1.4-0.3,1.8-1.7,1.7c-1.5-0.1-3-0.1-4.5,0c-1.4,0.1-1.9-0.3-1.9-1.8C118.2,190.6,118.1,185.4,118.1,180.2z"/>
	<path class="st4" d="M229.4,183.2c-2.3,0-4.7,0-7,0c-0.9,0-1.4-0.2-1.3-1.2c0.1-1.6,0.1-3.1,0-4.7c0-0.9,0.2-1.2,1.2-1.2
		c4.8,0,9.5,0,14.3,0c0.8,0,1.2,0.2,1.1,1c-0.1,1.7-0.1,3.4,0,5.1c0,0.9-0.4,1.1-1.1,1C234.1,183.2,231.7,183.2,229.4,183.2z"/>
	<path class="st5" d="M198.7,41.6c5.7-3.3,11.1-6.4,16.5-9.5c9-5.2,17.9-10.3,26.9-15.5c0.8-0.5,1.5-0.6,2.4-0.1
		c14.2,8.3,28.5,16.5,42.8,24.7c0.2,0.1,0.4,0.3,0.8,0.6c-5.9,3.4-11.7,6.8-17.5,10.1c-8.7,5-17.3,10-26,15
		c-0.8,0.4-1.3,0.6-2.2,0.1c-14.3-8.3-28.6-16.5-42.9-24.8C199.3,42,199.1,41.8,198.7,41.6z M215.3,41.5c-0.1,0-0.2,0-0.3-0.1
		C215.2,41.4,215.3,41.4,215.3,41.5c-0.1,0.2,0.1,0.4,0.3,0.5c7.8,6,16.3,10.9,25.4,14.8c0.3,0.1,0.7,0.2,0.9-0.3
		c-1.9-1.7-4-3.1-6.2-4.4C229.2,48,222.6,44.1,215.3,41.5z M244.2,25.4c8.3,6.5,17.3,11.8,27.2,15.6
		C263.1,34.5,254.1,29.2,244.2,25.4z M234.4,30.6c6.5,5.8,23.8,15.5,26.9,15.2C252.8,39.5,244,34.4,234.4,30.6z M251.6,51.5
		c-8.1-6.4-16.9-11.6-26.5-15.3C233.1,42.6,241.9,47.8,251.6,51.5z"/>
	<path class="st6" d="M243.2,113.3c1.1-0.1,1.5-0.7,1.4-1.9c-0.1-13.4,0-26.9-0.1-40.3c0-1,0.1-1.7,1.1-2.3
		c14.3-8.2,28.5-16.4,42.7-24.6c0.2-0.1,0.5-0.2,1-0.5c0,0.7,0,1.2,0,1.7c0,16.1,0,32.2,0,48.4c0,1.2-0.4,1.8-1.4,2.4
		c-14.4,8.2-28.7,16.5-43,24.8c-0.5,0.3-1.1,0.5-1.7,0.7C243.3,119,243.2,116.2,243.2,113.3z M281.7,57.4
		c-10.8,4.4-20.8,10.3-30.1,17.4C262.4,70.3,272.4,64.5,281.7,57.4z M282,79c-10.8,4.4-20.8,10.2-30.1,17.3
		C262.8,92,272.8,86.2,282,79z M282,68.2c-10.7,4.3-20.6,10-29.8,17.1C263,80.9,272.9,75.2,282,68.2z M281.7,90.2
		c-3.9,0.4-27,13.7-29.4,17C256.7,106.4,279,93.6,281.7,90.2z"/>
	<path class="st2" d="M243.2,113.3c0,2.8,0.1,5.6,0.1,8.4c-8.8-5.1-17.6-10.1-26.5-15.2c-6.1-3.5-12.2-7-18.3-10.5
		c-0.8-0.5-1.2-0.9-1.2-1.9c0-16.5,0-33.1,0-49.6c0-0.2,0-0.3,0.1-0.5c0.5-0.4,0.8,0.1,1.1,0.2c14.2,8.1,28.3,16.3,42.5,24.4
		c0.9,0.5,1.2,1.1,1.2,2.2c0,13.6,0,27.1,0,40.7C242.2,112.3,241.8,113.4,243.2,113.3z M214.8,61.7c-1.6,11.9-1.6,23.8,0,35.7
		C216.4,85.5,216.4,73.6,214.8,61.7z M205.3,56.3c-1.6,11.7-1.6,23.4,0,35.1C206.9,79.7,206.9,68,205.3,56.3z M224.3,102.7
		c1.6-11.8,1.6-23.6,0-35.5C222.7,79.1,222.7,90.9,224.3,102.7z M233.7,73.4c-1.6,11.4-1.6,22.7,0,34.1
		C235.3,96.1,235.3,84.7,233.7,73.4z"/>
	<path class="st2" d="M148.8,24.1c-1.3,0-1,0.9-1,1.7c0,11.3,0,22.6,0,33.9c0,2.4,0,4.9,0,7.3c0,0.8-0.2,1.3-0.9,1.7
		c-14.5,8.3-28.9,16.6-43.4,25c-0.1,0.1-0.2,0.1-0.5,0.1c0-0.5,0-1,0-1.5c0-16.1,0-32.3,0-48.4c0-1,0.1-1.7,1.1-2.3
		c14.6-8.4,29.2-16.8,43.8-25.2c0.3-0.2,0.6-0.3,0.9-0.4C148.8,18.7,148.8,21.4,148.8,24.1z M128.7,71.4c1.7-0.5,2.4-1.3,2.4-3
		c-0.1-6.7-0.1-13.4,0-20.1c0-1.3-0.3-2-1.4-2.6c-1.8-0.9-3.5-2-5.3-3c-1.1-0.6-2.3-1.1-2.5-2.6c0-0.3-0.4-0.6-0.7-0.8
		c-0.6-0.4-1.1,0-1.5,0.5c-0.9,1.3-1,2.7-0.4,4.1c0.2,0.6,0.9,1.1,1.4,0.7c1.1-0.9,1.8-0.1,2.6,0.3c1.3,0.7,2.6,1.6,3.9,2.2
		c1.2,0.6,1.5,1.3,1.5,2.6C128.7,56.9,128.7,64,128.7,71.4z M119.4,76.9c1.2-0.8,2.4-0.8,2.4-2.6c-0.1-7-0.1-14.1,0-21.1
		c0-1-0.3-1.5-1.1-1.9c-1.9-1.1-3.9-2.2-5.8-3.3c-1-0.6-2.3-1-2.3-2.5c0-0.3-0.3-0.6-0.6-0.8c-0.6-0.3-1.2-0.1-1.5,0.4
		c-0.9,1.3-1,2.7-0.4,4.1c0.3,0.6,0.9,1.1,1.4,0.7c1.1-0.9,1.8-0.1,2.6,0.3c1.4,0.8,2.7,1.6,4.1,2.3c1,0.5,1.4,1.1,1.4,2.3
		c-0.1,6.7,0,13.4,0,20.1C119.4,75.5,119.4,76.1,119.4,76.9z M138.1,65.9c1.9-0.4,2.5-1.3,2.5-3.1c-0.1-6.7-0.1-13.5,0-20.2
		c0-1-0.3-1.6-1.2-2.1c-2.1-1.1-4-2.3-6.1-3.5c-0.9-0.5-1.8-0.9-1.9-2.2c-0.1-0.6-0.6-1.2-1.4-1c-1.2,0.4-1.4,1.5-1.6,2.5
		c-0.1,1-0.1,2.1,0.9,2.8c0.3,0.2,0.6,0.3,0.8,0c0.9-0.9,1.7-0.2,2.4,0.2c1.3,0.7,2.6,1.6,3.9,2.2c1.4,0.6,1.6,1.5,1.6,2.9
		C138,51.6,138.1,58.7,138.1,65.9z M112.5,57.5c-1.8,0.4-2.5,1.2-2.5,3c0.2,3.9,0,7.8,0,11.7c0,2.9,0,5.8,0,8.7c0,1,0.2,1.2,1.2,0.7
		c0.9-0.5,1.3-1.1,1.3-2.2c-0.1-4.5,0-9.1,0-13.6C112.5,63.2,112.5,60.4,112.5,57.5z"/>
	<path class="st6" d="M148.8,24.1c0-2.7,0-5.4,0-8.1c0.7-0.2,1.1,0.3,1.6,0.6c14.4,8.3,28.9,16.6,43.3,25c0.8,0.4,1.3,0.9,1.3,2
		c-0.1,16.5,0,33.1,0,49.6c0,0.2,0,0.4,0,0.9c-4.1-2.3-8-4.6-11.9-6.8c-10.5-6.1-21-12.1-31.6-18.2c-1-0.6-1.4-1.3-1.4-2.5
		c0-13.6,0-27.1,0.1-40.7C150.2,24.8,150.1,24,148.8,24.1z M169.2,71.3c0-5.7,0-11.3,0-16.9c0-2.1-0.6-4.5,0.3-6.2
		c0.9-1.8,3.5-2.3,5.3-3.4c0.7-0.4,1.4-1.1,2.4-0.3c0.6,0.5,1.2-0.1,1.5-0.8c0.5-1.4,0.4-2.8-0.5-4c-0.7-1-1.9-0.9-2.1,0.2
		c-0.3,1.7-1.6,2.1-2.7,2.8c-1.7,1-3.5,2.1-5.3,3c-1,0.5-1.2,1.2-1.2,2.2c0,6.8,0.1,13.5,0,20.3C166.8,70,167.4,70.9,169.2,71.3z
		 M178.5,76.7c0-5.7,0-11.3,0-16.8c0-2.1-0.6-4.7,0.3-6.3c0.9-1.6,3.5-2.3,5.3-3.4c0.7-0.4,1.3-1,2.3-0.3c0.6,0.5,1.2,0,1.5-0.7
		c0.6-1.4,0.4-2.8-0.4-4c-0.7-1-1.9-0.9-2.1,0.2c-0.3,1.6-1.5,2.1-2.6,2.7c-1.8,1-3.6,2.1-5.4,3.1c-1,0.5-1.3,1.1-1.3,2.2
		c0.1,6.7,0.1,13.4,0,20.1C176.1,75.3,176.6,76.3,178.5,76.7z M159.9,65.9c0-5.6,0-11.1,0-16.5c0-2.3-0.8-4.9,0.3-6.7
		c1.1-1.7,3.6-2.3,5.5-3.5c0.7-0.4,1.2-0.8,2-0.1c0.8,0.6,1.4-0.1,1.6-0.8c0.5-1.3,0.4-2.7-0.4-3.8c-0.7-1.1-2-1-2.2,0.2
		c-0.3,1.4-1.3,1.9-2.3,2.5c-1.9,1.1-3.7,2.2-5.6,3.2c-1,0.5-1.3,1.1-1.3,2.2c0.1,6.7,0.1,13.5,0,20.2
		C157.4,64.6,158,65.5,159.9,65.9z M185.5,57.5c0,0.7,0,1.2,0,1.8c0,6.6,0.1,13.2,0,19.7c0,1.8,0.6,2.6,2.4,3.1c0-0.7,0-1.3,0-1.8
		c0-6.5-0.1-12.9,0-19.4C187.9,59.2,187.6,58,185.5,57.5z"/>
	<path class="st7" d="M193.7,96.2c-11.7,6.8-23.3,13.4-34.9,20.1c-2.9,1.7-5.8,3.4-8.8,5.1c-0.6,0.4-1.2,0.5-1.9,0.1
		c-14.5-8.4-29.1-16.8-43.7-25.2c0.2-0.6,0.8-0.7,1.2-1c14-8.1,28-16.2,42-24.3c0.8-0.5,1.4-0.7,2.4-0.2
		c14.3,8.3,28.7,16.6,43.1,24.9C193.2,95.8,193.3,95.9,193.7,96.2z M146.1,79.7c6,3.5,11.9,7,17.9,10.2c1.7,1,2.7,2,2.4,4
		c-0.2,1.3,0,2.6,0,3.8c0,0.9,0.1,1.7-1,2.1c-0.7,0.3-0.5,1.1-0.1,1.7c0.9,1.2,2.2,1.8,3.7,1.6c1.2-0.1,1.7-1.1,0.9-2
		c-1.1-1-1-2.1-1-3.3c0-2.2,0-4.4,0-6.6c0-1-0.3-1.5-1.2-2c-5.9-3.4-11.8-6.7-17.7-10.2C148.3,78.1,147.3,78.5,146.1,79.7z
		 M150,105.9c0-1.2-0.1-2.3,0-3.5c0.1-1.2-0.3-1.9-1.4-2.5c-2.9-1.6-5.7-3.3-8.6-4.9c-3.2-1.9-6.5-3.7-9.7-5.6
		c-1.2-0.7-2.1,0.1-2.6,0.7c-0.6,0.8,0.7,0.9,1.1,1.2c4.3,2.6,8.8,5,13.1,7.6c1.9,1.1,4.6,1.6,5.4,3.6c0.8,1.9,0.2,4.3,0.2,6.6
		c0,0.7-0.1,1.2-0.8,1.5c-1,0.4-0.7,1.2-0.2,1.9c0.8,1,1.9,1.5,3.2,1.6c0.6,0,1.2-0.1,1.5-0.7c0.3-0.6,0.1-1.2-0.4-1.6
		c-1-0.7-0.9-1.6-0.9-2.6C150,108.1,150,107,150,105.9z M136.6,85.1c4.9,2.9,9.8,5.6,14.6,8.5c1.9,1.1,4.4,1.8,5.3,3.4
		c1,1.7,0.3,4.3,0.4,6.5c0,0.1,0,0.2,0,0.3c0,0.6,0,1.2-0.8,1.5c-0.9,0.4-0.8,1.2-0.2,1.9c0.9,1.2,2.2,1.7,3.7,1.5
		c1.2-0.2,1.6-1.1,0.8-1.8c-1.3-1.1-1-2.5-1.1-3.8c0-2-0.1-4.1,0-6.1c0.1-1.1-0.4-1.7-1.3-2.2c-5.8-3.3-11.6-6.5-17.2-10
		C139.3,83.7,138.1,83.7,136.6,85.1z M118,95.9c6.3,3.6,12.4,7.1,18.5,10.7c1.6,0.9,2.7,0.9,4-0.5c-0.5-0.3-1-0.7-1.5-1
		c-5.7-3.3-11.4-6.5-17-9.9C120.4,94.4,119.3,94.6,118,95.9z"/>
	<path class="st8" d="M215.4,41.4c-0.1,0-0.2,0-0.3,0C215.2,41.4,215.3,41.5,215.4,41.4C215.3,41.5,215.4,41.4,215.4,41.4z"/>
</g>
</svg>
