<?xml version="1.0" encoding="utf-8"?>
<!-- Generator: Adobe Illustrator 26.4.1, SVG Export Plug-In . SVG Version: 6.00 Build 0)  -->
<svg version="1.1" id="Слой_1" xmlns="http://www.w3.org/2000/svg" xmlns:xlink="http://www.w3.org/1999/xlink" x="0px" y="0px"
	 viewBox="0 0 934.2 170.5" style="enable-background:new 0 0 934.2 170.5;" xml:space="preserve">
<g>
	<path class="st0" d="M19.1,132.1c7.3-6.9,9-5.8,20-1.6c10.3,3.9,20.3,8.4,31.2,10c16.3,2.5,31.2-0.9,44.7-10.3
		c17.8-12.3,25.1-30.3,27.2-51c0.7-6.6,1.4-13.2,3.4-19.5c0.6-2,2.2-3.2,3.8-4.3c2-1.3,4.1-2.4,6.1-3.6c7.9,19.4,7.4,39-0.2,58.3
		c-22,55.7-96.3,68.3-135.6,23C19.5,132.9,19.3,132.5,19.1,132.1z"/>
	<path class="st1" d="M237.8,71.1c-0.1-0.8-0.2-1.6-0.3-3c-2.5,2.4-4.8,4.4-7,6.6c-10.6,10.5-21.1,21-31.8,31.4
		c-0.3,0.3-1.3,3.2-2.1,0.1c0.7-3.4,1.7-6.7,3.2-9.8c1.6-3.4,2.7-6.9,1.8-10.8c-0.5-2.1,0.4-3.7,2-5.5c14.8-15.3,30.1-30,45-45.2
		c1.8-1.9,4.1-3.3,5.7-5.5c2.9-5.2,4.3-11.2,7.8-16.1c1.7,0.6,1,2.1,1,3.2c0.1,10.3,0,20.6,0.1,30.8c0,2.2-0.5,4.1-2,5.7
		c-0.7,0.8-1.4,1.9-0.6,3c0.8,1.2,2.1,1.3,3.4,1.1c3.2-0.5,5.6-2.4,7.8-4.6c6.1-6.1,12.2-12.2,18.3-18.3c1.5-1.5,3-2.9,5-3.7
		c1.2-0.5,2.6-1.4,3.6,0.4c1.2,2.9,1.3,6,1.3,9c0,17.3,0,34.5,0,51.8c0,0.8,0,1.7-0.1,2.5c-0.5,7.3-5.6,10.1-12.2,6.6
		c-1.3-1.5-1.1-3.4-1.1-5.2c0-5.7,0-11.3,0-17c0-6.7,0-6.7-6.3-7.7c0-0.8,0-1.7,0-2.5c0.3-0.6,0.7-1.2,1.3-1.6
		c1-0.7,2.5-1.2,1.8-2.8c-0.7-1.6-2.3-2-3.9-1.8c-3.3,0.5-5.9,2.1-8.3,4.4c-6.6,6.1-13.3,12.2-19.6,18.7c-1.2,1.2-2.5,2.3-4,3
		c-0.9,0.4-1.9,0.7-2.5-0.5c-0.6-3.8-1.3-7.5-1.3-11.3c0-4.6-0.1-4.7-4.8-5C238.7,71.6,238.2,71.5,237.8,71.1z"/>
	<path class="st2" d="M373.2,47.6c-7.2,7.1-14.5,14.2-21.7,21.3c-12.4,12.4-24.8,24.8-37.3,37.1c-0.2,0.2-1.2,3.4-2,0.1
		c0.8-3.8,2.1-7.5,3.7-11c1.3-2.9,1.9-5.7,1.2-8.9c-0.6-2.5,0.1-4.7,2-6.9c5.2-5.8,10.5-11.5,16.6-16.4c2.1-1.7,3.4-4.1,5.3-5.9
		c12-12,24-24,36.1-36c4.3-4.2,12.7-4.1,16.5,0c1.1,2.4,1,4.9,1.1,7.4c0,21.1,0,42.3,0,63.4c0,0.8,0,1.7-0.1,2.5
		c-0.4,6-3.3,8.4-9.4,7.8c-1.1-0.1-2.2-0.3-3.2-0.7c-2.4-1.8-5.2-1.4-7.9-1.3c0.5-4-1.7-4.6-5.1-4.5c-11.5,0.2-23.1,0.1-34.6,0
		c-0.4,0-3.3,1.4-1.3-1.3c4.3-2.6,9-4.4,13.7-6.2c2.5-1,4.3-2.3,5.5-4.7c1.3-2.5,2.9-4.8,6.3-4.6c4.7,0.5,9.4,0.4,14,0.2
		c2.4-0.1,5-0.4,6.6-2.8c1.3-1.5,1.4-3.2,1.4-5.1c-0.1-4.7,0-9.4,0-14c0-5.3-0.1-5.3-5.4-6.1C373.1,50.6,374.2,48.6,373.2,47.6z"/>
	<path class="st3" d="M486.1,23.6c8.3,11.8,6.4,30.3-4,40.4c-0.9,0.9-2.5,1.3-2.6,3c1.2,1.8-0.4,2.8-1.3,3.8
		c-1.7,1.8-1.4,3.3,0.2,4.9c2,2,4.2,4,6.1,6.1c1,1.5,1.1,3.1,0.8,4.8c-0.8,3.6-3,4.7-6.1,2.5c-8-5.7-14.2-13.2-20.1-21
		c-0.8-1-1.3-2.2-0.9-3.5c0.2-0.4,0.5-0.7,0.8-0.9c7.1-2.9,11.6-7.7,12.5-15.6c0.2-1.8,0.2-3.5-0.5-5.3c-2.2-5.8-4.4-6.8-9.9-4.2
		c-1.4-0.6-2.8-1.3-4.2-1.9c-0.3-0.5-0.4-1-0.2-1.6c1.6-3.8,1.4-4.3-2.7-4.5c-5.1-0.3-10.3-0.3-15.4,0C433,31,428.1,36.3,428.1,42
		c-0.1,12.6,0,25.3,0,37.9c0,4.3,0,8.6,0,12.9c0,3.4-0.2,7-3.9,8.5c-3.7,1.5-7.6,1.8-11.1-0.9c-1.2-1.9-0.9-4-0.9-6.1
		c0-15.3,0.1-30.6-0.1-45.9c-0.1-4.4,1.4-7.7,4.3-10.8c5.3-5.5,11.1-10.5,16-16.5c1.5-1.8,3.7-3,6.2-3c9.1-0.2,18.1-0.4,27.2,0.2
		c3,0.2,6,1.2,8.8,2.4C478,23.3,481.8,24.6,486.1,23.6z"/>
	<path class="st1" d="M727.3,40.2c-1.4-1.1-2.9-2.2-4.3-3.3c2.3-4.8,1.8-5.7-3.6-6.2c-5.3-0.4-10.6-0.4-15.8,0
		c-5.5,0.4-10.1,5.9-10.1,11.9c-0.1,15.4,0,30.8,0,46.2c0,1.9,0.1,3.9-0.2,5.8c-0.8,6.3-3.1,8.2-9.4,7.7c-1.8-0.1-3.6-0.4-5.1-1.6
		c-1.7-3-1.9-6.4-1.9-9.7c-0.1-13.5,0-27-0.1-40.4c0-4.8,1.5-8.8,5.2-12.2c5.1-4.9,10.4-9.7,14.6-15.4c1.8-2.5,4.4-4.5,7.7-4.6
		c9.3-0.1,18.6-1,27.9,0.8c5.9,1.1,11,4,15.8,7.2c1.4,0.9,2.7,2.1,4.5,1.4c1.1-0.3,2.2-0.6,3.3-0.1c1.6,2,2.3,4.3,3,6.7
		c-4.8,3.1-5.9,7.6-5.2,13c1.9,13.9-10.8,29.6-28.6,29.9c-3.9,0.1-7.8,0.5-11.5-1.4c-2.2-2.7-2-5.4-0.1-8.1c0.5-0.5,1.2-0.7,1.9-0.9
		c1.6-0.3,3.3-0.2,5-0.2c10.5-0.1,18.4-12.7,15.6-20.6C733.9,41.1,734,40.8,727.3,40.2z"/>
	<path class="st1" d="M567.4,21.9c-2.2,3.7-4.4,7.4-6.5,11.1c-3.7-4.2-8.7-3.4-13.5-3.3c-17.1,0.3-30.5,11.9-33,28.2
		c-0.2,1.1-0.3,2.2-0.2,3.3c0.1,4.2,1,5,5.2,4.5c0.7-0.1,1.4-0.1,1.9,0.4c0.4,1.1,0,2.4,0.9,3.4c-5.2,5.9-5.1,8,0.7,13.9
		c1.1,1.1,2.1,2.2,3.6,2.9c5.6,3,11.3,5.6,18,4.2c0.8-0.2,1.7-0.6,2.4,0.1c1.3,1.8,1.5,3.8,1.5,5.9c0,2.9-1.4,4.4-4.3,5.1
		c-12,2.6-21.5-2-29.8-9.9c-4.4-4.2-4.2-4.4-9.6-2.1c-1.7-1.6-2.8-3.6-3.7-5.7c4.2-3.4,4-7.5,2.8-12.3c-2.3-8.8-1.1-17.5,1.5-26.1
		c7.3-16.3,18.9-26.7,38.1-27.9c5.5-0.3,11.1-0.5,16.7,0.3c1.1,0.2,1.9-0.2,2.8-0.6c1-0.4,2-0.9,3.1-0.4
		C567,18.2,566.9,20.1,567.4,21.9z"/>
	<path class="st4" d="M65.3,165.2c31.7,4.2,58.5-3.9,79.7-26.4c21.2-22.6,27.8-49.6,21.5-80.3c11.6,23.1,10.3,61.1-15.3,87.6
		C126.2,171.9,89.6,175.4,65.3,165.2z"/>
	<path class="st5" d="M132.3,18.9c-8.2,7.6-17.5,10.2-28.7,7.6c-15.7-3.7-31.5-3.7-46.5,3.2c-17,7.8-27.7,21.4-33.8,38.7
		c-1.2,3.3-2.5,6.5-3.5,9.8C17.1,87.5,9.2,90.9,1.4,94.5C0.2,90.1-0.1,85.6,0,81.1c1.7-1.7,3.7-2.9,5.8-4c5.5-2.7,9.1-7.2,11.6-12.6
		c4.5-9.7,10.6-18.2,17.6-26.1c2.7-3,6.3-4.9,9.4-7.6C55.7,23.3,68.1,19.1,81.8,18c5.7-0.4,11.3-0.6,17-0.1c5.6,0.5,11-0.9,16-3.8
		c1.9-1.1,3.7-2.5,5.7-3.4C124.8,12.8,128.8,15.6,132.3,18.9z"/>
	<path class="st6" d="M774.9,89.5c4.4-2.6,7.2-0.5,10.8,2.5c13.9,11.3,29.6,13.8,46.5,7.8c15.1-5.4,26.9-21,25.7-38.4
		c-0.2-2.9,0-5.8,0-8.8c0-4,2.1-6.1,6-6.6c3.6,17.8,2.1,34.2-11.7,48.1c-16.5,16.5-42.2,18.8-60.8,9.4
		C784.8,100.2,778.7,96.1,774.9,89.5z"/>
	<path class="st0" d="M678.9,100.4c0.9,0.2,1.9,0.3,2.8,0.5c7.7,1.6,10.4-0.4,10.4-8.3c0.1-13.3,0.5-26.7-0.1-40
		c-0.9-20.3,3.1-24.6,23.7-23.3c1.9,0.1,3.9-0.3,5.8,0.4c2,0.7,5.1,0.3,5.4,2.9c0.3,2.2-2.5,2.9-4,4.2c-6.8-0.9-13.6-0.5-20.4-0.8
		c-2.9-0.1-3.7,0.7-3.7,3.6c0.1,21.4,0,42.8,0.2,64.2c0,3.3-0.8,4.2-4.1,4.1c-7.4-0.3-14.8-0.2-22.1-0.2
		C673.3,104.1,675.5,101.8,678.9,100.4z"/>
	<path class="st6" d="M413.5,100.3c1.1,0.3,2.1,0.6,3.2,0.8c7.9,0.9,10.1-1,10.1-8.9c0-17,0-33.9,0-50.9c0-4.3,5.2-11.6,9.4-11.8
		c7-0.4,14.2-0.9,21.2,0.4c1.3,0.2,3.1-0.1,3.4,1.7c0.2,1.4-1.2,2.1-2.1,2.9c-0.7,0.6-1.7,1-1.7,2.2c-6.5-0.7-13-0.3-19.6-0.6
		c-3.1-0.1-4,0.6-4,3.8c0.2,21.4,0,42.8,0.2,64.3c0,3.1-0.7,3.9-3.9,3.8c-6.4-0.3-12.8,0-19.2-0.1c-1.2,0-2.8,1-3.6-0.9
		C408.3,104,410.4,101.7,413.5,100.3z"/>
	<path class="st7" d="M312.1,77c0.3-1.4,1.4-2,2.3-2.9C334.5,54,354.7,34,374.7,13.9c2-2.1,4.1-2.9,7-2.8c5.3,0.2,10.6,0.2,15.9,0
		c2.5-0.1,3.4,0.6,3.4,3.3c-0.1,30.3-0.1,60.6,0,91c0,1.7,0.1,3.3-2.5,3.3c-7.8-0.1-15.6-0.1-23.4-0.1c-0.3,0-0.6-0.4-1-0.7
		c1.5-1.3,3.4-1.2,5.2-1.2c4.7,0,9.5,0,14.2,0c4.9-0.1,5.3-0.4,5.3-5.2c0-16.2,0-32.5,0-48.7c0-10.6,0-21.1,0-31.7
		c0-1.4,0.3-2.8-0.4-4.2c-1.8-0.1-2.4,1.7-3.7,2.3c-3.2,1-6.1-0.8-9.3-0.7c-4,0.1-6.8,1.1-9.7,4.2c-10,10.6-20.8,20.5-30.8,31.1
		c-8.2,8.7-17.4,16.3-25.2,25.3C317.8,81.1,315.2,80.4,312.1,77z"/>
	<path class="st8" d="M393.2,19.2c2-2.1,4-4.2,6-6.3c1.5,1.2,0.9,2.5,0.9,3.7c0,29,0,58.1,0.1,87.1c0,3.6-1.1,4.4-4.4,4.3
		c-7.2-0.3-14.5-0.1-21.7-0.1c0-0.3,0-0.5,0-0.8c1.7-2.8,3.6-5.3,6.7-6.7c2,0.3,4.1,0.7,6.1,0.8c4.6,0.1,6.3-1.7,6.3-6.6
		c0-11.9,0-23.8,0-35.8c0-10.1-0.1-20.2,0-30.4c0-2.8-0.5-5.5-0.9-8.2C392.5,19.7,393,19.5,393.2,19.2z"/>
	<path class="st0" d="M287.8,100.3c7.8,2.6,10.9,0.6,10.9-7.3c0-14.4,0-28.8,0-43.2c0-6.6,0.3-13.3-0.9-19.8
		c-0.6-0.9-0.4-1.9-0.1-2.8c2.1-5.2,3.8-10.6,7-15.3c1.3,1,0.7,2.3,0.7,3.5c0,29.6,0,59.3,0.1,88.9c0,3.3-1,3.9-3.9,3.7
		c-6.8-0.3-13.7-0.2-20.5-0.2c-0.4-4.2,3.3-5.5,5.6-7.8C287.1,100,287.5,100,287.8,100.3z"/>
	<path class="st9" d="M713.8,75.3c9.3,1.4,18.6,1.8,26.7-4.2c7.5-5.5,12.5-12.5,11.9-22.4c-0.1-1.8,0.2-3.6-0.1-5.4
		c-0.9-5.2,2.1-7.6,6.4-9c6.2,21.3-2.6,40.4-21.8,47.2c-4.8,1.7-9.7,2.1-14.8,2.1c-5.3,0-10.6-0.1-15.8-0.1
		C707.4,79.4,710.7,77.5,713.8,75.3z"/>
	<path class="st10" d="M766.6,68.7c-3.7-24.2,5.3-46.9,31-55.8c15.6-5.4,31.5-4.9,46.2,4c3.2,1.9,6.2,4.2,8.1,7.5
		c-2.5,2.8-5.3,1.8-7.8,0.2c-4.7-2.9-9.4-5.8-14.9-7c-17.8-5.2-39.2,0.4-49.5,15.8c-3.8,5.6-6.2,11.8-6.8,18.6
		c-0.4,4.2-0.7,8.3-3.9,11.5C767.5,64.9,768.2,67.3,766.6,68.7z"/>
	<path class="st11" d="M93.7,1.1c3.9,1.1,8.1,0.9,11.8,3c0.5,2.4-1.4,3-2.9,4c-6,4-12.7,6.3-19.8,7.2C65,17.7,49.4,24.6,35.7,36
		c-4.7,3.9-8.4,8.8-12.5,13.4c-4.9,5.5-10,10.8-16.9,14c-1.5,0.7-3,1.6-4.6,0.3c0.8-4.4,2-8.6,3.8-12.7c10.2-4.2,18-11.9,26.5-18.6
		C41.2,25.2,50.9,18.8,62,15C73,11.3,83.5,6.7,93.7,1.1z"/>
	<path class="st12" d="M413.5,100.3c-2.1,2.4-4.1,4.8-6.6,6.7c0-22.8-0.1-45.6-0.1-68.5c0.3-0.3,0.7-0.7,1.1-0.5
		c4.7,2.2,7.3-0.8,10.3-3.7c3.8-3.8,7.4-7.9,10.7-12.2c3.3-4.3,7.7-6.3,12.9-6.5c9.6-0.4,19.1,0,28.6,1.4c2.4,0.3,4.7-0.3,7,0.1
		c1.4,2.5-0.8,3.4-2.1,4.7c-11.9-4.2-24.2-2.1-36.4-2.7c-2.5-0.1-4.5,1.1-5.8,2.7c-5.4,7-12.4,12.3-18,19c-1.2,1.4-1.8,2.6-1.8,4.4
		C413.4,63.7,413.5,82,413.5,100.3z"/>
	<path class="st13" d="M93.7,1.1c-6.4,5.2-13.7,9-21.6,11.3c-13.8,4.1-26,10.9-37.5,19.3c-5,3.7-9.5,8.1-14.4,11.9
		c-4.3,3.4-9,6.4-14.7,7.3c1.3-4.2,3.3-8.1,5.8-11.7C24,31.3,36.7,23.5,49.6,16c9.5-5.5,19.5-10.1,29-15.8
		C83.6-0.1,88.7-0.1,93.7,1.1z"/>
	<path class="st14" d="M678.9,100.4c-2,2.5-4,5-6,7.5c-0.9-0.3-0.7-1-0.7-1.7c0-22.5,0.1-45,0.1-67.5c0.3-0.4,0.7-0.7,1-0.5
		c4.6,2.8,7-0.3,9.8-3.2c4-4.1,8.1-8,11.4-12.7c1.5-2.2,3.6-3.9,6.2-4.7c6.3-2.5,12.9-2.5,19.3-1.7c7.8,0.9,15.7,1.7,22.9,5.6
		c3.2,2.6,7.2,4.2,10.2,7.1c-1.7,1.7-3.2,0.9-4.7-0.3c-8.2-6.4-17.5-9.4-27.9-8.9c-4.6,0.2-9.2,0.3-13.8,0c-3.9-0.3-7,1.3-9.1,4.1
		c-4.5,6.1-10.2,11-15.5,16.3c-2.8,2.8-4.1,5.8-4.1,9.6c0,14.3-0.1,28.6,0,42.9C678,94.9,678.6,97.6,678.9,100.4z"/>
	<path class="st15" d="M458.6,64.5c1.2,5.5,6,8.5,9.2,12.6c3.1,3.9,6.6,7.5,10.8,10.3c1.3,0.9,2.5,2.9,4.2,1.8
		c1.7-1.2,2.1-3.5,1.6-5.6c-0.1-0.5-0.4-1-0.6-1.5c0-0.6,0.4-1.1,0.8-1.6c1.8-1.1,3.4-3,5.9-1.8c0,9.9,0,19.7,0,30.6
		c-17.2-17.2-33.8-33.9-50.5-50.6c3.1-1.9,5.3,0.9,7.9,1.4c2.4,1.2,5,1.8,7.5,2.8C456.5,63.4,457.8,63.4,458.6,64.5z"/>
	<path class="st16" d="M569,62.7c-1.5-25.7,11-44.7,34.8-50.9c13.4-3.5,27-3.2,39.8,3.3c3.6,1.8,6.9,4.2,9.4,7.4
		c-2.5,3-5.3,1.9-7.8,0.4c-6.4-4-13.3-6.1-20.8-7c-8.3-0.9-16.1,0.3-23.7,3.2c-13.3,5.1-21.7,14.7-24.9,28.6
		c-0.8,3.2-0.6,6.6-1.5,9.9C573.5,60.2,572.9,63.1,569,62.7z"/>
	<path class="st7" d="M262,13.8c-1.8,5.7-4.3,11-6.8,16.4c-2.2,0.9-4,2.3-5.7,4c-13.8,13.9-27.7,27.7-41.6,41.5
		c-0.7,0.7-1.4,1.4-2.1,2.1c-3.8,4.2-5.4,4.2-9.2,0c0.5-0.7,0.9-1.4,1.5-2c20.5-20.4,41.1-40.9,61.6-61.3c0.7-0.7,1.5-1.3,2.2-1.9
		C262.2,12.9,262.3,13.3,262,13.8z"/>
	<path class="st17" d="M565.7,16.9c-0.8,0.3-1.6,0.6-2.4,0.9c-5.4-0.1-10.7-1-16.1-0.7c-9,0.4-17.6,2.1-25.3,7.3
		c-11,7.5-17.5,18-19.6,31.1c-0.4,2.5-0.7,5-2.2,7.1c-1.1,1.6-2.4,3.3-4.7,1.9c-2-24.3,15.8-47.4,40.3-51.7
		c13.5-2.4,27.2-0.9,40.8-0.9C573.7,14.9,570,16.4,565.7,16.9z"/>
	<path class="st18" d="M521.3,66.1c-7.1,2.5-8.8,1.2-8.2-6.6c0.2-2.9,0.8-5.8,1.8-8.5c4.4-12.2,13.5-18.8,25.8-21.7
		c4.9-1.1,10-0.6,14.9-0.9c3.3-0.1,4.2,2.2,5.3,4.4c-0.1,2.6-1.4,3.6-4,3.4c-2.8-0.2-5.6,0-8.3-0.1
		C532.3,35.9,517.9,48.7,521.3,66.1z"/>
	<path class="st19" d="M477.8,17.8c-5.5,1.6-11-0.1-16.5-0.5c-7.1-0.6-14.1-0.4-21.2-0.3c-4.3,0.1-7.9,2.2-10.5,5.9
		c-4.3,6.1-9.9,11.2-15.1,16.6c-1.3,1.3-2.4,1.5-4,0.7c-1.2-0.7-2.3-1.6-3.8-1.5c-0.2-1.7,1.3-2.4,2.2-3.3
		c7.1-7.1,14.2-14.1,21.2-21.3c1.7-1.7,3.4-2.5,5.9-2.4c9.2,0.2,18.4,0,27.6,0.2c5.4,0.1,10.7,1.5,15.2,4.8
		C478.8,17.3,478.4,17.6,477.8,17.8z"/>
	<path class="st20" d="M262,13.8c0-0.4-0.1-0.8-0.1-1.2c0.6-0.6,1.3-2.2,1.7-0.1c0.3,1.9,0.1,3.9,0.1,5.8c0,10.9,0,21.9,0,32.9
		c1.9-0.1,2.6-1.7,3.6-2.6c11.7-11.5,23.3-23.1,35-34.6c0.8-0.8,1.7-1.4,2.5-2.1c-2.3,6-4.6,12-6.9,18C287.7,36,281,45.7,272.5,53.4
		c-2.6,2.4-5.1,4.7-8.9,5.1c-1.9,0.2-3.7,0.1-4.7-1.9c-0.9-1.8,0-3.2,1.4-4.4c1.6-1.3,2.5-2.9,2.5-5c0-10.6,0.1-21.1,0.1-31.7
		C262.9,14.7,262.7,14.1,262,13.8z"/>
	<path class="st21" d="M504.6,89.4c2.1-3.7,6.1-4.2,8.6-0.9c5.1,6.8,12.1,10.2,20,12.3c4.2,1.1,8.2-0.5,12.3-0.7
		c1.5-0.1,1.6-1.5,1.8-2.8c0.3-2.4-0.7-4.6-0.9-6.9c-0.3-1.3,0.5-2.1,1.3-2.8c1.6-1.3,3-3.7,5.1-2.8c1.6,0.7,0.7,3.3,0.6,5
		c-0.1,6.1,0.6,12.1-0.4,18.2c-13.3,0.8-26.4,0.9-37.8-7.5C511.2,97.2,507.4,93.8,504.6,89.4z"/>
	<path class="st0" d="M898,12.6c2,0.7,0.9,2.3,0.9,3.5c0.1,21,0.1,42,0.1,63c0,1.5,0.1,3,0.2,4.6c-0.2,0.1-0.3,0.3-0.5,0.4
		c-1.7,0.7-1.8,4-4.4,3.1c-2.7-0.9-3-3.6-3.1-5.9c-0.4-10.3-0.2-20.5-0.1-30.8c0-6.5-0.1-13-0.7-19.5
		C891.7,24.4,894.5,18.3,898,12.6z"/>
	<path class="st22" d="M699.7,18.5c-6,5.3-10.5,12-16.2,17.6c-3.6,3.5-6.5,5.9-11.3,2.6c2.7-4.2,6.8-7.3,10.2-10.8
		c5.3-5.5,10-12.8,16.6-15.5c6.5-2.7,15-0.5,22.7-0.7c7-0.1,13.9,0.4,20.3,3.5c1.4,0.7,2.9,1.1,3.8,2.4c-1.7,3.4-4.8,3.2-7.5,2.2
		c-9.3-3.3-18.9-3.6-28.6-3.5C706.1,16.4,702.8,17,699.7,18.5z"/>
	<path class="st12" d="M872.2,107.8c0-23.1,0-46.1,0-69.2c0.2-0.2,0.5-0.5,0.7-0.4c4.7,2.2,7.3-0.7,10-3.8c1.3-1.6,2.9-3.1,5-3.5
		c1-0.2,2.5-1.2,2.8,1c-0.9,2.8-3.4,4-5.4,5.6c-4.3,3.4-6.2,7.8-6.1,13.1c0.2,15.3-0.9,30.5,0.7,45.8c0.6,5.4-3.1,8.3-6.3,11.5
		C873.1,108,872.7,108,872.2,107.8z"/>
	<path class="st23" d="M246.1,88.6c3.7-2.1,6.4-5.3,9.4-8.2c5.4-5.2,10.7-10.4,16.4-15.4c2.9-2.5,6.3-4.7,10.5-3.4
		c1.4,0.4,3.2,0.9,3,3c-0.2,1.7-1.3,2.6-2.9,3.1c-0.7,0.2-1.3,0.5-1.9,0.8c-0.5-2.7-1.5-1.5-2.6-0.4c-4.1,4.1-8.5,8-12.3,12.4
		c-8,9-16.8,17.2-25.3,25.7c-2.6-0.9-1.2-2.7-0.7-3.9c1.5-4,2.9-8,4.9-11.8C244.8,89.7,245.2,89,246.1,88.6z"/>
	<path class="st24" d="M1.8,63.6c4.8-0.8,8.8-3.3,12.3-6.4c5.7-5.1,10.5-11.1,15.5-16.8c6.9-7.8,15.8-13,24.9-17.9
		c9.1-4.8,19-6.6,29-8.3c7.2-1.2,13.9-3.8,20-7.9c0.8-0.5,1.2-1.5,1.8-2.2c2.8,1,5.9,1.3,8.4,3.2c0.6,2.3-1.4,3-2.7,4.1
		c-7.1,5.3-15.4,5.8-23.8,6.2C71.6,18.4,57,22.4,44,31.6c-5.8,4-10.8,8.7-15,14.4c-0.8,1-1.8,1.7-2.8,2.5c-3.4,3.6-6.3,7.7-9.3,11.7
		c-3.6,4.8-8.8,7-13.8,9.7c-0.8,0.4-1.6,0.3-2.3-0.4C0.3,67.4,1.4,65.5,1.8,63.6z"/>
	<path class="st25" d="M78.6,0.2c-2.1,3.7-6,4.9-9.4,6.6C50.3,16,32.7,27.6,14.5,38.3c-0.9,0.6-1.9,1.2-3.1,1c2-4,4.2-7.8,7.7-10.8
		c14.7-9,29.8-17.4,44.8-26c1-0.6,2-1,3-1.4C70.8,0.8,74.6-0.4,78.6,0.2z"/>
	<path class="st26" d="M393.2,19.2c-0.2,0.3-0.5,0.7-0.7,1c-6.8-1.7-12.5-1.3-17.9,4.6c-9.5,10.5-20.2,19.9-29.9,30.2
		c-8.1,8.6-17.2,16.1-24.9,25.1c-1.7,2-2.4,3.9-1.7,5.9c1.2,3.4,0.3,6.3-1.1,9.1c-1.7,3.6-2.5,7.6-4.8,10.9
		c-0.5-9.7-0.4-19.5,0-29.2c3.6,2.4,5.9,2.5,9.6-1.2c12.6-12.7,25-25.5,37.9-37.9c6-5.8,12.4-11.6,17.4-18.4
		c0.5-0.6,1.3-1.4,1.9-1.4C383.8,17.9,388.7,16.4,393.2,19.2z"/>
	<path class="st27" d="M411.2,147.9c0-2.6,0.1-4.8,0-7c-0.1-1.6,0.5-2.2,2.2-2.2c1.7,0,1.8,0.9,1.7,2.1c0,2.2,0,4.4,0,6.8
		c4.8-1.9,4.6-9.8,11.7-8.8c-1.8,3.6-5.1,6-7.4,9.5c2.2,1.1,4.3,2.3,5.3,4.7c1,2.3,1.8,4.6,2.7,7c-3.1,1.3-4.3-0.1-5.1-2.8
		c-0.7-2.4-1.7-4.8-4.3-5.8c-1.8-0.7-3.3-1-3,1.9c0.2,1.8,0,3.6,0,5.4c0,1.1-0.3,1.8-1.6,1.8c-1.2,0-2.3,0-2.3-1.6
		c0-1.8-0.1-3.6,0-5.4c0.2-3.1-1.5-2.8-3.4-2c-2.8,1.1-3.5,3.8-4.4,6.3c-0.8,2.4-2.2,3.4-4.8,2.4c1.8-4.6,2.4-9.8,8.3-11.8
		c-2.7-3.2-5.2-6.1-8-9.4C406.2,137.9,406.3,145.5,411.2,147.9z"/>
	<path class="st28" d="M872.2,107.8c0.3,0.1,0.5,0,0.8,0c2-1.3,4.3-1.1,6.5-1.1c15.6,0,31.2,0,46.8,0c5.5,0,5.7-0.2,5.7-5.6
		c0-4.1,0.4-8.2-0.5-13.4c-3.9,5.6-8.7,4.5-13.6,4c-4.4-0.4-8.9,0-13.4-0.1c-4.7-0.1-4.9-0.3-5.1-5.2c0-1-0.8-1.8-0.8-2.8l0.2-0.1
		c0,0,0.2,0.2,0.2,0.2c10.7,0,21.5,0.1,32.2,0.1c2.2,0,2.9,0.6,2.9,2.8c-0.1,6.4-0.1,12.8,0,19.2c0,1.8-0.4,2.9-2.5,2.9
		c-19.5-0.1-39-0.1-58.6-0.1C872.8,108.5,872.5,108,872.2,107.8z"/>
	<path class="st29" d="M741,143.2c-0.4,5.6-0.7,10.1-0.9,14.7c-0.1,1.5-0.2,2.8-2.2,2.6c-2.1-0.2-1.4-1.8-1.3-2.8
		c0.4-5.4,0.9-10.8,1.4-16.2c0.1-1.3-0.2-2.8,2-2.8c1.8,0.1,3.1,0.1,3.8,2.3c1.4,4.6,3.2,9,5,14.2c1.9-5.1,3.7-9.4,5.1-13.9
		c0.8-2.6,2.3-2.7,4.4-2.5c2.6,0.2,1.6,2.2,1.7,3.5c0.4,5.3,0.7,10.5,1,15.8c0.1,1.2,0.5,2.5-1.6,2.5c-1.8,0-2-0.8-2.1-2.3
		c-0.2-4.7-0.5-9.4-0.8-15.4c-2,5.4-3.5,9.7-5.3,13.9c-0.6,1.4-0.3,3.6-2.7,3.7c-2.4,0.1-2.2-2.2-2.8-3.6
		C744.2,152.6,742.8,148.3,741,143.2z"/>
	<path class="st30" d="M569,62.7c4.9-1.8,4.6-6.4,4.9-10.1c1.4-18.3,13.9-32,32.4-36.5c13.6-3.3,26.7-2.1,38.8,5.7
		c2.5,1.6,5.1,2.1,7.9,0.7c1.8,1.5,3.7,3,4.9,5.1c-2.9,2.2-5.7,1.3-8.5-0.3c-1.3-0.7-2.4-1.9-3.8-2.5c-14.8-11.5-39.3-9.7-51.3-1
		c-10,5.8-15.5,14.7-17.7,25.9c-1.2,6.2-0.9,12.5-0.8,18.7c0.1,4.1-1.1,5.6-5,6.8C569.1,71.3,568.9,67,569,62.7z"/>
	<path class="st31" d="M196.6,77.8c1.3,0.6,2.6,1.1,3.8,1.8c1.7,1,2.6,0.3,3.9-1c15.4-15.7,31-31.2,46.4-46.8
		c1.3-1.3,2.8-1.7,4.5-1.6c-14.8,14.7-29.6,29.4-44.4,44c-2.5,2.5-5.1,5-7.7,7.5c-1.1,1.1-0.9,2.5-0.5,3.5c1.6,4.7-0.6,8.7-2.2,12.7
		c-1.1,2.8-2.4,5.5-3.7,8.3C196.2,96.7,196.3,87.2,196.6,77.8z"/>
	<path class="st32" d="M495.6,64.5c4.8-0.4,5.3-4.4,5.6-7.6c1.9-18.7,16.4-36,35.1-39.5c9-1.7,18.1-2.8,27.1,0.4
		c-0.9,1.3-2,1.4-3.6,1.2c-10-1.1-19.9-1.4-29.6,2.2c-11.7,4.3-18.7,13.2-24,24c-3.2,7.5-3.4,15.4-3.2,23.4c0.1,4.4-1,6.1-5.2,7.7
		C495.8,72.5,495.8,68.5,495.6,64.5z"/>
	<path class="st33" d="M851.3,35.2c-6.2-7-12.5-13.8-22.2-16.1c-18.5-4.4-39.2,0.3-49.9,18.2c-3.1,5.1-4.6,10.7-4.9,16.5
		c-0.4,8.4-0.1,16.9,1.2,25.3c0.5,3.3-2.4,3.6-3.7,5.3c-1.9-2.4-2.7-5.3-3.4-8.3c-0.2-0.4-0.5-0.9-0.3-1.2c5.3-6.7,3.3-15,4.3-22.5
		c2.4-17.9,13.4-31,31.1-35.6c1.3-0.3,2.7-0.8,4.1-0.9c5.6-0.3,11.1-0.2,16.7,0c0.5,0,0.9,0.1,1.3,0.2c9.4,2.3,17.8,6.5,24.6,13.6
		c1.1,1.1,2.2,2.1,2.5,3.7C852.6,34.3,852.5,35.2,851.3,35.2z"/>
	<path class="st34" d="M43.4,31.8c4.5-5.1,10.9-6.9,16.8-9.6c8.5-3.9,17.6-4.7,26.7-5.5c8.3-0.7,16.7-0.9,23.7-6.3
		c1.2-0.9,2.6-1.6,3.2-3.1c2.4,0.8,4.7,1.8,6.6,3.4c-3.5,4.5-8.4,6.4-13.6,7.7c-4.4,1-8.7,0.4-13.2,0.2
		c-16.8-0.5-32.8,2.7-47.2,12.2c-0.7,0.4-1.5,0.7-2.2,1C44,32.2,43.7,32.2,43.4,31.8z"/>
	<path class="st35" d="M66.8,1.1c-8.5,6.5-18.3,11-27.4,16.5c-5.2,3.1-10.5,6.2-15.7,9.3c-1.5,0.9-2.8,1.8-4.6,1.6
		C31.7,13.7,47.6,4.5,66.8,1.1z"/>
	<path class="st36" d="M842.8,149.6c0,2.9,0,5.8,0,8.7c0,1.2-0.1,2.1-1.7,2.1c-1.6,0-2.3-0.5-2.2-2.2c0.1-1.2-0.1-2.5,0-3.7
		c0.5-3.3-0.8-4.3-4.1-4.1c-6.1,0.2-6,0-6.2,6.2c0,1.3,1.3,3.6-1.7,3.8c-3.2,0.2-2.2-2.2-2.3-3.7c-0.1-5,0-10,0-15
		c0-1.5-0.3-3.1,2.2-3.1c2.4,0,1.7,1.6,1.9,2.9c0.3,1.9-1,4.7,0.8,5.4c2.5,0.9,5.5,0.4,8.2,0.3c1.4,0,1.2-1.3,1.2-2.2
		c0.1-1.5,0-3.1,0-4.6c0-1.6,1-1.6,2.2-1.7c1.3,0,1.7,0.6,1.7,1.7c0,0.1,0,0.3,0,0.4C842.8,143.8,842.8,146.7,842.8,149.6z"/>
	<path class="st37" d="M43.4,31.8c0.3,0,0.6,0,0.9,0c-3,3.8-7.4,6-10.6,9.8c-5.5,6.7-10.8,13.5-14.2,21.4
		c-3.5,8.3-9.8,13.6-17.4,17.7c-0.6,0.3-1.3,0.3-2,0.4c0-2,0.1-3.9,0.1-5.9c0.2-1.8,1.2-3.2,2.8-3.8c8.3-3.2,13.4-9.9,18.1-17
		c1.5-2.3,3.3-4.4,4.8-6.7c5.3-4.7,9.2-10.9,15.4-14.9C41.9,32.4,42.7,32.2,43.4,31.8z"/>
	<path class="st27" d="M672.9,149.6c0,2.9,0,5.8,0,8.8c0,1.2-0.1,2.1-1.7,2.1c-1.6,0-2.2-0.6-2.2-2.2c0.1-4.4-0.2-8.9,0.1-13.3
		c0.2-3.5-2.1-2.8-4.1-2.9c-2-0.1-3.9-0.3-3.7,2.9c0.2,2.8,0.1,5.6-0.1,8.3c-0.2,3.3-1.7,5.9-5,7.1c-0.8,0.3-2,0.8-2.5-0.5
		c-0.3-0.8-0.4-1.9,0.4-2.3c5.1-2.6,3.5-7.4,3.6-11.5c0.3-7.2,0.1-7.2,7.1-7.2c8,0,8,0,8,8C672.9,147.7,672.9,148.6,672.9,149.6z"/>
	<path class="st38" d="M336.5,148.8c0,3.8,0,6.7,0,9.6c0,1.3-0.2,2.1-1.8,2.1c-1.6,0-2.2-0.5-2.2-2.2c0.1-4.2-0.2-8.3,0.1-12.5
		c0.2-3.3-1-4.2-4-3.8c-0.7,0.1-1.4,0.1-2.1,0c-3.2-0.5-4.4,0.6-4.2,4c0.3,4,0,8,0.1,12.1c0,1.4-0.2,2.4-2,2.3
		c-1.7-0.1-1.6-1.1-1.6-2.2c0-5.7,0-11.4,0-17.1c0-1.7,0.4-2.6,2.3-2.4c1.5,0.1,3.1,0,4.6,0c3.5,0.1,8-1.1,10.1,0.6
		C338.1,141.4,335.9,146.1,336.5,148.8z"/>
	<path class="st39" d="M199.2,148c5.3-2.2,6-10.2,13.7-9c-3.1,3.3-5.8,6.2-8.8,9.3c5.8,2,7,7.2,8.9,11.8c-3.1,1.2-4.6-0.2-5.4-2.9
		c-0.9-2.7-2.2-5.1-5.2-6c-1.9-0.5-3.3-0.4-3.1,2.2c0.1,1.7,0,3.3,0,5c0,1.3-0.3,2.1-1.8,2c-1.3-0.1-2.2-0.2-2.2-1.8
		c0-6.1,0-12.2,0-18.3c0-1.6,1.1-1.6,2.3-1.7c1.3,0,1.7,0.5,1.7,1.7C199.2,142.8,199.2,145.1,199.2,148z"/>
	<path class="st40" d="M890.5,30.9c-4.4,0.6-7.1,3.7-9.4,6.8c-2.2,3.1-4.2,3.3-7,1.3c-0.5-0.4-1.3-0.4-1.9-0.5
		c2.9-4.4,7.1-7.6,10.7-11.3c4.9-5,10-9.8,15.1-14.7c-2.2,5.8-4.4,11.7-6.7,17.5C891.1,30.4,891,30.9,890.5,30.9z"/>
	<path class="st41" d="M287.1,100.4c-1.6,2.8-5.1,4.2-6,7.5c-0.9-0.2-0.9-0.9-0.9-1.6c0-10.9,0.1-21.8,0.1-32.7
		c4.4-2.2,6.5-1,6.6,3.9C287.1,85.1,286.9,92.7,287.1,100.4z"/>
	<path class="st42" d="M806.8,16.8c-7.2,1.6-14.1,4-19.8,9c-7.4,6.5-12.2,14.5-13.7,24.4c-0.9,5.5-1.2,11-0.8,16.5
		c0.3,4.1-2.7,6.4-4.3,9.5c-1.4-2.3-1.6-4.9-1.7-7.5c-0.1-3,0.4-5.6,3-7.7c2.1-1.7,1.9-4.6,2-7c0.7-17.4,13.1-33.5,31.9-37.8
		c8.7-2,17.4-2.5,26,0.7c-1.1,0.7-2.2,0.6-3.4,0c-0.3,0-0.6,0-0.8-0.1C819.1,16.1,813,16.1,806.8,16.8z"/>
	<path class="st4" d="M467.2,149.7c0,2.8,0,5.6,0,8.3c0,1.4-0.1,2.4-2,2.4c-2,0-1.8-1.3-1.8-2.5c0-0.3,0-0.6,0-0.8
		c-0.1-6.7-0.1-6.5-6.6-6.7c-3.1-0.1-4.4,0.8-3.9,3.9c0.1,0.4,0.1,0.9,0,1.2c-0.7,1.6,1.8,4.9-2,4.7c-3.5-0.1-1.6-3.3-1.7-4.9
		c-0.3-4.7-0.1-9.4-0.1-14.2c0-1.3-0.1-2.5,1.8-2.5c1.9,0,2,1.1,1.9,2.4c0,0.1,0,0.3,0,0.4c0.3,1.8-1,4.7,0.8,5.4
		c2.5,0.9,5.5,0.5,8.2,0.4c1.6,0,1.4-1.5,1.4-2.6c0-1.4,0-2.8,0-4.2c0-1.2,0.4-1.8,1.7-1.8c1.3,0,2.2,0.3,2.1,1.8c0,0.1,0,0.3,0,0.4
		C467.2,143.9,467.2,146.8,467.2,149.7z"/>
	<path class="st43" d="M553.2,107.8c0-7.6,0-15.1,0-23.7c-2.6,2.4-4.6,4.3-6.7,6.2c-0.5,0.3-1.1,0.6-1.6,0.9
		c-4-0.2-7.9-0.8-11.8-1.8c-2-0.5-3.8-1.6-5.4-3c-3.8-3.4-3.8-5,0.3-8.5c6.1,6.1,13.9,6.4,21.7,5.8c3.3-0.2,4.4,0.6,4.2,4
		c-0.3,5.5,0,11.1-0.1,16.6C553.9,105.5,554.4,106.9,553.2,107.8z"/>
	<path class="st44" d="M245.2,90.3c-1.6,4-3.2,7.9-4.7,11.9c-0.4,1.2-2.1,2.5-0.4,4c-0.6,0.7-1.2,1.5-2.4,2.9c0-12.2,0-23.5,0-34.8
		c3-2.5,6.2-1.9,6.3,1.3C244.2,80.6,245.3,85.4,245.2,90.3z"/>
	<path class="st38" d="M633.6,149.6c0,8.3-7.8,13.6-15.8,10.6c-0.8-0.3-2.1-0.4-1.8-1.8c0.3-1.5,1.4-1.6,2.6-1.2
		c3.5,1.1,6.6,0.8,9.2-2c0.9-1,1.9-2.3,1.4-3.7c-0.6-1.5-2.2-0.7-3.3-0.8c-1.2-0.1-2.5,0.1-3.8-0.1c-1.2-0.1-3.3,0.8-3.2-1.5
		c0.1-2.1,2.2-1.1,3.4-1.2c1.5-0.2,3.1-0.1,4.6,0c3.2,0.2,2.8-1.3,1.6-3.2c-2.1-3.4-5.2-3.8-8.7-3.1c-1.1,0.2-2.5,1.5-3.1-0.5
		c-0.6-2.2,1.5-2,2.6-2.3C627.4,136.7,633.6,141.4,633.6,149.6z"/>
	<path class="st45" d="M705.7,60.3c3.3-1.7,6.9-1,10.3-0.8c6.8,0.4,11.5-1.9,13.8-8.5c1.4-1.1,2.9-1,4.1,0.3c1.4,1.5,1.5,3.4,0.6,5
		c-2.8,4.9-6.5,9-12.5,9.9c-2.5,0.4-4.9,0.7-7.4,0.8c-2.9,0.4-5-1.4-5.6-3.6C708.2,61.4,706.8,61.3,705.7,60.3z"/>
	<path class="st46" d="M358,79.6c-2.7,0.3-4.3,2.3-5,4.4c-1,3.1-3.2,4.2-5.9,5.1c-4.8,1.6-9.1,4.5-14.2,5.3
		c6.8-7.7,14.5-14.5,21.7-21.8c3,0,2.7,2.7,3.6,4.5c0.2,0.6,0.2,1.3,0.1,1.9C358.3,79.3,358.2,79.4,358,79.6z"/>
	<path class="st47" d="M570.9,75.3c3.4-2,4.2-5,4.1-8.8c-0.3-10,0-20,5.1-29.1c2.9-5.2,6.8-9.4,11.3-13.1c0.8-0.7,1.7-0.9,2.7-0.8
		c0.6-0.4,1.2-0.5,1.7,0c-17.3,10.9-21.2,27.1-18.6,46c0.5,3.4,0.1,6.9,0.9,10.3c0.6,2.6-2.3,3.5-3.3,5.5
		C572.8,82.3,571.6,78.9,570.9,75.3z"/>
	<path class="st48" d="M595.9,23.5c-0.6,0-1.2,0-1.7,0c6.2-5.3,14-6.8,21.7-7.3c10.8-0.7,21.3,1.2,30.3,8.1c3,2.7,6.7,4.4,9.4,7.5
		c1.8,2.2,4.4,0.9,6.6,1.7c1.5,1.7,2.4,3.7,3,5.9c-3.6,2.3-6.2,1.2-8.9-1.9c-4-4.6-7.6-9.6-12.8-13c-12.6-8.2-26-8.6-39.9-4.3
		C600.9,21,598.4,22.4,595.9,23.5z"/>
	<path class="st22" d="M357.4,77.7c-0.8-1.7-0.6-4-2.7-5c4.8-1.6,9.8-0.6,14.7-0.6c3.1,0,4.1-0.8,4-4c-0.3-6.8-0.2-13.6-0.2-20.4
		c2,0.2,0.3,1.9,1.1,2.6c0.4,0.6,0.8,1.3,0.9,2.1c0.4,5.1,0.1,10.1,0.2,15.2c-0.4,2,0.8,3.4,1.8,4.9c1.7,2.6,1.1,4.8-1.8,5.6
		C369.4,79.4,363.3,79.9,357.4,77.7z"/>
	<path class="st49" d="M705.7,60.3c1.3,0,2.7,0,4.2,0c-1.9,4.4,2.4,4.6,4,6.6c0.2,0.2,0.3,0.4,0.2,0.5c-0.1,0.2-0.1,0.3-0.2,0.3
		c-1.1,2.5-1.4,5-0.1,7.6c-2.5,2.7-4.9,5.5-7.4,8.2c-1.2-0.2-0.9-1.2-0.9-2C705.6,74.5,705.6,67.4,705.7,60.3z"/>
	<path class="st36" d="M873.2,138.7c2.2,0,4.5,0,6.7,0c1.3,0,2.1,0.3,2,1.9c-0.1,1.4-1,1.7-2,1.5c-5.1-1.1-4.8,2.2-4.7,5.5
		c0.1,3.5,0,6.9,0,10.4c0,1.7-0.4,2.6-2.3,2.5c-2,0-1.7-1.4-1.7-2.6c0-4-0.2-8.1,0-12.1c0.1-2.7-0.4-4.2-3.5-3.8
		c-1.3,0.2-3.4,0.9-3.2-1.8c0.2-2.3,2-1.3,3.2-1.4C869.5,138.6,871.3,138.7,873.2,138.7z"/>
	<path class="st10" d="M455.2,63.6c-2.5-0.9-4.9-1.8-7.4-2.7c-0.2-1.1-0.3-2-1.9-2.1c-2.3-0.1-4.5-0.5-6.8-1
		c2.2-1.6,4.7-0.5,7.1-0.7c2.7-0.2,5.5,0,8.3-0.1c4.7,0,6.9-3.3,9-6.8c4-1.1,5.6,0,5,3.5C467.7,58.2,460,63.9,455.2,63.6z"/>
	<path class="st50" d="M497.9,76.2c4-2.6,4.2-6.4,4.4-10.7c0.3-6.9,0.2-14,4-20.3c-0.7,5.2-2.7,10.1-2.6,15.4
		c0.1,4.7,0.6,9.3,1.7,13.9c1.4,5.8,1.1,6.5-4.5,9.2C499.3,81.4,498.4,78.9,497.9,76.2z"/>
	<path class="st51" d="M826.1,16.9c1.1,0,2.2,0,3.4,0c5.2,0.7,9.6,3.4,13.9,6.3c2.8,1.9,5.4,2.6,8.5,1.3c2.3,2.8,5.6,4.7,6.9,8.3
		c-2,2.2-4.2,2.4-6.7,0.8C845.3,24.9,836.4,19.7,826.1,16.9z"/>
	<path class="st52" d="M923.1,149.3c0-2.9,0-5.8,0-8.7c0-1.4,0.5-2,1.9-1.9c1.3,0,2.1,0.3,2.1,1.8c0,6.1,0,12.2,0,18.2
		c0,1.6-1,1.7-2.2,1.7c-1.5,0.1-1.9-0.7-1.8-2C923.1,155.4,923.1,152.4,923.1,149.3z"/>
	<path class="st53" d="M727.3,40.2c5.7-2.4,7.2-1.2,9.3,4.7c3.5,10-5.7,25-21,22.7c0.6-2,2.6-1.4,3.7-1.4c6.1,0,9.9-3.7,13.5-7.8
		c2.6-3,2.2-6.4,1.4-9.9c-0.5-2.3-2.9-1.7-4.4-2.5C729,44.1,728.1,42.2,727.3,40.2z"/>
	<path class="st54" d="M699.7,18.5c0.9-1.8,2.6-2.5,4.5-2.5c8.8,0.3,17.7-0.9,26.5,0.7c1.2,0.2,2.3,0.3,3.5,0.9
		c3.8,2.1,7.8,2.5,11.7-0.1c1.5,0.9,3.2,1.6,4.1,3.2c-1.3,4.2-4.1,2.7-6.8,1.9c-4.9-2.3-10.2-3.2-15.5-4.5
		c-6.2-1.4-12.3-0.9-18.4-1.4C705.8,16.5,703.1,19.3,699.7,18.5z"/>
	<path class="st55" d="M25.8,47.7c-6,9.3-10.5,20-22,24.3c-1.6,0.6-2.8,1.8-3.7,3.2c0.2-1.9,0.5-3.9,0.7-5.8c5.5-2,10.6-4.5,14.5-9
		C19,56.3,21.7,51.4,25.8,47.7z"/>
	<path class="st56" d="M461.1,38.7c3.1-3.9,5.1-4.1,8.3-0.7c5,5.4,4,13,0.1,19c-2.2,3.5-5.4,6.7-10.1,7.3c-0.3-1.8,1.1-2.4,2.3-3
		c3.5-1.8,5.8-4.5,7.2-8.2c0.7-2.7,1.4-5.3,0.7-8.1c-0.7-2.8-1.7-4.7-5.1-3.6c-0.5,0.2-1.1,0-1.5-0.4
		C462.3,40.2,461.7,39.5,461.1,38.7z"/>
	<path class="st57" d="M528,77.9c0.3,2.2-3.7,3.3-2,5.3c2.1,2.4,4.5,4.7,8,5.5c3.6,0.8,7.5,0.3,10.8,2.5c-5.4,1.6-10.3-0.2-15.1-2.2
		c-1.4-0.6-2.7-1.4-4-2.2c-1.2-1.3-2.6-2.5-3.5-4.1c-1.2-4.2-0.8-5.2,3.4-7.6C526.4,76.1,527.2,77,528,77.9z"/>
	<path class="st4" d="M514.9,149.6c0,2.8,0,5.5,0,8.3c0,1.2,0.2,2.5-1.8,2.5c-1.8,0-2-0.9-2-2.4c0-5.7,0-11.4,0-17.1
		c0-1.4,0.2-2.4,2-2.3c2,0,1.8,1.3,1.8,2.6C514.9,144,514.9,146.8,514.9,149.6z"/>
	<path class="st58" d="M490.4,78.6c-2,0.9-3.9,1.7-5.9,2.6c-2.8-1.1-4.8-3.4-6-5.8c-1.5-3,0.9-4.8,3.5-5.9
		C485.1,72.3,488.5,74.7,490.4,78.6z"/>
	<path class="st59" d="M729.8,46.1c4.2-1.4,5.7-0.5,5.9,3.8c0.4,8.9-6.4,16-16.2,17c-1.3,0.1-2.8-0.4-3.9,0.8c-0.6,0-1.1,0-1.7,0.1
		c0-0.3,0-0.5,0-0.8c1.7-1.4,4-1.5,5.9-1.5c6.2,0.1,9.6-3.9,12.9-7.9c2.9-3.4,1.5-6.1-2.9-6.5C729.8,49.4,729.8,47.7,729.8,46.1z"/>
	<path class="st60" d="M287.1,100.4c-1.7-3.3-0.8-6.8-0.9-10.2c-0.2-3.7,0-7.5,0-11.2c0-5.7,0-5.7-5.8-5.4c0-0.8,0-1.7,0-2.5
		c1.1-0.3,2.1-0.7,3.2-0.9c3-0.7,4.4,0.2,4.3,3.5c-0.1,8.9,0,17.7-0.1,26.6C287.6,100.3,287.3,100.4,287.1,100.4z"/>
	<path class="st61" d="M469.5,53.5c-1.4,5.4-6.6,7.3-10.1,10.8c-0.3,0-0.5,0.1-0.8,0.2c-1.2-0.1-2.5,0.2-3.4-0.9
		c4.8-1.6,9-4.2,11.7-8.5c2.1-3.3,0.9-4.8-3.3-4.9c0.1-1.9,0.1-3.9,0.2-5.8c5.1-1.3,6.8,0,6.2,5.1C469.8,50.8,470.3,52.3,469.5,53.5
		z"/>
	<path class="st62" d="M852,33.5c2.3,0.2,4.5-0.1,6.7-0.8c2,2.5,3.4,5.2,4.1,8.3c-0.5-0.2-1.1-0.8-1.5-0.6c-5.3,2-7.5-2-10.1-5.2
		C851.9,34.8,852,34.2,852,33.5z"/>
	<path class="st63" d="M477.8,17.8c0.3-0.4,0.7-0.8,1-1.2c3,1.7,5.7,3.7,7.3,6.9c-4.1,2.6-6.6,2.2-10.8-1.7
		C475.3,20,477.1,19.2,477.8,17.8z"/>
	<path class="st64" d="M662.1,33.5c-3.2,1.6-5.9,1.1-8.1-1.8c-2.2-2.9-5.9-4.2-7.8-7.4c3.7,2,7.1,4.9,11.7,3.3
		C659.6,29.4,661.2,31.1,662.1,33.5z"/>
	<path class="st65" d="M245.2,90.3c-1.6-3.9-1.9-7.9-1.8-12c0.2-4.8-0.9-5.5-5.7-4c0-1.1,0-2.2,0-3.3c1.3-0.3,2.7-0.7,4-0.8
		c2.2-0.2,3.5,0.8,3.3,3.1c-0.4,5.1,1,10.1,0.9,15.3C245.8,89.2,245.5,89.8,245.2,90.3z"/>
	<path class="st66" d="M523.1,82.8c0.7,1.5,2.6,2.2,2.7,4.1c-3.5-2-5.9-5.1-7.8-8.5c-2.1-3.9-0.6-6.8,4.2-9c0.6,1.1,1.1,2.2,1.7,3.3
		C520.8,75.9,520,79.2,523.1,82.8z"/>
	<path class="st67" d="M743.2,22.7c2.4-0.1,5,0.6,6.8-1.9c2.7,1.7,4.6,4,5.8,6.9c-0.9,0.3-1.8,0.5-2.7,0.8
		C749.2,27.5,746.2,25.1,743.2,22.7z"/>
	<path class="st18" d="M565.7,16.9c3.3-2.4,7.4-3.1,10.9-5c0.5,0.2,2.9-0.7,0.8,1c-3.6,2.7-6.9,5.8-10,9
		C564.4,21,566.3,18.5,565.7,16.9z"/>
	<path class="st68" d="M482,69.5c-3.7,4.6-3.7,4.6,0.4,9.1c0.7,0.8,1.4,1.7,2.1,2.5c-0.3,0.3-0.6,0.6-0.8,0.9
		c-0.1-0.1-0.3-0.1-0.4-0.2c-2.4-2.3-5.1-4.4-7.1-7c-2.9-4,3.5-4.6,3.2-7.8C480.4,67.8,481.2,68.6,482,69.5z"/>
	<path class="st69" d="M469.5,53.5c0-0.6,0-1.1,0-1.7c0.1-6.3,0.1-6.3-5.7-7.5c-0.3-1.1-0.6-2.2-1-3.4c5.4-2.3,8.4,0.1,8.1,6.8
		C470.9,49.7,470.8,51.8,469.5,53.5z"/>
	<path class="st70" d="M380.8,100.3c-2.1,2.4-4.1,4.8-6.7,6.7c-0.4-2.2-0.5-4.5,0-6.7C376.3,98.8,378.6,97.2,380.8,100.3z"/>
	<path class="st71" d="M523.1,82.8c-4.6-4.7-4.4-6.4,0.9-10c0.6,0.8,1.1,1.6,1.7,2.4C524,77.5,521.1,79.3,523.1,82.8z"/>
	<path class="st72" d="M439.2,57.8c3.5,0,7.1,0,11.3,0c-1.3,1.5-2,2.3-2.7,3.1c-2.8-0.3-5-2.5-7.9-2.3
		C439.4,58.6,439.2,58.2,439.2,57.8z"/>
	<path class="st73" d="M375.8,132.1c0.1,1.6-0.5,2.4-1.8,2.6c-1.3,0.1-2.2-0.4-2.4-1.7c-0.2-1.5,0.7-2.4,2-2.5
		C375,130.3,375.7,131.2,375.8,132.1z"/>
	<path class="st74" d="M365.4,134.7c-1.3-0.1-2.1-0.8-2.1-2c0-1.4,0.9-2.3,2.4-2.2c1.3,0.1,1.9,1,1.8,2.3
		C367.5,134,366.7,134.7,365.4,134.7z"/>
	<path class="st75" d="M132.2,18.9c-2.1,0.4-3.7,1.8-5.5,2.9c-6.1,3.8-12.5,5.7-19.9,4c-7.9-1.7-15.8-2.8-24-2.7
		c-22.1,0.3-39.3,9.6-52,27.5c-5.5,7.8-8.7,16.8-11.7,25.7C16.9,83.2,12.9,88,6.4,90.9c-1.8,0.8-4,1.4-4.9,3.6
		c2.1,14.3,8.1,26.8,17.6,37.7c1.8-0.1,3-1.4,4.5-2.2c1.9-1,3.8-1.7,6-1.1c3.9,1,7.8,2,11.5,3.6c12.9,5.7,26.1,10.2,40.6,10
		c23.2-0.3,46.7-15.9,55.3-37.4c4.3-10.7,6.4-21.8,7.3-33.2c0.5-6.9,1.5-14,9.1-17.5c1-0.5,1.8-1.3,2.1-2.5
		C151.1,38.5,143,27.8,132.2,18.9z M122.7,86.7c-6.4,0-12.8,0.1-19.2,0c-3.7-0.1-3.8,1.3-2.1,3.9c5,7.8,9.9,15.7,14.4,24
		c-7-4.4-13.9-8.8-20.9-13.2c-0.9-0.6-1.8-1.4-2.8-1.7c-2.4-0.7-4.5-1.1-4.4,2.9c0.3,8.2,0,16.4,0.1,24.6c0.1,2.8-0.5,3.9-3.6,3.8
		c-9.2-0.1-9.2,0.1-9.2-9c0-6.4,0-12.8,0-19.2c0-3.9-1.6-4.6-5.2-2.4c-6.6,4.1-13.2,8.3-19.8,12.5c-0.9,0.6-1.8,1.1-3.2,1.2
		c4.5-7.2,9.1-14.4,13.6-21.6c1-1.5,2.5-3.1,1.5-4.9c-0.9-1.7-3-0.8-4.6-0.8c-7.9-0.1-15.9-0.1-23.8,0c-2.2,0-3.2-0.5-3.2-3
		c-0.3-10-0.4-10,9.5-10c6.3,0,12.6,0,18.8,0c4,0,4.7-1.4,2.5-5.1c-4.1-6.6-8.3-13.2-12.5-19.7c-0.6-1-1.7-1.8-1.5-3.5
		c7.7,4.8,15.2,9.5,22.6,14.2c1.4,0.9,2.9,2.2,4.5,1.3c1.6-0.9,0.7-2.8,0.7-4.2c0.1-8.1,0.1-16.1,0-24.2c0-2.2,0.4-3.1,3-3.2
		c9.9-0.2,9.9-0.3,9.9,9.6c0,6.3,0,12.5,0,18.8c0,3.9,1.2,4.6,4.7,2.5c6.4-3.9,12.7-8,19.1-12c1.4-0.9,2.8-1.8,4.2-2.6
		c0.2,0.2,0.4,0.4,0.5,0.5c-4.7,7.5-9.5,15-14.2,22.4c-0.9,1.4-2.3,2.8-1.5,4.5c0.8,1.7,2.8,0.7,4.1,0.8c7.9,0.1,15.9,0.1,23.8,0
		c2.5,0,3.6,0.4,3.6,3.4C132.1,86.7,132.3,86.7,122.7,86.7z"/>
	<path class="st76" d="M665.1,39.4c-5.6,0.6-8.7-3-11.7-6.9c-2.5-3.2-5.2-6.2-8.7-8.4c-16.2-10.4-32.7-10.1-49.5-1.3
		c-3.5,2.2-6.8,4.6-9.6,7.8c-9.6,10.7-11,23.5-9.9,36.9c0.5,6,1.9,11.9-0.8,17.7c0.7,1.2,1.2,2.5,2,3.6c16.1,22.4,47.5,25,67.9,13.6
		C670.1,88.4,672,59.2,665.1,39.4z M643.9,60.2c0,2.3-0.6,4.5-1.2,6.7c-2.3,11-14.6,19.4-28.1,17.8c-3.3-0.6-6.5-1.7-9.6-3.3
		c-2.1-1.2-3.6-3.1-5.5-4.5c-1.4-1.8-3.6-3.1-3.4-5.8c-1.5-4.1-2.3-8.2-2.2-12.6c0.3-11.1,6.2-19.1,16.3-22.2
		c10.3-3.1,22.2,0.5,28.1,8.6c0.3,0.4,0.6,0.8,0.9,1.3c2.4,1.3,3,3.7,3.6,6.1C643.4,54.8,644,57.4,643.9,60.2z"/>
	<path class="st77" d="M600,76.3c1.7,1.3,3.4,2.7,5.1,4c0.3,0.3,0.5,0.7,0.5,1.1c0.1,5.5,0.8,6.7,6.2,7.4c4.9,0.7,9.9,1.2,14.7-0.7
		c0.6-0.2,1.2-0.3,1.8-0.4c6.4-1.3,11.1-5,14.8-10.3c0.8-1.2,1-3.3,3.4-2.7c0.3,0.8,0.3,1.6-0.3,2.3c-9.2,16.4-32.3,18.9-45.2,10.1
		c-0.8-0.6-1.5-1.2-2.2-1.8C594.6,81.4,595,78.9,600,76.3z"/>
	<path class="st78" d="M646,76.9c0-0.8,0.1-1.6,0.1-2.4c-0.7-1.1-0.1-2.1,0.2-3.1c2-5,1.1-10.1,0.9-15.2c-0.1-3.4-3.2-3.3-5.4-4.3
		c-0.9-1.9-1.7-3.8-2.6-5.8c5.2-2.6,5.9-2.4,8.9,2.5C652.6,55.8,651.5,69.6,646,76.9z"/>
	<path class="st79" d="M600,76.3c-3.9,4.6-3.9,4.6,0.9,10.7c-2.7-1-5-2.7-6.7-5.1c-3.5-5-3.1-7.2,1.9-10.8
		C597.4,72.8,598.7,74.5,600,76.3z"/>
	<path class="st76" d="M862.8,41c-0.4-0.8-1-1.6-1.8-1.4c-4.8,1-6.9-2.5-9.3-5.6c-5.6-6.2-11.2-12.4-19.6-15.1
		c-8.8-2.8-17.9-3.5-26.8-1.3c-17.1,4.2-28.3,14.4-31.7,32.1c-1.3,6.7-0.8,13.6-0.3,20.4c0.4,5,1.3,9.8-1.7,14.3
		c0.3,2.2,1.9,3.5,3.2,5.1c2.9,0.9,6-0.6,8.9,2.2c9.7,9.2,21.7,12.8,34.9,12.2c20.1-0.8,36.8-15.5,40-34.7c0.7-4.1,0.5-8.4,0.3-12.5
		c-0.3-4.6,0.9-8.2,4.9-10.7C864.2,44.2,863.3,42.7,862.8,41z M840.3,64.9c-2.1,11.4-13.5,21.5-28.2,19.8c-3.4-0.6-6.5-1.7-9.6-3.3
		c-2.2-1.3-4.3-2.8-6.2-4.5c-1.4-1.4-2.5-2.9-2.7-5c-6.3-15.1-1.7-29.2,11.6-34.8c9-3.8,22.8-2.8,31.1,8.9c2,1.5,2.8,3.7,3.4,6.1
		c0.7,2.2,0.9,4.4,0.8,6.6C840.6,60.8,840.7,62.9,840.3,64.9z"/>
	<path class="st80" d="M802.6,80.5c3.1,1.1,6.2,2.1,9.2,3.2c-0.1,4.6,0.1,4.9,4.8,4.7c9.5-0.5,17.6-3.7,23.1-12
		c2.2-3.3,3.8-6.6-0.3-9.7c-0.4-0.3-0.2-1,0.1-1.5c0.1-2.2,0.2-4.4,0.3-6.6c4.4-1.1,6.3,0.1,6.7,4.4c0.2,2.1-0.2,4.1-0.4,6.2
		c-1.1,2.9-1.3,6.1-3.4,8.6c-2.7,3.2-5.1,6.6-9.1,8.4c-9.3,5.8-19.2,6.5-29.4,3.1C798.9,87.4,798.5,84.2,802.6,80.5z"/>
	<path class="st81" d="M802.6,80.5c-2.7,6,0.2,9.2,8.5,9.9c7.9,0.6,15.4-0.7,22.5-4.2c-6.3,5.7-14,6.1-21.8,5.6
		c-4.4-0.3-8.7-1.5-12.6-4c-0.9-0.6-1.7-1.4-2.6-2.1c-4.4-3.7-4.4-5.6,0-9.5C798.7,77.6,800.6,79.1,802.6,80.5z"/>
	<path class="st82" d="M842.7,77.7c0.9-2.8,1.7-5.6,2.6-8.4c1.5-4.9,0.2-9.7-0.7-14.6c-0.6-3.4-4-1.6-5.7-2.9
		c-0.8-1.9-1.6-3.9-2.4-5.8c2.2,0.7,4-2.8,6.5-0.4c3,2.8,4.8,5.9,5,10c0.2,6.2,0.1,12.4-2.4,18.2C844.7,75.3,844.6,77.1,842.7,77.7z
		"/>
	<path class="st83" d="M796.8,76.2c-0.2,0.5-0.2,1.2-0.5,1.5c-3.1,2.7-2,5,0.6,7.2c0.9,0.8,1.6,1.9,2.5,2.8c-4.4-2-8.4-4.4-9.4-9.9
		c-0.6-3.4,0.5-5.2,3.8-6C794.7,73.3,795.7,74.8,796.8,76.2z"/>
	<path class="st84" d="M374.3,67.7c0-5.3,0-10.6,0-15.9c4.1-1.1,5.6-0.6,5.8,2.5c0.4,6.9,0.2,13.8,0.4,20.7c0,0.7-0.2,1.4-0.6,2
		c-0.8,1.3-1.9,2.2-3.6,2.5c-6.1,1.1-12.2,1.2-18.3,0.1c0,0,0.2-0.3,0.2-0.3c2.3-1.4,4.9-0.5,7.3-0.7c2.5-0.2,5,0.3,7.5-0.2
		c5.3-0.9,6.2-3.3,3-7.5C375.3,69.9,374.7,68.9,374.3,67.7z"/>
	<path class="st85" d="M379.9,77c-0.4-7.3-1.3-14.7-0.8-22c0.2-4.1-2.7-2.9-4.8-3.2c0-0.5,0-1.1,0-1.6c7.3,0.1,7.3,0.1,7.3,7.5
		c0,4.8,0,9.6,0,14.4C381.6,73.9,381.5,75.7,379.9,77z"/>
	<path class="st76" d="M890.5,30.9c0.3-0.3,0.6-0.6,0.9-0.9c1.7,16.6,0.5,33.3,0.8,50c0,2,0.5,3.8,1.2,5.7c0.3,0.7,0.9,1.2,1.6,0.9
		c0.6-0.2,1.3-0.7,1.5-1.3c0.7-1.6,0.6-1.7,2.1-1.8c0.7,1.1,2,0.7,3,1.2c-2.8,5.5-2.7,5.4,3.3,5.6c6.5,0.2,13.1-0.9,19.5,0.9
		c1.6,0.4,2.5-1,3.5-1.9c1.5-1.3,3-2.7,5.4-4.9c0,7.8,0.1,14.7,0,21.5c0,2.5-2.2,1.6-3.5,1.6c-14.1,0.1-28.1,0-42.2,0
		c-4.9,0-9.7,0-14.6-0.1c0-0.1,0-0.3,0.1-0.4c5.5-4.8,5.6-10.7,5.1-17.5c-0.8-12.2,0.1-24.5-0.3-36.7c-0.3-8.3,2.8-14.3,9.4-18.9
		C888.6,33.4,889.9,32.5,890.5,30.9z"/>
	<path class="st29" d="M252.5,141.1c-3.5-3.8-8.2-3.7-14.2,0.4c0.2-2-0.5-3.1-2.5-2.8c-1.1,0.2-1.2,0.9-1.2,1.8
		c0.1,8.6,0.2,17.2,0.3,25.8c0,1.2-0.2,2.5,1.8,2.6c1.9,0.1,1.9-1.2,1.9-2.5c0-2.6,0-5.3,0-8.4c6,3.7,10.9,3.3,14.2-0.8
		C256.2,153.1,256.1,145.1,252.5,141.1z M245.1,157.8c-3.8,0.2-6.5-3.2-6.5-7.9c0-4.9,2.8-8.6,6.5-8.5c3.4,0.1,6.1,3.6,6.2,8
		C251.3,154.1,248.7,157.7,245.1,157.8z"/>
	<path class="st51" d="M806.8,16.8c6.1-1.4,12.3-1.4,18.4,0C819.1,16.8,813,16.8,806.8,16.8z"/>
	<path class="st38" d="M795,138.6c-4-0.7-7.5,0.2-9.9,3.7c-2.8,4.1-3.1,8.6-1.1,13.1c1.9,4.2,5.5,5.6,9.4,5.4c1.4-0.1,2.2,0,3-0.2
		c1.5-0.2,4,0,3.8-2.1c-0.3-3-2.6-0.9-3.9-0.7c-4.5,0.5-8.2-1.2-9.3-4.6c-0.6-1.8-0.4-2.9,1.9-2.8c3.5,0.1,7,0.1,10.4,0
		c1,0,2.1,0.3,2.5-1.4C802.8,144.7,799.4,139.4,795,138.6z M797.6,145.7c-0.4,3.5-3.8,0.6-5.6,1.9c-1.6-1-4.2,1.2-5-1.4
		c-0.6-2,3.1-4.9,5.7-4.9C795.8,141.2,797.9,143.1,797.6,145.7z"/>
	<path class="st38" d="M708,138.6c-4-0.7-7.5,0.2-9.9,3.7c-2.8,4.1-3.1,8.6-1.2,13.1c1.8,4.2,5.5,5.7,9.2,5.4c1.5-0.1,2.4,0,3.2-0.2
		c1.6-0.2,4,0,3.8-2.1c-0.2-3.1-2.6-1-3.8-0.8c-4.5,0.6-8.2-1.1-9.3-4.5c-0.6-1.8-0.6-2.9,1.9-2.8c3.5,0.1,7,0.1,10.4,0
		c1,0,2.1,0.4,2.5-1.3C715.8,144.8,712.4,139.4,708,138.6z M710.6,145.7c-0.3,3.6-3.8,0.6-5.5,2c-1.6-1.2-4.9,1.4-4.8-1.8
		c0-2.6,2.3-4.6,5.4-4.6C708.7,141.2,710.8,143,710.6,145.7z"/>
	<path class="st27" d="M546.4,138.5c-5.3,0.8-8.4,4.9-8.5,11.1c-0.1,8.9,8.5,14.3,16.3,10.4c0.7-0.4,1.6-0.6,1.2-1.8
		c-0.3-0.9-1-1.3-1.9-1.1c-1.1,0.2-2.2,0.6-3.3,0.7c-3.4,0.2-6.4-0.7-7.9-4.2c-0.9-2-1-3.4,2-3.3c3.3,0.2,6.7,0,10,0.1
		c1.6,0,2.6-0.2,2.7-2.2C557.4,142,552.7,137.6,546.4,138.5z M552.8,145.7c-0.3,3.5-3.7,0.7-5.4,1.9c-1.6-1.1-4.9,1.4-5-1.7
		c-0.1-2.7,2.2-4.7,5.4-4.6C550.8,141.3,553.1,143.1,552.8,145.7z"/>
	<path class="st27" d="M370.4,138.4c-6.4-0.6-10.9,3.9-11.1,11.1c-0.3,6.9,4,11.3,11.5,11.3c1.2-0.2,2.9-0.3,4.5-0.7
		c0.8-0.2,2-0.4,1.6-1.9c-0.4-1.4-1.2-1.3-2.2-1c-1.1,0.2-2.2,0.6-3.3,0.6c-3.7,0.1-6.6-1.2-7.8-4.9c-0.6-1.6-0.3-2.6,1.8-2.5
		c3.5,0.1,7,0,10.4,0c1.2,0,2.4,0.2,2.7-1.7C379.1,143.8,375.5,138.9,370.4,138.4z M374.4,146c-1,3-3.8,0.6-5.7,1.6
		c-1.6-1-4.8,1.3-4.9-1.6c-0.1-2.6,2.2-4.6,5.4-4.7C371.9,141.2,375.1,143.8,374.4,146z"/>
	<path class="st27" d="M289.4,138.7c-4-0.9-7.6-0.2-10.1,3.2c-3,4.1-3.4,8.8-1.4,13.4c1.7,4.1,5.3,5.5,10.6,5.5
		c0.9-0.1,2.8-0.4,4.7-0.8c0.8-0.2,1.7-0.5,1.2-1.7c-0.3-0.9-0.9-1.4-1.9-1.2c-1.1,0.2-2.2,0.6-3.3,0.7c-4.1,0.4-7.2-1.6-8.2-4.9
		c-0.6-1.7-0.4-2.6,1.7-2.5c3.5,0.1,7,0.1,10.5,0c1,0,2.2,0.4,2.6-1.3C296.6,145.1,293.5,139.6,289.4,138.7z M291.6,145.8
		c-0.3,3.5-3.6,0.6-5.3,1.8c-1.8-0.9-4.5,1.2-5.3-1.5c-0.7-2.1,3-4.9,5.7-4.9C289.7,141.3,291.8,143.2,291.6,145.8z"/>
	<path class="st86" d="M508.2,151.9c-0.4-3.4-3.1-5.9-7.4-5.8c-3.9,0.1-6.2-0.5-5.3-5.1c0.3-1.3,0.1-2.4-1.9-2.4
		c-1.7,0-2.2,0.7-2.1,2.3c0.1,2.9,0,5.8,0,8.7c0,2.8,0,5.6,0,8.3c0,1.4,0.2,2.5,1.9,2.5c2.9-0.1,5.8,0.4,8.7-0.4
		C506.7,158.7,508.7,156.1,508.2,151.9z M498.2,157.9c-4.1,0.2-2.3-2.8-2.8-4.6c0.3-2-1.1-4.9,2.9-4.6c3,0.2,5.7,0.8,6.1,4.3
		C504.7,155.7,501.8,157.7,498.2,157.9z"/>
	<path class="st87" d="M374.3,67.7c2.2,2.2,5.8,4.2,4.4,7.7c-1.5,3.7-5.5,4.1-9.3,4c-3.7-0.1-7.5-0.1-11.2-0.1
		c-0.3-0.6-0.6-1.1-0.8-1.7c4.8,0,9.7,0.1,14.5,0c1.9,0,4.1-0.3,5.1-2.1c1.1-1.9-1-2.9-2-4.1C374,70.4,374.1,69.1,374.3,67.7z"/>
	<path class="st29" d="M920.3,152.1c-0.5-3.5-3.2-6-7.4-5.9c-4,0.1-6.4-0.6-5.5-5.3c0.2-1.2-0.1-2.1-1.7-2.2
		c-1.8-0.1-2.1,0.8-2.1,2.3c0.1,2.9,0,5.8,0,8.8c0,2.8,0,5.6,0,8.3c0,1.4,0.2,2.5,2,2.4c2.9-0.1,5.8,0.4,8.7-0.5
		C918.6,158.6,920.8,155.8,920.3,152.1z M910.2,157.9c-3.6,0.2-2.7-2.4-2.7-4.3c-0.1-4.8-0.1-4.8,3.3-4.9c2.6,0.2,5.3,0.7,5.6,4.3
		C916.6,155.9,913.8,157.7,910.2,157.9z"/>
	<path class="st88" d="M628.5,88.6c-0.5,0-1.1,0-1.6,0.1c-3.3,1.2-6.7,1.3-10.2,1.2c-1.7-0.1-3.8,0.5-4.6-1.8
		c-0.7-2.1,0.7-3.3,2.1-4.5c4.9,0,9.7,0.1,14.3-2c6.6-3,10.9-8,13.2-14.7c4.1-0.9,5.6,0.6,4.4,4.4c-2.3,7.1-6.8,12.2-13.6,15.4
		C631.3,87.4,629.9,88,628.5,88.6z"/>
	<path class="st89" d="M614.3,83.6c-2.4,5.7-2.2,5.9,4.4,5.8c2.7-0.1,5.5-0.5,8.2-0.7c-4.4,2.7-17.3,2.2-21.3-0.9
		c-1.5-1.2-3.1-2.6-1.2-4.8c0.7-0.8,0.7-1.7,0.7-2.7C608.1,81.4,611.2,82.5,614.3,83.6z"/>
	<path class="st90" d="M628.5,88.6c3-2.3,6.6-3.5,9.5-5.9c3.5-2.9,5.9-6.5,7.3-10.8c1.2-3.5,0.1-5-3.5-4.9c0.3-2.2,0.6-4.5,1-6.7
		c2.9-2.1,5-1.4,5.3,2c0.3,3.3,0.1,6.6-1.2,9.7c-0.3,0.9-0.5,1.7-0.8,2.6c-3.4,5.6-7.4,10.5-13.7,13.1
		C631.2,88.1,630,88.8,628.5,88.6z"/>
	<path class="st91" d="M646.9,71.9c-0.1-2.9,1.3-5.6,0.8-8.6c-0.5-3-1.6-4.7-5-3.1c-0.3-2.8-0.6-5.5-0.9-8.3
		c4.4-1.1,6.7,0.3,6.6,4.8C648.5,61.8,650,67.1,646.9,71.9z"/>
	<path class="st92" d="M839.4,65.1c0.1,0.3,0.1,0.6,0.3,0.8c4,3.6,4.2,5.6,1.3,10.5c-5.2,8.7-17.6,14.5-28,13
		c-3.2-0.5-3.5-2-1.1-5.8c8.5,0.5,16.1-1.5,22.1-8C836.8,72.6,838,68.8,839.4,65.1z"/>
	<path class="st93" d="M838.8,51.8c5.8-1.5,7.2-0.5,7.3,5.5c0.1,4,1.1,8.1-0.9,11.9c0-1.4,0.1-2.8,0.1-4.2c0-5.9-0.2-6.1-5.6-6.6
		C839.4,56.3,839.1,54.1,838.8,51.8z"/>
</g>
</svg>
