<?xml version="1.0" encoding="utf-8"?>
<!-- Generator: Adobe Illustrator 26.4.1, SVG Export Plug-In . SVG Version: 6.00 Build 0)  -->
<svg version="1.1" id="Слой_1" xmlns="http://www.w3.org/2000/svg" xmlns:xlink="http://www.w3.org/1999/xlink" x="0px" y="0px"
	 viewBox="0 0 852.7 181" style="enable-background:new 0 0 852.7 181;" xml:space="preserve">

<g id="Слой_x0020_1">
	<path class="st0" d="M248.7,143.5v4.5h-9.1v22.3H235V148h-9.1v-4.5H248.7z M841.4,156.5h6.6v-8.6h-6.6c-1.3,0-2.4,0.4-3.4,1.2
		c-0.9,0.8-1.4,1.8-1.4,3.2c0,1.3,0.5,2.3,1.4,3.1C838.9,156.1,840.1,156.5,841.4,156.5z M852.6,143.5v26.8H848v-9.6h-3.9l-7.5,9.6
		H831l7.8-9.9c-2-0.5-3.6-1.5-4.9-3c-1.3-1.5-1.9-3.2-1.9-5.2c0-2.5,0.9-4.5,2.6-6.2c1.8-1.6,3.9-2.5,6.6-2.5L852.6,143.5
		L852.6,143.5z M812.7,143.5h3.7v26.8h-4.6v-18.8L797,170.3h-3.7v-26.8h4.6v18.8L812.7,143.5z M772.5,143.5h4.7v26.8h-4.7v-11.2
		h-13.9v11.2h-4.7v-26.8h4.7v11.1h13.9V143.5z M723.6,166.5c2.7,0,5-0.9,6.8-2.8c1.8-1.8,2.7-4.1,2.7-6.8c0-2.7-0.9-5-2.7-6.8
		c-1.8-1.8-4.1-2.8-6.8-2.8c-2.7,0-4.9,0.9-6.7,2.8c-1.8,1.8-2.7,4.1-2.7,6.8c0,2.7,0.9,5,2.7,6.8
		C718.7,165.6,720.9,166.5,723.6,166.5z M733.1,143.5h4.7v26.8h-4.7v-4.6c-2.3,3.5-5.7,5.3-10.1,5.3c-3.7,0-6.9-1.4-9.6-4.1
		c-2.6-2.7-4-6.1-4-10c0-3.9,1.3-7.3,4-10c2.6-2.7,5.8-4.1,9.6-4.1c4.4,0,7.8,1.8,10.1,5.3V143.5L733.1,143.5z M694.8,143.5v26.8
		h-4.7V148h-13.9v22.3h-4.7v-26.8H694.8z M655.4,143.5v26.8h-4.5v-19.4l-8.5,13.7h-0.6l-8.5-13.7v19.4h-4.6v-26.8h5l8.4,13.5
		l8.4-13.5H655.4L655.4,143.5z M599.9,166.4c2.7,0,4.9-0.9,6.7-2.7c1.8-1.8,2.7-4.1,2.7-6.8c0-2.7-0.9-5-2.7-6.8
		c-1.8-1.8-4.1-2.7-6.7-2.7c-2.6,0-4.9,0.9-6.7,2.7c-1.8,1.8-2.7,4.1-2.7,6.8c0,2.7,0.9,5,2.7,6.8
		C595.1,165.5,597.3,166.4,599.9,166.4z M609.9,166.9c-2.7,2.7-6.1,4.1-10,4.1c-3.9,0-7.3-1.4-10-4.1c-2.7-2.7-4.1-6-4.1-10
		c0-4,1.4-7.3,4.1-10c2.7-2.7,6.1-4.1,10-4.1c3.9,0,7.3,1.4,10,4.1c2.7,2.7,4.1,6.1,4.1,10C614.1,160.9,612.7,164.2,609.9,166.9z
		 M576.4,170.3h-5.8l-12.2-12.7v12.7h-4.7v-26.8h4.7v11.8l11.6-11.8h6l-12.8,13L576.4,170.3L576.4,170.3z M503.9,156.5h6.6v-8.6
		h-6.6c-1.3,0-2.4,0.4-3.4,1.2c-0.9,0.8-1.4,1.8-1.4,3.2c0,1.3,0.5,2.3,1.4,3.1C501.4,156.1,502.6,156.5,503.9,156.5z M515.1,143.5
		v26.8h-4.6v-9.6h-3.9l-7.5,9.6h-5.7l7.8-9.9c-2-0.5-3.6-1.5-4.9-3c-1.2-1.5-1.9-3.2-1.9-5.2c0-2.5,0.9-4.5,2.6-6.2
		c1.7-1.6,3.9-2.5,6.6-2.5L515.1,143.5L515.1,143.5z M464.8,166.5c2.7,0,5-0.9,6.8-2.8c1.8-1.8,2.7-4.1,2.7-6.8c0-2.7-0.9-5-2.7-6.8
		c-1.8-1.8-4.1-2.8-6.8-2.8c-2.7,0-4.9,0.9-6.7,2.8c-1.8,1.8-2.7,4.1-2.7,6.8c0,2.7,0.9,5,2.7,6.8
		C459.8,165.6,462.1,166.5,464.8,166.5z M474.3,143.5h4.7v26.8h-4.7v-4.6c-2.3,3.5-5.7,5.3-10.1,5.3c-3.7,0-6.9-1.4-9.6-4.1
		c-2.6-2.7-4-6.1-4-10c0-3.9,1.3-7.3,4-10c2.6-2.7,5.8-4.1,9.6-4.1c4.4,0,7.8,1.8,10.1,5.3V143.5L474.3,143.5z M429.2,166.1
		c1.4,0,2.4-0.3,3.1-1c0.7-0.6,1.1-1.6,1.1-2.7c0-1.1-0.4-2-1.1-2.6c-0.7-0.6-1.8-0.9-3.1-0.9h-8.6v7.2L429.2,166.1L429.2,166.1z
		 M428.1,147.7h-7.5v7h7.5c2.7,0,4.1-1.2,4.1-3.6C432.2,148.8,430.9,147.7,428.1,147.7L428.1,147.7z M433.9,156.5
		c2.7,1.1,4.1,3.2,4.1,6.2c0,2.2-0.7,4-2.2,5.4c-1.5,1.4-3.6,2.1-6.3,2.1h-13.4v-26.8h12.3c2.7,0,4.7,0.7,6.2,2
		c1.5,1.3,2.2,3.1,2.2,5.3C436.8,153.4,435.8,155.3,433.9,156.5L433.9,156.5z M387.3,166.4c2.7,0,4.9-0.9,6.7-2.7
		c1.8-1.8,2.7-4.1,2.7-6.8c0-2.7-0.9-5-2.7-6.8c-1.8-1.8-4.1-2.7-6.7-2.7c-2.6,0-4.9,0.9-6.7,2.7c-1.8,1.8-2.7,4.1-2.7,6.8
		c0,2.7,0.9,5,2.7,6.8C382.4,165.5,384.7,166.4,387.3,166.4z M397.3,166.9c-2.7,2.7-6.1,4.1-10,4.1c-3.9,0-7.3-1.4-10-4.1
		c-2.7-2.7-4.1-6-4.1-10c0-4,1.4-7.3,4.1-10c2.7-2.7,6.1-4.1,10-4.1c3.9,0,7.3,1.4,10,4.1c2.7,2.7,4.1,6.1,4.1,10
		C401.4,160.9,400.1,164.2,397.3,166.9z M362.6,143.5v4.5h-12.9v22.3h-4.7v-26.8C345.1,143.5,362.6,143.5,362.6,143.5z M316.3,166.5
		c2.7,0,4.9-0.9,6.7-2.8c1.8-1.8,2.7-4.1,2.7-6.8c0-2.7-0.9-5-2.7-6.8c-1.8-1.8-4.1-2.8-6.7-2.8c-2.7,0-5,0.9-6.8,2.8
		c-1.8,1.8-2.7,4.1-2.7,6.8c0,2.7,0.9,5,2.7,6.8C311.3,165.6,313.6,166.5,316.3,166.5z M316.9,142.8c3.7,0,6.9,1.4,9.6,4.1
		c2.6,2.7,4,6.1,4,10c0,3.9-1.3,7.3-4,10c-2.6,2.7-5.8,4.1-9.6,4.1c-4.4,0-7.8-1.8-10.1-5.3V181h-4.7v-37.5h4.7v4.6
		C309.1,144.6,312.5,142.8,316.9,142.8L316.9,142.8z M273.4,166.4c2.7,0,4.9-0.9,6.7-2.7c1.8-1.8,2.7-4.1,2.7-6.8
		c0-2.7-0.9-5-2.7-6.8c-1.8-1.8-4.1-2.7-6.7-2.7c-2.6,0-4.9,0.9-6.7,2.7c-1.8,1.8-2.7,4.1-2.7,6.8c0,2.7,0.9,5,2.7,6.8
		C268.5,165.5,270.7,166.4,273.4,166.4z M283.4,166.9c-2.7,2.7-6.1,4.1-10,4.1c-3.9,0-7.3-1.4-10-4.1c-2.7-2.7-4.1-6-4.1-10
		c0-4,1.4-7.3,4.1-10c2.7-2.7,6.1-4.1,10-4.1c3.9,0,7.3,1.4,10,4.1c2.7,2.7,4.1,6.1,4.1,10C287.5,160.9,286.1,164.2,283.4,166.9z"/>
	<path d="M299.8,35.5l-31,39.6c-1.1,1.5-3.4,1.5-4.5,0l-31-39.6c-0.4-0.5-1.1-0.9-1.8-0.9h-2c-1.2,0-2.3,1-2.3,2.3v76.5
		c0,1.6,1.3,2.9,2.9,2.9h10.7c1.6,0,2.9-1.3,2.9-2.9V81.7c0-2.7,3.4-3.9,5.1-1.8l14.2,17.8c0.5,0.7,1.4,1.1,2.2,1.1h2.6
		c0.9,0,1.7-0.4,2.2-1.1l14.2-17.8c1.7-2.1,5.1-0.9,5.1,1.8v31.7c0,1.6,1.3,2.9,2.9,2.9H303c1.6,0,2.9-1.3,2.9-2.9V36.9
		c0-1.2-1-2.3-2.3-2.3h-2C300.9,34.6,300.3,34.9,299.8,35.5L299.8,35.5z"/>
	<path class="st1" d="M335.3,78.5c0.4-1.2,1.7-5,5.5-7.7c6.1-4.4,13.5-2.4,15.8-1.2c1.5,0.8,2.6,1.8,2.6,1.8
		c0.9,0.8,1.6,1.6,2.1,2.6c-7.6,3.4-15.1,6.8-22.7,10.3c-2,0.9-4.3-0.7-4-2.8C334.8,80.5,335,79.5,335.3,78.5L335.3,78.5z
		 M352.6,103.6c-4.4,0-8-1-11-3.1c-1.2-0.8-2.3-1.8-3.1-3l13-5.8l25.3-11.4c1.2-0.5,1.9-1.8,1.7-3c-0.6-3.5-1.8-6.7-3.6-9.6
		c-1.1-1.8-2.4-3.4-3.9-4.9c-5.3-5.3-12.1-8-20.3-8c-8.7-0.2-16.1,2.9-22.3,9.1c-6.2,6.2-9.3,13.7-9.1,22.3
		c-0.2,8.8,3,16.2,9.4,22.4c6.4,6.2,14.3,9.2,23.5,9c8,0,15.3-2.5,22-7.4c1.2-0.9,1.4-2.5,0.7-3.8l-3.9-6.4c-0.8-1.3-2.6-1.8-3.9-1
		C362.5,102.1,357.7,103.6,352.6,103.6L352.6,103.6z"/>
	<path class="st1" d="M392.1,59v54.4c0,1.6,1.3,2.9,2.9,2.9h10.6c1.6,0,2.9-1.3,2.9-2.9V72.8c0-1.6,1.3-2.9,2.9-2.9h22.2
		c1.6,0,2.9-1.3,2.9-2.9V59c0-1.6-1.3-2.9-2.9-2.9H395C393.4,56.1,392.1,57.4,392.1,59L392.1,59z"/>
	<path class="st1" d="M512.1,59v54.4c0,1.6,1.3,2.9,2.9,2.9h10.6c1.6,0,2.9-1.3,2.9-2.9V72.8c0-1.6,1.3-2.9,2.9-2.9h15.7
		c1.6,0,2.9,1.3,2.9,2.9v40.6c0,1.6,1.3,2.9,2.9,2.9h10.7c1.6,0,2.9-1.3,2.9-2.9V59c0-1.6-1.3-2.9-2.9-2.9H515
		C513.4,56.1,512.1,57.4,512.1,59L512.1,59z"/>
	<path class="st1" d="M622.7,97.9c-3,3.1-6.7,4.6-11.1,4.6c-4.5,0-8.3-1.5-11.2-4.6c-2.9-3.1-4.4-7-4.4-11.7c0-4.8,1.5-8.7,4.4-11.8
		c2.9-3.1,6.6-4.7,11.2-4.7c4.5,0,8.2,1.6,11.1,4.7c2.9,3.2,4.4,7.1,4.4,11.8C627.2,91,625.7,94.8,622.7,97.9z M634.5,63.9
		c-6.4-6.2-14.1-9.3-22.9-9.1c-8.8-0.2-16.4,2.9-22.8,9.1c-6.4,6.2-9.5,13.6-9.4,22.2c-0.2,8.6,2.9,16,9.3,22.3
		c6.4,6.3,13.9,9.3,22.8,9.2c8.8,0.2,16.5-2.9,23-9.2c6.5-6.3,9.6-13.7,9.5-22.3C644.1,77.5,641,70.1,634.5,63.9L634.5,63.9z"/>
	<path class="st1" d="M664.8,56.1c-1.6,0-2.8,1.3-2.9,2.8l-0.1,11.5c-0.2,11.8-1,20.2-2.4,25.2c-1.4,4.9-3.8,7.4-7.1,7.4
		c-0.7,0-1.5-0.1-2.3-0.3l0,11.3c0,1.3,0.9,2.5,2.2,2.8c1.2,0.3,2.6,0.4,4,0.4c7.4-0.2,12.7-3.4,15.7-9.8c3-6.4,4.8-17.3,5.2-33
		l0-1.8c0-1.5,1.3-2.8,2.9-2.8h10.5c1.6,0,2.9,1.3,2.9,2.9v40.6c0,1.6,1.3,2.9,2.9,2.9h10.6c1.6,0,2.9-1.3,2.9-2.9V59
		c0-1.6-1.3-2.9-2.9-2.9L664.8,56.1L664.8,56.1z"/>
	<path class="st1" d="M767.7,55.9L748.2,82c-1.6,2.2-5.1,1-5.1-1.7V59c0-1.6-1.3-2.9-2.9-2.9h-10.6c-1.6,0-2.9,1.3-2.9,2.9v55.9
		c0,1.6,1.3,2.9,2.9,2.9h9c0.9,0,1.7-0.4,2.3-1.1l19.6-26c1.7-2.2,5.1-1,5.1,1.7v21.1c0,1.6,1.3,2.9,2.9,2.9h10.7
		c1.6,0,2.9-1.3,2.9-2.9V57.6c0-1.6-1.3-2.9-2.9-2.9H770C769.1,54.8,768.3,55.2,767.7,55.9z"/>
	<path class="st1" d="M827.7,102.6c-4.6,0-8.4-1.5-11.4-4.7c-3-3.1-4.5-7.1-4.5-11.8c0-4.7,1.5-8.6,4.5-11.7
		c2.9-3.1,6.7-4.7,11.4-4.7c4.8,0,9.1,2.2,12.8,6.6c1,1.2,2.7,1.3,3.9,0.4l7.1-5.5c1.2-0.9,1.5-2.6,0.7-3.8
		c-5.6-8.4-13.9-12.6-24.8-12.6c-9,0-16.6,3-22.9,9.1c-6.2,6.1-9.3,13.5-9.3,22.2c-0.2,8.7,3,16.1,9.3,22.4c6.4,6.3,14,9.3,22.9,9.2
		c5.7,0,10.9-1.3,15.4-3.9c3.8-2.2,6.9-5.1,9.4-8.8c0.8-1.2,0.5-2.9-0.7-3.8l-7.1-5.5c-1.2-0.9-2.9-0.8-3.9,0.4
		C836.9,100.5,832.6,102.6,827.7,102.6L827.7,102.6z"/>
	<path class="st1" d="M480.7,100.3c0,0.9-0.5,1.8-1.2,2.3c-1,0.7-2.4,1.4-4.1,2c-0.8,0.3-3.6,1.2-7.2,1c-1.9-0.1-4.3-0.3-6.3-1.8
		c-1.6-1.2-2.4-2.8-2.4-4.8c0,0,0-1.9,1-3.5c1.5-2.4,4.9-2.6,8-3.1c2.2-0.3,5.1-0.9,8.4-2c1.9-0.6,3.8,0.8,3.8,2.8
		C480.8,95.6,480.8,98,480.7,100.3L480.7,100.3z M490.3,61.5c-4.6-4.5-10.9-6.7-18.8-6.7c-9.7,0-17.9,3.5-24.6,10.5
		c-1,1-1,2.7-0.1,3.8l4.9,5.8c1,1.2,2.9,1.4,4.1,0.2c2-1.8,3.9-3.3,5.7-4.2c2.4-1.3,5.1-1.9,8.1-1.9c2.4,0,5.8,0.1,8.3,2.7
		c0.9,0.9,1.4,1.9,1.8,2.8c0.6,1.4-0.2,3.1-1.6,3.6c-5,1.9-9.2,3-12.3,3.6c-6.8,1.3-11.8,1.3-16.7,5.2c-2.5,1.9-3.7,3.9-4.2,4.8
		c-1.3,2.3-1.9,5-1.9,8c0,5.3,1.9,9.7,5.6,13c5.3,4.6,12.1,4.9,15.1,5c7.8,0.3,13.9-2.6,17-4.3v2.9h13.5c1.6,0,2.9-1.3,2.9-2.9V80.5
		C497.2,72.4,494.9,66,490.3,61.5L490.3,61.5z"/>
	<path class="st2" d="M167.2,153.8v21.7c0,3-2.4,5.5-5.5,5.5H5.5c-3,0-5.5-2.4-5.5-5.5v-21.7c0-3,2.4-5.5,5.5-5.5h78.1h78.1
		C164.8,148.3,167.2,150.8,167.2,153.8L167.2,153.8z"/>
	<path class="st2" d="M0,86.5V6.6C0,2.7,3.2,0,6.7,0h0c1.2,0,2.5,0.4,3.7,1.2L79.8,49c2.3,1.6,5.2,1.6,7.5,0l69.5-47.8
		c1.2-0.8,2.4-1.2,3.7-1.2h0c3.4,0,6.7,2.7,6.7,6.6v79.9c0,2.4-1.3,4.6-3.3,5.7l-77,44.1c-2,1.2-4.5,1.2-6.6,0l-77-44.1
		C1.3,91.1,0,88.9,0,86.5L0,86.5z"/>
	<path class="st3" d="M152.2,98.9l-65.3,37.4c-2,1.2-4.5,1.2-6.6,0l-77-44.1c-2-1.2-3.3-3.4-3.3-5.7V6.6c0-5.3,6-8.5,10.4-5.4
		l141.9,97.6C152.3,98.8,152.3,98.9,152.2,98.9L152.2,98.9z"/>
</g>
</svg>
